<?xml version="1.0" encoding="utf-8"?>
<!-- Generator: Adobe Illustrator 23.0.3, SVG Export Plug-In . SVG Version: 6.00 Build 0)  -->
<svg version="1.1"
	 id="Calque_1" xmlns:inkscape="http://www.inkscape.org/namespaces/inkscape" xmlns:sodipodi="http://sodipodi.sourceforge.net/DTD/sodipodi-0.dtd" xmlns:svg="http://www.w3.org/2000/svg"
	 xmlns="http://www.w3.org/2000/svg" xmlns:xlink="http://www.w3.org/1999/xlink" x="0px" y="0px" viewBox="0 0 597.5 720.3"
	 style="enable-background:new 0 0 597.5 720.3;" xml:space="preserve">
<style type="text/css">
	.st0{fill:#D1D0C6;}
	.st1{fill:none;stroke:#000000;stroke-width:0.747;stroke-linejoin:round;}
	.st2{stroke:#FFBA00;stroke-width:2;stroke-miterlimit:10;}
	.st3{fill:#FFBA00;}
	.st4{fill:#FFFFFF;stroke:#FFBA00;stroke-width:0.747;stroke-miterlimit:10;}
	.st5{fill:#F2F2F2;stroke:#CCCCCC;stroke-width:0.75;stroke-miterlimit:10;}
	.st6{fill:#808080;}
	.st7{fill:none;stroke:#FFFFFF;stroke-width:0.747;stroke-miterlimit:10;}
	.st8{fill:#999999;stroke:#FFFFFF;stroke-width:0.747;stroke-miterlimit:10;}
	.st9{fill:#F2F2F2;stroke:#FFFFFF;stroke-width:0.747;stroke-miterlimit:10;}
	.st10{fill:#1536FF;stroke:#FFFFFF;stroke-width:0.747;stroke-miterlimit:10;}
	.st11{fill:#FFE63F;}
	.st12{fill:none;}
	.st13{stroke:#FFFFFF;stroke-width:0.747;stroke-linecap:round;stroke-linejoin:round;}
	.st14{fill:#FFFFFF;}
	.st15{stroke:#FFFFFF;stroke-width:0.75;stroke-miterlimit:10;}
	.st16{fill:#945C00;stroke:#000000;stroke-width:0.5;stroke-linecap:round;stroke-linejoin:round;}
	.st17{fill:none;stroke:#FFFFFF;stroke-width:0.747;stroke-linejoin:round;}
	.st18{opacity:0.43;fill:#F8A800;enable-background:new    ;}
	.st19{fill:#ECECEC;stroke:#F2F2F2;stroke-width:0.3218;}
	.st20{fill:#1A4E7A;stroke:#333333;stroke-width:0.8418;}
	.st21{fill:none;stroke:#FFFFFF;stroke-width:0.9158;}
	.st22{fill:url(#rect5586_1_);stroke:#333333;stroke-width:0.7801;}
	.st23{fill:url(#rect5588_1_);stroke:#808080;stroke-width:0.765;}
	.st24{fill:url(#rect5590_1_);stroke:#333333;stroke-width:0.8418;}
	.st25{fill:url(#rect5592_1_);stroke:#B3B3B3;stroke-width:0.8418;}
	.st26{fill:#1A1A1A;fill-opacity:0.702;stroke:#333333;stroke-width:0.8418;}
	.st27{fill:none;stroke:#FFFFFF;stroke-width:0.8418;}
	.st28{fill:#F2F2F2;stroke:#B3B3B3;stroke-width:0.8418;}
	.st29{fill:#4D4D4D;fill-opacity:0.702;stroke:#999999;stroke-width:0.8418;}
	.st30{fill:url(#ellipse16430_1_);stroke:#1A1A1A;stroke-width:0.7918;}
	.st31{fill:url(#path5742_1_);stroke:#333333;stroke-width:0.8418;}
	.st32{fill:none;stroke:#ECECEC;stroke-width:0.3818;}
	.st33{font-family:'Calibri';}
	.st34{font-size:6.1273px;}
	.st35{fill:none;stroke:#F2F2F2;stroke-width:0.9637;}
	.st36{font-size:0.1297px;}
	.st37{font-size:15.8593px;}
	.st38{fill:none;stroke:#F2F2F2;stroke-width:0.8157;}
	.st39{font-size:4.9443px;}
	.st40{fill:none;stroke:#F2F2F2;stroke-width:0.7776;}
	.st41{fill:#333333;fill-opacity:0.702;stroke:#1A1A1A;stroke-width:0.8418;}
	.st42{fill:#ECECEC;stroke:#F2F2F2;stroke-width:0.5526;}
	.st43{fill:none;stroke:#EFEFEF;stroke-width:2.5421;}
	.st44{fill:none;stroke:#000000;stroke-width:2.5421;}
	.st45{fill:none;stroke:#FF0000;stroke-width:2.5421;}
	.st46{fill:none;stroke:#FFCC00;stroke-width:2.5421;}
	.st47{fill:#8C8C8C;}
	.st48{fill:#E60000;fill-opacity:0.302;}
	.st49{fill:#E6E6E6;fill-opacity:0.502;}
	.st50{fill:#D1D1D1;fill-opacity:0.902;}
	.st51{fill:#E60000;fill-opacity:0.702;}
	.st52{fill:#E60000;fill-opacity:0.251;}
	.st53{fill-rule:evenodd;clip-rule:evenodd;fill:#E6E6E6;fill-opacity:0.251;}
	.st54{fill-rule:evenodd;clip-rule:evenodd;fill:#E60000;fill-opacity:0.251;}
	.st55{fill:#666666;}
	.st56{fill:#E60000;fill-opacity:0.651;}
	.st57{fill:#FFFFFF;fill-opacity:0.502;}
	.st58{fill:none;stroke:#8C8C8C;stroke-width:2.6892;stroke-linecap:round;stroke-linejoin:round;stroke-miterlimit:10;}
	.st59{fill:#00FF00;fill-opacity:0.2;}
	.st60{fill:none;stroke:#8C0000;stroke-width:4;stroke-linecap:round;stroke-linejoin:bevel;stroke-miterlimit:10;}
	.st61{fill:none;stroke:#CC1414;stroke-width:2;stroke-linecap:round;stroke-linejoin:bevel;stroke-miterlimit:10;}
	.st62{fill-rule:evenodd;clip-rule:evenodd;fill:#00FF00;fill-opacity:0.2;}
	.st63{fill:none;stroke:#000000;stroke-width:4;stroke-linecap:round;stroke-linejoin:bevel;stroke-miterlimit:10;}
	.st64{fill:none;stroke:#404040;stroke-width:2;stroke-linecap:round;stroke-linejoin:bevel;stroke-miterlimit:10;}
	.st65{fill:#A0A0A0;}
	.st66{fill:#DCDCDC;}
	.st67{fill:#8C0000;}
	.st68{fill:#CC1414;}
	.st69{fill:#404040;}
</style>
<sodipodi:namedview  bordercolor="#666666" borderopacity="1.0" id="namedview438" inkscape:current-layer="Calque_1" inkscape:cx="1173.5198" inkscape:cy="1437.4214" inkscape:deskcolor="#d1d1d1" inkscape:pagecheckerboard="0" inkscape:pageopacity="0.0" inkscape:showpageshadow="2" inkscape:window-height="720" inkscape:window-maximized="0" inkscape:window-width="1280" inkscape:window-x="0" inkscape:window-y="0" inkscape:zoom="0.1780967" pagecolor="#ffffff" showgrid="false">
	<inkscape:page  height="720.3017" id="page7964" width="391.94159" x="0" y="0"></inkscape:page>
	<inkscape:page  height="357.33337" id="page7966" width="410.66666" x="-5.0184541" y="376.3017"></inkscape:page>
</sodipodi:namedview>
<path id="path13" class="st0" d="M126.8,15l0.5,17h-0.7c0-0.6-0.1-1.1-0.3-1.6c-0.3-0.6-1-0.8-0.8-1.4s1.1-1.5,0.8-2.3
	c-0.3-0.8-0.5-1.7-0.7-2.5c-0.3-0.8-0.3-1.7,0-2.5c0.3-0.7,0.9-1.5,1.1-2.2c0.2-0.6,0.2-1.3,0-2c-0.4-0.7-0.8-1.4-0.6-1.8
	C126.3,15.5,126.6,15.2,126.8,15z"/>
<path id="path15" class="st0" d="M122.4,15.9l-1.9,0.1c-0.6,0.6-1.2,1.2-1.9,1.8c-1.3,0.3-2.6,0.4-3.9,0.3c-1-0.5-2-1-2.9-1.5
	l-3.3-0.1c0,0-0.4,1.6-0.2,1.9c0.2,0.3,3.3,3.2,3.4,3.6c0.1,0.9,0.2,1.8,0.3,2.7c0.1,0.7,0.1,3.8,0.2,4.5s0.1,5.7,0.1,5.7l2.6,0.1
	c0,0-0.1-6.3-0.1-7c0-0.6,0-1.2,0.1-1.8c0.1-0.4,0.3-0.7,0.6-0.9c0.3-0.1,0.4-2,0.4-2.5c0.1-0.5,0.3-1,0.7-1.3
	c0.3-0.1,1.1-0.7,1.5-0.9c0.4-0.2,0.7-1.1,1.4-1.4c0.7-0.4,2-1.5,2.2-1.7C122.1,16.9,122.3,16.4,122.4,15.9z"/>
<path id="path17" class="st0" d="M123.6,15.6c0,0,1.3-0.5,1.5-0.1c0.2,0.4,0.9,2.5,0.5,2.9c-0.4,0.4-1.5,3.2-2.3,4.1
	c-0.8,1-1.1,0.8-1,4.8c0.1,4,0.4,7.4,0.4,7.4l-2.3,0.2c0,0-0.8-11.1-0.8-11.7c-0.1-0.7,0.1-1.5,0.6-2c0.7-0.7,3.2-2.7,3.4-3.2
	C123.6,17.2,123.7,16.4,123.6,15.6L123.6,15.6z"/>
<path id="path19" class="st0" d="M107.5,15.8c0,0-0.1,2.4-0.1,2.9c0.1,0.6,1.5,4.1,1.6,4.6s0.5,1,0.2,1.5c-0.3,0.4-0.7,0.6-0.9,1.3
	c-0.1,0.9,0,1.8,0.4,2.7c0.3,0.5,0.7,1.2,0.6,1.6c-0.2,0.5-0.4,0.9-0.8,1.3c-0.4,0.3-0.6,0.8-0.7,1.3c-0.1,0.5,0,1,0.1,1.4
	c0.1,0.4,0.3,0.9,0.5,1.3l-1.3,0.2V15.9L107.5,15.8z"/>
<polygon id="polygon23" class="st0" points="126.9,58 126,37.1 124.2,37.1 125,58 "/>
<polygon id="polygon25" class="st0" points="121.6,58 121.2,37.1 119.5,37.1 119.5,58 "/>
<polygon id="polygon27" class="st0" points="116.6,58 115.7,37 114,37 114.8,58 "/>
<polygon id="polygon29" class="st0" points="110.9,58 110.5,37.1 108.8,37.1 108.8,58 "/>
<path id="path33" class="st1" d="M104.9,37.3"/>
<path id="path35" d="M128.7,45.5h-22.6c-1.8-0.2-2-3.6-2-3.6l-2.6-18.7H10.2c-4.4,0-8,3.6-8,8.1v360.6c0,4.4,3.6,8,8,8.1h213.2
	c4.4,0,8-3.6,8-8.1V31.3c0-4.4-3.6-8-8-8.1h-90.1l-3.2,18.8l-0.4,2.4C129.7,45,129.3,45.4,128.7,45.5L128.7,45.5z"/>
<path id="path127" class="st2" d="M19,194.4"/>
<path id="path131" class="st2" d="M213.3,116.8"/>
<path id="path135" class="st3" d="M55.1,398.8v-26.7c-0.2-6.1,4.6-11.1,10.7-11.3c6.1-0.2,11.1,4.6,11.3,10.7c0,0.2,0,0.4,0,0.6v0.3
	"/>
<path id="path137" class="st3" d="M222.1,372.4v-0.3c0.2-6.1-4.6-11.1-10.7-11.3s-11.1,4.6-11.3,10.7c0,0.2,0,0.4,0,0.6v17.6v0.7
	v8.4"/>
<polyline id="polyline139" class="st3" points="222.1,372.2 222.1,386.9 222.1,389.9 222.1,398.7 200.1,398.8 "/>
<circle id="circle141" class="st4" cx="66.5" cy="371.5" r="8.3"/>
<polyline id="polyline143" class="st3" points="77.2,372.2 77.2,386.9 77.2,389.9 77.2,398.7 55.2,398.8 "/>
<path id="path145" class="st3" d="M32.7,372.4c0-0.1,0-0.2,0-0.3c0-6.1-4.9-11-11-11s-11,4.9-11,11c0,0,0,0,0,0c0,0.1,0,0.2,0,0.3
	v26.4"/>
<path id="path147" class="st5" d="M2,77.5c0,0-1-0.1-1.2,0.1c-0.3,0.3-0.5,0.7-0.5,1.1c0,0.9-0.1,7.2-0.1,8.6c0,1.4,0,6.7,0.1,7.5
	s0,2,0.1,2.9c0.1,0.6,0.3,1.1,0.6,1.6c0,0,0.8,0.5,0.9,0.6"/>
<path id="path149" class="st3" d="M41.8,374.6h1.6c0.1,0,0.2,0.1,0.2,0.2v23.7c0,0.1-0.1,0.2-0.2,0.2c0,0,0,0,0,0h-4.2
	c-0.1,0-0.2-0.1-0.2-0.2l0,0v-23.7c0-0.1,0.1-0.2,0.2-0.2c0,0,0,0,0,0h1.4v-0.6h1.2L41.8,374.6z"/>
<path id="path151" class="st3" d="M47.2,374.6h1.6c0.1,0,0.2,0.1,0.2,0.2l0,0v23.7c0,0.1-0.1,0.2-0.2,0.2c0,0,0,0,0,0h-4.2
	c-0.1,0-0.2-0.1-0.2-0.2c0,0,0,0,0,0v-23.7c0-0.1,0.1-0.2,0.2-0.2c0,0,0,0,0,0h1.4v-0.6h1.2L47.2,374.6z"/>
<path id="path153" class="st3" d="M52.5,374.6h1.6c0.1,0,0.2,0.1,0.2,0.2c0,0,0,0,0,0v23.7c0,0.1-0.1,0.2-0.2,0.2l0,0h-4.2
	c-0.1,0-0.2-0.1-0.2-0.2c0,0,0,0,0,0v-23.7c0-0.1,0.1-0.2,0.2-0.2h1.4v-0.6h1.2L52.5,374.6z"/>
<path id="path155" class="st3" d="M91.8,374.6h1.6c0.1,0,0.2,0.1,0.2,0.2c0,0,0,0,0,0v23.7c0,0.1-0.1,0.2-0.2,0.2h0h-4.2
	c-0.1,0-0.2-0.1-0.2-0.2c0,0,0,0,0,0v-23.7c0-0.1,0.1-0.2,0.2-0.2l0,0h1.4v-0.6h1.2L91.8,374.6z"/>
<path id="path157" class="st3" d="M97.3,374.6h1.6c0.1,0,0.2,0.1,0.2,0.2c0,0,0,0,0,0v23.7c0,0.1-0.1,0.2-0.2,0.2h0h-4.2
	c-0.1,0-0.2-0.1-0.2-0.2c0,0,0,0,0,0v-23.7c0-0.1,0.1-0.2,0.2-0.2H96v-0.6h1.2L97.3,374.6z"/>
<path id="path159" class="st3" d="M81.5,374.6h1.1c0.1,0,0.2,0.1,0.2,0.2c0,0,0,0,0,0v23.7c0,0.1-0.1,0.2-0.2,0.2l0,0h-4.2
	c-0.1,0-0.2-0.1-0.2-0.2l0,0v-23.7c0-0.1,0.1-0.2,0.2-0.2c0,0,0,0,0,0h1v-0.6h2.2L81.5,374.6z"/>
<path id="path161" class="st3" d="M9.9,398.2v-23.7c0-0.1-0.1-0.2-0.2-0.2c0,0,0,0,0,0H5.4c-0.1,0-0.2,0.1-0.2,0.2l0,0V393
	C5.2,393,6,395.5,9.9,398.2L9.9,398.2z"/>
<path id="path163" class="st3" d="M223,398.2v-23.7c0-0.1,0.1-0.2,0.2-0.2c0,0,0,0,0,0h4.2c0.1,0,0.2,0.1,0.2,0.2l0,0V393
	C227.7,393,226.8,395.5,223,398.2L223,398.2z"/>
<path id="path165" class="st3" d="M86.4,374.6H88c0.1,0,0.2,0.1,0.2,0.2c0,0,0,0,0,0v23.7c0,0.1-0.1,0.2-0.2,0.2h0h-4.2
	c-0.1,0-0.2-0.1-0.2-0.2c0,0,0,0,0,0v-23.7c0-0.1,0.1-0.2,0.2-0.2l0,0h1.4v-0.6h1.2L86.4,374.6z"/>
<path id="path167" class="st3" d="M102.7,374.6h1.6c0.1,0,0.2,0.1,0.2,0.2v23.7c0,0.1-0.1,0.2-0.2,0.2c0,0,0,0,0,0h-4.2
	c-0.1,0-0.2-0.1-0.2-0.2c0,0,0,0,0,0v-23.7c0-0.1,0.1-0.2,0.2-0.2h0h1.4v-0.6h1.2L102.7,374.6z"/>
<path id="path169" class="st3" d="M142.1,374.6h1.6c0.1,0,0.2,0.1,0.2,0.2l0,0v23.7c0,0.1-0.1,0.2-0.2,0.2c0,0,0,0,0,0h-4.2
	c-0.1,0-0.2-0.1-0.2-0.2c0,0,0,0,0,0v-23.7c0-0.1,0.1-0.2,0.2-0.2l0,0h1.4v-0.6h1.2L142.1,374.6z"/>
<path id="path171" class="st3" d="M147.6,374.6h1.6c0.1,0,0.2,0.1,0.2,0.2l0,0v23.7c0,0.1-0.1,0.2-0.2,0.2c0,0,0,0,0,0h-4.2
	c-0.1,0-0.2-0.1-0.2-0.2c0,0,0,0,0,0v-23.7c0-0.1,0.1-0.2,0.2-0.2l0,0h1.4v-0.6h1.2L147.6,374.6z"/>
<path id="path173" class="st3" d="M131.9,374.6h0.9c0.1,0,0.2,0.1,0.2,0.2c0,0,0,0,0,0v23.7c0,0.1-0.1,0.2-0.2,0.2h0h-4.2
	c-0.1,0-0.2-0.1-0.2-0.2c0,0,0,0,0,0v-23.7c0-0.1,0.1-0.2,0.2-0.2l0,0L131.9,374.6z"/>
<path id="path175" class="st3" d="M136.7,374.6h1.6c0.1,0,0.2,0.1,0.2,0.2l0,0v23.7c0,0.1-0.1,0.2-0.2,0.2c0,0,0,0,0,0H134
	c-0.1,0-0.2-0.1-0.2-0.2c0,0,0,0,0,0v-23.7c0-0.1,0.1-0.2,0.2-0.2l0,0h1.4v-0.6h1.2L136.7,374.6z"/>
<path id="path177" class="st3" d="M153,374.6h1.6c0.1,0,0.2,0.1,0.2,0.2l0,0v23.7c0,0.1-0.1,0.2-0.2,0.2c0,0,0,0,0,0h-4.2
	c-0.1,0-0.2-0.1-0.2-0.2c0,0,0,0,0,0v-23.7c0-0.1,0.1-0.2,0.2-0.2l0,0h1.4v-0.6h1.2V374.6z"/>
<path id="path179" class="st3" d="M33.4,390.1v8.5c0,0.1,0.1,0.2,0.2,0.2c0,0,0,0,0,0h4.2c0.1,0,0.2-0.1,0.2-0.2c0,0,0,0,0,0v-23.7
	c0-0.1-0.1-0.2-0.2-0.2h-1.6v-0.6H35v0.6h-1.4c-0.1,0-0.2,0.1-0.2,0.2L33.4,390.1z"/>
<path id="path181" class="st3" d="M186.7,374.6h1.6c0.1,0,0.2,0.1,0.2,0.2l0,0v23.7c0,0.1-0.1,0.2-0.2,0.2c0,0,0,0,0,0H184
	c-0.1,0-0.2-0.1-0.2-0.2l0,0v-23.7c0-0.1,0.1-0.2,0.2-0.2c0,0,0,0,0,0h1.4v-0.6h1.2L186.7,374.6z"/>
<path id="path183" class="st3" d="M192.1,374.6h1.6c0.1,0,0.2,0.1,0.2,0.2l0,0v23.7c0,0.1-0.1,0.2-0.2,0.2c0,0,0,0,0,0h-4.2
	c-0.1,0-0.2-0.1-0.2-0.2c0,0,0,0,0,0v-23.7c0-0.1,0.1-0.2,0.2-0.2l0,0h1.4v-0.6h1.2L192.1,374.6z"/>
<path id="path185" class="st3" d="M197.5,374.6h1.6c0.1,0,0.2,0.1,0.2,0.2l0,0v23.7c0,0.1-0.1,0.2-0.2,0.2c0,0,0,0,0,0h-4.2
	c-0.1,0-0.2-0.1-0.2-0.2c0,0,0,0,0,0v-23.7c0-0.1,0.1-0.2,0.2-0.2l0,0h1.4v-0.6h1.2L197.5,374.6z"/>
<path id="path187" class="st3" d="M178.4,390.1v8.5c0,0.1,0.1,0.2,0.2,0.2c0,0,0,0,0,0h4.3c0.1,0,0.2-0.1,0.2-0.2l0,0v-23.7
	c0-0.1-0.1-0.2-0.2-0.2c0,0,0,0,0,0h-1.6v-0.6H180v0.6h-1.4c-0.1,0-0.2,0.1-0.2,0.2l0,0L178.4,390.1L178.4,390.1z"/>
<circle id="circle189" class="st4" cx="22" cy="371.5" r="8.3"/>
<polyline id="polyline191" class="st3" points="32.7,372.2 32.7,386.9 32.7,389.9 32.7,398.7 10.7,398.8 "/>
<path id="path193" class="st3" d="M127.5,372.4c0-0.1,0-0.2,0-0.3c0-6.1-4.9-11-11-11c-6.1,0-11,4.9-11,11c0,0,0,0,0,0
	c0,0.1,0,0.2,0,0.3c0,0.3,0,0.6,0,0.9v25.5"/>
<polyline id="polyline195" class="st3" points="127.5,372.2 127.5,386.9 127.5,389.9 127.5,398.7 105.5,398.8 "/>
<path id="path197" class="st3" d="M177.6,372.4v-0.3c0-6.1-4.9-11-11-11c-6.1,0-11,4.9-11,11c0,0.1,0,0.2,0,0.3v26.4"/>
<polyline id="polyline199" class="st3" points="177.6,372.2 177.6,386.9 177.6,389.9 177.6,398.7 155.6,398.8 "/>
<circle id="circle201" class="st4" cx="116.8" cy="371.5" r="8.3"/>
<circle id="circle203" class="st4" cx="167" cy="371.5" r="8.3"/>
<circle id="circle205" class="st4" cx="211.5" cy="371.5" r="8.3"/>
<rect id="rect207" x="223.1" y="51.8" class="st6" width="5.2" height="5.2"/>
<rect id="rect209" x="223.1" y="29.6" class="st6" width="5.2" height="5.2"/>
<rect id="rect211" x="186.5" y="51.6" class="st6" width="5.2" height="5.2"/>
<rect id="rect213" x="185.9" y="30" class="st6" width="5.9" height="5.9"/>
<path id="path215" class="st7" d="M201.2,27.8"/>
<path id="path217" class="st8" d="M212.5,57.3"/>
<path id="path219" class="st9" d="M200.7,29.1H193v9h-1.5v9.7l1.5,0.1v9.6h6.5h0.2c0.1,0,0.2-0.1,0.3-0.2c0.1-0.2,0.3-0.7,0.5-0.8
	c0.4,0,0.7,0.1,1,0.4c0.2,0.2,0.5,0.4,0.8,0.6l0.1,0h9.2h0.1c0.3-0.2,0.6-0.3,0.8-0.6c0.3-0.3,0.6-0.4,1-0.4c0.2,0,0.4,0.6,0.5,0.8
	c0.1,0.1,0.1,0.1,0.2,0.2h0.1h6.8V29.1h-7.9"/>
<line id="line221" class="st7" x1="200.8" y1="29.1" x2="200.7" y2="29.1"/>
<path id="path223" class="st8" d="M200.8,29.1h0.4l0-0.4c0.2-0.5,0.8-0.8,1.3-0.7h9.7c0.6,0,1.1,0.5,1.2,1v0.1"/>
<circle id="circle225" class="st10" cx="207.4" cy="42.7" r="7.1"/>
<path id="rect227" class="st7" d="M170,226.4h39.4c3.9,0,7,3.1,7,7v38.9c0,3.9-3.1,7-7,7H170c-3.9,0-7-3.1-7-7v-38.9
	C163.1,229.5,166.2,226.4,170,226.4z"/>
<path id="rect229" class="st9" d="M170.9,229.7h37.4c2.3,0,4.2,1.9,4.2,4.2v37.3c0,2.3-1.9,4.2-4.2,4.2h-37.4
	c-2.3,0-4.2-1.9-4.2-4.2v-37.3C166.6,231.6,168.5,229.7,170.9,229.7z"/>
<a id="a3069" xlink:href="#deux-boutons-poussoirs"  transform="translate(-0.00516563)">
	<circle id="circle231" class="st11" cx="189.4" cy="252.6" r="16.2"/>
</a>
<circle id="circle233" cx="172.1" cy="235" r="3"/>
<circle id="circle235" cx="204.2" cy="235" r="3"/>
<circle id="circle237" cx="207" cy="270.6" r="3.3"/>
<circle id="circle239" cx="171.9" cy="270.6" r="3.3"/>
<path id="rect241" class="st7" d="M169.8,296.1h39.4c3.9,0,7,3.1,7,7V342c0,3.9-3.1,7-7,7h-39.4c-3.9,0-7-3.1-7-7v-38.9
	C162.8,299.3,165.9,296.1,169.8,296.1z"/>
<path id="rect243" class="st9" d="M170.6,299.4H208c2.3,0,4.2,1.9,4.2,4.2v37.3c0,2.3-1.9,4.2-4.2,4.2h-37.4c-2.3,0-4.2-1.9-4.2-4.2
	v-37.3C166.4,301.3,168.3,299.4,170.6,299.4z"/>
<a id="a3124" xlink:href="#deux-boutons-poussoirs"  transform="translate(-0.00516563)">
	<circle id="circle245" class="st11" cx="189.2" cy="322.4" r="16.2"/>
</a>
<circle id="circle247" cx="171.9" cy="305" r="3"/>
<circle id="circle249" cx="207.1" cy="305" r="3.3"/>
<circle id="circle251" cx="206.7" cy="340.3" r="3.3"/>
<circle id="circle253" cx="171.6" cy="340.3" r="3.3"/>
<path id="path255" class="st3" d="M197.6,226.3c-0.1-0.3-0.1-0.6-0.1-0.9c0-1.6,1.2-2.8,2.8-2.8s2.8,1.2,2.8,2.8
	c0,0.3,0,0.6-0.1,0.9"/>
<polyline id="polyline257" class="st3" points="196.1,226.3 196.1,221.6 204.7,221.6 204.7,226.3 "/>
<path id="path263" class="st3" d="M176.5,226.3c-0.1-0.3-0.1-0.6-0.1-0.9c0-1.6,1.3-2.8,2.8-2.8s2.8,1.3,2.8,2.8
	c0,0.3,0,0.6-0.1,0.8"/>
<polyline id="polyline265" class="st3" points="175,226.3 175,221.6 183.6,221.6 183.6,226.3 "/>
<path id="path271" class="st3" d="M203.2,279.3c0.1,0.3,0.1,0.6,0.1,0.9c0,1.6-1.2,2.8-2.8,2.9c-1.6,0-2.8-1.2-2.9-2.8
	c0-0.3,0-0.6,0.1-0.9"/>
<polyline id="polyline273" class="st3" points="204.7,279.3 204.7,284 196.1,284 196.1,279.3 "/>
<line id="line275" class="st12" x1="204.7" y1="279.3" x2="203.2" y2="279.3"/>
<line id="line277" class="st12" x1="197.8" y1="279.3" x2="196.1" y2="279.3"/>
<path id="path279" class="st3" d="M182.1,279.3c0.1,0.3,0.1,0.6,0.1,0.9c0.1,1.6-1.1,2.9-2.7,3c-1.6,0.1-2.9-1.1-3-2.7
	c0-0.1,0-0.2,0-0.3c0-0.3,0-0.6,0.1-0.8"/>
<polyline id="polyline281" class="st3" points="183.6,279.3 183.6,284 175,284 175,279.3 "/>
<line id="line283" class="st12" x1="183.6" y1="279.3" x2="182.1" y2="279.3"/>
<line id="line285" class="st12" x1="176.7" y1="279.3" x2="175" y2="279.3"/>
<path id="path287" class="st3" d="M176.5,296.1c-0.1-0.3-0.1-0.6-0.1-0.9c0-1.6,1.3-2.8,2.8-2.8c1.6,0,2.8,1.3,2.8,2.8
	c0,0.3,0,0.6-0.1,0.8"/>
<polyline id="polyline289" class="st3" points="175,296.2 175,291.4 183.6,291.4 183.6,296.2 "/>
<line id="line291" class="st12" x1="175" y1="296.2" x2="176.5" y2="296.2"/>
<line id="line293" class="st12" x1="181.9" y1="296.2" x2="183.6" y2="296.2"/>
<path id="path295" class="st3" d="M197.6,296.1c-0.1-0.3-0.1-0.6-0.1-0.9c-0.1-1.6,1.1-2.9,2.7-3c1.6-0.1,2.9,1.1,3,2.7
	c0,0.1,0,0.2,0,0.3c0,0.3,0,0.6-0.1,0.8"/>
<polyline id="polyline297" class="st3" points="196.1,296.2 196.1,291.4 204.7,291.4 204.7,296.2 "/>
<line id="line299" class="st12" x1="196.1" y1="296.2" x2="197.6" y2="296.2"/>
<line id="line301" class="st12" x1="203" y1="296.2" x2="204.7" y2="296.2"/>
<path id="path303" class="st3" d="M203.2,349c0.1,0.3,0.1,0.6,0.1,0.9c0,1.6-1.2,2.8-2.8,2.9c-1.6,0-2.8-1.2-2.9-2.8
	c0-0.3,0-0.6,0.1-0.9"/>
<polyline id="polyline305" class="st3" points="204.7,349 204.7,353.8 196.1,353.8 196.1,349 "/>
<line id="line307" class="st12" x1="204.7" y1="349" x2="203.2" y2="349"/>
<line id="line309" class="st12" x1="197.8" y1="349" x2="196.1" y2="349"/>
<path id="path311" class="st3" d="M181.3,349c0.1,0.3,0.1,0.6,0.1,0.9c0,1.6-1.2,2.8-2.8,2.9c-1.6,0-2.8-1.2-2.9-2.8
	c0-0.3,0-0.6,0.1-0.9"/>
<polyline id="polyline313" class="st3" points="182.8,349 182.8,353.8 174.2,353.8 174.2,349 "/>
<line id="line315" class="st12" x1="182.8" y1="349" x2="181.3" y2="349"/>
<line id="line317" class="st12" x1="175.9" y1="349" x2="174.2" y2="349"/>
<a id="a3130" xlink:href="#quatre-boutons-tactiles"  transform="translate(-0.00516563)">
	<path id="path319" class="st13" d="M63.1,266.3l-30-30.2c26.2-23.4,65.9-23.1,91.7,0.7l-30.4,30C85.3,259.6,72.4,259.3,63.1,266.3"
		/>
	<path id="path321" class="st13" d="M32,336.6c25.9,24.2,66,24.5,92.3,0.7L94,307c-9.3,7.2-22.4,7.1-31.5-0.3L32,336.6z"/>
	<path id="path323" class="st13" d="M58.1,302.3c-7.2-9.4-7.1-22.5,0.4-31.7l-29.9-30.2c-24,25.8-24.4,65.6-0.9,91.9L58.1,302.3z"/>
	<path id="path325" class="st13" d="M128.6,333.1c23.9-25.9,24.1-65.7,0.5-91.9l-30.5,30c7.1,9.2,7,22-0.1,31.2L128.6,333.1z"/>
</a>
<image style="overflow:visible;enable-background:new    ;" width="803" height="267" id="image353" xlink:href="16A999AD.png"  transform="matrix(9.674476e-02 0 0 9.674476e-02 15.5391 28.7021)">
</image>
<polyline id="polyline359" class="st14" points="14.6,75.6 14.6,63.7 219.4,63.7 219.4,116.8 218.2,116.8 218.2,164.7 219.4,164.7 
	219.4,216.5 14.6,216.5 14.6,194.4 25,194.4 25,211 215.1,211 215.1,164.7 216.7,164.7 216.8,116.8 215.1,116.8 215.1,69.2 25,69.2 
	25,75.6 15.7,75.6 14.6,75.6 "/>
<a id="a1879" xlink:href="#le-module-esp32-s2-wifi-et-bluetooth"  transform="translate(-0.10122563,-0.36623)">
	<path id="rect361" class="st15" d="M51.1,72h156.2c2.6,0,4.7,2.1,4.7,4.7v126.7c0,2.6-2.1,4.7-4.7,4.7H51.1c-2.6,0-4.7-2.1-4.7-4.7
		V76.7C46.4,74.1,48.5,72,51.1,72z"/>
</a>
<polygon id="polygon363" class="st16" points="30.5,101.4 30.5,187 14.8,187 14.8,111.1 14.8,101.4 "/>
<line id="line417" class="st7" x1="16.2" y1="194.8" x2="16.2" y2="187.1"/>
<line id="line419" class="st7" x1="23.5" y1="194.4" x2="23.5" y2="186.9"/>
<line id="line421" class="st17" x1="30.7" y1="69.1" x2="30.5" y2="101.4"/>
<line id="line433" class="st17" x1="30.2" y1="187.1" x2="29.9" y2="211.3"/>
<line id="line435" class="st7" x1="16.5" y1="75" x2="16.5" y2="101.4"/>
<a id="a3065" xlink:href="#une-led-rgb"  transform="translate(-0.00516563)">
	<path id="path21" class="st18" d="M116.9,0c-5.7,0-10.4,4.6-10.6,10.3l-0.5,25.4l0,0c-0.3,0.2-0.4,0.5-0.5,0.8v2.8
		c-0.1,0.8,0,1.5,0.1,2.3c0,0,7,0.4,11.2,0.5c4.2,0.1,11.9-0.3,12.2-0.3s0.7-2.8,0.6-4.1c0-0.8-0.2-1.5-0.3-2.3l-0.6-0.5l-1-24.6
		C127.3,4.6,122.6,0,116.9,0z"/>
</a>
<path id="path16644" sodipodi:nodetypes="ccccccc" class="st19" d="M231.2,177.8l0,25.7l1.9,0.5l1.8,0.7l0.3-27.8l-2,0.6
	L231.2,177.8z"/>
<g id="g21497" transform="matrix(0.13011441,0,0,0.13011441,171.77539,95.322308)">
	<path id="rect5522" class="st20" d="M1645.8,847.1c-6.4,0-11.6,5.2-11.6,11.6v186.2c-1.1-0.1-2.3-0.2-3.4-0.3
		c-25.8,0-46.7,21.1-46.7,47.2c0,0,0,0,0,0c0,26.1,20.9,47.2,46.7,47.2c0,0,0,0,0,0c1.2-0.3,2.3-0.6,3.4-0.9v203.2
		c0,6.4,5.2,11.6,11.6,11.6h177c3.2-13.9,6.5-29.4,6.5-29.4l112.5-2.8l8.3,32.2h176.4c6.4,0,11.6-5.2,11.6-11.6v-202.5
		c0.3,0.1,0.7,0.2,1,0.3c25.8,0,46.7-21.1,46.7-47.2s-20.9-47.2-46.7-47.2c-0.3,0.1-0.7,0.2-1,0.3V858.7c0-6.4-5.2-11.6-11.6-11.6
		h-177l-21.3,43.5l-97.8-7.5l-9.5-36H1645.8z M1631.1,1061.3c16.8,0,30.3,13.7,30.3,30.5c0,16.8-13.6,30.5-30.3,30.5c0,0,0,0,0,0
		c-16.8,0-30.3-13.7-30.3-30.5c0,0,0,0,0,0C1600.8,1074.9,1614.4,1061.3,1631.1,1061.3z M2139.1,1061.3c16.8,0,30.3,13.7,30.3,30.5
		c0,16.8-13.6,30.5-30.3,30.5c0,0,0,0,0,0c-16.8,0-30.3-13.7-30.3-30.5c0,0,0,0,0,0C2108.8,1074.9,2122.4,1061.3,2139.1,1061.3z"/>
	<rect id="rect21455" x="1682" y="1016" class="st21" width="43.4" height="78.1"/>
	
		<linearGradient id="rect5586_1_" gradientUnits="userSpaceOnUse" x1="23145.6934" y1="-9343.5156" x2="23154.6777" y2="-9343.5156" gradientTransform="matrix(0.3688 0 0 -0.3688 -6871.165 -2416.3054)">
		<stop  offset="0" style="stop-color:#D9D9D9"/>
		<stop  offset="0.2495" style="stop-color:#F3F3F3"/>
		<stop  offset="0.3843" style="stop-color:#CDCDCD"/>
		<stop  offset="0.5411" style="stop-color:#F6F6F6"/>
		<stop  offset="0.878" style="stop-color:#BEBEBE"/>
		<stop  offset="1" style="stop-color:#FFFFFF"/>
	</linearGradient>
	<rect id="rect5586" x="1666.7" y="1018.9" class="st22" width="23.3" height="21.9"/>
	
		<linearGradient id="rect5588_1_" gradientUnits="userSpaceOnUse" x1="23294.6445" y1="-9393.8281" x2="23303.9063" y2="-9393.8281" gradientTransform="matrix(0.3688 0 0 -0.3688 -6871.165 -2416.3054)">
		<stop  offset="0" style="stop-color:#D9D9D9"/>
		<stop  offset="0.2495" style="stop-color:#F3F3F3"/>
		<stop  offset="0.3843" style="stop-color:#CDCDCD"/>
		<stop  offset="0.5411" style="stop-color:#F6F6F6"/>
		<stop  offset="0.878" style="stop-color:#BEBEBE"/>
		<stop  offset="1" style="stop-color:#FFFFFF"/>
	</linearGradient>
	<rect id="rect5588" x="1721.6" y="1034.7" class="st23" width="24.1" height="27.4"/>
	
		<linearGradient id="rect5590_1_" gradientUnits="userSpaceOnUse" x1="23141.002" y1="-9446.1455" x2="23149.4395" y2="-9446.1455" gradientTransform="matrix(0.3688 0 0 -0.3688 -6871.165 -2416.3054)">
		<stop  offset="0" style="stop-color:#D9D9D9"/>
		<stop  offset="0.2495" style="stop-color:#F3F3F3"/>
		<stop  offset="0.3843" style="stop-color:#CDCDCD"/>
		<stop  offset="0.5411" style="stop-color:#F6F6F6"/>
		<stop  offset="0.878" style="stop-color:#BEBEBE"/>
		<stop  offset="1" style="stop-color:#FFFFFF"/>
	</linearGradient>
	<rect id="rect5590" x="1665.1" y="1054.4" class="st24" width="21.5" height="26.5"/>
	
		<linearGradient id="rect5592_1_" gradientUnits="userSpaceOnUse" x1="23159.2656" y1="-9215.9053" x2="23183.2578" y2="-9215.9053" gradientTransform="matrix(0.3688 0 0 -0.3688 -6871.165 -2416.3054)">
		<stop  offset="0" style="stop-color:#D9D9D9"/>
		<stop  offset="0.2495" style="stop-color:#F3F3F3"/>
		<stop  offset="0.3843" style="stop-color:#CDCDCD"/>
		<stop  offset="0.5411" style="stop-color:#F6F6F6"/>
		<stop  offset="0.878" style="stop-color:#BEBEBE"/>
		<stop  offset="1" style="stop-color:#FFFFFF"/>
	</linearGradient>
	<rect id="rect5592" x="1671.8" y="970.9" class="st25" width="65.6" height="23.7"/>
	<rect id="rect5594" x="1694.4" y="973.1" class="st26" width="23.7" height="20.1"/>
	<rect id="rect5596" x="1664.3" y="963.3" class="st27" width="80.4" height="35.6"/>
	<path id="rect5598" class="st28" d="M1750.9,868.2v139.7h50.3v-22.4h36.7v22.4h93.8v-22.4h38.4v22.4h48.1V868.2H1750.9z"/>
	<rect id="rect5600" x="1803" y="923.7" class="st29" width="12.4" height="13.8"/>
	<rect id="rect5602" x="1855.7" y="923.7" class="st29" width="12.4" height="13.8"/>
	<rect id="rect5604" x="1906.6" y="923.7" class="st29" width="12.4" height="13.8"/>
	<rect id="rect5606" x="1955.8" y="923.7" class="st29" width="12.4" height="13.8"/>
	
		<linearGradient id="ellipse16430_1_" gradientUnits="userSpaceOnUse" x1="23370.6484" y1="-9746.207" x2="23472.4238" y2="-9746.207" gradientTransform="matrix(0.3688 0 0 -0.3688 -6871.165 -2416.3054)">
		<stop  offset="5.181349e-03" style="stop-color:#313131"/>
		<stop  offset="0.3109" style="stop-color:#323232"/>
		<stop  offset="0.6028" style="stop-color:#4D4D4D"/>
	</linearGradient>
	<ellipse id="ellipse16430" class="st30" cx="1892.8" cy="1178.4" rx="143.1" ry="151.7"/>
	
		<linearGradient id="path5742_1_" gradientUnits="userSpaceOnUse" x1="23669.5078" y1="-9757.9033" x2="23691.8887" y2="-9757.9033" gradientTransform="matrix(0.3688 0 0 -0.3688 -6871.165 -2416.3054)">
		<stop  offset="0" style="stop-color:#000000"/>
		<stop  offset="1" style="stop-color:#9B9B9B"/>
	</linearGradient>
	<ellipse id="path5742" class="st31" cx="1890.5" cy="1182.7" rx="30.5" ry="32.4"/>
	<ellipse id="ellipse16432" class="st32" cx="1887.9" cy="1176.2" rx="151.9" ry="161"/>
	<text transform="matrix(7.6856 0 0 7.6856 2059.2229 951.5077)" class="st14 st33 st34">J1 </text>
	<text transform="matrix(7.6856 0 0 7.6856 2059.2229 951.5077)" class="st35 st33 st34">J1 </text>
	<text transform="matrix(7.6856 0 0 7.6856 2073.4944 1172.1338)" class="st14 st33 st36">J1</text>
	<text transform="matrix(7.6856 0 0 7.6856 2073.4944 1172.1338)" class="st35 st33 st36">J1</text>
	<text transform="matrix(7.6856 0 0 7.6856 2074.3201 1172.1338)" class="st14 st33 st36"> </text>
	<text transform="matrix(7.6856 0 0 7.6856 2074.3201 1172.1338)" class="st35 st33 st36"> </text>
	<text transform="matrix(7.6856 0 0 7.6856 1678.2919 931.7121)" class="st14 st33 st34">J1 </text>
	<text transform="matrix(7.6856 0 0 7.6856 1678.2919 931.7121)" class="st35 st33 st34">J1 </text>
	<text transform="matrix(7.6856 0 0 7.6856 2059.2229 951.5077)" class="st14 st33 st34">J1 </text>
	<text transform="matrix(7.6856 0 0 7.6856 2059.2229 951.5077)" class="st35 st33 st34">J1 </text>
	<text transform="matrix(7.6856 0 0 7.6856 2059.9282 1215.6729)" class="st14 st33 st37">+ </text>
	<text transform="matrix(7.6856 0 0 7.6856 2059.9282 1215.6729)" class="st38 st33 st37">+ </text>
	<text transform="matrix(4.706053e-16 7.6856 -7.6856 4.706053e-16 1684.2737 1219.4968)" class="st14 st33 st39">BUZ1 </text>
	<text transform="matrix(4.706053e-16 7.6856 -7.6856 4.706053e-16 1684.2737 1219.4968)" class="st40 st33 st39">BUZ1 </text>
	<text transform="matrix(4.706053e-16 7.6856 -7.6856 4.706053e-16 1682.675 1101.8566)" class="st14 st33 st39">Q1 </text>
	<text transform="matrix(4.706053e-16 7.6856 -7.6856 4.706053e-16 1682.675 1101.8566)" class="st40 st33 st39">Q1 </text>
	<rect id="rect5584" x="1688.2" y="1021.6" class="st41" width="31.7" height="69.7"/>
</g>
<path id="path21499" sodipodi:nodetypes="ccccccc" class="st42" d="M402.6,224.4l28.4-1.3l0.5-5.2l0.7-4.7l-30.7,0.6l0.8,5.4
	L402.6,224.4z"/>
<path id="path41608" sodipodi:nodetypes="cssc" class="st43" d="M235.2,195.6c136.5-2,55.7,232.5,202,219.5
	c231-20.5,129.4-88.1,88.2-158.4c-33.8-57.8-110.7-77-109.7-37.9"/>
<path id="path26238" sodipodi:nodetypes="cssc" class="st44" d="M235.2,180.2c136.5-2,55.7,232.5,202,219.5
	c231-20.5,129.4-88.1,88.2-158.4c-33.8-57.8-99.3-62.2-98.3-23.1"/>
<path id="path25391" sodipodi:nodetypes="cssc" class="st45" d="M235.2,188.3c136.5-2,55.7,232.5,202,219.5
	c231-20.5,129.4-88.1,88.2-158.4c-33.8-57.8-103.7-71-102.7-31.9"/>
<path id="path25393" sodipodi:nodetypes="cssc" class="st46" d="M235.2,201.4c136.5-2,55.7,232.5,202,219.5
	c231-20.5,129.4-88.1,88.2-158.4c-33.8-57.8-118.1-82.8-117.1-43.7"/>
<g id="g7748">
	<g id="g7750">
	</g>
</g>
<g id="g7752">
	<g id="g7754">
	</g>
</g>
<g id="g7758">
	<g id="g7764">
	</g>
	<g id="g7766">
		<g id="g7768" transform="matrix(13.333333,0,0,13.333333,-2561.2055,-438.98282)">
		</g>
	</g>
	<g id="g7772" transform="matrix(13.333333,0,0,13.333333,-2561.2055,-438.98282)">
	</g>
	<g id="g7774" transform="matrix(13.333333,0,0,13.333333,3807.5965,3825.1616)">
	</g>
	<g id="g7776">
		<g id="g7778">
			<g id="g7780" transform="matrix(988,0,0,-309,3807,4133)">
				<defs>
					<filter id="Adobe_OpacityMaskFilter" filterUnits="userSpaceOnUse" x="-3.5" y="-11.1" width="0.1" height="0.1">
						<feColorMatrix  type="matrix" values="1 0 0 0 0  0 1 0 0 0  0 0 1 0 0  0 0 0 1 0"/>
					</filter>
				</defs>
				<mask maskUnits="userSpaceOnUse" x="-3.5" y="-11.1" width="0.1" height="0.1" id="mask7782_2_">
					
						<image style="overflow:visible;filter:url(#Adobe_OpacityMaskFilter);enable-background:new    ;" width="988" height="309" id="image7784_2_" xlink:href="16A999AF.jpg"  transform="matrix(1.024439e-06 0 0 -1.047329e-05 -3.8553 13.3767)">
					</image>
				</mask>
				
					<g transform="matrix(8.097166e-05 0 0 -2.588997e-04 -3.5386 11.1257)" style="mask:url(#mask7782_2_);enable-background:new    ;">
					
						<image style="overflow:visible;" width="988" height="309" id="image7786" xlink:href="16A999AA.png"  transform="matrix(8.097166e-05 0 0 -2.588997e-04 -3.5386 11.1257)">
					</image>
				</g>
			</g>
		</g>
	</g>
	<g id="g7788" transform="matrix(13.333333,0,0,13.333333,3807.5965,3825.1616)">
	</g>
	<g id="g7790" transform="matrix(0,-13.333333,13.333333,0,0,1653.552)">
	</g>
	<g id="g7802" transform="matrix(0,-13.333333,13.333333,0,0,1653.552)">
	</g>
	<g id="g7804" transform="matrix(0,-13.333333,13.333333,0,0,1653.552)">
	</g>
	<g id="g7814">
	</g>
	<g id="g7826" transform="matrix(0,-13.333333,13.333333,0,1533.4475,1728.4992)">
	</g>
	<g id="g7828" transform="matrix(0,-13.333333,13.333333,0,1533.4475,1728.4992)">
	</g>
	<g id="g7838">
	</g>
	<g id="g7840">
		<g id="g7842" transform="matrix(12,0,0,12,4536.6592,383.52918)">
			<path id="path7844" class="st47" d="M-349.2,6.7h0.2v1.1h-0.2V6.7z"/>
		</g>
		<path id="path7846" class="st47" d="M358.5,477.6c0-1.6-1.4-2.8-2.8-4c-0.6-0.5-1.6-1.3-1.6-1.9v-7.3h-2.9v7.7
			c0,1.4,1.3,2.5,2.6,3.7c0.6,0.5,1.8,1.7,1.8,2.4"/>
		<path id="path7848" class="st48" d="M360.3,455.9v-7.9c0-5.2-4.2-9.5-9.4-9.5c-5.2,0-9.5,4.2-9.5,9.5v18.2c2,2.2,5.5,3.7,9.5,3.7
			c6.2,0,11.2-3.5,11.2-7.8v-2C362,458.6,361.4,457.1,360.3,455.9L360.3,455.9z"/>
		<path id="path7850" class="st49" d="M360.3,455.9v-7.9c0-5.2-4.2-9.5-9.4-9.5c-5.2,0-9.5,4.2-9.5,9.5v18.2c2,2.2,5.5,3.7,9.5,3.7
			c6.2,0,11.2-3.5,11.2-7.8v-2C362,458.6,361.4,457.1,360.3,455.9L360.3,455.9z"/>
		<path id="path7852" class="st50" d="M360.3,455.9v4.1c0,3.7-4.2,6.6-9.4,6.6c-5.2,0-9.5-3-9.5-6.6v4.1v2c2,2.2,5.5,3.7,9.5,3.7
			c6.2,0,11.2-3.5,11.2-7.8v-2C362,458.6,361.4,457.1,360.3,455.9L360.3,455.9z"/>
		<path id="path7854" class="st51" d="M360.3,455.9v4.1c0,3.7-4.2,6.6-9.4,6.6c-5.2,0-9.5-3-9.5-6.6v4.1v2c2,2.2,5.5,3.7,9.5,3.7
			c6.2,0,11.2-3.5,11.2-7.8v-2C362,458.6,361.4,457.1,360.3,455.9L360.3,455.9z"/>
		<path id="path7856" class="st52" d="M360.3,455.9v4.1c0,3.7-4.2,6.6-9.4,6.6c-5.2,0-9.5-3-9.5-6.6v4.1c2,2.2,5.5,3.7,9.5,3.7
			c6.2,0,11.2-3.5,11.2-7.8C362,458.6,361.4,457.1,360.3,455.9L360.3,455.9z"/>
		<path id="path7858" class="st53" d="M360.3,460.1c0,3.7-4.2,6.6-9.4,6.6c-5.2,0-9.4-3-9.4-6.6c0-3.7,4.2-6.6,9.4-6.6
			C356.1,453.5,360.3,456.4,360.3,460.1z"/>
		<path id="path7860" class="st54" d="M360.3,460.1c0,3.7-4.2,6.6-9.4,6.6c-5.2,0-9.4-3-9.4-6.6c0-3.7,4.2-6.6,9.4-6.6
			C356.1,453.5,360.3,456.4,360.3,460.1z"/>
		<path id="path7862" class="st55" d="M344.3,451.5v8.6h1.3v-4h3.8l5.3-5.7h-8.8L344.3,451.5z"/>
		<path id="path7864" class="st55" d="M355.8,450l0.6,0.7l-5.1,5.4h4.9v4h1.2V450H355.8z"/>
		<path id="path7866" class="st56" d="M360.3,455.9v-7.9c0-5.2-4.2-9.5-9.4-9.5c-5.2,0-9.5,4.2-9.5,9.5v18.2c2,2.2,5.5,3.7,9.5,3.7
			c6.2,0,11.2-3.5,11.2-7.8v-2C362,458.6,361.4,457.1,360.3,455.9L360.3,455.9z"/>
		<path id="path7868" class="st57" d="M355.2,443.6l1.9-0.4c-1.1-1.5-2.8-2.6-4.7-3l0.3,1.4C353.8,442.1,354.7,442.7,355.2,443.6z"
			/>
		<path id="path7870" class="st57" d="M342.4,465.2v2c0.9,0.7,1.9,1.3,3.1,1.8v-2C344.3,466.5,343.3,465.9,342.4,465.2z"/>
		<path id="path7872" class="st57" d="M356.2,465.6c-0.3,0.2-0.7,0.3-1.1,0.4c-0.1,0-0.2,0.1-0.2,0.1c-0.8,0.2-1.5,0.4-2.4,0.5
			c-0.1,0-0.2,0-0.3,0c-0.4,0-0.9,0.1-1.3,0.1c-0.2,0-0.4,0-0.6,0c-1.6-0.1-3.1-0.4-4.4-1v-11.2v-6.4c0-2,1.1-3.6,2.8-4.5l0-0.1
			l-1.7-2c-2.2,1.3-3.7,3.8-3.7,6.5v15.9c-0.1-0.1-0.4-0.4-0.6-0.7l-0.4,0.9c1.9,2,5.1,3.3,8.7,3.3c2.2,0,4.3-0.5,6-1.3L356.2,465.6
			C356.2,465.6,356.2,465.6,356.2,465.6z"/>
	</g>
	<g id="g7874">
	</g>
	<g id="g7876">
	</g>
	<g id="g7878" transform="matrix(13.333333,0,0,13.333333,4732.1392,870.30918)">
		<path id="path7880" class="st58" d="M-328.1-29.5v2.5"/>
	</g>
	<g id="g7882">
		<g id="g7884">
			<path id="path7886" class="st59" d="M358.5,505v5.3c0,0.8-0.6,1.4-1.4,1.4s-1.4-0.6-1.4-1.4V505c0-0.8,0.6-1.4,1.4-1.4
				C357.8,503.6,358.5,504.2,358.5,505z"/>
		</g>
	</g>
	<g id="g7888">
	</g>
	<g id="g7890" transform="matrix(13.333333,0,0,13.333333,4612.1032,870.30918)">
		<path id="path7892" class="st58" d="M-319.9-29.5v2.5"/>
	</g>
	<g id="g7894">
		<g id="g7896">
			<path id="path7898" class="st59" d="M348.9,505v5.3c0,0.8-0.6,1.4-1.4,1.4s-1.4-0.6-1.4-1.4V505c0-0.8,0.6-1.4,1.4-1.4
				C348.2,503.6,348.9,504.2,348.9,505z"/>
		</g>
	</g>
	<g id="g7900">
	</g>
	<g id="g7902" transform="matrix(13.333333,0,0,13.333333,4732.1392,1280.5772)">
		<path id="path7904" class="st60" d="M-328.1-57.8c-14.1,30.7-25,0.8-25,0.8"/>
		<path id="path7906" class="st61" d="M-328.1-57.8c-14.1,30.7-25,0.8-25,0.8"/>
	</g>
	<g id="g7908" transform="matrix(13.333333,0,0,13.333333,4732.1392,1280.5772)">
	</g>
	<g id="g7918">
	</g>
	<g id="g7920">
		<path id="path7922" class="st62" d="M359.4,510.4c0,1.3-1.1,2.4-2.4,2.4s-2.4-1.1-2.4-2.4s1.1-2.4,2.4-2.4S359.4,509,359.4,510.4z
			"/>
		<g id="g7924">
			<path id="path7926" class="st59" d="M360,510.4c0,1.5-1.4,2.9-2.9,2.9s-2.9-1.4-2.9-2.9c0-1.5,1.4-2.9,2.9-2.9
				C358.6,507.4,360,508.8,360,510.4z M358.9,510.4c0-1.1-0.8-1.9-1.9-1.9s-1.9,0.8-1.9,1.9c0,1.1,0.8,1.9,1.9,1.9
				S358.9,511.5,358.9,510.4z"/>
		</g>
	</g>
	<g id="g7928">
	</g>
	<g id="g7930" transform="matrix(13.333333,0,0,13.333333,4612.1032,1280.5772)">
		<path id="path7932" sodipodi:nodetypes="cc" class="st63" d="M-319.9-57.8c-11.7,21.7-10.6,0.9-10.6,0.9"/>
		<path id="path7934" sodipodi:nodetypes="cc" class="st64" d="M-319.9-57.8c-11.7,21.7-10.6,0.9-10.6,0.9"/>
	</g>
	<g id="g7936" transform="matrix(13.333333,0,0,13.333333,4612.1032,1280.5772)">
	</g>
	<g id="g7946">
	</g>
	<g id="g7948">
		<path id="path7950" class="st62" d="M349.8,510.4c0,1.3-1.1,2.4-2.4,2.4s-2.4-1.1-2.4-2.4s1.1-2.4,2.4-2.4S349.8,509,349.8,510.4z
			"/>
		<g id="g7952">
			<path id="path7954" class="st59" d="M350.4,510.4c0,1.5-1.4,2.9-2.9,2.9c-1.5,0-2.9-1.4-2.9-2.9c0-1.5,1.4-2.9,2.9-2.9
				C349,507.4,350.4,508.8,350.4,510.4z M349.3,510.4c0-1.1-0.8-1.9-1.9-1.9c-1.1,0-1.9,0.8-1.9,1.9c0,1.1,0.8,1.9,1.9,1.9
				C348.5,512.2,349.3,511.5,349.3,510.4z"/>
		</g>
	</g>
	<g id="g7792">
		<path id="path7794" class="st65" d="M29.6,411.9l-1.3-19.2c-0.1-2-1.8-3.5-3.8-3.5h-2.4c-2,0-3.6,1.5-3.8,3.5l-1.3,19.2H29.6z"/>
		<path id="path7796" class="st66" d="M28.4,412.7l-1-19.2c-0.1-2-1.4-3.5-3-3.5h-1.9c-1.6,0-2.9,1.5-3,3.5l-1,19.2H28.4z"/>
		<path id="path7798" class="st67" d="M13.7,408.1c-1,0-1.8,0.8-1.9,1.7c-2.9,32.3-5.5,57.3-5.5,66.3c0,10.5,0.4,11.8,4.8,21.5
			c3.8,8.4,4.5,9.6,4.6,21.9c0,1,0.9,1.9,1.9,1.9H29c1,0,1.9-0.8,1.9-1.9c0.1-12.3,0.8-13.6,4.6-21.9c4.4-9.7,4.8-11,4.8-21.5
			c0-9-2.7-34-5.5-66.3c-0.1-1-0.9-1.7-1.9-1.7H13.7z"/>
		<path id="path7800" class="st68" d="M15.7,408.7c-0.8,0-1.4,0.7-1.5,1.7c-2.3,32-4.4,56.7-4.4,65.6c0,10.4,0.3,11.7,3.9,21.3
			c3,8.3,3.6,9.5,3.7,21.7c0,1,0.7,1.9,1.5,1.9h9.1c0.8,0,1.5-0.8,1.5-1.9c0.1-12.2,0.7-13.5,3.7-21.7c3.5-9.7,3.9-10.9,3.9-21.3
			c0-8.9-2.1-33.7-4.4-65.6c-0.1-1-0.7-1.7-1.5-1.7H15.7z"/>
	</g>
	<g id="g7816" transform="translate(800)">
		<path id="path7818" class="st65" d="M-585.3,412.8l-1.3-19.2c-0.1-2-1.8-3.5-3.8-3.5h-2.4c-2,0-3.6,1.5-3.8,3.5l-1.3,19.2H-585.3z
			"/>
		<path id="path7820" class="st66" d="M-586.5,413.6l-1-19.2c-0.1-2-1.4-3.5-3-3.5h-1.9c-1.6,0-2.9,1.5-3,3.5l-1,19.2H-586.5z"/>
		<path id="path7822" d="M-601.2,409c-1,0-1.8,0.8-1.9,1.7c-2.9,32.3-5.5,57.3-5.5,66.3c0,10.5,0.4,11.8,4.8,21.5
			c3.8,8.4,4.5,9.6,4.6,21.9c0,1,0.9,1.9,1.9,1.9h11.3c1,0,1.9-0.8,1.9-1.9c0.1-12.3,0.8-13.6,4.6-21.9c4.4-9.7,4.8-11,4.8-21.5
			c0-9-2.7-34-5.5-66.3c-0.1-1-0.9-1.7-1.9-1.7H-601.2z"/>
		<path id="path7824" class="st69" d="M-599.2,409.6c-0.8,0-1.4,0.7-1.5,1.7c-2.3,32-4.4,56.7-4.4,65.6c0,10.4,0.3,11.7,3.9,21.3
			c3,8.3,3.6,9.5,3.7,21.7c0,1,0.7,1.9,1.5,1.9h9.1c0.8,0,1.5-0.8,1.5-1.9c0.1-12.2,0.7-13.5,3.7-21.7c3.5-9.7,3.9-10.9,3.9-21.3
			c0-8.9-2.1-33.7-4.4-65.6c-0.1-1-0.7-1.7-1.5-1.7H-599.2z"/>
	</g>
</g>
<g id="g7956">
	<g id="g7958">
	</g>
</g>
</svg>
