<?xml version="1.0" encoding="utf-8"?>
<!-- Generator: Adobe Illustrator 23.0.3, SVG Export Plug-In . SVG Version: 6.00 Build 0)  -->
<svg version="1.1" id="Calque_1" xmlns="http://www.w3.org/2000/svg" xmlns:xlink="http://www.w3.org/1999/xlink" x="0px" y="0px"
	 viewBox="0 0 2289 566" style="enable-background:new 0 0 2289 566;" xml:space="preserve">
<style type="text/css">
	.st0{fill:#FFC469;stroke:#402E1F;stroke-width:5;stroke-miterlimit:10;}
	.st1{fill:#2A77D3;stroke:#402E1F;stroke-width:5;stroke-miterlimit:10;}
	.st2{fill:#FFFFFF;}
	.st3{fill:#2A77D3;stroke:#402E1F;stroke-width:5;stroke-miterlimit:10;enable-background:new    ;}
	.st4{fill:#2A77D3;}
	.st5{fill:#402E1F;}
	.st6{fill-rule:evenodd;clip-rule:evenodd;}
	.st7{fill:none;}
	.st8{fill:#FFC469;}
	.st9{fill-rule:evenodd;clip-rule:evenodd;fill:#2A77D3;}
	.st10{fill-rule:evenodd;clip-rule:evenodd;fill:#FFC469;}
	.st11{enable-background:new    ;}
</style>
<path class="st0" d="M102.6,400.1c0.2,0.1,0.3,0.3,0.5,0.4c0.2,0.2,0.4,0.3,0.7,0.5c0.2,0.1,0.4,0.3,0.7,0.4
	c0.2,0.1,0.4,0.2,0.6,0.4c0.2,0.1,0.5,0.2,0.7,0.3s0.4,0.2,0.6,0.3s0.5,0.2,0.7,0.3s0.5,0.2,0.7,0.2c0.2,0.1,0.5,0.1,0.7,0.2
	c0.2,0.1,0.5,0.1,0.7,0.2c0.3,0.1,0.5,0.1,0.8,0.1c0.2,0,0.4,0.1,0.6,0.1c1,0.1,2,0.1,3,0c0.2,0,0.4-0.1,0.6-0.1
	c0.3,0,0.5-0.1,0.8-0.1c0.2,0,0.5-0.1,0.7-0.2c0.2-0.1,0.5-0.1,0.7-0.2c0.2-0.1,0.5-0.2,0.7-0.2c0.2-0.1,0.5-0.2,0.7-0.3
	s0.4-0.2,0.6-0.3s0.5-0.2,0.7-0.3s0.4-0.2,0.6-0.4c0.2-0.1,0.4-0.3,0.7-0.4c0.2-0.2,0.4-0.3,0.7-0.5c0.2-0.1,0.4-0.3,0.5-0.4
	c0.4-0.3,0.8-0.6,1.1-1l39-39c5.9-5.9,5.9-15.4,0-21.2c-5.9-5.9-15.4-5.9-21.2,0l-13.4,13.4v-41.9c0-8.3-6.7-15-15-15s-15,6.7-15,15
	v41.9l-13.3-13.4c-5.9-5.9-15.4-5.9-21.2,0c-2.9,2.9-4.4,6.8-4.4,10.6s1.5,7.7,4.4,10.6l39,39C101.9,399.5,102.2,399.8,102.6,400.1z
	"/>
<g>
	<g>
		<path class="st0" d="M1385.8,286c0-0.1,0-0.2,0-0.3c0-0.1,0-0.2-0.1-0.4c0-0.1,0-0.2-0.1-0.4c0-0.1-0.1-0.2-0.1-0.3
			c0-0.1-0.1-0.2-0.1-0.3c0-0.1-0.1-0.2-0.1-0.3c0-0.1-0.1-0.2-0.1-0.3c0-0.1-0.1-0.2-0.2-0.3c0-0.1-0.1-0.2-0.2-0.3
			c0-0.1-0.1-0.2-0.2-0.3c-0.1-0.1-0.1-0.2-0.2-0.3c-0.1-0.1-0.1-0.2-0.2-0.2c-0.3-0.4-0.7-0.7-1-1c-0.1-0.1-0.2-0.1-0.2-0.2
			c-0.1-0.1-0.2-0.1-0.3-0.2s-0.2-0.1-0.3-0.2c-0.1,0-0.2-0.1-0.3-0.2s-0.2-0.1-0.3-0.2c-0.1,0-0.2-0.1-0.3-0.1s-0.2-0.1-0.3-0.1
			s-0.2-0.1-0.3-0.1s-0.2-0.1-0.3-0.1s-0.2,0-0.4-0.1c-0.1,0-0.2,0-0.4-0.1c-0.1,0-0.2,0-0.3,0c-0.2,0-0.5-0.1-0.7,0h-27
			c-4.1,0-7.4,3.3-7.3,7.3c0,4.1,3.3,7.4,7.3,7.3h9.3l-14.5,14.5c-2.9,2.9-2.9,7.5,0,10.4s7.5,2.9,10.4,0l14.5-14.5v9.3
			c0,4.1,3.3,7.4,7.3,7.3c2,0,3.9-0.8,5.2-2.1c1.3-1.3,2.1-3.2,2.1-5.2v-27C1385.8,286.5,1385.8,286.3,1385.8,286z"/>
	</g>
	<g>
		<path class="st0" d="M1379.2,425c0.1,0,0.2,0,0.3,0s0.2,0,0.4-0.1c0.1,0,0.2,0,0.4-0.1c0.1,0,0.2-0.1,0.3-0.1s0.2-0.1,0.3-0.1
			s0.2-0.1,0.3-0.1s0.2-0.1,0.3-0.1s0.2-0.1,0.3-0.2c0.1,0,0.2-0.1,0.3-0.2s0.2-0.1,0.3-0.2s0.2-0.1,0.3-0.2s0.2-0.1,0.2-0.2
			c0.4-0.3,0.7-0.7,1-1c0.1-0.1,0.1-0.2,0.2-0.2c0.1-0.1,0.1-0.2,0.2-0.3c0.1-0.1,0.1-0.2,0.2-0.3c0-0.1,0.1-0.2,0.2-0.3
			c0-0.1,0.1-0.2,0.2-0.3c0-0.1,0.1-0.2,0.1-0.3c0-0.1,0.1-0.2,0.1-0.3c0-0.1,0.1-0.2,0.1-0.3c0-0.1,0.1-0.2,0.1-0.3
			c0-0.1,0-0.2,0.1-0.4c0-0.1,0-0.2,0.1-0.4c0-0.1,0-0.2,0-0.3c0-0.2,0.1-0.5,0-0.7v-27c0-4.1-3.3-7.4-7.3-7.3
			c-4.1,0-7.4,3.3-7.3,7.3v9.3l-14.5-14.5c-2.9-2.9-7.5-2.9-10.4,0s-2.9,7.5,0,10.4l14.5,14.5h-9.3c-4.1,0-7.4,3.3-7.3,7.3
			c0,2,0.8,3.9,2.1,5.2c1.3,1.3,3.2,2.1,5.2,2.1h27C1378.7,425,1378.9,425,1379.2,425z"/>
	</g>
</g>
<g>
	<path class="st0" d="M390.7,361.9c0.1-0.2,0.3-0.3,0.4-0.5c0.2-0.2,0.3-0.4,0.5-0.6c0.1-0.2,0.3-0.4,0.4-0.7
		c0.1-0.2,0.2-0.4,0.4-0.6c0.1-0.2,0.2-0.5,0.3-0.7s0.2-0.4,0.3-0.6s0.2-0.5,0.3-0.7s0.2-0.5,0.1-0.7c0.1-0.2,0.1-0.5,0.1-0.7
		c0.1-0.2,0.1-0.5,0.1-0.7c0.1-0.3,0.1-0.5,0.1-0.8c0-0.1,0.1-0.4,0.1-0.6c0.1-1,0.1-2,0-3c0-0.1-0.1-0.4-0.1-0.6
		c0-0.3-0.1-0.5-0.1-0.8c0-0.1-0.1-0.5-0.1-0.7c-0.1-0.2-0.1-0.5-0.1-0.7c-0.1-0.2-0.2-0.5-0.1-0.7c-0.1-0.2-0.2-0.5-0.3-0.7
		c-0.1-0.2-0.2-0.4-0.3-0.6c-0.1-0.2-0.2-0.5-0.3-0.7s-0.2-0.4-0.4-0.6c-0.1-0.2-0.3-0.4-0.4-0.7c-0.2-0.2-0.3-0.4-0.5-0.6
		c-0.1-0.2-0.3-0.4-0.4-0.5c-0.3-0.4-0.6-0.8-1-1.1l-39.1-39.1c-5.9-5.9-15.4-5.9-21.2,0c-5.9,5.9-5.9,15.4,0,21.2l13.4,13.4H301
		c-8.3,0-15,6.6-15,15c0,8.3,6.6,15,15,15h41.9l-13.4,13.4c-5.9,5.9-5.9,15.4,0,21.2c2.9,2.9,6.8,4.4,10.6,4.4
		c3.8,0,7.7-1.5,10.6-4.4l39-39C390.1,362.6,390.4,362.3,390.7,361.9z"/>
</g>
<g>
	<g>
		<path class="st0" d="M1017.6,246c0-0.1,0-0.2,0-0.3c0-0.1,0-0.2-0.1-0.4c0-0.1,0-0.2-0.1-0.4c0-0.1-0.1-0.2-0.1-0.3
			c0-0.1-0.1-0.2-0.1-0.3c0-0.1-0.1-0.2-0.1-0.3c0-0.1-0.1-0.2-0.1-0.3c0-0.1-0.1-0.2-0.2-0.3c0-0.1-0.1-0.2-0.2-0.3
			c0-0.1-0.1-0.2-0.2-0.3c-0.1-0.1-0.1-0.2-0.2-0.3c-0.1-0.1-0.1-0.2-0.2-0.2c-0.3-0.4-0.7-0.7-1-1c-0.1-0.1-0.2-0.1-0.2-0.2
			c-0.1-0.1-0.2-0.1-0.3-0.2s-0.2-0.1-0.3-0.2c-0.1,0-0.2-0.1-0.3-0.2s-0.2-0.1-0.3-0.2c-0.1,0-0.2-0.1-0.3-0.1s-0.2-0.1-0.3-0.1
			s-0.2-0.1-0.3-0.1s-0.2-0.1-0.3-0.1s-0.2,0-0.4-0.1c-0.1,0-0.2,0-0.4-0.1c-0.1,0-0.2,0-0.3,0c-0.2,0-0.5-0.1-0.7,0h-27
			c-4.1,0-7.4,3.3-7.3,7.3c0,4.1,3.3,7.4,7.3,7.3h9.3l-14.5,14.5c-2.9,2.9-2.9,7.5,0,10.4s7.5,2.9,10.4,0l14.5-14.5v9.3
			c0,4.1,3.3,7.4,7.3,7.3c2,0,3.9-0.8,5.2-2.1c1.3-1.3,2.1-3.2,2.1-5.2v-27C1017.6,246.5,1017.6,246.3,1017.6,246z"/>
	</g>
	<g>
		<path class="st0" d="M1011,465c0.1,0,0.2,0,0.3,0s0.2,0,0.4-0.1c0.1,0,0.2,0,0.4-0.1c0.1,0,0.2-0.1,0.3-0.1s0.2-0.1,0.3-0.1
			s0.2-0.1,0.3-0.1s0.2-0.1,0.3-0.1s0.2-0.1,0.3-0.2c0.1,0,0.2-0.1,0.3-0.2s0.2-0.1,0.3-0.2s0.2-0.1,0.3-0.2s0.2-0.1,0.2-0.2
			c0.4-0.3,0.7-0.7,1-1c0.1-0.1,0.1-0.2,0.2-0.2c0.1-0.1,0.1-0.2,0.2-0.3c0.1-0.1,0.1-0.2,0.2-0.3c0-0.1,0.1-0.2,0.2-0.3
			c0-0.1,0.1-0.2,0.2-0.3c0-0.1,0.1-0.2,0.1-0.3c0-0.1,0.1-0.2,0.1-0.3c0-0.1,0.1-0.2,0.1-0.3c0-0.1,0.1-0.2,0.1-0.3
			c0-0.1,0-0.2,0.1-0.4c0-0.1,0-0.2,0.1-0.4c0-0.1,0-0.2,0-0.3c0-0.2,0.1-0.5,0-0.7v-27c0-4.1-3.3-7.4-7.3-7.3
			c-4.1,0-7.4,3.3-7.3,7.3v9.3l-14.5-14.5c-2.9-2.9-7.5-2.9-10.4,0s-2.9,7.5,0,10.4l14.5,14.5H983c-4.1,0-7.4,3.3-7.3,7.3
			c0,2,0.8,3.9,2.1,5.2s3.2,2.1,5.2,2.1h27C1010.5,465,1010.7,465,1011,465z"/>
	</g>
	<g>
		<path class="st0" d="M1024.1,356.8c0.1-0.2,0.3-0.3,0.4-0.5c0.2-0.2,0.3-0.4,0.5-0.6c0.1-0.2,0.3-0.4,0.4-0.7
			c0.1-0.2,0.2-0.4,0.4-0.6c0.1-0.2,0.2-0.5,0.3-0.7c0.1-0.2,0.2-0.4,0.3-0.6c0.1-0.2,0.2-0.5,0.3-0.7c0.1-0.2,0.2-0.5,0.1-0.7
			c0.1-0.2,0.1-0.5,0.1-0.7s0.1-0.5,0.1-0.7c0.1-0.3,0.1-0.5,0.1-0.8c0-0.1,0.1-0.4,0.1-0.6c0.1-1,0.1-2,0-3c0-0.1-0.1-0.4-0.1-0.6
			c0-0.3-0.1-0.5-0.1-0.8c0-0.1-0.1-0.5-0.1-0.7c-0.1-0.2-0.1-0.5-0.1-0.7c-0.1-0.2-0.2-0.5-0.1-0.7c-0.1-0.2-0.2-0.5-0.3-0.7
			c-0.1-0.2-0.2-0.4-0.3-0.6c-0.1-0.2-0.2-0.5-0.3-0.7c-0.1-0.2-0.2-0.4-0.4-0.6c-0.1-0.2-0.3-0.4-0.4-0.7c-0.2-0.2-0.3-0.4-0.5-0.6
			c-0.1-0.2-0.3-0.4-0.4-0.5c-0.3-0.4-0.6-0.8-1-1.1L984,297.8c-5.9-5.9-15.4-5.9-21.2,0c-5.9,5.9-5.9,15.4,0,21.2l13.4,13.4h-41.9
			c-8.3,0-15,6.6-15,15c0,8.3,6.6,15,15,15h41.9l-13.4,13.4c-5.9,5.9-5.9,15.4,0,21.2c2.9,2.9,6.8,4.4,10.6,4.4
			c3.8,0,7.7-1.5,10.6-4.4l39-39C1023.4,357.6,1023.8,357.2,1024.1,356.8z"/>
	</g>
</g>
<path class="st0" d="M2037,361.9c0.1-0.2,0.3-0.3,0.4-0.5c0.2-0.2,0.3-0.4,0.5-0.6c0.1-0.2,0.3-0.4,0.4-0.7c0.1-0.2,0.2-0.4,0.4-0.6
	c0.1-0.2,0.2-0.5,0.3-0.7c0.1-0.2,0.2-0.4,0.3-0.6c0.1-0.2,0.2-0.5,0.3-0.7c0.1-0.2,0.2-0.5,0.1-0.7c0.1-0.2,0.1-0.5,0.1-0.7
	c0.1-0.2,0.1-0.5,0.1-0.7c0.1-0.3,0.1-0.5,0.1-0.8c0-0.1,0.1-0.4,0.1-0.6c0.1-1,0.1-2,0-3c0-0.1-0.1-0.4-0.1-0.6
	c0-0.3-0.1-0.5-0.1-0.8c0-0.1-0.1-0.5-0.1-0.7s-0.1-0.5-0.1-0.7c-0.1-0.2-0.2-0.5-0.1-0.7c-0.1-0.2-0.2-0.5-0.3-0.7
	c-0.1-0.2-0.2-0.4-0.3-0.6c-0.1-0.2-0.2-0.5-0.3-0.7c-0.1-0.2-0.2-0.4-0.4-0.6c-0.1-0.2-0.3-0.4-0.4-0.7c-0.2-0.2-0.3-0.4-0.5-0.6
	c-0.1-0.2-0.3-0.4-0.4-0.5c-0.3-0.4-0.6-0.8-1-1.1l-39.1-39.1c-5.9-5.9-15.4-5.9-21.2,0c-5.9,5.9-5.9,15.4,0,21.2l13.4,13.4h-41.9
	c-8.3,0-15,6.6-15,15c0,8.3,6.6,15,15,15h41.9l-13.4,13.4c-5.9,5.9-5.9,15.4,0,21.2c2.9,2.9,6.8,4.4,10.6,4.4
	c3.8,0,7.7-1.5,10.6-4.4l39-39C2036.4,362.6,2036.7,362.3,2037,361.9z"/>
<g>
	<g>
		<path class="st0" d="M733.1,269.3c-0.1-0.2,0-0.4-0.1-0.6c0-0.3-0.1-0.5-0.1-0.8c-0.1-0.2-0.1-0.5-0.2-0.8
			c-0.1-0.2-0.1-0.4-0.1-0.7c-0.1-0.2-0.2-0.5-0.3-0.7s-0.1-0.4-0.2-0.6s-0.2-0.5-0.3-0.7s-0.2-0.5-0.4-0.6
			c-0.1-0.2-0.3-0.4-0.4-0.6c-0.1-0.2-0.3-0.4-0.4-0.6c-0.1-0.3-0.3-0.4-0.5-0.6c-0.1-0.1-0.2-0.4-0.4-0.5c-0.6-0.8-1.3-1.5-2.1-2.1
			c-0.1-0.1-0.4-0.2-0.5-0.4c-0.2-0.2-0.4-0.3-0.6-0.5c-0.1-0.1-0.4-0.3-0.6-0.4c-0.2-0.1-0.4-0.3-0.6-0.4c-0.2-0.1-0.5-0.2-0.6-0.4
			c-0.2-0.1-0.5-0.2-0.7-0.3s-0.4-0.1-0.6-0.2s-0.5-0.2-0.7-0.3s-0.4-0.1-0.7-0.1c-0.2-0.1-0.5-0.1-0.8-0.2c-0.3,0-0.5-0.1-0.8-0.1
			c-0.2-0.1-0.5-0.1-0.6-0.1c-0.5-0.1-1-0.1-1.5-0.1H663c-8.3,0-15.1,6.7-15,15c0,8.3,6.7,15.1,15,15h19l-29.6,29.6
			c-5.9,5.9-5.9,15.3,0,21.2s15.3,5.9,21.2,0l29.6-29.6v19c0,8.3,6.7,15.1,15,15c4.1,0,7.9-1.7,10.6-4.4c2.7-2.7,4.4-6.5,4.4-10.6
			v-55.2C733.2,270.3,733.2,269.8,733.1,269.3z"/>
	</g>
	<g>
		<path class="st0" d="M719.6,448.8c0.2-0.1,0.4,0,0.6-0.1c0.3,0,0.5-0.1,0.8-0.1c0.2-0.1,0.5-0.1,0.8-0.2c0.2-0.1,0.4-0.1,0.7-0.1
			c0.2-0.1,0.5-0.2,0.7-0.3s0.4-0.1,0.6-0.2c0.2-0.1,0.5-0.2,0.7-0.3s0.5-0.2,0.6-0.4c0.2-0.1,0.4-0.3,0.6-0.4
			c0.2-0.1,0.4-0.3,0.6-0.4c0.3-0.1,0.4-0.3,0.6-0.5c0.1-0.1,0.4-0.2,0.5-0.4c0.8-0.6,1.5-1.3,2.1-2.1c0.1-0.1,0.2-0.4,0.4-0.5
			c0.2-0.2,0.3-0.4,0.5-0.6c0.1-0.1,0.3-0.4,0.4-0.6s0.3-0.4,0.4-0.6c0.1-0.2,0.2-0.5,0.4-0.6c0.1-0.2,0.2-0.5,0.3-0.7
			s0.1-0.4,0.2-0.6c0.1-0.2,0.2-0.5,0.3-0.7s0.1-0.4,0.1-0.7c0.1-0.2,0.1-0.5,0.2-0.8c0-0.3,0.1-0.5,0.1-0.8
			c0.1-0.2,0.1-0.5,0.1-0.6c0.1-0.5,0.1-1,0.1-1.5v-55.2c0-8.3-6.7-15.1-15-15c-8.3,0-15.1,6.7-15,15v19l-29.6-29.6
			c-5.9-5.9-15.3-5.9-21.2,0s-5.9,15.3,0,21.2l29.6,29.6h-19c-8.3,0-15.1,6.7-15,15c0,4.1,1.7,7.9,4.4,10.6
			c2.7,2.7,6.5,4.4,10.6,4.4H718C718.7,448.9,719.2,448.9,719.6,448.8z"/>
	</g>
</g>
<g>
	<path class="st0" d="M1677.9,361.8c0.1-0.2,0.3-0.3,0.4-0.5c0.2-0.2,0.3-0.4,0.5-0.6c0.1-0.2,0.3-0.4,0.4-0.7
		c0.1-0.2,0.2-0.4,0.4-0.6c0.1-0.2,0.2-0.5,0.3-0.7c0.1-0.2,0.2-0.4,0.3-0.6c0.1-0.2,0.2-0.5,0.3-0.7c0.1-0.2,0.2-0.5,0.1-0.7
		c0.1-0.2,0.1-0.5,0.1-0.7c0.1-0.2,0.1-0.5,0.1-0.7c0.1-0.3,0.1-0.5,0.1-0.8c0-0.1,0.1-0.4,0.1-0.6c0.1-1,0.1-2,0-3
		c0-0.1-0.1-0.4-0.1-0.6c0-0.3-0.1-0.5-0.1-0.8c0-0.1-0.1-0.5-0.1-0.7s-0.1-0.5-0.1-0.7c-0.1-0.2-0.2-0.5-0.1-0.7
		c-0.1-0.2-0.2-0.5-0.3-0.7c-0.1-0.2-0.2-0.4-0.3-0.6s-0.2-0.5-0.3-0.7c-0.1-0.2-0.2-0.4-0.4-0.6c-0.1-0.2-0.3-0.4-0.4-0.7
		c-0.2-0.2-0.3-0.4-0.5-0.6c-0.1-0.2-0.3-0.4-0.4-0.5c-0.3-0.4-0.6-0.8-1-1.1l-39-39c-5.9-5.9-15.4-5.9-21.2,0
		c-5.9,5.9-5.9,15.4,0,21.2l13.4,13.4h-41.9c-8.3,0-15,6.6-15,15c0,8.3,6.6,15,15,15h41.9l-13.4,13.4c-5.9,5.9-5.9,15.4,0,21.2
		c2.9,2.9,6.8,4.4,10.6,4.4c3.8,0,7.7-1.5,10.6-4.4l39-39C1677.4,362.5,1677.7,362.2,1677.9,361.8z"/>
</g>
<g>
	<circle class="st1" cx="842.5" cy="259.6" r="87.4"/>
	<circle class="st1" cx="842.5" cy="445.3" r="87.4"/>
	<g>
		<path class="st2" d="M822.5,245.8h-12.3v35.6h-10.1v-35.7h-12.3v-8h34.7L822.5,245.8L822.5,245.8z"/>
		<path class="st2" d="M856,270.1c0.2,0,0.5,0,0.7,0.1s0.5,0.2,0.7,0.5l4,4.2c-1.8,2.3-4,4-6.6,5.2s-5.8,1.8-9.4,1.8
			c-3.3,0-6.3-0.6-8.9-1.7s-4.9-2.7-6.7-4.7s-3.2-4.4-4.2-7.1c-1-2.7-1.5-5.7-1.5-8.9c0-3.3,0.5-6.3,1.6-9s2.6-5.1,4.5-7.1
			s4.2-3.5,6.9-4.6s5.6-1.6,8.9-1.6c1.6,0,3.2,0.1,4.6,0.4s2.8,0.7,4.1,1.2s2.4,1.1,3.5,1.8s2,1.5,2.8,2.3l-3.4,4.6
			c-0.2,0.3-0.5,0.5-0.8,0.8c-0.3,0.2-0.7,0.3-1.3,0.3c-0.4,0-0.7-0.1-1-0.2c-0.3-0.2-0.7-0.4-1-0.6c-0.4-0.2-0.8-0.5-1.2-0.8
			s-0.9-0.5-1.5-0.8c-0.6-0.2-1.3-0.4-2.1-0.6c-0.8-0.2-1.7-0.2-2.8-0.2c-1.7,0-3.2,0.3-4.6,0.9c-1.4,0.6-2.6,1.5-3.6,2.7
			s-1.8,2.7-2.3,4.4s-0.8,3.7-0.8,5.9s0.3,4.2,0.9,6c0.6,1.7,1.4,3.2,2.5,4.4c1,1.2,2.3,2.1,3.7,2.7c1.4,0.6,2.9,0.9,4.5,0.9
			c0.9,0,1.8,0,2.5-0.1c0.8-0.1,1.5-0.2,2.1-0.4s1.3-0.5,1.9-0.8c0.6-0.3,1.2-0.8,1.8-1.3c0.2-0.2,0.5-0.4,0.8-0.5
			C855.4,270.2,855.7,270.1,856,270.1z"/>
		<path class="st2" d="M881.3,237.7c3.1,0,5.7,0.4,7.9,1.1c2.2,0.7,4,1.7,5.5,3s2.5,2.8,3.2,4.5s1,3.6,1,5.6c0,2.2-0.4,4.2-1.1,6
			c-0.7,1.8-1.8,3.4-3.2,4.7s-3.3,2.3-5.5,3s-4.8,1.1-7.8,1.1H876v14.7h-10.1v-43.7H881.3z M881.3,259.2c2.6,0,4.5-0.6,5.7-1.9
			c1.2-1.3,1.7-3,1.7-5.3c0-1-0.1-1.9-0.5-2.7c-0.3-0.8-0.8-1.5-1.4-2.1c-0.6-0.6-1.4-1-2.3-1.4c-0.9-0.3-2-0.5-3.3-0.5h-5.3v13.9
			H881.3z"/>
	</g>
	<g>
		<path class="st2" d="M801.4,458.9c1.4,0,2.6-0.2,3.6-0.7c1.1-0.4,2-1.1,2.7-1.9c0.7-0.8,1.3-1.9,1.7-3.1c0.4-1.2,0.6-2.6,0.6-4.1
			v-25.9h10.1v25.9c0,2.7-0.4,5.1-1.3,7.4c-0.9,2.2-2.1,4.2-3.7,5.8s-3.6,2.9-5.9,3.8c-2.3,0.9-4.9,1.3-7.8,1.3
			c-2.9,0-5.5-0.5-7.9-1.3c-2.3-0.9-4.3-2.2-5.9-3.8s-2.9-3.5-3.7-5.8c-0.9-2.2-1.3-4.7-1.3-7.4v-25.9h10.1v25.9
			c0,1.5,0.2,2.9,0.6,4.1c0.4,1.2,1,2.2,1.7,3.1c0.7,0.8,1.6,1.5,2.7,1.9C798.8,458.7,800.1,458.9,801.4,458.9z"/>
		<path class="st2" d="M867.8,445.1c0,3.2-0.5,6.1-1.6,8.7s-2.6,5-4.6,6.9c-2,2-4.4,3.5-7.2,4.6s-5.9,1.6-9.3,1.6h-17v-43.7h17
			c3.4,0,6.5,0.5,9.3,1.6s5.2,2.6,7.2,4.6c2,1.9,3.5,4.2,4.6,6.9S867.8,441.9,867.8,445.1z M857.4,445.1c0-2.2-0.3-4.1-0.8-5.9
			c-0.6-1.7-1.4-3.2-2.4-4.4s-2.3-2.1-3.9-2.8c-1.5-0.6-3.3-1-5.2-1h-6.8v28.1h6.8c1.9,0,3.7-0.3,5.2-1c1.5-0.6,2.8-1.6,3.9-2.8
			c1-1.2,1.9-2.7,2.4-4.4C857.1,449.2,857.4,447.2,857.4,445.1z"/>
		<path class="st2" d="M889.2,423.2c3.1,0,5.7,0.4,7.9,1.1c2.2,0.7,4,1.7,5.5,3c1.4,1.3,2.5,2.8,3.2,4.5s1,3.6,1,5.6
			c0,2.2-0.4,4.2-1.1,6c-0.7,1.8-1.8,3.4-3.2,4.7s-3.3,2.3-5.5,3s-4.8,1.1-7.8,1.1h-5.3v14.6h-10.1v-43.7h15.4V423.2z M889.2,444.7
			c2.6,0,4.5-0.6,5.7-1.9s1.7-3,1.7-5.3c0-1-0.1-1.9-0.5-2.7c-0.3-0.8-0.8-1.5-1.4-2.1c-0.6-0.6-1.4-1-2.3-1.4
			c-0.9-0.3-2-0.5-3.3-0.5h-5.3v13.9H889.2z"/>
	</g>
</g>
<g>
	<circle class="st1" cx="1492.6" cy="259.6" r="87.4"/>
	<circle class="st1" cx="1492.6" cy="445.3" r="87.4"/>
	<g>
		<path class="st2" d="M1472.6,245.8h-12.3v35.6h-10.1v-35.7h-12.3v-8h34.7V245.8L1472.6,245.8z"/>
		<path class="st2" d="M1506.1,270.1c0.2,0,0.5,0,0.7,0.1c0.2,0.1,0.5,0.2,0.7,0.5l4,4.2c-1.8,2.3-4,4-6.6,5.2s-5.8,1.8-9.4,1.8
			c-3.3,0-6.3-0.6-8.9-1.7c-2.6-1.1-4.9-2.7-6.7-4.7c-1.8-2-3.2-4.4-4.2-7.1c-1-2.7-1.5-5.7-1.5-8.9c0-3.3,0.5-6.3,1.6-9
			s2.6-5.1,4.5-7.1s4.2-3.5,6.9-4.6c2.7-1.1,5.6-1.6,8.9-1.6c1.6,0,3.2,0.1,4.6,0.4c1.4,0.3,2.8,0.7,4.1,1.2
			c1.3,0.5,2.4,1.1,3.5,1.8s2,1.5,2.8,2.3l-3.4,4.6c-0.2,0.3-0.5,0.5-0.8,0.8c-0.3,0.2-0.7,0.3-1.3,0.3c-0.4,0-0.7-0.1-1-0.2
			c-0.3-0.2-0.7-0.4-1-0.6c-0.4-0.2-0.8-0.5-1.2-0.8s-0.9-0.5-1.5-0.8c-0.6-0.2-1.3-0.4-2.1-0.6c-0.8-0.2-1.7-0.2-2.8-0.2
			c-1.7,0-3.2,0.3-4.6,0.9c-1.4,0.6-2.6,1.5-3.6,2.7s-1.8,2.7-2.3,4.4s-0.8,3.7-0.8,5.9s0.3,4.2,0.9,6c0.6,1.7,1.4,3.2,2.5,4.4
			c1,1.2,2.3,2.1,3.7,2.7c1.4,0.6,2.9,0.9,4.5,0.9c0.9,0,1.8,0,2.5-0.1c0.8-0.1,1.5-0.2,2.1-0.4s1.3-0.5,1.9-0.8
			c0.6-0.3,1.2-0.8,1.8-1.3c0.2-0.2,0.5-0.4,0.8-0.5C1505.5,270.2,1505.8,270.1,1506.1,270.1z"/>
		<path class="st2" d="M1531.4,237.7c3.1,0,5.7,0.4,7.9,1.1c2.2,0.7,4,1.7,5.5,3s2.5,2.8,3.2,4.5c0.7,1.7,1,3.6,1,5.6
			c0,2.2-0.4,4.2-1.1,6c-0.7,1.8-1.8,3.4-3.2,4.7s-3.3,2.3-5.5,3c-2.2,0.7-4.8,1.1-7.8,1.1h-5.3v14.7H1516v-43.7H1531.4z
			 M1531.4,259.2c2.6,0,4.5-0.6,5.7-1.9c1.2-1.3,1.7-3,1.7-5.3c0-1-0.1-1.9-0.5-2.7c-0.3-0.8-0.8-1.5-1.4-2.1
			c-0.6-0.6-1.4-1-2.3-1.4c-0.9-0.3-2-0.5-3.3-0.5h-5.3v13.9H1531.4z"/>
	</g>
	<g>
		<path class="st2" d="M1451.5,458.9c1.4,0,2.6-0.2,3.6-0.7c1.1-0.4,2-1.1,2.7-1.9c0.7-0.8,1.3-1.9,1.7-3.1c0.4-1.2,0.6-2.6,0.6-4.1
			v-25.9h10.1v25.9c0,2.7-0.4,5.1-1.3,7.4c-0.9,2.2-2.1,4.2-3.7,5.8c-1.6,1.6-3.6,2.9-5.9,3.8c-2.3,0.9-4.9,1.3-7.8,1.3
			c-2.9,0-5.5-0.5-7.9-1.3c-2.3-0.9-4.3-2.2-5.9-3.8c-1.6-1.6-2.9-3.5-3.7-5.8c-0.9-2.2-1.3-4.7-1.3-7.4v-25.9h10.1v25.9
			c0,1.5,0.2,2.9,0.6,4.1c0.4,1.2,1,2.2,1.7,3.1c0.7,0.8,1.6,1.5,2.7,1.9C1448.9,458.7,1450.2,458.9,1451.5,458.9z"/>
		<path class="st2" d="M1517.9,445.1c0,3.2-0.5,6.1-1.6,8.7s-2.6,5-4.6,6.9c-2,2-4.4,3.5-7.2,4.6c-2.8,1.1-5.9,1.6-9.3,1.6h-17
			v-43.7h17c3.4,0,6.5,0.5,9.3,1.6c2.8,1.1,5.2,2.6,7.2,4.6c2,1.9,3.5,4.2,4.6,6.9S1517.9,441.9,1517.9,445.1z M1507.5,445.1
			c0-2.2-0.3-4.1-0.8-5.9c-0.6-1.7-1.4-3.2-2.4-4.4s-2.3-2.1-3.9-2.8c-1.5-0.6-3.3-1-5.2-1h-6.8v28.1h6.8c1.9,0,3.7-0.3,5.2-1
			c1.5-0.6,2.8-1.6,3.9-2.8c1-1.2,1.9-2.7,2.4-4.4C1507.2,449.2,1507.5,447.2,1507.5,445.1z"/>
		<path class="st2" d="M1539.3,423.2c3.1,0,5.7,0.4,7.9,1.1c2.2,0.7,4,1.7,5.5,3c1.4,1.3,2.5,2.8,3.2,4.5c0.7,1.7,1,3.6,1,5.6
			c0,2.2-0.4,4.2-1.1,6s-1.8,3.4-3.2,4.7s-3.3,2.3-5.5,3c-2.2,0.7-4.8,1.1-7.8,1.1h-5.3v14.6h-10.1v-43.7h15.4V423.2z M1539.3,444.7
			c2.6,0,4.5-0.6,5.7-1.9c1.2-1.3,1.7-3,1.7-5.3c0-1-0.1-1.9-0.5-2.7c-0.3-0.8-0.8-1.5-1.4-2.1s-1.4-1-2.3-1.4
			c-0.9-0.3-2-0.5-3.3-0.5h-5.3v13.9H1539.3z"/>
	</g>
</g>
<g>
	<circle class="st3" cx="1224.3" cy="352.4" r="87.4"/>
	<g>
		<path class="st2" d="M1192.5,332.5v39.6h-9.2v-16.8h-16.1v16.8h-9.2v-39.6h9.2v16.6h16.1v-16.6H1192.5z"/>
		<path class="st2" d="M1228.7,339.8h-11.2v32.3h-9.2v-32.3h-11.2v-7.3h31.5L1228.7,339.8L1228.7,339.8z"/>
		<path class="st2" d="M1261.8,339.8h-11.2v32.3h-9.2v-32.3h-11.2v-7.3h31.5L1261.8,339.8L1261.8,339.8z"/>
		<path class="st2" d="M1280.4,332.5c2.8,0,5.2,0.3,7.2,1s3.7,1.6,5,2.7c1.3,1.2,2.3,2.5,2.9,4.1s0.9,3.3,0.9,5.1c0,2-0.3,3.8-1,5.4
			s-1.6,3.1-2.9,4.2c-1.3,1.2-3,2.1-5,2.8c-2,0.7-4.4,1-7.1,1h-4.8V372h-9.2v-39.6L1280.4,332.5L1280.4,332.5z M1280.4,352
			c2.4,0,4.1-0.6,5.2-1.7s1.6-2.7,1.6-4.8c0-0.9-0.1-1.7-0.4-2.5c-0.3-0.7-0.7-1.4-1.2-1.9c-0.6-0.5-1.3-0.9-2.1-1.2
			c-0.8-0.3-1.8-0.4-3-0.4h-4.8V352H1280.4z"/>
	</g>
</g>
<g>
	<path class="st4" d="M264.3,137.3c0-1.1-0.5-2.2-1.3-2.9l-21.3-18.2V85.1c0-6-4.9-10.9-10.9-10.9H193l-0.1-0.1l-33.2-28.3
		c-1.4-1.2-3.5-1.2-4.9,0l-33.1,28.4H82.5c-6,0-10.9,4.9-10.9,10.9v32l-20.2,17.3c-0.8,0.7-1.3,1.8-1.3,2.9v0.1v133.1
		c0,5.5,4.4,9.9,9.9,9.9h194.3c5.5,0,9.9-4.4,9.9-9.9L264.3,137.3L264.3,137.3z"/>
	<path class="st5" d="M264.8,137.3c0-1.1-0.5-2.2-1.3-2.9l-21.2-18.2V85.1c0-6-4.9-10.9-10.9-10.9h-37.8l-0.1-0.1l-33.2-28.3
		c-1.4-1.2-3.5-1.2-4.9,0l-33,28.3H83.1c-6,0-10.9,4.9-10.9,10.9v32L52,134.3c-0.8,0.7-1.3,1.8-1.3,2.9v0.1v133.1
		c0,5.5,4.4,9.9,9.9,9.9h194.3c5.5,0,9.9-4.4,9.9-9.9V137.3L264.8,137.3z M128.4,205.6l-70,60.1V145.6L128.4,205.6z M134.2,210.6
		l21.1,18.1c0.7,0.6,1.6,0.9,2.5,0.9s1.8-0.3,2.5-0.9l21.1-18.1l72.5,62.2H61.7L134.2,210.6z M187.2,205.6l70.1-60.1v120.2
		L187.2,205.6z M255.2,137.3l-13,11.1v-22.2L255.2,137.3z M157.8,53.7l24.1,20.5H134L157.8,53.7z M83.1,81.8h148.3
		c1.8,0,3.3,1.5,3.3,3.3v32.1c-0.1,0.4-0.1,0.9,0,1.3v36.4l-76.9,65.9l-78-66.8V85.1C79.8,83.3,81.3,81.8,83.1,81.8z M72.2,127.1
		v20.4l-11.9-10.2L72.2,127.1z"/>
	<path class="st2" d="M157.2,92.5c-24.7,0-44.8,20.1-44.8,44.8s20.1,44.8,44.8,44.8c7.8,0,15.5-2,22.2-5.9c1.8-1,2.5-3.4,1.4-5.2
		c-1-1.8-3.4-2.5-5.2-1.4c-5.6,3.2-11.9,4.9-18.4,4.9c-20.5,0-37.2-16.7-37.2-37.2s16.7-37.2,37.2-37.2s37.2,16.7,37.2,37.2
		c0,13-5.9,17.9-9.8,18c-3,0.1-5.2-2.3-5.5-6.1v-11.3c0-0.2,0-0.4,0-0.6s0-0.4,0-0.6v-17.4c0-2.1-1.7-3.8-3.8-3.8s-3.8,1.7-3.8,3.8
		v1.5c-3.8-3.3-8.8-5.3-14.2-5.3c-12,0-21.8,9.8-21.8,21.8s9.8,21.8,21.8,21.8c5.8,0,11-2.3,14.9-5.9c1.8,6,6.7,9.9,12.7,9.7
		c8.3-0.3,17.1-8.4,17.1-25.6C202,112.6,181.9,92.5,157.2,92.5z M171.5,137.9c-0.3,7.6-6.6,13.6-14.2,13.6
		c-7.9,0-14.2-6.4-14.2-14.2s6.4-14.2,14.2-14.2c7.6,0,13.9,6,14.2,13.6V137.9z"/>
</g>
<g>
	<path class="st1" d="M46.5,454.3v32.1c0,2.8,1.1,5.4,3,7.3c1.9,1.8,4.5,3,7.3,3h181.6c2.8,0,5.4-1.1,7.3-3c1.8-1.9,3-4.5,3-7.3
		v-32.1c0-2.8-1.1-5.4-3-7.3c-1.9-1.8-4.5-3-7.3-3h-13.7v-49.3c0-1.2-0.9-2.1-2.1-2.1H221v-43.3c0-1.6-0.6-3-1.7-4.1l-1.5,1.5
		l1.5-1.5l-0.1-0.1c-1.1-1-2.5-1.6-4-1.6l0,0c-1.6,0-3,0.6-4.1,1.7l1.5,1.5l-1.5-1.5l-0.1,0.1c-1,1.1-1.6,2.5-1.6,4v43.3h-1.6
		c-1.2,0-2.1,0.9-2.1,2.1V444H56.8c-2.8,0-5.4,1.1-7.3,3C47.7,448.8,46.5,451.4,46.5,454.3z"/>
	<g>
		<path d="M245.7,446.9c1.8,1.9,3,4.5,3,7.3v32.1c0,2.8-1.1,5.4-3,7.3c-1.9,1.8-4.5,3-7.3,3H56.8c-2.8,0-5.4-1.1-7.3-3
			c-1.8-1.9-3-4.5-3-7.3v-32.1c0-2.8,1.1-5.4,3-7.3c1.9-1.8,4.5-3,7.3-3h181.6C241.2,443.9,243.8,445.1,245.7,446.9z M52.5,449.9
			c-1.1,1.1-1.8,2.6-1.8,4.3v32.1c0,1.7,0.7,3.2,1.8,4.3s2.6,1.8,4.3,1.8h181.6c1.7,0,3.2-0.7,4.3-1.8c1.1-1.1,1.8-2.6,1.8-4.3
			v-32.1c0-1.7-0.7-3.2-1.8-4.3c-1.1-1.1-2.6-1.8-4.3-1.8H56.8C55.1,448.1,53.6,448.8,52.5,449.9z"/>
		<path d="M229.9,463.3c1.8,1.8,2.9,4.3,2.9,7s-1.1,5.2-2.9,7c-1.8,1.8-4.3,2.9-7,2.9s-5.2-1.1-7-2.9s-2.9-4.3-2.9-7s1.1-5.2,2.9-7
			c1.8-1.8,4.3-2.9,7-2.9S228.1,461.5,229.9,463.3z"/>
		<circle class="st6" cx="196.6" cy="470.3" r="3.2"/>
		<circle class="st6" cx="184.3" cy="470.3" r="3.2"/>
		<circle class="st6" cx="172" cy="470.3" r="3.2"/>
		<path d="M143,472.4c1.2,0,2.1-0.9,2.1-2.1c0-1.2-0.9-2.1-2.1-2.1H64.5c-1.2,0-2.1,0.9-2.1,2.1c0,1.2,0.9,2.1,2.1,2.1H143z"/>
		<path d="M224.8,394.7l0,51.4c0,1.2-0.9,2.1-2.1,2.1h-14.9c-1.2,0-2.1-0.9-2.1-2.1v-51.4c0-1.2,0.9-2.1,2.1-2.1h14.9
			C223.9,392.6,224.8,393.5,224.8,394.7z M209.9,444h10.7l0-47.2h-10.7C209.9,396.8,209.9,444,209.9,444z"/>
		<path d="M219.3,345l0.1,0.1l-1.5,1.5l1.5-1.5c1,1,1.7,2.5,1.7,4.1v45.4c0,1.2-0.9,2.1-2.1,2.1h-7.5c-1.2,0-2.1-0.9-2.1-2.1v-45.4
			c0-1.6,0.6-3,1.6-4l0.1-0.1l1.5,1.5l-1.5-1.5c1-1,2.5-1.7,4.1-1.7l0,0C216.8,343.4,218.2,344,219.3,345z M214.1,348.1L214.1,348.1
			L214.1,348.1C214,348.2,214,348.2,214.1,348.1c-0.3,0.4-0.5,0.8-0.5,1.2v43.3h3.3v-43.3c0-0.5-0.2-0.9-0.5-1.2l0,0l0,0
			c-0.1-0.1-0.1-0.1-0.1-0.1c-0.3-0.2-0.7-0.4-1.1-0.4l0,0C214.8,347.6,214.4,347.8,214.1,348.1z"/>
		<path class="st7" d="M198,357.3c-13.9-13.9-13.9-36.3,0-50.2"/>
		<path d="M185.5,332.2c0,9.6,3.7,19.3,11,26.6c0.8,0.8,2.2,0.8,3,0s0.8-2.2,0-3c-6.5-6.5-9.8-15.1-9.8-23.6s3.3-17.1,9.8-23.6
			c0.8-0.8,0.8-2.2,0-3s-2.2-0.8-3,0C189.2,312.9,185.5,322.6,185.5,332.2z"/>
		<path class="st7" d="M202.8,348.4c-9-9-9-23.5,0-32.5"/>
		<path d="M193.9,332.2c0,6.5,2.5,12.9,7.4,17.8c0.8,0.8,2.2,0.8,3,0s0.8-2.2,0-3c-4.1-4.1-6.1-9.5-6.1-14.8c0-5.4,2-10.7,6.1-14.8
			c0.8-0.8,0.8-2.2,0-3s-2.2-0.8-3,0C196.4,319.3,193.9,325.8,193.9,332.2z"/>
		<path class="st7" d="M207.5,339.7c-4.1-4.1-4.1-10.8,0-14.9"/>
		<path d="M202.3,332.2c0,3.2,1.2,6.4,3.7,8.9c0.8,0.8,2.2,0.8,3,0s0.8-2.2,0-3c-1.7-1.6-2.5-3.7-2.5-5.9c0-2.1,0.9-4.3,2.5-5.9
			c0.8-0.8,0.8-2.2,0-3s-2.2-0.8-3,0C203.6,325.7,202.3,329,202.3,332.2z"/>
		<path class="st7" d="M232.5,357.3c13.9-13.9,13.9-36.3,0-50.2"/>
		<path d="M231,308.6c6.5,6.5,9.8,15,9.8,23.6c0,8.5-3.3,17.1-9.8,23.6l0,0c-0.8,0.8-0.8,2.2,0,3s2.2,0.8,3,0l0,0
			c7.3-7.4,11-17,11-26.6s-3.7-19.3-11-26.6l0,0c-0.8-0.8-2.2-0.8-3,0S230.2,307.8,231,308.6L231,308.6z"/>
		<path class="st7" d="M227.7,348.4c9-9,9-23.5,0-32.5"/>
		<path d="M232.3,332.2c0,5.4-2,10.7-6.1,14.8c-0.8,0.8-0.8,2.2,0,3s2.2,0.8,3,0c4.9-4.9,7.4-11.4,7.4-17.8c0-6.5-2.5-12.9-7.4-17.8
			c-0.8-0.8-2.2-0.8-3,0s-0.8,2.2,0,3C230.3,321.5,232.4,326.8,232.3,332.2z"/>
		<path class="st7" d="M223,339.7c4.1-4.1,4.1-10.8,0-14.9"/>
		<path d="M224,332.1c0,2.1-0.9,4.3-2.5,5.9c-0.8,0.8-0.8,2.2,0,3s2.2,0.8,3,0c2.5-2.4,3.7-5.7,3.7-8.9s-1.2-6.4-3.7-8.9
			c-0.8-0.8-2.2-0.8-3,0s-0.8,2.2,0,3C223.1,327.9,224,330,224,332.1z"/>
		<path d="M219.8,327.4c1.2,1.2,1.9,2.9,1.9,4.7s-0.7,3.5-1.9,4.7s-2.9,1.9-4.7,1.9s-3.5-0.7-4.7-1.9c-1.2-1.2-1.9-2.9-1.9-4.7
			s0.7-3.5,1.9-4.7s2.9-1.9,4.7-1.9C216.9,325.5,218.6,326.3,219.8,327.4z M212.7,332.2c0,0.7,0.3,1.3,0.7,1.7s1,0.7,1.7,0.7
			s1.3-0.3,1.7-0.7s0.7-1,0.7-1.7s-0.3-1.3-0.7-1.7c-0.4-0.4-1-0.7-1.7-0.7s-1.3,0.3-1.7,0.7C212.9,330.9,212.7,331.5,212.7,332.2z"
			/>
	</g>
	<path class="st8" d="M217.1,470.4c0,1.6,0.7,3.1,1.7,4.1c1.1,1.1,2.5,1.7,4.1,1.7c1.6,0,3.1-0.7,4.1-1.7c1.1-1.1,1.7-2.5,1.7-4.1
		s-0.7-3.1-1.7-4.1c-1.1-1.1-2.5-1.7-4.1-1.7c-1.6,0-3.1,0.7-4.1,1.7S217.1,468.8,217.1,470.4z"/>
</g>
<path class="st0" d="M149.5,109c0.2,0.1,0.3,0.3,0.4,0.3c0.2,0.2,0.3,0.3,0.6,0.4c0.2,0.1,0.3,0.3,0.6,0.3c0.2,0.1,0.3,0.2,0.5,0.3
	c0.2,0.1,0.4,0.2,0.6,0.3c0.2,0.1,0.3,0.2,0.5,0.3c0.2,0.1,0.4,0.2,0.6,0.3c0.2,0.1,0.4,0.2,0.6,0.2c0.2,0.1,0.4,0.1,0.6,0.2
	c0.2,0.1,0.4,0.1,0.6,0.2c0.3,0.1,0.4,0.1,0.7,0.1c0.2,0,0.3,0.1,0.5,0.1c0.8,0.1,1.7,0.1,2.5,0c0.2,0,0.3-0.1,0.5-0.1
	c0.3,0,0.4-0.1,0.7-0.1c0.2,0,0.4-0.1,0.6-0.2c0.2-0.1,0.4-0.1,0.6-0.2c0.2-0.1,0.4-0.2,0.6-0.2c0.2-0.1,0.4-0.2,0.6-0.3
	c0.2-0.1,0.3-0.2,0.5-0.3s0.4-0.2,0.6-0.3c0.2-0.1,0.3-0.2,0.5-0.3c0.2-0.1,0.3-0.3,0.6-0.3c0.2-0.2,0.3-0.3,0.6-0.4
	c0.2-0.1,0.3-0.3,0.4-0.3c0.3-0.3,0.7-0.5,0.9-0.8l32.6-32.6c4.9-4.9,4.9-12.9,0-17.7c-4.9-4.9-12.9-4.9-17.7,0L170,69.1V34
	c0-6.9-5.6-12.5-12.5-12.5c-6.9,0-12.5,5.6-12.5,12.5v35l-11.1-11.2c-4.9-4.9-12.9-4.9-17.7,0c-2.4,2.4-3.7,5.7-3.7,8.9
	c0,3.2,1.3,6.4,3.7,8.9l32.6,32.6C148.9,108.5,149.1,108.8,149.5,109z"/>
<path class="st9" d="M439.8,259.2h164.3c6.2,0,11.9,2.5,16,6.6s6.6,9.8,6.6,16v108.3c0,6.2-2.5,11.9-6.6,16s-9.8,6.6-16,6.6h-64.3
	l1.3,16.7h27.1c2.2,0,4.3,0.9,5.7,2.4c1.5,1.5,2.4,3.5,2.4,5.7v5.1c0,1.7-1.3,3-3,3H470.5c-1.7,0-3-1.3-3-3v-5.1
	c0-2.2,0.9-4.3,2.4-5.7c1.5-1.5,3.5-2.4,5.7-2.4h27.1l1.3-16.7h-64.3c-6.2,0-11.9-2.5-16-6.6s-6.6-9.8-6.6-16V281.8
	c0-6.2,2.5-11.9,6.6-16C427.9,261.7,433.5,259.2,439.8,259.2L439.8,259.2z"/>
<path class="st6" d="M620.1,265.8c-4.1-4.1-9.8-6.6-16-6.6H439.8l0,0c-6.2,0-11.9,2.5-16,6.6s-6.6,9.8-6.6,16v108.3
	c0,6.2,2.5,11.9,6.6,16s9.8,6.6,16,6.6h64.3l-1.3,16.7h-27.1c-2.2,0-4.3,0.9-5.7,2.4c-1.5,1.5-2.4,3.5-2.4,5.7v5.1c0,1.7,1.3,3,3,3
	h102.8c1.7,0,3-1.3,3-3v-5.1c0-2.2-0.9-4.3-2.4-5.7c-1.5-1.5-3.5-2.4-5.7-2.4h-27.1l-1.3-16.7h64.3c6.2,0,11.9-2.5,16-6.6
	s6.6-9.8,6.6-16V281.8C626.7,275.6,624.2,269.9,620.1,265.8z M568.2,435.4L568.2,435.4c0.6,0,1.1,0.2,1.5,0.6
	c0.4,0.4,0.6,0.9,0.6,1.5v2.1h-96.8v-2.1c0-0.6,0.2-1.1,0.6-1.5c0.4-0.4,0.9-0.6,1.5-0.6H568.2z M508.8,429.5l1.3-16.7h23.7
	l1.3,16.7H508.8z M620.7,378.4H423.1v-96.6c0-4.6,1.9-8.7,4.9-11.7s7.2-4.9,11.7-4.9H604c4.6,0,8.7,1.9,11.7,4.9s4.9,7.2,4.9,11.7
	L620.7,378.4L620.7,378.4z"/>
<path class="st6" d="M620.7,384.4H423.1v5.7c0,4.6,1.9,8.7,4.9,11.7s7.2,4.9,11.7,4.9H604c4.6,0,8.7-1.9,11.7-4.9s4.9-7.2,4.9-11.7
	L620.7,384.4z"/>
<path class="st10" d="M620.7,384.4H423.1v5.7c0,4.6,1.9,8.7,4.9,11.7s7.2,4.9,11.7,4.9H604c4.6,0,8.7-1.9,11.7-4.9s4.9-7.2,4.9-11.7
	L620.7,384.4z"/>
<g>
	<g class="st11">
		<path class="st2" d="M447,352.8v2.5h-9.4v-2.5h3.2v-8.3c0-0.2,0-0.4,0-0.6c0-0.2,0-0.4,0-0.7l-1.9,1.6c-0.2,0.1-0.3,0.2-0.5,0.2
			s-0.3,0-0.5,0s-0.3-0.1-0.4-0.1c-0.1-0.1-0.2-0.1-0.2-0.2l-1.1-1.5l5.1-4.3h2.9v14H447z"/>
		<path class="st2" d="M460.8,348.9v2c0,0.2-0.1,0.3-0.2,0.5c-0.1,0.1-0.3,0.2-0.5,0.2h-1v3.8h-3.1v-3.8h-6.6
			c-0.2,0-0.4-0.1-0.6-0.2s-0.3-0.3-0.3-0.5l-0.4-1.7l7.6-10.2h3.3v10.1H460.8z M456.1,348.9v-4.3c0-0.3,0-0.5,0-0.9
			c0-0.3,0-0.6,0.1-1l-4.4,6.1H456.1z"/>
		<path class="st2" d="M474,347.1c0,1.4-0.2,2.7-0.5,3.7c-0.3,1.1-0.7,1.9-1.3,2.6s-1.2,1.2-1.9,1.5c-0.8,0.3-1.6,0.5-2.4,0.5
			s-1.7-0.2-2.4-0.5c-0.7-0.3-1.4-0.9-1.9-1.5c-0.5-0.7-1-1.6-1.3-2.6c-0.3-1.1-0.5-2.3-0.5-3.7c0-1.4,0.2-2.7,0.5-3.7
			c0.3-1.1,0.7-1.9,1.3-2.6c0.5-0.7,1.2-1.2,1.9-1.5c0.7-0.3,1.6-0.5,2.4-0.5s1.7,0.2,2.4,0.5c0.8,0.3,1.4,0.8,1.9,1.5
			c0.5,0.7,1,1.6,1.3,2.6C473.9,344.4,474,345.7,474,347.1z M470.4,347.1c0-1.1-0.1-2.1-0.2-2.8s-0.3-1.3-0.6-1.7
			c-0.2-0.4-0.5-0.7-0.8-0.9c-0.3-0.2-0.6-0.2-0.9-0.2s-0.6,0.1-0.9,0.2s-0.6,0.4-0.8,0.9c-0.2,0.4-0.4,1-0.6,1.7
			c-0.1,0.7-0.2,1.7-0.2,2.8c0,1.1,0.1,2.1,0.2,2.8c0.1,0.7,0.3,1.3,0.6,1.7c0.2,0.4,0.5,0.7,0.8,0.9c0.3,0.2,0.6,0.2,0.9,0.2
			s0.6-0.1,0.9-0.2c0.3-0.2,0.6-0.4,0.8-0.9c0.2-0.4,0.4-1,0.6-1.7C470.3,349.2,470.4,348.3,470.4,347.1z"/>
		<path class="st2" d="M475.2,353.6c0-0.3,0.1-0.5,0.2-0.8c0.1-0.2,0.2-0.4,0.4-0.6c0.2-0.2,0.4-0.3,0.6-0.4s0.5-0.2,0.8-0.2
			c0.3,0,0.5,0.1,0.8,0.2s0.5,0.2,0.6,0.4c0.2,0.2,0.3,0.4,0.4,0.6c0.1,0.2,0.2,0.5,0.2,0.8c0,0.3-0.1,0.5-0.2,0.8
			c-0.1,0.2-0.2,0.4-0.4,0.6c-0.2,0.2-0.4,0.3-0.6,0.4c-0.2,0.1-0.5,0.1-0.8,0.1c-0.3,0-0.6,0-0.8-0.1c-0.2-0.1-0.5-0.2-0.6-0.4
			c-0.2-0.2-0.3-0.4-0.4-0.6C475.2,354.1,475.2,353.8,475.2,353.6z"/>
		<path class="st2" d="M490.9,352.2c0.4,0,0.7,0.1,0.9,0.3c0.2,0.2,0.3,0.5,0.3,0.8v2h-11.6v-1.1c0-0.2,0-0.5,0.1-0.7
			c0.1-0.2,0.2-0.5,0.5-0.7l4.7-4.8c0.4-0.4,0.8-0.8,1.1-1.2c0.3-0.4,0.5-0.7,0.7-1.1c0.2-0.4,0.3-0.7,0.4-1.1
			c0.1-0.4,0.1-0.7,0.1-1.1c0-0.7-0.2-1.2-0.5-1.5c-0.3-0.4-0.8-0.5-1.4-0.5c-0.5,0-1,0.1-1.3,0.4c-0.4,0.3-0.6,0.6-0.7,1
			c-0.2,0.4-0.4,0.7-0.6,0.8c-0.3,0.1-0.6,0.2-1.1,0.1l-1.9-0.3c0.1-0.8,0.4-1.5,0.7-2.1c0.3-0.6,0.8-1.1,1.3-1.5s1.1-0.7,1.7-0.9
			c0.7-0.2,1.4-0.3,2.1-0.3c0.8,0,1.5,0.1,2.2,0.4s1.2,0.6,1.7,1c0.5,0.4,0.8,0.9,1.1,1.5c0.2,0.6,0.4,1.2,0.4,1.9
			c0,0.6-0.1,1.2-0.3,1.7c-0.2,0.5-0.4,1-0.7,1.5c-0.3,0.5-0.6,0.9-1,1.3c-0.4,0.4-0.8,0.9-1.2,1.3l-3.2,3.3
			c0.4-0.1,0.8-0.2,1.2-0.3c0.4-0.1,0.8-0.1,1.1-0.1H490.9z"/>
		<path class="st2" d="M505.6,348.9v2c0,0.2-0.1,0.3-0.2,0.5c-0.1,0.1-0.3,0.2-0.5,0.2h-1v3.8h-3.1v-3.8h-6.6
			c-0.2,0-0.4-0.1-0.6-0.2s-0.3-0.3-0.3-0.5l-0.4-1.7l7.6-10.2h3.3v10.1H505.6z M500.8,348.9v-4.3c0-0.3,0-0.5,0-0.9
			c0-0.3,0-0.6,0.1-1l-4.4,6.1H500.8z"/>
		<path class="st2" d="M518,352.8v2.5h-9.4v-2.5h3.2v-8.3c0-0.2,0-0.4,0-0.6c0-0.2,0-0.4,0-0.7l-1.9,1.6c-0.2,0.1-0.3,0.2-0.5,0.2
			s-0.3,0-0.5,0s-0.3-0.1-0.4-0.1c-0.1-0.1-0.2-0.1-0.2-0.2l-1.1-1.5l5.1-4.3h2.9v14H518z"/>
		<path class="st2" d="M519.9,353.6c0-0.3,0.1-0.5,0.2-0.8c0.1-0.2,0.2-0.4,0.4-0.6c0.2-0.2,0.4-0.3,0.6-0.4s0.5-0.2,0.8-0.2
			c0.3,0,0.5,0.1,0.8,0.2s0.5,0.2,0.6,0.4c0.2,0.2,0.3,0.4,0.4,0.6c0.1,0.2,0.2,0.5,0.2,0.8c0,0.3-0.1,0.5-0.2,0.8
			c-0.1,0.2-0.2,0.4-0.4,0.6c-0.2,0.2-0.4,0.3-0.6,0.4c-0.2,0.1-0.5,0.1-0.8,0.1c-0.3,0-0.6,0-0.8-0.1c-0.2-0.1-0.5-0.2-0.6-0.4
			c-0.2-0.2-0.3-0.4-0.4-0.6C520,354.1,519.9,353.8,519.9,353.6z"/>
		<path class="st2" d="M536.5,352.8v2.5h-9.4v-2.5h3.2v-8.3c0-0.2,0-0.4,0-0.6c0-0.2,0-0.4,0-0.7l-1.9,1.6c-0.2,0.1-0.3,0.2-0.5,0.2
			s-0.3,0-0.5,0s-0.3-0.1-0.4-0.1c-0.1-0.1-0.2-0.1-0.2-0.2l-1.1-1.5l5.1-4.3h2.9v14H536.5z"/>
		<path class="st2" d="M544.8,349.1c0.1-0.1,0.2-0.3,0.3-0.4c0.1-0.1,0.2-0.2,0.3-0.4c-0.7,0.4-1.5,0.6-2.4,0.6
			c-0.5,0-1.1-0.1-1.6-0.3s-1-0.5-1.5-0.9c-0.4-0.4-0.8-0.9-1.1-1.5c-0.3-0.6-0.4-1.3-0.4-2.1c0-0.7,0.1-1.5,0.4-2.1
			c0.3-0.7,0.7-1.2,1.2-1.7c0.5-0.5,1.1-0.9,1.8-1.2c0.7-0.3,1.5-0.4,2.4-0.4c0.9,0,1.7,0.1,2.4,0.4c0.7,0.3,1.3,0.7,1.8,1.1
			s0.9,1.1,1.1,1.7s0.4,1.4,0.4,2.2c0,1.1-0.2,2-0.5,2.9c-0.3,0.9-0.8,1.7-1.3,2.4l-3.5,5c-0.2,0.2-0.4,0.4-0.7,0.6
			c-0.3,0.2-0.7,0.2-1.1,0.2h-3.2L544.8,349.1z M541.9,343.9c0,1.6,0.8,2.5,2.3,2.5c0.7,0,1.3-0.2,1.7-0.7s0.6-1,0.6-1.8
			c0-0.4-0.1-0.8-0.2-1.1c-0.1-0.3-0.3-0.6-0.5-0.8c-0.2-0.2-0.5-0.4-0.8-0.5c-0.3-0.1-0.6-0.2-1-0.2c-0.4,0-0.7,0.1-0.9,0.2
			c-0.3,0.1-0.5,0.3-0.7,0.5s-0.3,0.5-0.4,0.8C542,343.2,541.9,343.6,541.9,343.9z"/>
		<path class="st2" d="M555.9,344.7c0.3-0.1,0.6-0.1,0.9-0.1c0.3,0,0.6,0,0.8,0c0.9,0,1.6,0.1,2.3,0.4c0.7,0.3,1.2,0.6,1.7,1.1
			s0.8,1,1,1.6c0.2,0.6,0.3,1.3,0.3,2c0,0.9-0.2,1.7-0.5,2.4c-0.3,0.7-0.7,1.4-1.3,1.9c-0.6,0.5-1.2,0.9-2,1.2
			c-0.8,0.3-1.6,0.4-2.5,0.4c-0.5,0-1-0.1-1.5-0.2c-0.5-0.1-0.9-0.3-1.4-0.5s-0.8-0.4-1.2-0.7c-0.4-0.3-0.7-0.5-1-0.8l1.1-1.4
			c0.1-0.2,0.2-0.3,0.4-0.3c0.2-0.1,0.3-0.1,0.5-0.1c0.2,0,0.4,0.1,0.6,0.2c0.2,0.1,0.4,0.3,0.7,0.4c0.2,0.1,0.5,0.3,0.8,0.4
			c0.3,0.1,0.7,0.2,1.2,0.2c0.5,0,0.9-0.1,1.2-0.2c0.3-0.2,0.6-0.4,0.8-0.6s0.4-0.6,0.5-0.9c0.1-0.4,0.1-0.7,0.1-1.1
			c0-0.8-0.2-1.4-0.7-1.8s-1.1-0.6-1.9-0.6c-0.7,0-1.5,0.1-2.2,0.4l-2.2-0.6l1.4-8.2h8.4v1.4c0,0.2,0,0.5-0.1,0.7
			c-0.1,0.2-0.2,0.4-0.4,0.5c-0.2,0.1-0.4,0.3-0.6,0.3s-0.6,0.1-0.9,0.1h-3.9L555.9,344.7z"/>
		<path class="st2" d="M564.7,353.6c0-0.3,0.1-0.5,0.2-0.8c0.1-0.2,0.2-0.4,0.4-0.6c0.2-0.2,0.4-0.3,0.6-0.4
			c0.2-0.1,0.5-0.2,0.8-0.2c0.3,0,0.5,0.1,0.8,0.2s0.5,0.2,0.6,0.4c0.2,0.2,0.3,0.4,0.4,0.6s0.2,0.5,0.2,0.8c0,0.3-0.1,0.5-0.2,0.8
			s-0.2,0.4-0.4,0.6c-0.2,0.2-0.4,0.3-0.6,0.4c-0.2,0.1-0.5,0.1-0.8,0.1c-0.3,0-0.6,0-0.8-0.1c-0.2-0.1-0.5-0.2-0.6-0.4
			c-0.2-0.2-0.3-0.4-0.4-0.6C564.7,354.1,564.7,353.8,564.7,353.6z"/>
		<path class="st2" d="M581.2,352.8v2.5h-9.4v-2.5h3.2v-8.3c0-0.2,0-0.4,0-0.6c0-0.2,0-0.4,0-0.7l-1.9,1.6c-0.2,0.1-0.3,0.2-0.5,0.2
			s-0.3,0-0.5,0s-0.3-0.1-0.4-0.1c-0.1-0.1-0.2-0.1-0.2-0.2l-1.1-1.5l5.1-4.3h2.9v14H581.2z"/>
		<path class="st2" d="M594.4,352.8v2.5H585v-2.5h3.2v-8.3c0-0.2,0-0.4,0-0.6c0-0.2,0-0.4,0-0.7l-1.9,1.6c-0.2,0.1-0.3,0.2-0.5,0.2
			s-0.3,0-0.5,0s-0.3-0.1-0.4-0.1c-0.1-0.1-0.2-0.1-0.2-0.2l-1.1-1.5l5.1-4.3h2.9v14H594.4z"/>
		<path class="st2" d="M596.6,343.6c0.1-0.8,0.4-1.5,0.7-2.1c0.3-0.6,0.8-1.1,1.3-1.5s1.1-0.7,1.7-0.9c0.7-0.2,1.4-0.3,2.1-0.3
			c0.8,0,1.5,0.1,2.2,0.3c0.6,0.2,1.2,0.5,1.6,0.9c0.4,0.4,0.8,0.8,1,1.4c0.2,0.5,0.3,1.1,0.3,1.6c0,0.5-0.1,1-0.2,1.4
			s-0.3,0.7-0.5,1c-0.2,0.3-0.5,0.5-0.8,0.7c-0.3,0.2-0.7,0.4-1,0.5c1.8,0.6,2.7,1.9,2.7,3.7c0,0.9-0.2,1.6-0.5,2.3
			s-0.7,1.2-1.3,1.6c-0.5,0.4-1.1,0.8-1.8,1s-1.4,0.3-2.2,0.3c-0.8,0-1.5-0.1-2.1-0.3c-0.6-0.2-1.2-0.4-1.6-0.8
			c-0.5-0.4-0.9-0.8-1.2-1.4c-0.4-0.6-0.7-1.2-0.9-2l1.6-0.6c0.4-0.2,0.8-0.2,1.1-0.1c0.3,0.1,0.6,0.2,0.7,0.5
			c0.3,0.6,0.7,1.1,1.1,1.4c0.4,0.3,0.8,0.4,1.3,0.4c0.4,0,0.7-0.1,1-0.2s0.5-0.3,0.7-0.5c0.2-0.2,0.3-0.4,0.4-0.7s0.1-0.5,0.1-0.8
			c0-0.4,0-0.7-0.1-1c0-0.3-0.2-0.5-0.4-0.7c-0.2-0.2-0.6-0.4-1-0.5s-1.1-0.2-1.9-0.2v-2.4c0.7,0,1.2-0.1,1.7-0.2s0.7-0.3,1-0.4
			c0.2-0.2,0.4-0.4,0.5-0.7s0.1-0.6,0.1-0.9c0-0.6-0.2-1.1-0.5-1.5c-0.3-0.4-0.8-0.5-1.4-0.5c-0.5,0-1,0.1-1.3,0.4
			c-0.4,0.3-0.6,0.6-0.7,1c-0.2,0.4-0.4,0.7-0.6,0.8c-0.3,0.1-0.6,0.2-1.1,0.1L596.6,343.6z"/>
	</g>
</g>
<g>
	<path class="st2" d="M512.5,322.2h-10.8v-46.1h10.8V322.2z"/>
	<path class="st2" d="M537.7,276.1c3.2,0,6,0.4,8.4,1.2c2.3,0.8,4.3,1.8,5.8,3.2c1.5,1.3,2.6,2.9,3.3,4.8c0.7,1.8,1.1,3.8,1.1,5.9
		c0,2.3-0.4,4.4-1.1,6.3c-0.7,1.9-1.9,3.6-3.4,4.9c-1.5,1.4-3.4,2.4-5.8,3.2c-2.3,0.8-5.1,1.2-8.3,1.2h-5.6v15.4h-10.7v-46.1H537.7z
		 M537.7,298.7c2.8,0,4.8-0.7,6-2c1.2-1.3,1.8-3.2,1.8-5.6c0-1.1-0.2-2-0.5-2.9s-0.8-1.6-1.4-2.2c-0.6-0.6-1.5-1.1-2.4-1.4
		c-1-0.3-2.1-0.5-3.5-0.5h-5.6v14.6H537.7z"/>
</g>
<g>
	<path d="M56.8,522.6c0.1,1.3,0.5,2.2,1.2,2.8c0.6,0.6,1.4,0.9,2.4,0.9c0.5,0,1-0.1,1.4-0.2c0.4-0.1,0.7-0.3,1-0.4
		c0.3-0.2,0.6-0.3,0.8-0.4c0.2-0.1,0.5-0.2,0.8-0.2c0.4,0,0.6,0.1,0.8,0.4l1.3,1.6c-0.5,0.5-1,1-1.5,1.3s-1.1,0.6-1.7,0.8
		c-0.6,0.2-1.1,0.3-1.7,0.4s-1.1,0.1-1.6,0.1c-1.1,0-2.1-0.2-3-0.5c-0.9-0.3-1.7-0.9-2.4-1.5c-0.7-0.7-1.2-1.5-1.7-2.5
		c-0.4-1-0.6-2.2-0.6-3.5c0-1,0.2-2,0.5-2.9c0.3-0.9,0.8-1.7,1.5-2.4c0.6-0.7,1.4-1.2,2.4-1.6c0.9-0.4,2-0.6,3.1-0.6
		c1,0,1.9,0.2,2.8,0.5c0.8,0.3,1.5,0.8,2.1,1.4c0.6,0.6,1.1,1.3,1.4,2.2c0.3,0.9,0.5,1.8,0.5,2.9c0,0.3,0,0.6,0,0.8
		c0,0.2-0.1,0.4-0.2,0.5c-0.1,0.1-0.2,0.2-0.3,0.3c-0.1,0-0.3,0.1-0.5,0.1H56.8z M62.5,520c0-0.4,0-0.7-0.1-1.1
		c-0.1-0.3-0.2-0.6-0.5-0.9c-0.2-0.3-0.5-0.5-0.8-0.7c-0.3-0.2-0.8-0.2-1.2-0.2c-0.9,0-1.5,0.2-2,0.7c-0.5,0.5-0.8,1.2-1,2.1H62.5z"
		/>
	<path d="M74,529.6c-0.7,0-1.4-0.1-1.9-0.3c-0.6-0.2-1-0.5-1.4-0.9s-0.7-0.8-0.9-1.4c-0.2-0.5-0.3-1.2-0.3-1.8v-7.8h-1.3
		c-0.2,0-0.4-0.1-0.6-0.2c-0.2-0.2-0.2-0.4-0.2-0.7v-1.8l2.4-0.5l0.9-3.7c0.1-0.5,0.4-0.7,1-0.7h2.4v4.4h3.8v3.1h-3.8v7.5
		c0,0.4,0.1,0.6,0.3,0.9c0.2,0.2,0.4,0.3,0.7,0.3c0.2,0,0.3,0,0.4-0.1s0.2-0.1,0.3-0.1c0.1,0,0.2-0.1,0.2-0.1c0.1,0,0.2-0.1,0.3-0.1
		c0.1,0,0.2,0,0.3,0.1c0.1,0.1,0.2,0.2,0.3,0.3l1.4,2.1c-0.6,0.4-1.2,0.8-2,1C75.6,529.5,74.8,529.6,74,529.6z"/>
	<path d="M84.4,515.6c0.5-0.5,1.1-0.8,1.8-1.1c0.6-0.3,1.4-0.4,2.3-0.4c0.8,0,1.6,0.1,2.2,0.4c0.6,0.3,1.2,0.7,1.6,1.2
		c0.4,0.5,0.8,1.1,1,1.8s0.3,1.5,0.3,2.3v9.6h-4.5v-9.6c0-0.7-0.2-1.3-0.5-1.7s-0.8-0.6-1.5-0.6c-0.5,0-1,0.1-1.4,0.3
		c-0.4,0.2-0.9,0.5-1.3,0.9v10.8h-4.5v-21.9h4.5V515.6z"/>
	<path d="M100.2,522.6c0.1,1.3,0.5,2.2,1.2,2.8c0.6,0.6,1.4,0.9,2.4,0.9c0.5,0,1-0.1,1.4-0.2c0.4-0.1,0.7-0.3,1-0.4
		c0.3-0.2,0.6-0.3,0.8-0.4c0.2-0.1,0.5-0.2,0.8-0.2c0.4,0,0.6,0.1,0.8,0.4l1.3,1.6c-0.5,0.5-1,1-1.5,1.3s-1.1,0.6-1.7,0.8
		c-0.6,0.2-1.1,0.3-1.7,0.4s-1.1,0.1-1.6,0.1c-1.1,0-2.1-0.2-3-0.5c-0.9-0.3-1.7-0.9-2.4-1.5c-0.7-0.7-1.2-1.5-1.7-2.5
		c-0.4-1-0.6-2.2-0.6-3.5c0-1,0.2-2,0.5-2.9c0.3-0.9,0.8-1.7,1.5-2.4c0.6-0.7,1.4-1.2,2.4-1.6c0.9-0.4,2-0.6,3.1-0.6
		c1,0,1.9,0.2,2.8,0.5c0.8,0.3,1.5,0.8,2.1,1.4c0.6,0.6,1.1,1.3,1.4,2.2c0.3,0.9,0.5,1.8,0.5,2.9c0,0.3,0,0.6,0,0.8
		c0,0.2-0.1,0.4-0.2,0.5c-0.1,0.1-0.2,0.2-0.3,0.3c-0.1,0-0.3,0.1-0.5,0.1H100.2z M105.9,520c0-0.4,0-0.7-0.1-1.1
		c-0.1-0.3-0.2-0.6-0.5-0.9c-0.2-0.3-0.5-0.5-0.8-0.7c-0.3-0.2-0.8-0.2-1.2-0.2c-0.9,0-1.5,0.2-2,0.7c-0.5,0.5-0.8,1.2-1,2.1H105.9z
		"/>
	<path d="M116.5,516.6c0.5-0.8,1-1.5,1.6-1.9c0.6-0.5,1.3-0.7,2.1-0.7c0.7,0,1.2,0.2,1.7,0.5l-0.3,3.3c0,0.2-0.1,0.4-0.2,0.4
		c-0.1,0.1-0.3,0.1-0.5,0.1c-0.1,0-0.2,0-0.3,0s-0.3,0-0.4,0s-0.3,0-0.4,0s-0.3,0-0.4,0c-0.7,0-1.2,0.2-1.6,0.5s-0.7,0.8-1,1.5v9.2
		h-4.5v-15.2h2.7c0.2,0,0.4,0,0.6,0.1c0.2,0,0.3,0.1,0.4,0.2c0.1,0.1,0.2,0.2,0.2,0.3c0.1,0.1,0.1,0.3,0.1,0.5L116.5,516.6z"/>
	<path d="M127.6,515.9c0.3-0.3,0.6-0.5,0.9-0.8c0.3-0.2,0.6-0.4,1-0.6c0.4-0.2,0.7-0.3,1.2-0.4c0.4-0.1,0.9-0.1,1.4-0.1
		c0.8,0,1.6,0.1,2.2,0.4c0.6,0.3,1.2,0.7,1.6,1.2c0.4,0.5,0.8,1.1,1,1.8s0.3,1.5,0.3,2.3v9.6h-4.5v-9.6c0-0.7-0.2-1.3-0.5-1.7
		s-0.8-0.6-1.5-0.6c-0.5,0-1,0.1-1.4,0.3c-0.4,0.2-0.9,0.5-1.3,0.9v10.8h-4.5v-15.2h2.8c0.6,0,0.9,0.3,1.1,0.8L127.6,515.9z"/>
	<path d="M143.8,522.6c0.1,1.3,0.5,2.2,1.2,2.8c0.6,0.6,1.4,0.9,2.4,0.9c0.5,0,1-0.1,1.4-0.2c0.4-0.1,0.7-0.3,1-0.4
		c0.3-0.2,0.6-0.3,0.8-0.4c0.2-0.1,0.5-0.2,0.8-0.2c0.4,0,0.6,0.1,0.8,0.4l1.3,1.6c-0.5,0.5-1,1-1.5,1.3s-1.1,0.6-1.7,0.8
		c-0.6,0.2-1.1,0.3-1.7,0.4s-1.1,0.1-1.6,0.1c-1.1,0-2.1-0.2-3-0.5c-0.9-0.3-1.7-0.9-2.4-1.5c-0.7-0.7-1.2-1.5-1.7-2.5
		c-0.4-1-0.6-2.2-0.6-3.5c0-1,0.2-2,0.5-2.9c0.3-0.9,0.8-1.7,1.5-2.4c0.6-0.7,1.4-1.2,2.4-1.6c0.9-0.4,2-0.6,3.1-0.6
		c1,0,1.9,0.2,2.8,0.5c0.8,0.3,1.5,0.8,2.1,1.4c0.6,0.6,1.1,1.3,1.4,2.2c0.3,0.9,0.5,1.8,0.5,2.9c0,0.3,0,0.6,0,0.8
		c0,0.2-0.1,0.4-0.2,0.5c-0.1,0.1-0.2,0.2-0.3,0.3c-0.1,0-0.3,0.1-0.5,0.1H143.8z M149.5,520c0-0.4,0-0.7-0.1-1.1
		c-0.1-0.3-0.2-0.6-0.5-0.9c-0.2-0.3-0.5-0.5-0.8-0.7c-0.3-0.2-0.8-0.2-1.2-0.2c-0.9,0-1.5,0.2-2,0.7c-0.5,0.5-0.8,1.2-1,2.1H149.5z
		"/>
	<path d="M161,529.6c-0.7,0-1.4-0.1-1.9-0.3c-0.6-0.2-1-0.5-1.4-0.9s-0.7-0.8-0.9-1.4c-0.2-0.5-0.3-1.2-0.3-1.8v-7.8h-1.3
		c-0.2,0-0.4-0.1-0.6-0.2c-0.2-0.2-0.2-0.4-0.2-0.7v-1.8l2.4-0.5l0.9-3.7c0.1-0.5,0.4-0.7,1-0.7h2.4v4.4h3.8v3.1h-3.8v7.5
		c0,0.4,0.1,0.6,0.3,0.9c0.2,0.2,0.4,0.3,0.7,0.3c0.2,0,0.3,0,0.4-0.1s0.2-0.1,0.3-0.1c0.1,0,0.2-0.1,0.2-0.1c0.1,0,0.2-0.1,0.3-0.1
		c0.1,0,0.2,0,0.3,0.1c0.1,0.1,0.2,0.2,0.3,0.3l1.4,2.1c-0.6,0.4-1.2,0.8-2,1C162.6,529.5,161.8,529.6,161,529.6z"/>
	<path d="M170.4,529.2c-0.1,0.3-0.2,0.5-0.4,0.7c-0.2,0.2-0.4,0.4-0.6,0.5c-0.2,0.1-0.4,0.2-0.7,0.3c-0.2,0.1-0.5,0.1-0.7,0.1h-1.9
		l8.3-21.8c0.2-0.5,0.5-0.9,0.9-1.1c0.4-0.3,0.9-0.4,1.4-0.4h1.9L170.4,529.2z"/>
	<path d="M210.4,508.1l-6.6,21.3h-4.5l-4-13.2c-0.1-0.2-0.2-0.4-0.2-0.7c-0.1-0.2-0.1-0.5-0.2-0.8c-0.1,0.3-0.1,0.5-0.2,0.8
		c-0.1,0.2-0.1,0.5-0.2,0.7l-4.1,13.2h-4.5l-6.6-21.3h4.1c0.4,0,0.8,0.1,1.1,0.3c0.3,0.2,0.5,0.5,0.6,0.8l2.9,11.1
		c0.1,0.4,0.2,0.7,0.3,1.1c0.1,0.4,0.2,0.8,0.3,1.3c0.2-0.9,0.4-1.7,0.6-2.4l3.4-11.1c0.1-0.3,0.3-0.5,0.6-0.7
		c0.3-0.2,0.6-0.3,1-0.3h1.5c0.4,0,0.8,0.1,1,0.3c0.3,0.2,0.5,0.5,0.6,0.8l3.4,11.1c0.3,0.7,0.5,1.5,0.6,2.3
		c0.1-0.4,0.2-0.8,0.2-1.2c0.1-0.4,0.2-0.7,0.3-1.1l2.9-11.1c0.1-0.3,0.3-0.5,0.6-0.7c0.3-0.2,0.6-0.3,1.1-0.3H210.4z"/>
	<path d="M216.9,510.1c0,0.4-0.1,0.7-0.2,1c-0.1,0.3-0.3,0.6-0.6,0.8c-0.3,0.2-0.5,0.4-0.9,0.6c-0.3,0.1-0.7,0.2-1.1,0.2
		c-0.4,0-0.7-0.1-1-0.2c-0.3-0.1-0.6-0.3-0.9-0.6c-0.2-0.2-0.4-0.5-0.6-0.8s-0.2-0.7-0.2-1c0-0.4,0.1-0.7,0.2-1
		c0.1-0.3,0.3-0.6,0.6-0.8c0.2-0.2,0.5-0.4,0.9-0.6c0.3-0.1,0.7-0.2,1-0.2c0.4,0,0.7,0.1,1.1,0.2s0.6,0.3,0.9,0.6
		c0.3,0.2,0.5,0.5,0.6,0.8C216.8,509.4,216.9,509.7,216.9,510.1z M216.4,514.2v15.2h-4.5v-15.2H216.4z"/>
	<path d="M224.9,511.9v5.4h7.3v3.8h-7.3v8.3h-5v-21.3h13.7v3.8H224.9z"/>
	<path d="M241,510.1c0,0.4-0.1,0.7-0.2,1c-0.1,0.3-0.3,0.6-0.6,0.8c-0.3,0.2-0.5,0.4-0.9,0.6c-0.3,0.1-0.7,0.2-1.1,0.2
		c-0.4,0-0.7-0.1-1-0.2c-0.3-0.1-0.6-0.3-0.9-0.6c-0.2-0.2-0.4-0.5-0.6-0.8s-0.2-0.7-0.2-1c0-0.4,0.1-0.7,0.2-1
		c0.1-0.3,0.3-0.6,0.6-0.8c0.2-0.2,0.5-0.4,0.9-0.6c0.3-0.1,0.7-0.2,1-0.2c0.4,0,0.7,0.1,1.1,0.2s0.6,0.3,0.9,0.6
		c0.3,0.2,0.5,0.5,0.6,0.8C241,509.4,241,509.7,241,510.1z M240.6,514.2v15.2H236v-15.2H240.6z"/>
</g>
<path class="st0" d="M2225.6,298.9c-0.2-0.1-0.3-0.3-0.5-0.4c-0.2-0.2-0.4-0.3-0.7-0.5c-0.2-0.1-0.4-0.3-0.7-0.4
	c-0.2-0.1-0.4-0.2-0.6-0.4c-0.2-0.1-0.5-0.2-0.7-0.3c-0.2-0.1-0.4-0.2-0.6-0.3s-0.5-0.2-0.7-0.3c-0.2-0.1-0.5-0.2-0.7-0.2
	c-0.2-0.1-0.5-0.1-0.7-0.2c-0.2-0.1-0.5-0.1-0.7-0.2c-0.3-0.1-0.5-0.1-0.8-0.1c-0.2,0-0.4-0.1-0.6-0.1c-1-0.1-2-0.1-3,0
	c-0.2,0-0.4,0.1-0.6,0.1c-0.3,0-0.5,0.1-0.8,0.1c-0.2,0-0.5,0.1-0.7,0.2c-0.2,0.1-0.5,0.1-0.7,0.2c-0.2,0.1-0.5,0.2-0.7,0.2
	c-0.2,0.1-0.5,0.2-0.7,0.3c-0.2,0.1-0.4,0.2-0.6,0.3s-0.5,0.2-0.7,0.3c-0.2,0.1-0.4,0.2-0.6,0.4c-0.2,0.1-0.4,0.3-0.7,0.4
	c-0.2,0.2-0.4,0.3-0.7,0.5c-0.2,0.1-0.4,0.3-0.5,0.4c-0.4,0.3-0.8,0.6-1.1,1l-39,39c-5.9,5.9-5.9,15.4,0,21.2
	c5.9,5.9,15.4,5.9,21.2,0l13.4-13.4v41.9c0,8.3,6.7,15,15,15c8.3,0,15-6.7,15-15v-41.9l13.3,13.4c5.9,5.9,15.4,5.9,21.2,0
	c2.9-2.9,4.4-6.8,4.4-10.6s-1.5-7.7-4.4-10.6l-39-39C2226.3,299.5,2226,299.2,2225.6,298.9z"/>
<path class="st4" d="M2276.1,137.3c0-1.1-0.5-2.2-1.3-2.9l-21.3-18.2V85.1c0-6-4.9-10.9-10.9-10.9h-37.8l-0.1-0.1l-33.2-28.3
	c-1.4-1.2-3.5-1.2-4.9,0l-33.1,28.4h-39.2c-6,0-10.9,4.9-10.9,10.9v32l-20.2,17.3c-0.8,0.7-1.3,1.8-1.3,2.9v0.1v133.1
	c0,5.5,4.4,9.9,9.9,9.9h194.3c5.5,0,9.9-4.4,9.9-9.9L2276.1,137.3L2276.1,137.3z"/>
<path class="st5" d="M2276.6,137.3c0-1.1-0.5-2.2-1.3-2.9l-21.2-18.2V85.1c0-6-4.9-10.9-10.9-10.9h-37.8l-0.1-0.1l-33.2-28.3
	c-1.4-1.2-3.5-1.2-4.9,0l-33,28.3h-39.3c-6,0-10.9,4.9-10.9,10.9v32l-20.2,17.3c-0.8,0.7-1.3,1.8-1.3,2.9v0.1v133.1
	c0,5.5,4.4,9.9,9.9,9.9h194.3c5.5,0,9.9-4.4,9.9-9.9V137.3L2276.6,137.3z M2140.2,205.6l-70,60.1V145.6L2140.2,205.6z M2146,210.6
	l21.1,18.1c0.7,0.6,1.6,0.9,2.5,0.9c0.9,0,1.8-0.3,2.5-0.9l21.1-18.1l72.5,62.2h-192.2L2146,210.6z M2199,205.6l70.1-60.1v120.2
	L2199,205.6z M2267,137.3l-13,11.1v-22.2L2267,137.3z M2169.6,53.7l24.1,20.5h-47.9L2169.6,53.7z M2094.9,81.8h148.3
	c1.8,0,3.3,1.5,3.3,3.3v32.1c-0.1,0.4-0.1,0.9,0,1.3v36.4l-76.9,65.9l-78-66.8V85.1C2091.6,83.3,2093.1,81.8,2094.9,81.8z
	 M2084,127.1v20.4l-11.9-10.2L2084,127.1z"/>
<path class="st2" d="M2169,92.5c-24.7,0-44.8,20.1-44.8,44.8s20.1,44.8,44.8,44.8c7.8,0,15.5-2,22.2-5.9c1.8-1,2.5-3.4,1.4-5.2
	c-1-1.8-3.4-2.5-5.2-1.4c-5.6,3.2-11.9,4.9-18.4,4.9c-20.5,0-37.2-16.7-37.2-37.2s16.7-37.2,37.2-37.2s37.2,16.7,37.2,37.2
	c0,13-5.9,17.9-9.8,18c-3,0.1-5.2-2.3-5.5-6.1v-11.3c0-0.2,0-0.4,0-0.6s0-0.4,0-0.6v-17.4c0-2.1-1.7-3.8-3.8-3.8
	c-2.1,0-3.8,1.7-3.8,3.8v1.5c-3.8-3.3-8.8-5.3-14.2-5.3c-12,0-21.8,9.8-21.8,21.8s9.8,21.8,21.8,21.8c5.8,0,11-2.3,14.9-5.9
	c1.8,6,6.7,9.9,12.7,9.7c8.3-0.3,17.1-8.4,17.1-25.6C2213.8,112.6,2193.7,92.5,2169,92.5z M2183.3,137.9
	c-0.3,7.6-6.6,13.6-14.2,13.6c-7.9,0-14.2-6.4-14.2-14.2s6.4-14.2,14.2-14.2c7.6,0,13.9,6,14.2,13.6V137.9z"/>
<path class="st1" d="M2257.5,447c-1.9-1.9-4.5-3-7.3-3h-148.9v-49.3c0-1.2-0.9-2.1-2.1-2.1h-1.6v-43.3c0-1.5-0.6-2.9-1.6-4l-0.1-0.1
	l-1.5,1.5l1.5-1.5c-1.1-1.1-2.5-1.7-4.1-1.7l0,0c-1.5,0-2.9,0.6-4,1.6l-0.1,0.1l1.5,1.5l-1.5-1.5c-1.1,1.1-1.7,2.5-1.7,4.1v43.3
	h-1.6c-1.2,0-2.1,0.9-2.1,2.1V444h-13.7c-2.8,0-5.4,1.2-7.3,3c-1.9,1.9-3,4.5-3,7.3v32.1c0,2.8,1.2,5.4,3,7.3c1.9,1.9,4.5,3,7.3,3
	h181.6c2.8,0,5.4-1.2,7.3-3c1.9-1.9,3-4.5,3-7.3v-32.1C2260.5,451.4,2259.3,448.8,2257.5,447z"/>
<g>
	<path d="M2068.6,443.9h181.6c2.8,0,5.4,1.2,7.3,3c1.9,1.9,3,4.5,3,7.3v32.1c0,2.8-1.2,5.4-3,7.3c-1.9,1.9-4.5,3-7.3,3h-181.6
		c-2.8,0-5.4-1.2-7.3-3c-1.9-1.9-3-4.5-3-7.3v-32.1c0-2.8,1.2-5.4,3-7.3C2063.2,445.1,2065.8,443.9,2068.6,443.9z M2250.2,448.1
		h-181.6c-1.7,0-3.2,0.7-4.3,1.8c-1.1,1.1-1.8,2.6-1.8,4.3v32.1c0,1.7,0.7,3.2,1.8,4.3c1.1,1.1,2.6,1.8,4.3,1.8h181.6
		c1.7,0,3.2-0.7,4.3-1.8s1.8-2.6,1.8-4.3v-32.1c0-1.7-0.7-3.2-1.8-4.3C2253.4,448.8,2251.9,448.1,2250.2,448.1z"/>
	<path d="M2084.1,460.4c2.7,0,5.2,1.1,7,2.9c1.8,1.8,2.9,4.3,2.9,7s-1.1,5.2-2.9,7c-1.8,1.8-4.3,2.9-7,2.9c-2.7,0-5.2-1.1-7-2.9
		c-1.8-1.8-2.9-4.3-2.9-7s1.1-5.2,2.9-7C2078.9,461.5,2081.4,460.4,2084.1,460.4z"/>
	<circle class="st6" cx="2110.4" cy="470.3" r="3.2"/>
	<circle class="st6" cx="2122.7" cy="470.3" r="3.2"/>
	<circle class="st6" cx="2135" cy="470.3" r="3.2"/>
	<path d="M2242.5,472.4c1.2,0,2.1-0.9,2.1-2.1c0-1.2-0.9-2.1-2.1-2.1H2164c-1.2,0-2.1,0.9-2.1,2.1c0,1.2,0.9,2.1,2.1,2.1H2242.5z"/>
	<path d="M2084.3,392.6h14.9c1.2,0,2.1,0.9,2.1,2.1v51.4c0,1.2-0.9,2.1-2.1,2.1h-14.9c-1.2,0-2.1-0.9-2.1-2.1v-51.4
		C2082.2,393.5,2083.1,392.6,2084.3,392.6z M2097.1,396.8h-10.7V444h10.7C2097.1,444,2097.1,396.8,2097.1,396.8z"/>
	<path d="M2091.8,343.4L2091.8,343.4c1.6,0,3.1,0.7,4.1,1.7l-1.5,1.5l1.5-1.5l0.1,0.1c1,1,1.6,2.4,1.6,4v45.4c0,1.2-0.9,2.1-2.1,2.1
		h-7.5c-1.2,0-2.1-0.9-2.1-2.1v-45.4c0-1.6,0.7-3.1,1.7-4.1l1.5,1.5l-1.5-1.5l0.1-0.1C2088.8,344,2090.2,343.4,2091.8,343.4z
		 M2091.8,347.6L2091.8,347.6c-0.4,0-0.8,0.2-1.1,0.4c0,0,0,0-0.1,0.1l0,0l0,0c-0.3,0.3-0.5,0.7-0.5,1.2v43.3h3.3v-43.3
		c0-0.4-0.2-0.8-0.4-1.1c0,0,0,0-0.1-0.1l0,0l0,0C2092.6,347.8,2092.2,347.6,2091.8,347.6z"/>
	<path class="st7" d="M2109,307.1c13.9,13.9,13.9,36.3,0,50.2"/>
	<path d="M2110.5,305.6c-0.8-0.8-2.2-0.8-3,0s-0.8,2.2,0,3c6.5,6.5,9.8,15.1,9.8,23.6s-3.3,17.1-9.8,23.6c-0.8,0.8-0.8,2.2,0,3
		s2.2,0.8,3,0c7.3-7.3,11-17,11-26.6S2117.8,312.9,2110.5,305.6z"/>
	<path class="st7" d="M2104.2,315.9c9,9,9,23.5,0,32.5"/>
	<path d="M2105.7,314.4c-0.8-0.8-2.2-0.8-3,0s-0.8,2.2,0,3c4.1,4.1,6.1,9.4,6.1,14.8c0,5.3-2,10.7-6.1,14.8c-0.8,0.8-0.8,2.2,0,3
		s2.2,0.8,3,0c4.9-4.9,7.4-11.3,7.4-17.8C2113.1,325.8,2110.6,319.3,2105.7,314.4z"/>
	<path class="st7" d="M2099.5,324.8c4.1,4.1,4.1,10.8,0,14.9"/>
	<path d="M2101,323.3c-0.8-0.8-2.2-0.8-3,0s-0.8,2.2,0,3c1.6,1.6,2.5,3.8,2.5,5.9c0,2.2-0.8,4.3-2.5,5.9c-0.8,0.8-0.8,2.2,0,3
		s2.2,0.8,3,0c2.5-2.5,3.7-5.7,3.7-8.9S2103.4,325.7,2101,323.3z"/>
	<path class="st7" d="M2074.5,307.1c-13.9,13.9-13.9,36.3,0,50.2"/>
	<path d="M2076,308.6c0.8-0.8,0.8-2.2,0-3s-2.2-0.8-3,0l0,0c-7.3,7.3-11,17-11,26.6s3.7,19.2,11,26.6l0,0c0.8,0.8,2.2,0.8,3,0
		s0.8-2.2,0-3l0,0c-6.5-6.5-9.8-15.1-9.8-23.6C2066.2,323.6,2069.5,315.1,2076,308.6L2076,308.6z"/>
	<path class="st7" d="M2079.3,315.9c-9,9-9,23.5,0,32.5"/>
	<path d="M2080.8,317.4c0.8-0.8,0.8-2.2,0-3s-2.2-0.8-3,0c-4.9,4.9-7.4,11.3-7.4,17.8c0,6.4,2.5,12.9,7.4,17.8c0.8,0.8,2.2,0.8,3,0
		s0.8-2.2,0-3c-4.1-4.1-6.1-9.4-6.1-14.8C2074.6,326.8,2076.7,321.5,2080.8,317.4z"/>
	<path class="st7" d="M2084,324.8c-4.1,4.1-4.1,10.8,0,14.9"/>
	<path d="M2085.5,326.2c0.8-0.8,0.8-2.2,0-3s-2.2-0.8-3,0c-2.5,2.5-3.7,5.7-3.7,8.9s1.2,6.5,3.7,8.9c0.8,0.8,2.2,0.8,3,0
		s0.8-2.2,0-3c-1.6-1.6-2.5-3.8-2.5-5.9S2083.9,327.9,2085.5,326.2z"/>
	<path d="M2091.9,325.5c1.8,0,3.5,0.7,4.7,1.9c1.2,1.2,1.9,2.9,1.9,4.7s-0.7,3.5-1.9,4.7c-1.2,1.2-2.9,1.9-4.7,1.9
		c-1.8,0-3.5-0.7-4.7-1.9s-1.9-2.9-1.9-4.7s0.7-3.5,1.9-4.7C2088.4,326.3,2090.1,325.5,2091.9,325.5z M2093.6,330.5
		c-0.4-0.4-1-0.7-1.7-0.7c-0.7,0-1.3,0.3-1.7,0.7c-0.4,0.4-0.7,1-0.7,1.7s0.3,1.3,0.7,1.7c0.4,0.4,1,0.7,1.7,0.7
		c0.7,0,1.3-0.3,1.7-0.7c0.4-0.4,0.7-1,0.7-1.7S2094.1,330.9,2093.6,330.5z"/>
</g>
<path class="st8" d="M2088.2,466.3c-1-1-2.5-1.7-4.1-1.7c-1.6,0-3,0.6-4.1,1.7c-1,1-1.7,2.5-1.7,4.1s0.6,3,1.7,4.1
	c1,1,2.5,1.7,4.1,1.7c1.6,0,3-0.6,4.1-1.7c1-1,1.7-2.5,1.7-4.1S2089.2,467.3,2088.2,466.3z"/>
<path class="st0" d="M2177.3,24.4c-0.2-0.1-0.3-0.3-0.4-0.3c-0.2-0.2-0.3-0.3-0.6-0.4c-0.2-0.1-0.3-0.3-0.6-0.3
	c-0.2-0.1-0.3-0.2-0.5-0.3c-0.2-0.1-0.4-0.2-0.6-0.3c-0.2-0.1-0.3-0.2-0.5-0.3c-0.2-0.1-0.4-0.2-0.6-0.3c-0.2-0.1-0.4-0.2-0.6-0.2
	c-0.2-0.1-0.4-0.1-0.6-0.2c-0.2-0.1-0.4-0.1-0.6-0.2c-0.3-0.1-0.4-0.1-0.7-0.1c-0.2,0-0.3-0.1-0.5-0.1c-0.8-0.1-1.7-0.1-2.5,0
	c-0.2,0-0.3,0.1-0.5,0.1c-0.3,0-0.4,0.1-0.7,0.1c-0.2,0-0.4,0.1-0.6,0.2c-0.2,0.1-0.4,0.1-0.6,0.2c-0.2,0.1-0.4,0.2-0.6,0.2
	c-0.2,0.1-0.4,0.2-0.6,0.3s-0.3,0.2-0.5,0.3s-0.4,0.2-0.6,0.3c-0.2,0.1-0.3,0.2-0.5,0.3c-0.2,0.1-0.3,0.3-0.6,0.3
	c-0.2,0.2-0.3,0.3-0.6,0.4c-0.2,0.1-0.3,0.3-0.4,0.3c-0.3,0.3-0.7,0.5-0.9,0.8l-32.6,32.6c-4.9,4.9-4.9,12.9,0,17.7
	c4.9,4.9,12.9,4.9,17.7,0l11.2-11.2v35c0,6.9,5.6,12.5,12.5,12.5s12.5-5.6,12.5-12.5v-35l11.1,11.2c4.9,4.9,12.9,4.9,17.7,0
	c2.4-2.4,3.7-5.7,3.7-8.9c0-3.2-1.3-6.4-3.7-8.9l-32.6-32.6C2177.9,24.9,2177.6,24.6,2177.3,24.4z"/>
<g>
	<path d="M2068.6,522.6c0.1,1.3,0.5,2.2,1.2,2.8c0.6,0.6,1.4,0.9,2.4,0.9c0.5,0,1-0.1,1.4-0.2c0.4-0.1,0.7-0.3,1-0.4
		c0.3-0.2,0.6-0.3,0.8-0.4c0.2-0.1,0.5-0.2,0.8-0.2c0.4,0,0.6,0.1,0.8,0.4l1.3,1.6c-0.5,0.5-1,1-1.5,1.3c-0.5,0.3-1.1,0.6-1.7,0.8
		c-0.6,0.2-1.1,0.3-1.7,0.4c-0.6,0.1-1.1,0.1-1.6,0.1c-1.1,0-2.1-0.2-3-0.5s-1.7-0.9-2.4-1.5s-1.2-1.5-1.7-2.5
		c-0.4-1-0.6-2.2-0.6-3.5c0-1,0.2-2,0.5-2.9c0.3-0.9,0.8-1.7,1.5-2.4c0.6-0.7,1.4-1.2,2.4-1.6c0.9-0.4,2-0.6,3.1-0.6
		c1,0,1.9,0.2,2.8,0.5s1.5,0.8,2.1,1.4c0.6,0.6,1.1,1.3,1.4,2.2s0.5,1.8,0.5,2.9c0,0.3,0,0.6,0,0.8c0,0.2-0.1,0.4-0.2,0.5
		c-0.1,0.1-0.2,0.2-0.3,0.3c-0.1,0-0.3,0.1-0.5,0.1H2068.6z M2074.3,520c0-0.4,0-0.7-0.1-1.1c-0.1-0.3-0.2-0.6-0.5-0.9
		c-0.2-0.3-0.5-0.5-0.8-0.7c-0.3-0.2-0.8-0.2-1.2-0.2c-0.9,0-1.5,0.2-2,0.7c-0.5,0.5-0.8,1.2-1,2.1H2074.3z"/>
	<path d="M2085.9,529.6c-0.7,0-1.4-0.1-1.9-0.3c-0.5-0.2-1-0.5-1.4-0.9s-0.7-0.8-0.9-1.4c-0.2-0.5-0.3-1.2-0.3-1.8v-7.8h-1.3
		c-0.2,0-0.4-0.1-0.6-0.2c-0.2-0.2-0.2-0.4-0.2-0.7v-1.8l2.4-0.5l0.9-3.7c0.1-0.5,0.4-0.7,1-0.7h2.4v4.4h3.8v3.1h-3.8v7.5
		c0,0.4,0.1,0.6,0.3,0.9c0.2,0.2,0.4,0.3,0.7,0.3c0.2,0,0.3,0,0.4-0.1c0.1,0,0.2-0.1,0.3-0.1s0.2-0.1,0.2-0.1c0.1,0,0.2-0.1,0.3-0.1
		c0.1,0,0.2,0,0.3,0.1c0.1,0.1,0.2,0.2,0.3,0.3l1.4,2.1c-0.6,0.4-1.2,0.8-2,1C2087.4,529.5,2086.7,529.6,2085.9,529.6z"/>
	<path d="M2096.2,515.6c0.5-0.5,1.1-0.8,1.8-1.1c0.6-0.3,1.4-0.4,2.3-0.4c0.8,0,1.6,0.1,2.2,0.4c0.6,0.3,1.2,0.7,1.6,1.2
		c0.4,0.5,0.8,1.1,1,1.8c0.2,0.7,0.3,1.5,0.3,2.3v9.6h-4.5v-9.6c0-0.7-0.2-1.3-0.5-1.7s-0.8-0.6-1.5-0.6c-0.5,0-1,0.1-1.4,0.3
		c-0.4,0.2-0.9,0.5-1.3,0.9v10.8h-4.5v-21.9h4.5V515.6z"/>
	<path d="M2112.1,522.6c0.1,1.3,0.5,2.2,1.2,2.8c0.6,0.6,1.4,0.9,2.4,0.9c0.5,0,1-0.1,1.4-0.2c0.4-0.1,0.7-0.3,1-0.4
		c0.3-0.2,0.6-0.3,0.8-0.4c0.2-0.1,0.5-0.2,0.8-0.2c0.4,0,0.6,0.1,0.8,0.4l1.3,1.6c-0.5,0.5-1,1-1.5,1.3c-0.5,0.3-1.1,0.6-1.7,0.8
		c-0.6,0.2-1.1,0.3-1.7,0.4c-0.6,0.1-1.1,0.1-1.6,0.1c-1.1,0-2.1-0.2-3-0.5c-0.9-0.3-1.7-0.9-2.4-1.5c-0.7-0.7-1.2-1.5-1.7-2.5
		c-0.4-1-0.6-2.2-0.6-3.5c0-1,0.2-2,0.5-2.9c0.3-0.9,0.8-1.7,1.5-2.4c0.6-0.7,1.4-1.2,2.4-1.6c0.9-0.4,2-0.6,3.1-0.6
		c1,0,1.9,0.2,2.8,0.5c0.8,0.3,1.5,0.8,2.1,1.4c0.6,0.6,1.1,1.3,1.4,2.2c0.3,0.9,0.5,1.8,0.5,2.9c0,0.3,0,0.6,0,0.8
		c0,0.2-0.1,0.4-0.2,0.5s-0.2,0.2-0.3,0.3c-0.1,0-0.3,0.1-0.5,0.1H2112.1z M2117.8,520c0-0.4,0-0.7-0.1-1.1
		c-0.1-0.3-0.2-0.6-0.5-0.9c-0.2-0.3-0.5-0.5-0.8-0.7c-0.3-0.2-0.8-0.2-1.2-0.2c-0.9,0-1.5,0.2-2,0.7c-0.5,0.5-0.8,1.2-1,2.1H2117.8
		z"/>
	<path d="M2128.3,516.6c0.5-0.8,1-1.5,1.6-1.9s1.3-0.7,2.1-0.7c0.7,0,1.2,0.2,1.7,0.5l-0.3,3.3c0,0.2-0.1,0.4-0.2,0.4
		c-0.1,0.1-0.3,0.1-0.5,0.1c-0.1,0-0.2,0-0.3,0c-0.1,0-0.3,0-0.4,0c-0.1,0-0.3,0-0.4,0c-0.1,0-0.3,0-0.4,0c-0.7,0-1.2,0.2-1.6,0.5
		s-0.7,0.8-1,1.5v9.2h-4.5v-15.2h2.7c0.2,0,0.4,0,0.6,0.1c0.2,0,0.3,0.1,0.4,0.2c0.1,0.1,0.2,0.2,0.2,0.3s0.1,0.3,0.1,0.5
		L2128.3,516.6z"/>
	<path d="M2139.4,515.9c0.3-0.3,0.6-0.5,0.9-0.8c0.3-0.2,0.6-0.4,1-0.6c0.4-0.2,0.7-0.3,1.2-0.4s0.9-0.1,1.4-0.1
		c0.8,0,1.6,0.1,2.2,0.4c0.6,0.3,1.2,0.7,1.6,1.2c0.4,0.5,0.8,1.1,1,1.8c0.2,0.7,0.3,1.5,0.3,2.3v9.6h-4.5v-9.6
		c0-0.7-0.2-1.3-0.5-1.7s-0.8-0.6-1.5-0.6c-0.5,0-1,0.1-1.4,0.3c-0.4,0.2-0.9,0.5-1.3,0.9v10.8h-4.5v-15.2h2.8
		c0.6,0,0.9,0.3,1.1,0.8L2139.4,515.9z"/>
	<path d="M2155.6,522.6c0.1,1.3,0.5,2.2,1.2,2.8c0.6,0.6,1.4,0.9,2.4,0.9c0.5,0,1-0.1,1.4-0.2c0.4-0.1,0.7-0.3,1-0.4
		c0.3-0.2,0.6-0.3,0.8-0.4c0.2-0.1,0.5-0.2,0.8-0.2c0.4,0,0.6,0.1,0.8,0.4l1.3,1.6c-0.5,0.5-1,1-1.5,1.3c-0.5,0.3-1.1,0.6-1.7,0.8
		c-0.6,0.2-1.1,0.3-1.7,0.4c-0.6,0.1-1.1,0.1-1.6,0.1c-1.1,0-2.1-0.2-3-0.5s-1.7-0.9-2.4-1.5s-1.2-1.5-1.7-2.5
		c-0.4-1-0.6-2.2-0.6-3.5c0-1,0.2-2,0.5-2.9c0.3-0.9,0.8-1.7,1.5-2.4c0.6-0.7,1.4-1.2,2.4-1.6c0.9-0.4,2-0.6,3.1-0.6
		c1,0,1.9,0.2,2.8,0.5s1.5,0.8,2.1,1.4c0.6,0.6,1.1,1.3,1.4,2.2s0.5,1.8,0.5,2.9c0,0.3,0,0.6,0,0.8c0,0.2-0.1,0.4-0.2,0.5
		c-0.1,0.1-0.2,0.2-0.3,0.3c-0.1,0-0.3,0.1-0.5,0.1H2155.6z M2161.3,520c0-0.4,0-0.7-0.1-1.1c-0.1-0.3-0.2-0.6-0.5-0.9
		c-0.2-0.3-0.5-0.5-0.8-0.7c-0.3-0.2-0.8-0.2-1.2-0.2c-0.9,0-1.5,0.2-2,0.7c-0.5,0.5-0.8,1.2-1,2.1H2161.3z"/>
	<path d="M2172.9,529.6c-0.7,0-1.4-0.1-1.9-0.3c-0.6-0.2-1-0.5-1.4-0.9s-0.7-0.8-0.9-1.4s-0.3-1.2-0.3-1.8v-7.8h-1.3
		c-0.2,0-0.4-0.1-0.6-0.2c-0.2-0.2-0.2-0.4-0.2-0.7v-1.8l2.4-0.5l0.9-3.7c0.1-0.5,0.4-0.7,1-0.7h2.4v4.4h3.8v3.1h-3.8v7.5
		c0,0.4,0.1,0.6,0.3,0.9c0.2,0.2,0.4,0.3,0.7,0.3c0.2,0,0.3,0,0.4-0.1c0.1,0,0.2-0.1,0.3-0.1c0.1,0,0.2-0.1,0.2-0.1s0.2-0.1,0.3-0.1
		c0.1,0,0.2,0,0.3,0.1c0.1,0.1,0.2,0.2,0.3,0.3l1.4,2.1c-0.6,0.4-1.2,0.8-2,1C2174.4,529.5,2173.7,529.6,2172.9,529.6z"/>
	<path d="M2182.2,529.2c-0.1,0.3-0.2,0.5-0.4,0.7c-0.2,0.2-0.4,0.4-0.6,0.5c-0.2,0.1-0.4,0.2-0.7,0.3c-0.2,0.1-0.5,0.1-0.7,0.1h-1.9
		l8.3-21.8c0.2-0.5,0.5-0.9,0.9-1.1c0.4-0.3,0.9-0.4,1.4-0.4h1.9L2182.2,529.2z"/>
	<path d="M2222.2,508.1l-6.6,21.3h-4.5l-4-13.2c-0.1-0.2-0.2-0.4-0.2-0.7c-0.1-0.2-0.1-0.5-0.2-0.8c-0.1,0.3-0.1,0.5-0.2,0.8
		c-0.1,0.2-0.1,0.5-0.2,0.7l-4.1,13.2h-4.5l-6.6-21.3h4.1c0.4,0,0.8,0.1,1.1,0.3c0.3,0.2,0.5,0.5,0.6,0.8l2.9,11.1
		c0.1,0.4,0.2,0.7,0.3,1.1s0.2,0.8,0.3,1.3c0.2-0.9,0.4-1.7,0.6-2.4l3.4-11.1c0.1-0.3,0.3-0.5,0.6-0.7c0.3-0.2,0.6-0.3,1-0.3h1.5
		c0.4,0,0.8,0.1,1,0.3c0.3,0.2,0.5,0.5,0.6,0.8l3.4,11.1c0.3,0.7,0.5,1.5,0.6,2.3c0.1-0.4,0.2-0.8,0.2-1.2c0.1-0.4,0.2-0.7,0.3-1.1
		l2.9-11.1c0.1-0.3,0.3-0.5,0.6-0.7c0.3-0.2,0.6-0.3,1.1-0.3H2222.2z"/>
	<path d="M2228.7,510.1c0,0.4-0.1,0.7-0.2,1s-0.3,0.6-0.6,0.8c-0.3,0.2-0.5,0.4-0.9,0.6c-0.3,0.1-0.7,0.2-1.1,0.2
		c-0.4,0-0.7-0.1-1-0.2c-0.3-0.1-0.6-0.3-0.9-0.6c-0.2-0.2-0.4-0.5-0.6-0.8c-0.1-0.3-0.2-0.7-0.2-1c0-0.4,0.1-0.7,0.2-1
		c0.1-0.3,0.3-0.6,0.6-0.8c0.2-0.2,0.5-0.4,0.9-0.6s0.7-0.2,1-0.2c0.4,0,0.7,0.1,1.1,0.2s0.6,0.3,0.9,0.6c0.3,0.2,0.5,0.5,0.6,0.8
		C2228.6,509.4,2228.7,509.7,2228.7,510.1z M2228.2,514.2v15.2h-4.5v-15.2H2228.2z"/>
	<path d="M2236.7,511.9v5.4h7.3v3.8h-7.3v8.3h-5v-21.3h13.7v3.8H2236.7z"/>
	<path d="M2252.9,510.1c0,0.4-0.1,0.7-0.2,1s-0.3,0.6-0.6,0.8c-0.3,0.2-0.5,0.4-0.9,0.6c-0.3,0.1-0.7,0.2-1.1,0.2
		c-0.4,0-0.7-0.1-1-0.2c-0.3-0.1-0.6-0.3-0.9-0.6c-0.2-0.2-0.4-0.5-0.6-0.8c-0.1-0.3-0.2-0.7-0.2-1c0-0.4,0.1-0.7,0.2-1
		c0.1-0.3,0.3-0.6,0.6-0.8c0.2-0.2,0.5-0.4,0.9-0.6s0.7-0.2,1-0.2c0.4,0,0.7,0.1,1.1,0.2s0.6,0.3,0.9,0.6c0.3,0.2,0.5,0.5,0.6,0.8
		C2252.8,509.4,2252.9,509.7,2252.9,510.1z M2252.4,514.2v15.2h-4.5v-15.2H2252.4z"/>
</g>
<path class="st9" d="M1727.5,259.2h164.3c6.2,0,11.9,2.5,16,6.6s6.6,9.8,6.6,16v108.3c0,6.2-2.5,11.9-6.6,16s-9.8,6.6-16,6.6h-64.3
	l1.3,16.7h27.1c2.2,0,4.3,0.9,5.7,2.4c1.5,1.5,2.4,3.5,2.4,5.7v5.1c0,1.7-1.3,3-3,3h-102.8c-1.7,0-3-1.3-3-3v-5.1
	c0-2.2,0.9-4.3,2.4-5.7c1.5-1.5,3.5-2.4,5.7-2.4h27.1l1.3-16.7h-64.3c-6.2,0-11.9-2.5-16-6.6s-6.6-9.8-6.6-16V281.8
	c0-6.2,2.5-11.9,6.6-16C1715.6,261.7,1721.2,259.2,1727.5,259.2L1727.5,259.2z"/>
<path class="st6" d="M1907.8,265.8c-4.1-4.1-9.8-6.6-16-6.6h-164.3l0,0c-6.2,0-11.9,2.5-16,6.6s-6.6,9.8-6.6,16v108.3
	c0,6.2,2.5,11.9,6.6,16s9.8,6.6,16,6.6h64.3l-1.3,16.7h-27.1c-2.2,0-4.3,0.9-5.7,2.4c-1.5,1.5-2.4,3.5-2.4,5.7v5.1c0,1.7,1.3,3,3,3
	h102.8c1.7,0,3-1.3,3-3v-5.1c0-2.2-0.9-4.3-2.4-5.7c-1.5-1.5-3.5-2.4-5.7-2.4h-27.1l-1.3-16.7h64.3c6.2,0,11.9-2.5,16-6.6
	s6.6-9.8,6.6-16V281.8C1914.4,275.6,1911.9,269.9,1907.8,265.8z M1855.9,435.4L1855.9,435.4c0.6,0,1.1,0.2,1.5,0.6
	c0.4,0.4,0.6,0.9,0.6,1.5v2.1h-96.8v-2.1c0-0.6,0.2-1.1,0.6-1.5s0.9-0.6,1.5-0.6H1855.9z M1796.5,429.5l1.3-16.7h23.7l1.3,16.7
	H1796.5z M1908.4,378.4h-197.6v-96.6c0-4.6,1.9-8.7,4.9-11.7s7.2-4.9,11.7-4.9h164.3c4.6,0,8.7,1.9,11.7,4.9s4.9,7.2,4.9,11.7
	L1908.4,378.4L1908.4,378.4z"/>
<path class="st6" d="M1908.4,384.4h-197.6v5.7c0,4.6,1.9,8.7,4.9,11.7s7.2,4.9,11.7,4.9h164.3c4.6,0,8.7-1.9,11.7-4.9
	s4.9-7.2,4.9-11.7L1908.4,384.4z"/>
<path class="st10" d="M1908.4,384.4h-197.6v5.7c0,4.6,1.9,8.7,4.9,11.7s7.2,4.9,11.7,4.9h164.3c4.6,0,8.7-1.9,11.7-4.9
	s4.9-7.2,4.9-11.7L1908.4,384.4z"/>
<g>
	<g class="st11">
		<path class="st2" d="M1734.7,352.8v2.5h-9.4v-2.5h3.2v-8.3c0-0.2,0-0.4,0-0.6c0-0.2,0-0.4,0-0.7l-1.9,1.6
			c-0.2,0.1-0.3,0.2-0.5,0.2s-0.3,0-0.5,0c-0.1,0-0.3-0.1-0.4-0.1c-0.1-0.1-0.2-0.1-0.2-0.2l-1.1-1.5l5.1-4.3h2.9v14H1734.7z"/>
		<path class="st2" d="M1748.5,348.9v2c0,0.2-0.1,0.3-0.2,0.5s-0.3,0.2-0.5,0.2h-1v3.8h-3.1v-3.8h-6.6c-0.2,0-0.4-0.1-0.6-0.2
			c-0.2-0.1-0.3-0.3-0.3-0.5l-0.4-1.7l7.6-10.2h3.3v10.1H1748.5z M1743.8,348.9v-4.3c0-0.3,0-0.5,0-0.9s0-0.6,0.1-1l-4.4,6.1H1743.8
			z"/>
		<path class="st2" d="M1761.7,347.1c0,1.4-0.2,2.7-0.5,3.7c-0.3,1.1-0.7,1.9-1.3,2.6c-0.5,0.7-1.2,1.2-1.9,1.5
			c-0.8,0.3-1.6,0.5-2.4,0.5c-0.9,0-1.7-0.2-2.4-0.5c-0.7-0.3-1.4-0.9-1.9-1.5c-0.5-0.7-1-1.6-1.3-2.6c-0.3-1.1-0.5-2.3-0.5-3.7
			c0-1.4,0.2-2.7,0.5-3.7c0.3-1.1,0.7-1.9,1.3-2.6c0.5-0.7,1.2-1.2,1.9-1.5c0.7-0.3,1.5-0.5,2.4-0.5c0.9,0,1.7,0.2,2.4,0.5
			c0.8,0.3,1.4,0.8,1.9,1.5c0.5,0.7,1,1.6,1.3,2.6C1761.6,344.4,1761.7,345.7,1761.7,347.1z M1758.1,347.1c0-1.1-0.1-2.1-0.2-2.8
			c-0.1-0.7-0.3-1.3-0.6-1.7c-0.2-0.4-0.5-0.7-0.8-0.9c-0.3-0.2-0.6-0.2-0.9-0.2c-0.3,0-0.6,0.1-0.9,0.2s-0.6,0.4-0.8,0.9
			c-0.2,0.4-0.4,1-0.6,1.7s-0.2,1.7-0.2,2.8c0,1.1,0.1,2.1,0.2,2.8c0.1,0.7,0.3,1.3,0.6,1.7c0.2,0.4,0.5,0.7,0.8,0.9
			c0.3,0.2,0.6,0.2,0.9,0.2c0.3,0,0.6-0.1,0.9-0.2c0.3-0.2,0.6-0.4,0.8-0.9c0.2-0.4,0.4-1,0.6-1.7
			C1758,349.2,1758.1,348.3,1758.1,347.1z"/>
		<path class="st2" d="M1762.9,353.6c0-0.3,0.1-0.5,0.2-0.8s0.2-0.4,0.4-0.6c0.2-0.2,0.4-0.3,0.6-0.4s0.5-0.2,0.8-0.2
			c0.3,0,0.5,0.1,0.8,0.2s0.5,0.2,0.6,0.4c0.2,0.2,0.3,0.4,0.4,0.6c0.1,0.2,0.2,0.5,0.2,0.8c0,0.3-0.1,0.5-0.2,0.8
			c-0.1,0.2-0.2,0.4-0.4,0.6c-0.2,0.2-0.4,0.3-0.6,0.4c-0.2,0.1-0.5,0.1-0.8,0.1c-0.3,0-0.5,0-0.8-0.1c-0.2-0.1-0.5-0.2-0.6-0.4
			c-0.2-0.2-0.3-0.4-0.4-0.6S1762.9,353.8,1762.9,353.6z"/>
		<path class="st2" d="M1778.6,352.2c0.4,0,0.7,0.1,0.9,0.3s0.3,0.5,0.3,0.8v2h-11.6v-1.1c0-0.2,0-0.5,0.1-0.7
			c0.1-0.2,0.2-0.5,0.5-0.7l4.7-4.8c0.4-0.4,0.8-0.8,1.1-1.2c0.3-0.4,0.5-0.7,0.7-1.1c0.2-0.4,0.3-0.7,0.4-1.1
			c0.1-0.4,0.1-0.7,0.1-1.1c0-0.7-0.2-1.2-0.5-1.5s-0.8-0.5-1.4-0.5c-0.5,0-1,0.1-1.3,0.4c-0.4,0.3-0.6,0.6-0.7,1
			c-0.2,0.4-0.4,0.7-0.6,0.8s-0.6,0.2-1.1,0.1l-1.9-0.3c0.1-0.8,0.4-1.5,0.7-2.1c0.3-0.6,0.8-1.1,1.3-1.5s1.1-0.7,1.7-0.9
			c0.7-0.2,1.4-0.3,2.1-0.3c0.8,0,1.5,0.1,2.2,0.4c0.7,0.2,1.2,0.6,1.7,1c0.5,0.4,0.8,0.9,1.1,1.5s0.4,1.2,0.4,1.9
			c0,0.6-0.1,1.2-0.3,1.7c-0.2,0.5-0.4,1-0.7,1.5c-0.3,0.5-0.6,0.9-1,1.3c-0.4,0.4-0.8,0.9-1.2,1.3l-3.2,3.3
			c0.4-0.1,0.8-0.2,1.2-0.3c0.4-0.1,0.8-0.1,1.1-0.1H1778.6z"/>
		<path class="st2" d="M1793.3,348.9v2c0,0.2-0.1,0.3-0.2,0.5s-0.3,0.2-0.5,0.2h-1v3.8h-3.1v-3.8h-6.6c-0.2,0-0.4-0.1-0.6-0.2
			c-0.2-0.1-0.3-0.3-0.3-0.5l-0.4-1.7l7.6-10.2h3.3v10.1H1793.3z M1788.5,348.9v-4.3c0-0.3,0-0.5,0-0.9s0-0.6,0.1-1l-4.4,6.1H1788.5
			z"/>
		<path class="st2" d="M1805.7,352.8v2.5h-9.4v-2.5h3.2v-8.3c0-0.2,0-0.4,0-0.6c0-0.2,0-0.4,0-0.7l-1.9,1.6
			c-0.2,0.1-0.3,0.2-0.5,0.2s-0.3,0-0.5,0c-0.1,0-0.3-0.1-0.4-0.1c-0.1-0.1-0.2-0.1-0.2-0.2l-1.1-1.5l5.1-4.3h2.9v14H1805.7z"/>
		<path class="st2" d="M1807.6,353.6c0-0.3,0.1-0.5,0.2-0.8s0.2-0.4,0.4-0.6c0.2-0.2,0.4-0.3,0.6-0.4s0.5-0.2,0.8-0.2
			c0.3,0,0.5,0.1,0.8,0.2s0.5,0.2,0.6,0.4c0.2,0.2,0.3,0.4,0.4,0.6c0.1,0.2,0.2,0.5,0.2,0.8c0,0.3-0.1,0.5-0.2,0.8
			c-0.1,0.2-0.2,0.4-0.4,0.6c-0.2,0.2-0.4,0.3-0.6,0.4c-0.2,0.1-0.5,0.1-0.8,0.1c-0.3,0-0.5,0-0.8-0.1c-0.2-0.1-0.5-0.2-0.6-0.4
			c-0.2-0.2-0.3-0.4-0.4-0.6S1807.6,353.8,1807.6,353.6z"/>
		<path class="st2" d="M1824.2,352.8v2.5h-9.4v-2.5h3.2v-8.3c0-0.2,0-0.4,0-0.6c0-0.2,0-0.4,0-0.7l-1.9,1.6
			c-0.2,0.1-0.3,0.2-0.5,0.2s-0.3,0-0.5,0c-0.1,0-0.3-0.1-0.4-0.1c-0.1-0.1-0.2-0.1-0.2-0.2l-1.1-1.5l5.1-4.3h2.9v14H1824.2z"/>
		<path class="st2" d="M1832.5,349.1c0.1-0.1,0.2-0.3,0.3-0.4c0.1-0.1,0.2-0.2,0.3-0.4c-0.7,0.4-1.5,0.6-2.4,0.6
			c-0.5,0-1.1-0.1-1.6-0.3s-1-0.5-1.5-0.9c-0.4-0.4-0.8-0.9-1.1-1.5c-0.3-0.6-0.4-1.3-0.4-2.1c0-0.7,0.1-1.5,0.4-2.1
			c0.3-0.7,0.7-1.2,1.2-1.7c0.5-0.5,1.1-0.9,1.8-1.2c0.7-0.3,1.5-0.4,2.4-0.4c0.9,0,1.7,0.1,2.4,0.4c0.7,0.3,1.3,0.7,1.8,1.1
			s0.9,1.1,1.1,1.7s0.4,1.4,0.4,2.2c0,1.1-0.2,2-0.5,2.9c-0.3,0.9-0.8,1.7-1.3,2.4l-3.5,5c-0.2,0.2-0.4,0.4-0.7,0.6
			c-0.3,0.2-0.7,0.2-1.1,0.2h-3.2L1832.5,349.1z M1829.6,343.9c0,1.6,0.8,2.5,2.3,2.5c0.7,0,1.3-0.2,1.7-0.7s0.6-1,0.6-1.8
			c0-0.4-0.1-0.8-0.2-1.1c-0.1-0.3-0.3-0.6-0.5-0.8c-0.2-0.2-0.5-0.4-0.8-0.5c-0.3-0.1-0.6-0.2-1-0.2c-0.4,0-0.7,0.1-0.9,0.2
			c-0.3,0.1-0.5,0.3-0.7,0.5s-0.3,0.5-0.4,0.8C1829.7,343.2,1829.6,343.6,1829.6,343.9z"/>
		<path class="st2" d="M1843.6,344.7c0.3-0.1,0.6-0.1,0.9-0.1c0.3,0,0.6,0,0.8,0c0.9,0,1.6,0.1,2.3,0.4c0.7,0.3,1.2,0.6,1.7,1.1
			s0.8,1,1,1.6c0.2,0.6,0.3,1.3,0.3,2c0,0.9-0.2,1.7-0.5,2.4c-0.3,0.7-0.7,1.4-1.3,1.9c-0.6,0.5-1.2,0.9-2,1.2
			c-0.8,0.3-1.6,0.4-2.5,0.4c-0.5,0-1-0.1-1.5-0.2c-0.5-0.1-0.9-0.3-1.4-0.5s-0.8-0.4-1.2-0.7c-0.4-0.3-0.7-0.5-1-0.8l1.1-1.4
			c0.1-0.2,0.2-0.3,0.4-0.3c0.2-0.1,0.3-0.1,0.5-0.1c0.2,0,0.4,0.1,0.6,0.2c0.2,0.1,0.4,0.3,0.7,0.4c0.2,0.1,0.5,0.3,0.8,0.4
			c0.3,0.1,0.7,0.2,1.2,0.2c0.5,0,0.9-0.1,1.2-0.2c0.3-0.2,0.6-0.4,0.8-0.6s0.4-0.6,0.5-0.9c0.1-0.4,0.1-0.7,0.1-1.1
			c0-0.8-0.2-1.4-0.7-1.8s-1.1-0.6-1.9-0.6c-0.7,0-1.5,0.1-2.2,0.4l-2.2-0.6l1.4-8.2h8.4v1.4c0,0.2,0,0.5-0.1,0.7
			c-0.1,0.2-0.2,0.4-0.4,0.5c-0.2,0.1-0.4,0.3-0.6,0.3s-0.6,0.1-0.9,0.1h-3.9L1843.6,344.7z"/>
		<path class="st2" d="M1852.4,353.6c0-0.3,0.1-0.5,0.2-0.8c0.1-0.2,0.2-0.4,0.4-0.6c0.2-0.2,0.4-0.3,0.6-0.4
			c0.2-0.1,0.5-0.2,0.8-0.2c0.3,0,0.5,0.1,0.8,0.2s0.5,0.2,0.6,0.4c0.2,0.2,0.3,0.4,0.4,0.6s0.2,0.5,0.2,0.8c0,0.3-0.1,0.5-0.2,0.8
			s-0.2,0.4-0.4,0.6c-0.2,0.2-0.4,0.3-0.6,0.4c-0.2,0.1-0.5,0.1-0.8,0.1c-0.3,0-0.6,0-0.8-0.1c-0.2-0.1-0.5-0.2-0.6-0.4
			c-0.2-0.2-0.3-0.4-0.4-0.6C1852.4,354.1,1852.4,353.8,1852.4,353.6z"/>
		<path class="st2" d="M1868.9,352.8v2.5h-9.4v-2.5h3.2v-8.3c0-0.2,0-0.4,0-0.6c0-0.2,0-0.4,0-0.7l-1.9,1.6
			c-0.2,0.1-0.3,0.2-0.5,0.2s-0.3,0-0.5,0s-0.3-0.1-0.4-0.1c-0.1-0.1-0.2-0.1-0.2-0.2l-1.1-1.5l5.1-4.3h2.9v14H1868.9z"/>
		<path class="st2" d="M1882.1,352.8v2.5h-9.4v-2.5h3.2v-8.3c0-0.2,0-0.4,0-0.6c0-0.2,0-0.4,0-0.7l-1.9,1.6
			c-0.2,0.1-0.3,0.2-0.5,0.2s-0.3,0-0.5,0s-0.3-0.1-0.4-0.1c-0.1-0.1-0.2-0.1-0.2-0.2l-1.1-1.5l5.1-4.3h2.9v14H1882.1z"/>
		<path class="st2" d="M1884.3,343.6c0.1-0.8,0.4-1.5,0.7-2.1c0.3-0.6,0.8-1.1,1.3-1.5s1.1-0.7,1.7-0.9c0.7-0.2,1.4-0.3,2.1-0.3
			c0.8,0,1.5,0.1,2.2,0.3c0.6,0.2,1.2,0.5,1.6,0.9c0.4,0.4,0.8,0.8,1,1.4c0.2,0.5,0.3,1.1,0.3,1.6c0,0.5-0.1,1-0.2,1.4
			s-0.3,0.7-0.5,1c-0.2,0.3-0.5,0.5-0.8,0.7c-0.3,0.2-0.7,0.4-1,0.5c1.8,0.6,2.7,1.9,2.7,3.7c0,0.9-0.2,1.6-0.5,2.3
			s-0.7,1.2-1.3,1.6c-0.5,0.4-1.1,0.8-1.8,1s-1.4,0.3-2.2,0.3c-0.8,0-1.5-0.1-2.1-0.3c-0.6-0.2-1.2-0.4-1.6-0.8
			c-0.5-0.4-0.9-0.8-1.2-1.4c-0.4-0.6-0.7-1.2-0.9-2l1.6-0.6c0.4-0.2,0.8-0.2,1.1-0.1c0.3,0.1,0.6,0.2,0.7,0.5
			c0.3,0.6,0.7,1.1,1.1,1.4c0.4,0.3,0.8,0.4,1.3,0.4c0.4,0,0.7-0.1,1-0.2s0.5-0.3,0.7-0.5c0.2-0.2,0.3-0.4,0.4-0.7s0.1-0.5,0.1-0.8
			c0-0.4,0-0.7-0.1-1c0-0.3-0.2-0.5-0.4-0.7c-0.2-0.2-0.6-0.4-1-0.5s-1.1-0.2-1.9-0.2v-2.4c0.7,0,1.2-0.1,1.7-0.2s0.7-0.3,1-0.4
			c0.2-0.2,0.4-0.4,0.5-0.7s0.1-0.6,0.1-0.9c0-0.6-0.2-1.1-0.5-1.5c-0.3-0.4-0.8-0.5-1.4-0.5c-0.5,0-1,0.1-1.3,0.4
			c-0.4,0.3-0.6,0.6-0.7,1c-0.2,0.4-0.4,0.7-0.6,0.8c-0.3,0.1-0.6,0.2-1.1,0.1L1884.3,343.6z"/>
	</g>
</g>
<g>
	<path class="st2" d="M1800.2,322.2h-10.8v-46.1h10.8V322.2z"/>
	<path class="st2" d="M1825.4,276.1c3.2,0,6,0.4,8.4,1.2c2.3,0.8,4.3,1.8,5.8,3.2c1.5,1.3,2.6,2.9,3.3,4.8c0.7,1.8,1.1,3.8,1.1,5.9
		c0,2.3-0.4,4.4-1.1,6.3c-0.7,1.9-1.9,3.6-3.4,4.9c-1.5,1.4-3.4,2.4-5.8,3.2c-2.3,0.8-5.1,1.2-8.3,1.2h-5.6v15.4h-10.7v-46.1H1825.4
		z M1825.4,298.7c2.8,0,4.8-0.7,6-2c1.2-1.3,1.8-3.2,1.8-5.6c0-1.1-0.2-2-0.5-2.9s-0.8-1.6-1.4-2.2c-0.6-0.6-1.5-1.1-2.4-1.4
		c-1-0.3-2.1-0.5-3.5-0.5h-5.6v14.6H1825.4z"/>
</g>
<g>
	<g>
		<circle class="st3" cx="1308.8" cy="464.3" r="28.8"/>
		<g>
			<g>
				<path class="st2" d="M1301,464.3c0-0.3,0.1-0.6,0.2-0.8s0.3-0.5,0.4-0.6c0.2-0.2,0.4-0.3,0.7-0.4s0.5-0.2,0.8-0.2
					c0.3,0,0.6,0.1,0.8,0.2s0.5,0.3,0.7,0.4s0.3,0.4,0.4,0.6s0.2,0.5,0.2,0.8c0,0.3-0.1,0.6-0.2,0.8s-0.3,0.5-0.4,0.7
					c-0.2,0.2-0.4,0.3-0.7,0.4s-0.5,0.2-0.8,0.2c-0.3,0-0.6-0.1-0.8-0.2s-0.5-0.2-0.7-0.4c-0.2-0.2-0.3-0.4-0.4-0.7
					S1301,464.6,1301,464.3z"/>
				<path class="st2" d="M1306.7,464.3c0-0.3,0.1-0.6,0.2-0.8s0.3-0.5,0.4-0.6c0.2-0.2,0.4-0.3,0.7-0.4s0.5-0.2,0.8-0.2
					c0.3,0,0.6,0.1,0.8,0.2s0.5,0.3,0.7,0.4s0.3,0.4,0.4,0.6s0.2,0.5,0.2,0.8c0,0.3-0.1,0.6-0.2,0.8s-0.3,0.5-0.4,0.7
					c-0.2,0.2-0.4,0.3-0.7,0.4s-0.5,0.2-0.8,0.2c-0.3,0-0.6-0.1-0.8-0.2s-0.5-0.2-0.7-0.4c-0.2-0.2-0.3-0.4-0.4-0.7
					S1306.7,464.6,1306.7,464.3z"/>
				<path class="st2" d="M1312.4,464.3c0-0.3,0.1-0.6,0.2-0.8s0.3-0.5,0.4-0.6c0.2-0.2,0.4-0.3,0.7-0.4s0.5-0.2,0.8-0.2
					c0.3,0,0.6,0.1,0.8,0.2s0.5,0.3,0.7,0.4s0.3,0.4,0.4,0.6s0.2,0.5,0.2,0.8c0,0.3-0.1,0.6-0.2,0.8s-0.3,0.5-0.4,0.7
					c-0.2,0.2-0.4,0.3-0.7,0.4s-0.5,0.2-0.8,0.2c-0.3,0-0.6-0.1-0.8-0.2s-0.5-0.2-0.7-0.4c-0.2-0.2-0.3-0.4-0.4-0.7
					S1312.4,464.6,1312.4,464.3z"/>
			</g>
		</g>
	</g>
	<g>
		<circle class="st3" cx="1308.8" cy="240.6" r="28.8"/>
		<g>
			<g>
				<path class="st2" d="M1301,240.6c0-0.3,0.1-0.6,0.2-0.8s0.3-0.5,0.4-0.6c0.2-0.2,0.4-0.3,0.7-0.4s0.5-0.2,0.8-0.2
					c0.3,0,0.6,0.1,0.8,0.2s0.5,0.3,0.7,0.4s0.3,0.4,0.4,0.6s0.2,0.5,0.2,0.8c0,0.3-0.1,0.6-0.2,0.8s-0.3,0.5-0.4,0.7
					c-0.2,0.2-0.4,0.3-0.7,0.4s-0.5,0.2-0.8,0.2c-0.3,0-0.6-0.1-0.8-0.2s-0.5-0.2-0.7-0.4c-0.2-0.2-0.3-0.4-0.4-0.7
					S1301,240.9,1301,240.6z"/>
				<path class="st2" d="M1306.7,240.6c0-0.3,0.1-0.6,0.2-0.8s0.3-0.5,0.4-0.6c0.2-0.2,0.4-0.3,0.7-0.4s0.5-0.2,0.8-0.2
					c0.3,0,0.6,0.1,0.8,0.2s0.5,0.3,0.7,0.4s0.3,0.4,0.4,0.6s0.2,0.5,0.2,0.8c0,0.3-0.1,0.6-0.2,0.8s-0.3,0.5-0.4,0.7
					c-0.2,0.2-0.4,0.3-0.7,0.4s-0.5,0.2-0.8,0.2c-0.3,0-0.6-0.1-0.8-0.2s-0.5-0.2-0.7-0.4c-0.2-0.2-0.3-0.4-0.4-0.7
					S1306.7,240.9,1306.7,240.6z"/>
				<path class="st2" d="M1312.4,240.6c0-0.3,0.1-0.6,0.2-0.8s0.3-0.5,0.4-0.6c0.2-0.2,0.4-0.3,0.7-0.4s0.5-0.2,0.8-0.2
					c0.3,0,0.6,0.1,0.8,0.2s0.5,0.3,0.7,0.4s0.3,0.4,0.4,0.6s0.2,0.5,0.2,0.8c0,0.3-0.1,0.6-0.2,0.8s-0.3,0.5-0.4,0.7
					c-0.2,0.2-0.4,0.3-0.7,0.4s-0.5,0.2-0.8,0.2c-0.3,0-0.6-0.1-0.8-0.2s-0.5-0.2-0.7-0.4c-0.2-0.2-0.3-0.4-0.4-0.7
					S1312.4,240.9,1312.4,240.6z"/>
			</g>
		</g>
	</g>
</g>
<g>
	<circle class="st3" cx="1224.3" cy="501.8" r="46.3"/>
	<g>
		<g>
			<path class="st2" d="M1202.6,496.6c-0.1,0.2-0.2,0.3-0.4,0.4c-0.1,0.1-0.3,0.1-0.5,0.1c-0.2,0-0.4-0.1-0.6-0.2s-0.5-0.2-0.7-0.4
				c-0.3-0.1-0.6-0.3-0.9-0.4c-0.3-0.1-0.7-0.2-1.2-0.2c-0.8,0-1.3,0.2-1.7,0.5c-0.4,0.3-0.6,0.8-0.6,1.3c0,0.4,0.1,0.6,0.3,0.9
				c0.2,0.2,0.5,0.4,0.9,0.6c0.4,0.2,0.8,0.3,1.2,0.5c0.5,0.1,0.9,0.3,1.4,0.5c0.5,0.2,1,0.4,1.4,0.6c0.5,0.2,0.9,0.5,1.2,0.9
				c0.4,0.4,0.7,0.8,0.9,1.3c0.2,0.5,0.3,1.1,0.3,1.9c0,0.8-0.1,1.6-0.4,2.3c-0.3,0.7-0.7,1.3-1.2,1.8c-0.5,0.5-1.2,0.9-2,1.2
				c-0.8,0.3-1.7,0.4-2.6,0.4c-0.5,0-1.1-0.1-1.7-0.2c-0.6-0.1-1.1-0.3-1.6-0.5c-0.5-0.2-1-0.4-1.5-0.7c-0.5-0.3-0.9-0.6-1.2-0.9
				l1.2-1.9c0.1-0.1,0.2-0.2,0.4-0.3s0.3-0.1,0.5-0.1c0.2,0,0.5,0.1,0.7,0.2s0.5,0.3,0.8,0.5s0.7,0.4,1.1,0.5
				c0.4,0.2,0.9,0.2,1.4,0.2c0.7,0,1.3-0.2,1.7-0.5c0.4-0.3,0.6-0.8,0.6-1.5c0-0.4-0.1-0.7-0.3-1c-0.2-0.3-0.5-0.5-0.9-0.6
				c-0.4-0.2-0.8-0.3-1.2-0.4c-0.5-0.1-0.9-0.3-1.4-0.4c-0.5-0.2-1-0.3-1.4-0.6c-0.5-0.2-0.9-0.5-1.2-0.9c-0.4-0.4-0.7-0.8-0.9-1.4
				c-0.2-0.6-0.3-1.2-0.3-2.1c0-0.7,0.1-1.3,0.4-1.9c0.3-0.6,0.6-1.2,1.2-1.7c0.5-0.5,1.1-0.9,1.9-1.2s1.6-0.4,2.5-0.4
				c0.5,0,1.1,0,1.6,0.1c0.5,0.1,1,0.2,1.4,0.4c0.5,0.2,0.9,0.4,1.3,0.6c0.4,0.2,0.7,0.5,1.1,0.8L1202.6,496.6z"/>
			<path class="st2" d="M1225.8,493.1v17.4h-3.6v-10c0-0.2,0-0.5,0-0.8c0-0.3,0-0.5,0.1-0.8l-4.6,9c-0.1,0.3-0.3,0.5-0.6,0.6
				c-0.2,0.1-0.5,0.2-0.8,0.2h-0.5c-0.3,0-0.6-0.1-0.8-0.2c-0.2-0.1-0.4-0.4-0.6-0.6l-4.6-9c0,0.3,0,0.6,0.1,0.8c0,0.3,0,0.5,0,0.8
				v10h-3.6v-17.4h3.1c0.2,0,0.3,0,0.5,0c0.1,0,0.2,0,0.4,0.1c0.1,0,0.2,0.1,0.3,0.2s0.2,0.2,0.2,0.4l4.5,8.8
				c0.2,0.3,0.3,0.6,0.5,0.9s0.3,0.7,0.4,1c0.1-0.4,0.3-0.7,0.4-1c0.1-0.3,0.3-0.7,0.5-1l4.5-8.8c0.1-0.2,0.2-0.3,0.2-0.4
				c0.1-0.1,0.2-0.1,0.3-0.2c0.1,0,0.2-0.1,0.4-0.1c0.1,0,0.3,0,0.5,0H1225.8z"/>
			<path class="st2" d="M1241.7,496.3h-4.9v14.2h-4v-14.2h-4.9v-3.2h13.8V496.3z"/>
			<path class="st2" d="M1249.9,493.1c1.2,0,2.3,0.1,3.2,0.4s1.6,0.7,2.2,1.2c0.6,0.5,1,1.1,1.3,1.8c0.3,0.7,0.4,1.4,0.4,2.2
				c0,0.9-0.1,1.7-0.4,2.4c-0.3,0.7-0.7,1.3-1.3,1.9c-0.6,0.5-1.3,0.9-2.2,1.2s-1.9,0.4-3.1,0.4h-2.1v5.8h-4v-17.4H1249.9z
				 M1249.9,501.6c1.1,0,1.8-0.3,2.3-0.8c0.5-0.5,0.7-1.2,0.7-2.1c0-0.4-0.1-0.8-0.2-1.1c-0.1-0.3-0.3-0.6-0.5-0.8s-0.5-0.4-0.9-0.5
				c-0.4-0.1-0.8-0.2-1.3-0.2h-2.1v5.5H1249.9z"/>
		</g>
	</g>
	<g>
		<circle class="st3" cx="1224.3" cy="203.1" r="46.3"/>
		<g>
			<path class="st2" d="M1198.1,211.8h-4.1v-17.4h4.1V211.8z"/>
			<path class="st2" d="M1221,194.4v17.4h-3.6v-10c0-0.2,0-0.5,0-0.8c0-0.3,0-0.5,0.1-0.8l-4.6,9c-0.1,0.3-0.3,0.5-0.6,0.6
				s-0.5,0.2-0.8,0.2h-0.5c-0.3,0-0.6-0.1-0.8-0.2s-0.4-0.4-0.6-0.6l-4.6-9c0,0.3,0,0.6,0.1,0.8c0,0.3,0,0.5,0,0.8v10h-3.6v-17.4
				h3.1c0.2,0,0.3,0,0.5,0s0.2,0,0.4,0.1c0.1,0,0.2,0.1,0.3,0.2c0.1,0.1,0.2,0.2,0.2,0.4l4.5,8.8c0.2,0.3,0.3,0.6,0.5,0.9
				c0.1,0.3,0.3,0.7,0.4,1c0.1-0.4,0.3-0.7,0.4-1s0.3-0.7,0.5-1l4.5-8.8c0.1-0.2,0.2-0.3,0.2-0.4c0.1-0.1,0.2-0.1,0.3-0.2
				c0.1,0,0.2-0.1,0.4-0.1c0.1,0,0.3,0,0.5,0H1221z"/>
			<path class="st2" d="M1240,211.8h-3.1c-0.4,0-0.6-0.1-0.8-0.2c-0.2-0.2-0.4-0.4-0.5-0.6l-1-3h-6.6l-1,3c-0.1,0.2-0.2,0.4-0.5,0.6
				c-0.2,0.2-0.5,0.3-0.8,0.3h-3.2l6.7-17.4h4.1L1240,211.8z M1233.6,205.2l-1.6-4.8c-0.1-0.3-0.2-0.7-0.4-1.1
				c-0.1-0.4-0.3-0.9-0.4-1.3c-0.1,0.5-0.2,0.9-0.4,1.4c-0.1,0.4-0.3,0.8-0.4,1.1l-1.6,4.7H1233.6z"/>
			<path class="st2" d="M1247.6,194.4c1.2,0,2.3,0.1,3.2,0.4s1.6,0.7,2.2,1.2c0.6,0.5,1,1.1,1.3,1.8c0.3,0.7,0.4,1.4,0.4,2.2
				c0,0.9-0.1,1.7-0.4,2.4c-0.3,0.7-0.7,1.3-1.3,1.9c-0.6,0.5-1.3,0.9-2.2,1.2s-1.9,0.4-3.1,0.4h-2.1v5.8h-4v-17.4H1247.6z
				 M1247.6,203c1.1,0,1.8-0.3,2.3-0.8c0.5-0.5,0.7-1.2,0.7-2.1c0-0.4-0.1-0.8-0.2-1.1c-0.1-0.3-0.3-0.6-0.5-0.8s-0.5-0.4-0.9-0.5
				c-0.4-0.1-0.8-0.2-1.3-0.2h-2.1v5.5H1247.6z"/>
		</g>
	</g>
</g>
<g>
	<g>
		<circle class="st3" cx="1091.4" cy="427.2" r="46.3"/>
		<g>
			<g>
				<path class="st2" d="M1083.4,427.2c0,1.3-0.2,2.4-0.7,3.5c-0.4,1.1-1,2-1.8,2.8s-1.7,1.4-2.9,1.8c-1.1,0.4-2.3,0.7-3.7,0.7h-6.8
					v-17.4h6.8c1.4,0,2.6,0.2,3.7,0.7c1.1,0.4,2.1,1,2.9,1.8s1.4,1.7,1.8,2.8S1083.4,426,1083.4,427.2z M1079.3,427.2
					c0-0.9-0.1-1.6-0.3-2.3c-0.2-0.7-0.5-1.3-1-1.8c-0.4-0.5-0.9-0.9-1.5-1.1c-0.6-0.3-1.3-0.4-2.1-0.4h-2.7v11.2h2.7
					c0.8,0,1.5-0.1,2.1-0.4s1.1-0.6,1.5-1.1c0.4-0.5,0.7-1.1,1-1.8C1079.2,428.9,1079.3,428.1,1079.3,427.2z"/>
				<path class="st2" d="M1101,418.5v17.4h-2.1c-0.3,0-0.6,0-0.8-0.1c-0.2-0.1-0.4-0.3-0.6-0.5l-8.2-10.4c0,0.3,0.1,0.6,0.1,0.9
					s0,0.6,0,0.8v9.3h-3.6v-17.4h2.1c0.2,0,0.3,0,0.4,0c0.1,0,0.2,0,0.3,0.1c0.1,0,0.2,0.1,0.3,0.2c0.1,0.1,0.2,0.2,0.3,0.3
					l8.3,10.5c0-0.3-0.1-0.7-0.1-1c0-0.3,0-0.6,0-0.9v-9.2H1101z"/>
				<path class="st2" d="M1114,422c-0.1,0.2-0.2,0.3-0.4,0.4c-0.1,0.1-0.3,0.1-0.5,0.1c-0.2,0-0.4-0.1-0.6-0.2
					c-0.2-0.1-0.5-0.2-0.7-0.4c-0.3-0.1-0.6-0.3-0.9-0.4s-0.7-0.2-1.2-0.2c-0.8,0-1.3,0.2-1.7,0.5c-0.4,0.3-0.6,0.8-0.6,1.3
					c0,0.4,0.1,0.6,0.3,0.9c0.2,0.2,0.5,0.4,0.9,0.6c0.4,0.2,0.8,0.3,1.2,0.5c0.5,0.1,0.9,0.3,1.4,0.5s1,0.4,1.4,0.6
					c0.5,0.2,0.9,0.5,1.2,0.9c0.4,0.4,0.7,0.8,0.9,1.3c0.2,0.5,0.3,1.1,0.3,1.9c0,0.8-0.1,1.6-0.4,2.3c-0.3,0.7-0.7,1.3-1.2,1.8
					s-1.2,0.9-2,1.2s-1.7,0.4-2.6,0.4c-0.5,0-1.1-0.1-1.7-0.2c-0.6-0.1-1.1-0.3-1.6-0.5s-1-0.4-1.5-0.7c-0.5-0.3-0.9-0.6-1.2-0.9
					l1.2-1.9c0.1-0.1,0.2-0.2,0.4-0.3s0.3-0.1,0.5-0.1c0.2,0,0.5,0.1,0.7,0.2c0.2,0.2,0.5,0.3,0.8,0.5s0.7,0.4,1.1,0.5
					c0.4,0.2,0.9,0.2,1.4,0.2c0.7,0,1.3-0.2,1.7-0.5c0.4-0.3,0.6-0.8,0.6-1.5c0-0.4-0.1-0.7-0.3-1s-0.5-0.5-0.9-0.6
					c-0.4-0.2-0.8-0.3-1.2-0.4c-0.5-0.1-0.9-0.3-1.4-0.4c-0.5-0.2-1-0.3-1.4-0.6c-0.5-0.2-0.9-0.5-1.2-0.9c-0.4-0.4-0.7-0.8-0.9-1.4
					c-0.2-0.6-0.3-1.2-0.3-2.1c0-0.7,0.1-1.3,0.4-1.9c0.3-0.6,0.6-1.2,1.2-1.7c0.5-0.5,1.1-0.9,1.9-1.2s1.6-0.4,2.5-0.4
					c0.5,0,1.1,0,1.6,0.1c0.5,0.1,1,0.2,1.4,0.4c0.5,0.2,0.9,0.4,1.3,0.6c0.4,0.2,0.7,0.5,1.1,0.8L1114,422z"/>
			</g>
		</g>
	</g>
	<g>
		<circle class="st3" cx="1091.4" cy="277.7" r="46.3"/>
		<g>
			<g>
				<path class="st2" d="M1087.8,263.8l-3.9,12.4h-3c-0.2,0-0.3,0-0.4-0.1s-0.2-0.3-0.3-0.5l-1.8-6.2c-0.1-0.3-0.2-0.6-0.2-0.8
					c-0.1-0.3-0.1-0.5-0.2-0.8c-0.1,0.3-0.1,0.6-0.2,0.8c-0.1,0.3-0.1,0.6-0.2,0.8l-1.8,6.2c-0.1,0.4-0.4,0.6-0.8,0.6h-2.9
					l-3.9-12.4h3c0.3,0,0.5,0.1,0.7,0.2c0.2,0.1,0.3,0.3,0.4,0.5l1.2,5.6c0.1,0.4,0.2,0.8,0.3,1.2c0.1,0.4,0.2,0.8,0.2,1.2
					c0.1-0.4,0.2-0.8,0.3-1.2s0.2-0.8,0.4-1.2l1.6-5.6c0.1-0.2,0.2-0.3,0.4-0.5c0.2-0.1,0.4-0.2,0.6-0.2h1.6c0.3,0,0.5,0.1,0.7,0.2
					c0.2,0.1,0.3,0.3,0.4,0.5l1.5,5.6c0.1,0.4,0.2,0.8,0.4,1.2c0.1,0.4,0.2,0.8,0.3,1.2c0.1-0.4,0.1-0.8,0.2-1.2s0.2-0.8,0.3-1.2
					l1.3-5.6c0.1-0.2,0.2-0.3,0.4-0.5c0.2-0.1,0.4-0.2,0.6-0.2H1087.8z"/>
				<path class="st2" d="M1091.9,270.6c0.1,1,0.4,1.8,0.9,2.3c0.5,0.5,1.2,0.7,2,0.7c0.4,0,0.8-0.1,1.1-0.2c0.3-0.1,0.6-0.2,0.8-0.3
					c0.2-0.1,0.5-0.2,0.7-0.3s0.4-0.2,0.6-0.2c0.3,0,0.5,0.1,0.7,0.3l1.1,1.3c-0.4,0.4-0.8,0.8-1.2,1.1c-0.4,0.3-0.9,0.5-1.4,0.6
					c-0.5,0.2-0.9,0.3-1.4,0.3c-0.5,0.1-0.9,0.1-1.3,0.1c-0.9,0-1.7-0.1-2.4-0.4c-0.8-0.3-1.4-0.7-2-1.3c-0.6-0.6-1-1.3-1.4-2.1
					c-0.3-0.8-0.5-1.8-0.5-2.9c0-0.8,0.1-1.6,0.4-2.4s0.7-1.4,1.2-1.9s1.2-1,1.9-1.3c0.8-0.3,1.6-0.5,2.6-0.5c0.8,0,1.6,0.1,2.3,0.4
					c0.7,0.3,1.3,0.6,1.8,1.1c0.5,0.5,0.9,1.1,1.1,1.8c0.3,0.7,0.4,1.5,0.4,2.4c0,0.3,0,0.5,0,0.7c0,0.2-0.1,0.3-0.1,0.4
					c-0.1,0.1-0.1,0.2-0.3,0.2c-0.1,0-0.2,0.1-0.4,0.1H1091.9z M1096.6,268.5c0-0.3,0-0.6-0.1-0.9c-0.1-0.3-0.2-0.5-0.4-0.7
					c-0.2-0.2-0.4-0.4-0.7-0.5c-0.3-0.1-0.6-0.2-1-0.2c-0.7,0-1.3,0.2-1.7,0.6c-0.4,0.4-0.7,1-0.8,1.7H1096.6z"/>
				<path class="st2" d="M1105.5,265.1c0.5-0.5,1-0.8,1.6-1.1c0.6-0.3,1.2-0.4,1.9-0.4c0.7,0,1.3,0.1,1.9,0.4
					c0.6,0.3,1.1,0.7,1.5,1.2c0.4,0.5,0.7,1.2,0.9,1.9c0.2,0.7,0.3,1.6,0.3,2.5c0,1-0.1,1.9-0.4,2.7c-0.3,0.8-0.6,1.5-1.1,2.1
					c-0.5,0.6-1,1-1.7,1.4c-0.6,0.3-1.4,0.5-2.1,0.5c-0.4,0-0.7,0-1-0.1c-0.3-0.1-0.6-0.2-0.8-0.3c-0.2-0.1-0.5-0.3-0.7-0.5
					s-0.4-0.4-0.6-0.6l-0.1,0.6c-0.1,0.3-0.2,0.4-0.3,0.5s-0.3,0.1-0.6,0.1h-2.5v-17.9h3.7V265.1z M1105.5,272.8
					c0.3,0.3,0.6,0.5,0.9,0.6c0.3,0.1,0.7,0.2,1,0.2c0.4,0,0.7-0.1,1-0.2c0.3-0.1,0.5-0.3,0.8-0.6c0.2-0.3,0.4-0.7,0.5-1.2
					c0.1-0.5,0.2-1.1,0.2-1.8c0-0.6,0-1.1-0.1-1.6c-0.1-0.4-0.2-0.8-0.4-1.1c-0.2-0.3-0.4-0.5-0.7-0.6c-0.3-0.1-0.6-0.2-0.9-0.2
					c-0.5,0-0.8,0.1-1.2,0.3s-0.7,0.5-1,0.9V272.8z"/>
				<path class="st2" d="M1065,287.2c-0.1,0.2-0.2,0.3-0.3,0.3c-0.1,0.1-0.2,0.1-0.4,0.1c-0.2,0-0.4,0-0.5-0.1
					c-0.2-0.1-0.4-0.2-0.6-0.2s-0.4-0.2-0.7-0.2c-0.3-0.1-0.5-0.1-0.9-0.1c-0.5,0-0.8,0.1-1.1,0.3s-0.4,0.4-0.4,0.7
					c0,0.2,0.1,0.4,0.2,0.6s0.4,0.3,0.7,0.4c0.3,0.1,0.6,0.2,0.9,0.3s0.7,0.2,1.1,0.3c0.4,0.1,0.7,0.3,1.1,0.4
					c0.3,0.2,0.6,0.4,0.9,0.6c0.3,0.3,0.5,0.6,0.7,0.9c0.2,0.4,0.2,0.8,0.2,1.3c0,0.6-0.1,1.2-0.3,1.7c-0.2,0.5-0.6,1-1,1.3
					c-0.4,0.4-1,0.7-1.6,0.9c-0.7,0.2-1.4,0.3-2.2,0.3c-0.4,0-0.8,0-1.3-0.1c-0.4-0.1-0.8-0.2-1.2-0.3s-0.8-0.3-1.1-0.5
					c-0.3-0.2-0.6-0.4-0.9-0.6l0.9-1.4c0.1-0.2,0.2-0.3,0.4-0.4s0.3-0.1,0.6-0.1c0.2,0,0.4,0,0.6,0.1c0.2,0.1,0.4,0.2,0.6,0.3
					c0.2,0.1,0.4,0.2,0.7,0.3c0.3,0.1,0.6,0.1,1,0.1c0.3,0,0.5,0,0.7-0.1c0.2-0.1,0.4-0.1,0.5-0.2c0.1-0.1,0.2-0.2,0.3-0.3
					c0.1-0.1,0.1-0.3,0.1-0.4c0-0.2-0.1-0.5-0.3-0.6c-0.2-0.2-0.4-0.3-0.7-0.4c-0.3-0.1-0.6-0.2-0.9-0.3s-0.7-0.2-1.1-0.3
					c-0.4-0.1-0.7-0.3-1.1-0.5c-0.3-0.2-0.7-0.4-0.9-0.7c-0.3-0.3-0.5-0.6-0.7-1c-0.2-0.4-0.3-0.9-0.3-1.4c0-0.5,0.1-1,0.3-1.5
					c0.2-0.5,0.5-0.9,0.9-1.3c0.4-0.4,0.9-0.6,1.5-0.9c0.6-0.2,1.3-0.3,2.2-0.3c0.4,0,0.9,0,1.3,0.1c0.4,0.1,0.8,0.2,1.2,0.3
					c0.4,0.1,0.7,0.3,1,0.5c0.3,0.2,0.6,0.4,0.8,0.6L1065,287.2z"/>
				<path class="st2" d="M1073.4,284.3c0.9,0,1.8,0.1,2.6,0.4s1.4,0.7,2,1.3c0.6,0.6,1,1.2,1.3,2s0.5,1.7,0.5,2.6
					c0,1-0.2,1.9-0.5,2.7s-0.7,1.5-1.3,2c-0.6,0.6-1.2,1-2,1.3c-0.8,0.3-1.6,0.4-2.6,0.4c-0.9,0-1.8-0.1-2.6-0.4
					c-0.8-0.3-1.4-0.7-2-1.3c-0.6-0.6-1-1.2-1.3-2s-0.5-1.7-0.5-2.7c0-1,0.2-1.9,0.5-2.6s0.7-1.5,1.3-2c0.6-0.5,1.2-1,2-1.3
					C1071.6,284.4,1072.5,284.3,1073.4,284.3z M1073.4,294.3c0.9,0,1.5-0.3,1.9-0.9s0.6-1.5,0.6-2.7s-0.2-2.1-0.6-2.7
					s-1-0.9-1.9-0.9c-0.9,0-1.5,0.3-1.9,0.9s-0.6,1.5-0.6,2.7s0.2,2.1,0.6,2.7S1072.6,294.3,1073.4,294.3z"/>
				<path class="st2" d="M1090.7,287.4c-0.1,0.1-0.2,0.2-0.3,0.3s-0.3,0.1-0.4,0.1c-0.2,0-0.3,0-0.5-0.1s-0.3-0.2-0.5-0.3
					s-0.4-0.2-0.6-0.3s-0.6-0.1-0.9-0.1c-0.5,0-0.8,0.1-1.2,0.3c-0.3,0.2-0.6,0.4-0.8,0.7c-0.2,0.3-0.4,0.7-0.5,1.1s-0.2,1-0.2,1.5
					c0,1.2,0.2,2.1,0.7,2.7c0.5,0.6,1.1,1,1.9,1c0.4,0,0.8-0.1,1-0.2c0.3-0.1,0.5-0.2,0.6-0.4c0.2-0.1,0.3-0.3,0.5-0.4
					s0.3-0.2,0.6-0.2c0.3,0,0.5,0.1,0.7,0.3l1.1,1.3c-0.4,0.4-0.8,0.8-1.2,1.1s-0.9,0.5-1.3,0.6s-0.9,0.3-1.3,0.3
					c-0.4,0.1-0.9,0.1-1.3,0.1c-0.8,0-1.5-0.1-2.2-0.4s-1.3-0.7-1.8-1.3c-0.5-0.5-0.9-1.2-1.2-2s-0.5-1.7-0.5-2.7
					c0-0.9,0.1-1.7,0.4-2.5c0.3-0.8,0.7-1.5,1.2-2c0.5-0.6,1.2-1,1.9-1.3c0.8-0.3,1.7-0.5,2.7-0.5c1,0,1.8,0.2,2.6,0.5
					s1.4,0.8,2,1.4L1090.7,287.4z"/>
				<path class="st2" d="M1097,279v10h0.6c0.2,0,0.4,0,0.5-0.1c0.1-0.1,0.2-0.2,0.4-0.3l2.3-3.5c0.1-0.2,0.3-0.3,0.5-0.4
					c0.2-0.1,0.4-0.1,0.7-0.1h3.4l-3.2,4.4c-0.3,0.4-0.7,0.7-1.1,1c0.2,0.1,0.4,0.3,0.5,0.5s0.3,0.4,0.4,0.6l3.5,5.9h-3.3
					c-0.3,0-0.5,0-0.7-0.1s-0.4-0.3-0.5-0.5l-2.3-4.4c-0.1-0.2-0.2-0.3-0.3-0.4c-0.1-0.1-0.3-0.1-0.5-0.1h-0.7v5.5h-3.7V279H1097z"
					/>
				<path class="st2" d="M1109.1,291.3c0.1,1,0.4,1.8,0.9,2.3c0.5,0.5,1.2,0.7,2,0.7c0.4,0,0.8-0.1,1.1-0.2c0.3-0.1,0.6-0.2,0.8-0.3
					c0.2-0.1,0.5-0.2,0.7-0.3s0.4-0.2,0.6-0.2c0.3,0,0.5,0.1,0.7,0.3l1.1,1.3c-0.4,0.4-0.8,0.8-1.2,1.1c-0.4,0.3-0.9,0.5-1.4,0.6
					c-0.5,0.2-0.9,0.3-1.4,0.3c-0.5,0.1-0.9,0.1-1.3,0.1c-0.9,0-1.7-0.1-2.4-0.4c-0.8-0.3-1.4-0.7-2-1.3c-0.6-0.6-1-1.3-1.4-2.1
					c-0.3-0.8-0.5-1.8-0.5-2.9c0-0.8,0.1-1.6,0.4-2.4c0.3-0.7,0.7-1.4,1.2-1.9c0.5-0.6,1.2-1,1.9-1.3c0.8-0.3,1.6-0.5,2.6-0.5
					c0.8,0,1.6,0.1,2.3,0.4c0.7,0.3,1.3,0.6,1.8,1.1s0.9,1.1,1.1,1.8c0.3,0.7,0.4,1.5,0.4,2.4c0,0.3,0,0.5,0,0.7
					c0,0.2-0.1,0.3-0.1,0.4c-0.1,0.1-0.1,0.2-0.3,0.2c-0.1,0-0.2,0.1-0.4,0.1H1109.1z M1113.8,289.2c0-0.3,0-0.6-0.1-0.9
					c-0.1-0.3-0.2-0.5-0.4-0.7c-0.2-0.2-0.4-0.4-0.7-0.5c-0.3-0.1-0.6-0.2-1-0.2c-0.7,0-1.3,0.2-1.7,0.6s-0.7,1-0.8,1.7H1113.8z"/>
				<path class="st2" d="M1123.2,297.1c-0.6,0-1.1-0.1-1.6-0.3c-0.5-0.2-0.8-0.4-1.1-0.7c-0.3-0.3-0.5-0.7-0.7-1.1s-0.2-0.9-0.2-1.5
					V287h-1.1c-0.2,0-0.4-0.1-0.5-0.2c-0.1-0.1-0.2-0.3-0.2-0.5v-1.4l2-0.4l0.7-3c0.1-0.4,0.4-0.6,0.8-0.6h1.9v3.6h3.1v2.5h-3.1v6.2
					c0,0.3,0.1,0.5,0.2,0.7s0.3,0.3,0.6,0.3c0.1,0,0.2,0,0.3,0s0.2-0.1,0.2-0.1c0.1,0,0.1-0.1,0.2-0.1s0.1,0,0.2,0
					c0.1,0,0.2,0,0.3,0.1s0.1,0.1,0.2,0.2l1.1,1.8c-0.5,0.4-1,0.6-1.6,0.8S1123.9,297.1,1123.2,297.1z"/>
			</g>
		</g>
	</g>
</g>
</svg>
