<?xml version="1.0" encoding="utf-8"?>
<!-- Generator: Adobe Illustrator 23.0.3, SVG Export Plug-In . SVG Version: 6.00 Build 0)  -->
<svg version="1.1" id="Calque_1" xmlns="http://www.w3.org/2000/svg" xmlns:xlink="http://www.w3.org/1999/xlink" x="0px" y="0px"
	 viewBox="0 0 1337.4 988.9" style="enable-background:new 0 0 1337.4 988.9;" xml:space="preserve">
<style type="text/css">
	.st0{fill:#F2C49B;}
	.st1{fill:#BF9164;}
	.st2{fill:#FFFFFF;}
	.st3{fill:#7F6143;}
	.st4{stroke:#000000;stroke-width:5;stroke-miterlimit:10;}
	.st5{fill:#FFFFFF;stroke:#596069;stroke-width:5;stroke-miterlimit:10;}
	.st6{fill:none;stroke:#596069;stroke-width:5;stroke-linecap:round;stroke-miterlimit:10;}
	.st7{fill:#BF9164;stroke:#7F6143;stroke-width:5;stroke-miterlimit:10;}
	.st8{fill-rule:evenodd;clip-rule:evenodd;}
	.st9{fill:none;stroke:#000000;stroke-width:5;stroke-miterlimit:10;}
	.st10{stroke:#000000;stroke-width:2;stroke-miterlimit:10;}
	.st11{fill:#F2C49B;stroke:#402E1F;stroke-width:5;stroke-miterlimit:10;}
	.st12{fill:#402E1F;}
	.st13{opacity:0.56;fill:#D98977;stroke:#402E1F;stroke-width:5;stroke-miterlimit:10;}
	.st14{opacity:0.56;}
	.st15{fill:none;}
	.st16{fill:#D98977;}
	.st17{fill-rule:evenodd;clip-rule:evenodd;fill:#F2C49B;}
	.st18{fill-rule:evenodd;clip-rule:evenodd;fill:#D98977;}
	.st19{font-family:'Lato-Black';}
	.st20{font-size:22.6114px;}
	.st21{font-size:15.8499px;}
</style>
<path class="st0" d="M269.6,471.1c0-1.1-0.5-2.2-1.3-2.9L247,450v-31.1c0-6-4.9-10.9-10.9-10.9h-37.8c0,0-0.1-0.1-0.1-0.1L165,379.6
	c-1.4-1.2-3.5-1.2-4.9,0L127,408H87.8c-6,0-10.9,4.9-10.9,10.9v32l-20.2,17.3c-0.8,0.7-1.3,1.8-1.3,2.9c0,0,0,0.1,0,0.1v133.1
	c0,5.5,4.4,9.9,9.9,9.9h194.3c5.5,0,9.9-4.4,9.9-9.9L269.6,471.1L269.6,471.1z"/>
<path class="st1" d="M363.7-796.6L342.1-830l-4.8-3.5h-43.7H179.1h-43.7l-4.9,3.5l-21.6,33.4l-2.1,5.6v178c0,9.5,7.7,17.2,17.2,17.2
	h224.6c9.5,0,17.2-7.7,17.2-17.2v-178L363.7-796.6z"/>
<path class="st1" d="M-136.8-830c-0.1-0.2-0.3-0.3-0.4-0.5l-37.6-32.8c-1.1-0.9-2.7-1-3.7,0l-35.6,29.8h-43.7h-114.4h-43.7
	l-35.6-29.8c-1.1-0.9-2.7-0.9-3.7,0l-37.5,32.8c-1.2,1-1.3,2.9-0.3,4.1c0.1,0.2,0.3,0.3,0.5,0.4l48.1,34.9v178
	c0,9.5,7.7,17.2,17.2,17.2h224.6c9.5,0,17.2-7.7,17.2-17.2v-178l48.1-34.9C-136.2-826.9-135.9-828.7-136.8-830z"/>
<g>
	<path class="st1" d="M-188.5-931.1l-17.3-29.7c-0.3-0.5-0.7-0.7-1.2-0.9c2.3-2.8,1.3-9.5,1.5-12.9h2.7c3.6,0,6.6-3,6.6-6.6v-18.6
		c0-3.6-3-6.6-6.6-6.6h-2.7v-5.9c0-4.9-4-8.9-8.9-8.9h-31v-31.3h3.1c1.1,0,2.1-0.9,2.1-2.1v-12.2c0-1.1-0.9-2.1-2.1-2.1h-36.2
		c-1.1,0-2.1,0.9-2.1,2.1v12.2c0,1.1,0.9,2.1,2.1,2.1h3.1v31.3h-76.9v-54.9h6.7c1.1,0,2.1-0.9,2.1-2.1v-11.2c0-1.1-0.9-2.1-2.1-2.1
		h-94.6l0,0c-1.1,0-2.1,0.9-2.1,2.1v11.2c0,1.1,0.9,2.1,2.1,2.1h6.7v138.7c0,5.2,4.3,9.5,9.5,9.5h15c13.2,17.2,40.8,17.2,53.9,0
		h75.9c10.1,17.2,36,17.2,46.1,0h42.8c0.7,0,1.4-0.4,1.8-1.1C-188.1-929.7-188.1-930.5-188.5-931.1z"/>
	<path class="st2" d="M-419.7-1066.8h53.5v38.6h-53.5V-1066.8z"/>
</g>
<path class="st3" d="M-372.4-833.5h-43.7l-35.5-29.8c-1.1-0.9-2.7-0.9-3.7,0l-37.5,32.8c-1.2,1-1.3,2.9-0.3,4.1
	c0.1,0.2,0.3,0.3,0.5,0.4l48.1,34.9v178c0,9.5,7.7,17.2,17.2,17.2h224.6c9.5,0,17.2-7.7,17.2-17.2v-178l48.1-34.9
	c1.3-0.9,1.6-2.7,0.6-4c-0.1-0.2-0.3-0.3-0.4-0.5l-37.7-32.8c-1.1-0.9-2.7-1-3.7,0l-35.6,29.8h-43.7H-372.4z M-258-827.7h43.2
	l20.9,32.4h-242.6l20.9-32.4h43.2H-258z M-453.5-857.3L-421-830l-21.6,33.4l-43.9-31.9L-453.5-857.3z M-260.8-789.6h69.3V-613
	c0,6.3-5.1,11.4-11.4,11.4h-224.6c-6.3,0-11.4-5.1-11.4-11.4v-176.6h69.3h5.8h97.3H-260.8z M-187.8-796.6l-21.6-33.4l32.5-27.3
	l33,28.8L-187.8-796.6z"/>
<path class="st3" d="M-372.4-833.5h-43.7l-35.5-29.8c-1.1-0.9-2.7-0.9-3.7,0l-37.5,32.8c-1.2,1-1.3,2.9-0.3,4.1
	c0.1,0.2,0.3,0.3,0.5,0.4l48.1,34.9v178c0,9.5,7.7,17.2,17.2,17.2h224.6c9.5,0,17.2-7.7,17.2-17.2v-178l48.1-34.9
	c1.3-0.9,1.6-2.7,0.6-4c-0.1-0.2-0.3-0.3-0.4-0.5l-37.7-32.8c-1.1-0.9-2.7-1-3.7,0l-35.6,29.8h-43.7H-372.4z M-258-827.7h43.2
	l20.9,32.4h-242.6l20.9-32.4h43.2H-258z M-453.5-857.3L-421-830l-21.6,33.4l-43.9-31.9L-453.5-857.3z M-260.8-789.6h69.3V-613
	c0,6.3-5.1,11.4-11.4,11.4h-224.6c-6.3,0-11.4-5.1-11.4-11.4v-176.6h69.3h5.8h97.3H-260.8z M-187.8-796.6l-21.6-33.4l32.5-27.3
	l33,28.8L-187.8-796.6z"/>
<g>
	<path class="st3" d="M-423.8-1069.3v42.8c0,1.1,0.9,2.1,2.1,2.1h57.7c1.1,0,2.1-0.9,2.1-2.1v-42.8c0-1.1-0.9-2.1-2.1-2.1h-57.7
		C-422.9-1071.4-423.8-1070.5-423.8-1069.3z M-419.6-1067.2h53.5v38.6h-53.5V-1067.2z"/>
	<path class="st3" d="M-440.1-1091.9c-1.1,0-2.1,0.9-2.1,2.1v11.2c0,1.1,0.9,2.1,2.1,2.1h6.7v138.7c0,5.2,4.3,9.5,9.5,9.5h15
		c13.2,17.2,40.8,17.2,53.9,0h75.9c10.1,17.2,36,17.2,46.1,0h42.8c0.7,0,1.4-0.4,1.8-1.1c0.4-0.6,0.4-1.4,0-2.1l-17.3-29.7
		c-0.3-0.5-0.7-0.7-1.2-0.9c2.3-2.8,1.3-9.5,1.5-12.9h2.7c3.6,0,6.6-3,6.6-6.6v-18.6c0-3.6-3-6.6-6.6-6.6h-2.7v-5.9
		c0-4.9-4-8.9-8.9-8.9h-31v-31.3h3.1c1.1,0,2.1-0.9,2.1-2.1v-12.2c0-1.1-0.9-2.1-2.1-2.1h-36.2c-1.1,0-2.1,0.9-2.1,2.1v12.2
		c0,1.1,0.9,2.1,2.1,2.1h3.1v31.3h-76.9v-54.9h6.7c1.1,0,2.1-0.9,2.1-2.1v-11.2c0-1.1-0.9-2.1-2.1-2.1H-440.1L-440.1-1091.9z
		 M-382-984.4c-14.7,0-27.2,9.3-32.2,22.2h-15.1v-114.3h72.9V-973C-362.8-980-371.9-984.4-382-984.4L-382-984.4z M-244.4-1057.1h-32
		v-8h32V-1057.1z M-249.5-1021.7h-21.7v-31.3h21.7V-1021.7z M-214.4-1017.5c2.6,0,4.8,2.1,4.8,4.8v8c0,0.1,0,27.6,0,27.7v10
		c0,2.6-2.1,4.8-4.8,4.8H-238c-9.4-9.2-26.7-9.2-36.1,0h-75.6c-0.7-1.8-1.6-3.5-2.5-5.2v-50.1h78.9c0.1,0,25.9,0,26,0H-214.4
		L-214.4-1017.5z M-205.5-979.2v-23.5h2.7c1.3,0,2.4,1.1,2.4,2.4v18.6c0,1.3-1.1,2.4-2.4,2.4L-205.5-979.2z M-231-932.5
		c3.4-8.2,1.9-18.7-3.3-25.5h25.5l14.9,25.5H-231z M-256.1-919.5c-12.6,0-22.8-10.2-22.8-22.8c1.2-30.2,44.3-30.2,45.6,0
		C-233.3-929.7-243.5-919.5-256.1-919.5L-256.1-919.5z M-352.1-932.5c4.3-7.3,5.9-17.1,3.7-25.5h70.6c-5.2,6.9-6.7,17.4-3.3,25.5
		H-352.1z M-382-919.5c-16.7,0-30.4-13.6-30.4-30.4c1.7-40.3,59.1-40.3,60.8,0C-351.6-933.1-365.2-919.5-382-919.5L-382-919.5z
		 M-429.3-958.1h13.8c-2.3,8.5-0.7,18.3,3.7,25.5H-424c-2.9,0-5.4-2.4-5.4-5.4L-429.3-958.1z M-438.1-1087.7h90.4v7h-90.4V-1087.7z"
		/>
	<path class="st3" d="M-256.1-931.8c13.8-0.4,13.8-20.4,0-20.9C-269.9-952.3-269.9-932.3-256.1-931.8z M-256.1-948.5
		c8.2,0.2,8.3,12.3,0,12.5C-264.3-936.2-264.3-948.3-256.1-948.5z"/>
	<path class="st3" d="M-396.6-949.9c0.7,19.3,28.6,19.3,29.3,0c0-8.1-6.6-14.6-14.6-14.6C-390-964.5-396.6-958-396.6-949.9z
		 M-382-960.3c13.8,0.4,13.8,20.5,0,20.9C-395.8-939.9-395.8-959.9-382-960.3z"/>
	<path class="st3" d="M-227.1-982c1.1,0,2.1-0.9,2.1-2.1v-18.7c0-1.1-0.9-2.1-2.1-2.1h-53.2c-1.1,0-2.1,0.9-2.1,2.1v18.6
		c0,1.1,0.9,2.1,2.1,2.1L-227.1-982L-227.1-982z M-278.2-986.2v-5.2h49v5.2H-278.2z M-229.2-1000.7v5.2h-49v-5.2H-229.2z"/>
	<path class="st3" d="M-326.6-947.4c-2.7,0-2.7,4.1,0,4.2h22.7c2.7,0,2.7-4.2,0-4.2h-11.7H-326.6L-326.6-947.4z"/>
	<path class="st3" d="M-423.8-1014.1v12.9c0,1.1,0.9,2.1,2.1,2.1h9.1c1.1,0,2.1-0.9,2.1-2.1v-12.9c0-1.1-0.9-2.1-2.1-2.1h-9.1
		C-422.9-1016.2-423.8-1015.2-423.8-1014.1z M-419.6-1012h4.9v8.7h-4.9V-1012z"/>
</g>
<path class="st3" d="M363.7-796.6L342.1-830l-4.8-3.5h-43.7H179.1h-43.7l-4.9,3.5l-21.6,33.4l-2.1,5.6v178c0,9.5,7.7,17.2,17.2,17.2
	h224.6c9.5,0,17.2-7.7,17.2-17.2v-178L363.7-796.6z M135.9-827.7h43.2h114.4h43.2l20.9,32.4H115L135.9-827.7z M348.6-601.6H124
	c-6.3,0-11.4-5.1-11.4-11.4v-176.6h69.3h5.8H285h5.7H360V-613C360-606.7,354.9-601.6,348.6-601.6z"/>
<g>
	<polygon class="st3" points="233.4,-828.1 233.3,-793.1 239.5,-793.1 239.2,-828.1 	"/>
</g>
<path class="st4" d="M796.6-1540.2l-3.9-14.4l-1.3-1.8l-15.6-4.9l-40.8-12.9l-15.6-4.9l-2.1,0.7l-11.5,9.5l-1.4,1.7l-20.1,63.5
	c-1.1,3.4,0.8,7,4.2,8.1l80.2,25.3c3.4,1.1,7-0.8,8.1-4.2l20.1-63.5L796.6-1540.2z M718.9-1577l15.4,4.9l40.8,12.9l15.4,4.9
	l3.8,13.9l-86.6-27.4L718.9-1577z M769.3-1472.3l-80.2-25.3c-2.2-0.7-3.5-3.1-2.8-5.4l19.9-63l24.7,7.8l2.1,0.7l34.7,11l2,0.6
	l24.7,7.8l-19.9,63C773.9-1472.8,771.5-1471.5,769.3-1472.3z"/>
<g>
	<polygon class="st4" points="753.7,-1566.1 749.7,-1553.6 751.9,-1552.9 755.8,-1565.4 	"/>
</g>
<path class="st5" d="M216.5-690.5h-84.8c-3.2,0-5.9-2.6-5.9-5.9v-48.8c0-3.2,2.6-5.9,5.9-5.9h84.8c3.2,0,5.9,2.6,5.9,5.9v48.8
	C222.3-693.1,219.7-690.5,216.5-690.5z"/>
<line class="st6" x1="138.3" y1="-735.9" x2="181.7" y2="-735.9"/>
<line class="st6" x1="138.3" y1="-725.7" x2="195.5" y2="-725.7"/>
<line class="st6" x1="138.3" y1="-715.5" x2="187.4" y2="-715.5"/>
<line class="st6" x1="138.3" y1="-705.3" x2="181.7" y2="-705.3"/>
<path class="st7" d="M36.3-686.1c0.1-0.2,0.3-0.3,0.4-0.5c0.2-0.2,0.3-0.4,0.5-0.7c0.1-0.2,0.3-0.4,0.4-0.7c0.1-0.2,0.2-0.4,0.4-0.6
	c0.1-0.2,0.2-0.5,0.3-0.7c0.1-0.2,0.2-0.4,0.3-0.6c0.1-0.2,0.2-0.5,0.3-0.7c0.1-0.2,0.2-0.5,0.2-0.7c0.1-0.2,0.1-0.5,0.2-0.7
	s0.1-0.5,0.2-0.7c0.1-0.3,0.1-0.5,0.1-0.8c0-0.2,0.1-0.4,0.1-0.6c0.1-1,0.1-2,0-3c0-0.2-0.1-0.4-0.1-0.6c0-0.3-0.1-0.5-0.1-0.8
	c0-0.2-0.1-0.5-0.2-0.7s-0.1-0.5-0.2-0.7s-0.2-0.5-0.2-0.7c-0.1-0.2-0.2-0.5-0.3-0.7c-0.1-0.2-0.2-0.4-0.3-0.6
	c-0.1-0.2-0.2-0.5-0.3-0.7c-0.1-0.2-0.2-0.4-0.4-0.6c-0.1-0.2-0.3-0.4-0.4-0.7c-0.2-0.2-0.3-0.4-0.5-0.7c-0.1-0.2-0.3-0.4-0.4-0.5
	c-0.3-0.4-0.6-0.8-1-1.1l-39-39c-5.9-5.9-15.4-5.9-21.2,0c-5.9,5.9-5.9,15.4,0,21.2l13.4,13.4h-105.6c-8.3,0-15,6.7-15,15
	s6.7,15,15,15h105.6l-13.4,13.4c-5.9,5.9-5.9,15.4,0,21.2c2.9,2.9,6.8,4.4,10.6,4.4s7.7-1.5,10.6-4.4l39-39
	C35.7-685.3,36-685.7,36.3-686.1z"/>
<path class="st7" d="M561.8-686.1c0.1-0.2,0.3-0.3,0.4-0.5c0.2-0.2,0.3-0.4,0.5-0.7c0.1-0.2,0.3-0.4,0.4-0.7
	c0.1-0.2,0.2-0.4,0.4-0.6c0.1-0.2,0.2-0.5,0.3-0.7c0.1-0.2,0.2-0.4,0.3-0.6c0.1-0.2,0.2-0.5,0.3-0.7c0.1-0.2,0.2-0.5,0.2-0.7
	c0.1-0.2,0.1-0.5,0.2-0.7s0.1-0.5,0.2-0.7c0.1-0.3,0.1-0.5,0.1-0.8c0-0.2,0.1-0.4,0.1-0.6c0.1-1,0.1-2,0-3c0-0.2-0.1-0.4-0.1-0.6
	c0-0.3-0.1-0.5-0.1-0.8c0-0.2-0.1-0.5-0.2-0.7s-0.1-0.5-0.2-0.7s-0.2-0.5-0.2-0.7c-0.1-0.2-0.2-0.5-0.3-0.7
	c-0.1-0.2-0.2-0.4-0.3-0.6c-0.1-0.2-0.2-0.5-0.3-0.7c-0.1-0.2-0.2-0.4-0.4-0.6c-0.1-0.2-0.3-0.4-0.4-0.7c-0.2-0.2-0.3-0.4-0.5-0.7
	c-0.1-0.2-0.3-0.4-0.4-0.5c-0.3-0.4-0.6-0.8-1-1.1l-39-39c-5.9-5.9-15.4-5.9-21.2,0c-5.9,5.9-5.9,15.4,0,21.2l13.4,13.4H408.4
	c-8.3,0-15,6.7-15,15s6.7,15,15,15H514l-13.4,13.4c-5.9,5.9-5.9,15.4,0,21.2c2.9,2.9,6.8,4.4,10.6,4.4s7.7-1.5,10.6-4.4l39-39
	C561.1-685.3,561.4-685.7,561.8-686.1z"/>
<path class="st7" d="M434.2-1313.7c0,0.2,0.1,0.4,0.1,0.6c0,0.3,0.1,0.5,0.1,0.8s0.1,0.5,0.2,0.7c0.1,0.2,0.1,0.5,0.2,0.7
	c0.1,0.2,0.2,0.5,0.3,0.7s0.2,0.4,0.2,0.7c0.1,0.2,0.2,0.4,0.3,0.7c0.1,0.2,0.2,0.5,0.3,0.7s0.2,0.4,0.4,0.6
	c0.1,0.2,0.2,0.4,0.4,0.6s0.3,0.4,0.5,0.7c0.1,0.2,0.2,0.3,0.4,0.5c0.6,0.8,1.3,1.5,2.1,2.1c0.2,0.1,0.3,0.3,0.5,0.4
	c0.2,0.2,0.4,0.3,0.7,0.5c0.2,0.1,0.4,0.3,0.6,0.4c0.2,0.1,0.4,0.3,0.6,0.4c0.2,0.1,0.4,0.2,0.7,0.3c0.2,0.1,0.4,0.2,0.7,0.3
	c0.2,0.1,0.4,0.2,0.7,0.2c0.2,0.1,0.5,0.2,0.7,0.3c0.2,0.1,0.5,0.1,0.7,0.2s0.5,0.1,0.7,0.2c0.3,0.1,0.5,0.1,0.8,0.1
	c0.2,0,0.4,0.1,0.6,0.1c0.5,0,1,0.1,1.5,0.1h55.1c8.3,0,15-6.7,15-15s-6.7-15-15-15h-18.9l74.6-74.6c5.9-5.9,5.9-15.4,0-21.2
	c-5.9-5.9-15.4-5.9-21.2,0l-74.6,74.6v-18.9c0-8.3-6.7-15-15-15c-4.1,0-7.9,1.7-10.6,4.4c-2.7,2.7-4.4,6.5-4.4,10.6v55.1
	C434.1-1314.7,434.2-1314.2,434.2-1313.7z"/>
<path class="st7" d="M-324.7-813.3c0.2,0.1,0.3,0.3,0.5,0.4c0.2,0.2,0.4,0.3,0.7,0.5c0.2,0.1,0.4,0.3,0.7,0.4
	c0.2,0.1,0.4,0.2,0.6,0.4c0.2,0.1,0.5,0.2,0.7,0.3c0.2,0.1,0.4,0.2,0.6,0.3c0.2,0.1,0.5,0.2,0.7,0.3c0.2,0.1,0.5,0.2,0.7,0.2
	c0.2,0.1,0.5,0.1,0.7,0.2c0.2,0.1,0.5,0.1,0.7,0.2c0.3,0.1,0.5,0.1,0.8,0.1c0.2,0,0.4,0.1,0.6,0.1c1,0.1,2,0.1,3,0
	c0.2,0,0.4-0.1,0.6-0.1c0.3,0,0.5-0.1,0.8-0.1c0.2,0,0.5-0.1,0.7-0.2c0.2-0.1,0.5-0.1,0.7-0.2c0.2-0.1,0.5-0.2,0.7-0.2
	c0.2-0.1,0.5-0.2,0.7-0.3c0.2-0.1,0.4-0.2,0.6-0.3c0.2-0.1,0.5-0.2,0.7-0.3c0.2-0.1,0.4-0.2,0.6-0.4c0.2-0.1,0.4-0.3,0.7-0.4
	c0.2-0.2,0.4-0.3,0.7-0.5c0.2-0.1,0.4-0.3,0.5-0.4c0.4-0.3,0.8-0.6,1.1-1l39-39c5.9-5.9,5.9-15.4,0-21.2c-5.9-5.9-15.4-5.9-21.2,0
	l-13.4,13.4V-903c0-8.3-6.7-15-15-15c-8.3,0-15,6.7-15,15v41.9l-13.4-13.4c-5.9-5.9-15.4-5.9-21.2,0c-2.9,2.9-4.4,6.8-4.4,10.6
	s1.5,7.7,4.4,10.6l39,39C-325.4-814-325.1-813.6-324.7-813.3z"/>
<path d="M145.1-1237.8h-43.7l-35.6-29.8c-1.1-0.9-2.7-0.9-3.7,0l-37.5,32.8c-1.2,1-1.3,2.9-0.3,4.1c0.1,0.2,0.3,0.3,0.5,0.4
	l48.1,34.9v178c0,9.5,7.7,17.2,17.2,17.2h224.6c9.5,0,17.2-7.7,17.2-17.2v-178l48.1-34.9c1.3-0.9,1.6-2.7,0.6-4
	c-0.1-0.2-0.3-0.3-0.4-0.5l-37.5-32.8c-1.1-0.9-2.7-1-3.7,0l-35.6,29.8h-43.7H145.1z M259.5-1232.1h43.2l20.9,32.4H81l20.9-32.4
	h43.2H259.5z M64-1261.7l32.5,27.3L74.9-1201L31-1232.9L64-1261.7z M256.7-1193.9H326v176.6c0,6.3-5.1,11.4-11.4,11.4H90
	c-6.3,0-11.4-5.1-11.4-11.4v-176.6h69.3h5.8H251H256.7z M329.7-1201l-21.6-33.4l32.5-27.3l33,28.8L329.7-1201z"/>
<g>
	<path d="M308.9-1475.7h-57.7c-1.1,0-2.1,0.9-2.1,2.1v42.8c0,1.1,0.9,2.1,2.1,2.1h57.7c1.1,0,2.1-0.9,2.1-2.1v-42.8
		C311-1474.8,310-1475.7,308.9-1475.7z M306.8-1432.9h-53.5v-38.6h53.5V-1432.9z"/>
	<path d="M327.3-1496.2h-94.5c-1.1,0-2.1,0.9-2.1,2.1v11.2c0,1.1,0.9,2.1,2.1,2.1h6.7v54.9h-76.9v-31.3h3.1c1.1,0,2.1-0.9,2.1-2.1
		v-12.2c0-1.1-0.9-2.1-2.1-2.1h-36.2c-1.1,0-2.1,0.9-2.1,2.1v12.2c0,1.1,0.9,2.1,2.1,2.1h3.1v31.3h-31c-4.9,0-8.9,4-8.9,8.9v5.9H90
		c-3.6,0-6.6,3-6.6,6.6v18.6c0,3.6,3,6.6,6.6,6.6h2.7c0.2,3.4-0.8,10.1,1.5,12.9c-0.5,0.1-0.9,0.4-1.2,0.9l-17.3,29.7
		c-0.4,0.6-0.4,1.4,0,2.1c0.4,0.6,1.1,1.1,1.8,1.1h42.8c10.1,17.2,36,17.2,46.1,0h75.9c13.2,17.2,40.8,17.2,53.9,0h15
		c5.2,0,9.5-4.3,9.5-9.5v-138.7h6.7c1.1,0,2.1-0.9,2.1-2.1v-11.2C329.4-1495.3,328.4-1496.2,327.3-1496.2L327.3-1496.2z
		 M269.1-1388.8c-10.1,0-19.2,4.4-25.5,11.4v-103.5h72.9v114.3h-15.1C296.4-1379.5,283.8-1388.8,269.1-1388.8L269.1-1388.8z
		 M131.6-1469.5h32v8h-32V-1469.5z M136.7-1457.3h21.7v31.3h-21.7V-1457.3z M101.6-1421.9h33c0.1,0,25.9,0,26,0h78.9v50.1
		c-1,1.7-1.8,3.4-2.5,5.2h-75.6c-9.4-9.2-26.7-9.2-36.1,0h-23.6c-2.6,0-4.8-2.1-4.8-4.8v-10c0-0.1,0-27.6,0-27.7v-8
		C96.8-1419.7,98.9-1421.9,101.6-1421.9L101.6-1421.9z M89.9-1383.5c-1.4,0-2.4-1.1-2.4-2.4v-18.6c0-1.4,1.1-2.4,2.4-2.4h2.7v23.5
		L89.9-1383.5z M81-1336.9l14.9-25.5h25.5c-5.2,6.9-6.7,17.4-3.3,25.5H81z M143.2-1323.8c-12.6,0-22.8-10.2-22.8-22.8
		c1.2-30.2,44.3-30.2,45.6,0C166-1334.1,155.8-1323.8,143.2-1323.8L143.2-1323.8z M168.3-1336.9c3.4-8.2,1.9-18.7-3.3-25.5h70.6
		c-2.2,8.5-0.7,18.3,3.7,25.5H168.3z M269.1-1323.8c-16.7,0-30.4-13.6-30.4-30.4c1.7-40.3,59.1-40.3,60.8,0
		C299.5-1337.5,285.9-1323.8,269.1-1323.8L269.1-1323.8z M316.5-1342.2c0,2.9-2.4,5.4-5.4,5.4H299c4.4-7.3,5.9-17.1,3.7-25.5h13.8
		V-1342.2z M325.2-1485h-90.4v-7h90.4V-1485z"/>
	<path d="M143.2-1357c-13.8,0.4-13.8,20.4,0,20.9C157-1336.6,157-1356.6,143.2-1357z M143.2-1340.4c-8.3-0.2-8.2-12.3,0-12.5
		C151.5-1352.7,151.5-1340.6,143.2-1340.4z"/>
	<path d="M269.1-1368.8c-8.1,0-14.6,6.6-14.6,14.6c0.7,19.3,28.6,19.3,29.3,0C283.8-1362.3,277.2-1368.8,269.1-1368.8z
		 M269.1-1343.7c-13.8-0.4-13.8-20.5,0-20.9C283-1364.2,283-1344.2,269.1-1343.7z"/>
	<path d="M114.3-1386.4h53.2c1.1,0,2.1-0.9,2.1-2.1v-18.6c0-1.1-0.9-2.1-2.1-2.1h-53.2c-1.1,0-2.1,0.9-2.1,2.1v18.7
		C112.2-1387.3,113.1-1386.4,114.3-1386.4L114.3-1386.4z M116.4-1390.5v-5.2h49v5.2H116.4z M165.4-1405v5.2h-49v-5.2H165.4z"/>
	<path d="M213.8-1351.7h-11h-11.7c-2.7,0-2.7,4.2,0,4.2h22.7C216.5-1347.6,216.5-1351.7,213.8-1351.7L213.8-1351.7z"/>
	<path d="M308.9-1420.5h-9.1c-1.1,0-2.1,0.9-2.1,2.1v12.9c0,1.1,0.9,2.1,2.1,2.1h9.1c1.1,0,2.1-0.9,2.1-2.1v-12.9
		C311-1419.6,310-1420.5,308.9-1420.5z M306.8-1407.6h-4.9v-8.7h4.9V-1407.6z"/>
</g>
<path class="st7" d="M211.8-1311c-0.2-0.1-0.3-0.3-0.5-0.4c-0.2-0.2-0.4-0.3-0.7-0.5c-0.2-0.1-0.4-0.3-0.7-0.4
	c-0.2-0.1-0.4-0.2-0.6-0.4c-0.2-0.1-0.5-0.2-0.7-0.3c-0.2-0.1-0.4-0.2-0.6-0.3c-0.2-0.1-0.5-0.2-0.7-0.3c-0.2-0.1-0.5-0.2-0.7-0.2
	c-0.2-0.1-0.5-0.1-0.7-0.2s-0.5-0.1-0.7-0.2c-0.3-0.1-0.5-0.1-0.8-0.1c-0.2,0-0.4-0.1-0.6-0.1c-1-0.1-2-0.1-3,0
	c-0.2,0-0.4,0.1-0.6,0.1c-0.3,0-0.5,0.1-0.8,0.1c-0.2,0-0.5,0.1-0.7,0.2s-0.5,0.1-0.7,0.2s-0.5,0.2-0.7,0.2
	c-0.2,0.1-0.5,0.2-0.7,0.3c-0.2,0.1-0.4,0.2-0.6,0.3c-0.2,0.1-0.5,0.2-0.7,0.3c-0.2,0.1-0.4,0.2-0.6,0.4c-0.2,0.1-0.4,0.3-0.7,0.4
	c-0.2,0.2-0.4,0.3-0.7,0.5c-0.2,0.1-0.4,0.3-0.5,0.4c-0.4,0.3-0.8,0.6-1.1,1l-39,39c-5.9,5.9-5.9,15.4,0,21.2
	c5.9,5.9,15.4,5.9,21.2,0l13.4-13.4v41.9c0,8.3,6.7,15,15,15s15-6.7,15-15v-41.9l13.4,13.4c5.9,5.9,15.4,5.9,21.2,0
	c2.9-2.9,4.4-6.8,4.4-10.6c0-3.8-1.5-7.7-4.4-10.6l-39-39C212.6-1310.4,212.2-1310.7,211.8-1311z"/>
<g>
	<path class="st8" d="M1018.5-638.1h-14.6c-2.6,0-4.8-2.2-4.8-4.8s2.2-4.8,4.8-4.8h9.8v-56.2c0-8.9-7.3-16.2-16.2-16.2h-75.3
		c-2.6,0-4.8-2.2-4.8-4.8s2.2-4.8,4.8-4.8h75.3c14.2,0,25.8,11.6,25.8,25.8v61.1C1023.3-640.2,1021.1-638.1,1018.5-638.1
		L1018.5-638.1z"/>
	<path class="st8" d="M997.5-720.1c-2,0-3.8-1.2-4.6-3.2l-15.2-43c-0.9-2.5,0.4-5.3,2.9-6.1c2.5-0.9,5.3,0.4,6.1,2.9l15.2,43
		c0.9,2.5-0.4,5.3-2.9,6.1C998.5-720.2,998-720.1,997.5-720.1L997.5-720.1z"/>
	<path class="st8" d="M991.7-763.1h-69.5c-2.6,0-4.8-2.2-4.8-4.8v-22.6c0-2.6,2.2-4.8,4.8-4.8h61.7c8.9,0,16.1,7.3,16.1,16.1v7.8
		C1000-766.8,996.3-763.1,991.7-763.1L991.7-763.1z M927-772.7h63.4v-6.5c0-3.6-2.9-6.5-6.5-6.5H927V-772.7L927-772.7L927-772.7z"/>
	<path class="st8" d="M922.2-638.1H797.4c-2.6,0-4.8-2.2-4.8-4.8s2.2-4.8,4.8-4.8h120v-142.8c0-10.5-8.6-19.1-19.1-19.1H722.2
		c-10.5,0-19.1,8.6-19.1,19.1v123.7c0,10.5,8.6,19.1,19.1,19.1h8.2c2.6,0,4.8,2.2,4.8,4.8s-2.2,4.8-4.8,4.8h-8.2
		c-15.8,0-28.7-12.9-28.7-28.7v-123.7c0-15.8,12.9-28.7,28.7-28.7h176.1c15.8,0,28.7,12.9,28.7,28.7v147.6
		C927-640.2,924.9-638.1,922.2-638.1L922.2-638.1z"/>
	<path class="st8" d="M898.1-662.2h-80.8c-2.6,0-4.8-2.2-4.8-4.8s2.2-4.8,4.8-4.8h76v-118.6c0-2.6,2.2-4.8,4.8-4.8
		c2.6,0,4.8,2.2,4.8,4.8V-667C902.9-664.3,900.8-662.2,898.1-662.2L898.1-662.2z"/>
	<path class="st8" d="M832.5-723.8h-44.4c-2.6,0-4.8-2.2-4.8-4.8v-85.8c0-2.6,2.2-4.8,4.8-4.8c2.6,0,4.8,2.2,4.8,4.8v81h34.8v-81
		c0-2.6,2.2-4.8,4.8-4.8c2.6,0,4.8,2.2,4.8,4.8v85.8C837.3-726,835.1-723.8,832.5-723.8z"/>
	<path class="st8" d="M763.9-606.7c-21.2,0-38.4-17.2-38.4-38.4s17.2-38.4,38.4-38.4s38.4,17.2,38.4,38.4
		C802.3-623.9,785.1-606.7,763.9-606.7z M763.9-673.9c-15.9,0-28.8,12.9-28.8,28.8c0,15.9,12.9,28.8,28.8,28.8s28.8-12.9,28.8-28.8
		C792.7-661,779.8-673.9,763.9-673.9z"/>
	<path class="st8" d="M763.9-626.1c-10.5,0-19-8.6-19-19c0-10.4,8.6-19,19-19c10.5,0,19,8.5,19,19S774.4-626.1,763.9-626.1z
		 M763.9-654.5c-5.2,0-9.4,4.2-9.4,9.4s4.2,9.4,9.4,9.4s9.4-4.2,9.4-9.4C773.3-650.3,769.1-654.5,763.9-654.5z"/>
	<path class="st8" d="M970.4-606.7c-21.2,0-38.4-17.2-38.4-38.4s17.2-38.4,38.4-38.4c21.2,0,38.4,17.2,38.4,38.4
		C1008.8-623.9,991.5-606.7,970.4-606.7z M970.4-673.9c-15.9,0-28.8,12.9-28.8,28.8c0,15.9,12.9,28.8,28.8,28.8s28.8-12.9,28.8-28.8
		C999.1-661,986.2-673.9,970.4-673.9z"/>
	<path class="st8" d="M970.4-626.1c-10.5,0-19-8.6-19-19c0-10.4,8.5-19,19-19s19,8.5,19,19S980.9-626.1,970.4-626.1z M970.4-654.5
		c-5.2,0-9.4,4.2-9.4,9.4s4.2,9.4,9.4,9.4c5.2,0,9.4-4.2,9.4-9.4C979.8-650.3,975.5-654.5,970.4-654.5z"/>
	<path class="st8" d="M675.2-773.5h-32.8c-2.5,0-4.8-1.8-5.1-4.4c-0.3-2.9,2-5.3,4.8-5.3H675c2.5,0,4.8,1.8,5,4.3
		C680.3-776,678-773.5,675.2-773.5z"/>
	<path class="st8" d="M651.3-740.4h-45.4c-2.5,0-4.8-1.8-5.1-4.4c-0.3-2.9,2-5.3,4.8-5.3H651c2.5,0,4.8,1.8,5.1,4.4
		C656.4-742.8,654.1-740.4,651.3-740.4z"/>
	<path class="st8" d="M651.3-707.3h-45.4c-2.5,0-4.8-1.8-5.1-4.4c-0.3-2.9,2-5.3,4.8-5.3H651c2.5,0,4.8,1.8,5.1,4.4
		C656.4-709.7,654.1-707.3,651.3-707.3z"/>
	<path class="st8" d="M675.2-674.1h-32.8c-2.5,0-4.8-1.8-5.1-4.4c-0.3-2.9,2-5.3,4.8-5.3H675c2.5,0,4.8,1.8,5,4.3
		C680.3-676.6,678-674.1,675.2-674.1z"/>
</g>
<g>
	<path class="st7" d="M847.1-965c-0.2-0.1-0.3-0.3-0.5-0.4c-0.2-0.2-0.4-0.3-0.7-0.5c-0.2-0.1-0.4-0.3-0.7-0.4
		c-0.2-0.1-0.4-0.2-0.6-0.4c-0.2-0.1-0.5-0.2-0.7-0.3s-0.4-0.2-0.6-0.3s-0.5-0.2-0.7-0.3s-0.5-0.2-0.7-0.2c-0.2-0.1-0.5-0.1-0.7-0.2
		c-0.2-0.1-0.5-0.1-0.7-0.2c-0.3-0.1-0.5-0.1-0.8-0.1c-0.2,0-0.4-0.1-0.6-0.1c-1-0.1-2-0.1-3,0c-0.2,0-0.4,0.1-0.6,0.1
		c-0.3,0-0.5,0.1-0.8,0.1c-0.2,0-0.5,0.1-0.7,0.2c-0.2,0.1-0.5,0.1-0.7,0.2c-0.2,0.1-0.5,0.2-0.7,0.2c-0.2,0.1-0.5,0.2-0.7,0.3
		s-0.4,0.2-0.6,0.3s-0.5,0.2-0.7,0.3s-0.4,0.2-0.6,0.4c-0.2,0.1-0.4,0.3-0.7,0.4c-0.2,0.2-0.4,0.3-0.7,0.5c-0.2,0.1-0.4,0.3-0.5,0.4
		c-0.4,0.3-0.8,0.6-1.1,1l-39,39c-5.9,5.9-5.9,15.4,0,21.2c5.9,5.9,15.4,5.9,21.2,0l13.4-13.4v41.9c0,8.3,6.7,15,15,15s15-6.7,15-15
		v-41.9l13.4,13.4c5.9,5.9,15.4,5.9,21.2,0c2.9-2.9,4.4-6.8,4.4-10.6s-1.5-7.7-4.4-10.6l-39-39C847.9-964.3,847.5-964.7,847.1-965z"
		/>
	<g>
		<path class="st7" d="M676.6-976.9c-0.2,0-0.4,0.1-0.6,0.1c-0.3,0-0.5,0.1-0.8,0.1s-0.5,0.1-0.7,0.2c-0.2,0.1-0.5,0.1-0.7,0.2
			c-0.2,0.1-0.5,0.2-0.7,0.3s-0.4,0.2-0.7,0.2c-0.2,0.1-0.4,0.2-0.7,0.3c-0.2,0.1-0.5,0.2-0.7,0.3s-0.4,0.2-0.6,0.4
			c-0.2,0.1-0.4,0.2-0.6,0.4s-0.4,0.3-0.7,0.5c-0.2,0.1-0.3,0.2-0.5,0.4c-0.8,0.6-1.5,1.3-2.1,2.1c-0.1,0.2-0.3,0.3-0.4,0.5
			c-0.2,0.2-0.3,0.4-0.5,0.7c-0.1,0.2-0.3,0.4-0.4,0.6c-0.1,0.2-0.3,0.4-0.4,0.6c-0.1,0.2-0.2,0.4-0.3,0.7c-0.1,0.2-0.2,0.4-0.3,0.7
			c-0.1,0.2-0.2,0.4-0.2,0.7c-0.1,0.2-0.2,0.5-0.3,0.7c-0.1,0.2-0.1,0.5-0.2,0.7s-0.1,0.5-0.2,0.7c-0.1,0.3-0.1,0.5-0.1,0.8
			c0,0.2-0.1,0.4-0.1,0.6c0,0.5-0.1,1-0.1,1.5v55.1c0,8.3,6.7,15,15,15s15-6.7,15-15v-18.9l29.6,29.6c5.9,5.9,15.4,5.9,21.2,0
			c5.9-5.9,5.9-15.4,0-21.2l-29.6-29.6h18.9c8.3,0,15-6.7,15-15c0-4.1-1.7-7.9-4.4-10.6s-6.5-4.4-10.6-4.4H678
			C677.6-976.9,677.1-976.9,676.6-976.9z"/>
		<path class="st7" d="M1012.1-963.4c0-0.2-0.1-0.4-0.1-0.6c0-0.3-0.1-0.5-0.1-0.8s-0.1-0.5-0.2-0.7s-0.1-0.5-0.2-0.7
			s-0.2-0.5-0.3-0.7c-0.1-0.2-0.2-0.4-0.2-0.7c-0.1-0.2-0.2-0.4-0.3-0.7c-0.1-0.2-0.2-0.5-0.3-0.7c-0.1-0.2-0.2-0.4-0.4-0.6
			c-0.1-0.2-0.2-0.4-0.4-0.6c-0.2-0.2-0.3-0.4-0.5-0.7c-0.1-0.2-0.2-0.3-0.4-0.5c-0.6-0.8-1.3-1.5-2.1-2.1c-0.2-0.1-0.3-0.3-0.5-0.4
			c-0.2-0.2-0.4-0.3-0.7-0.5c-0.2-0.1-0.4-0.3-0.6-0.4c-0.2-0.1-0.4-0.3-0.6-0.4c-0.2-0.1-0.4-0.2-0.7-0.3c-0.2-0.1-0.4-0.2-0.7-0.3
			c-0.2-0.1-0.4-0.2-0.7-0.2c-0.2-0.1-0.5-0.2-0.7-0.3s-0.5-0.1-0.7-0.2c-0.2-0.1-0.5-0.1-0.7-0.2c-0.3-0.1-0.5-0.1-0.8-0.1
			c-0.2,0-0.4-0.1-0.6-0.1c-0.5,0-1-0.1-1.5-0.1H942c-8.3,0-15,6.7-15,15s6.7,15,15,15h18.9l-29.6,29.6c-5.9,5.9-5.9,15.4,0,21.2
			c5.9,5.9,15.4,5.9,21.2,0l29.6-29.6v18.9c0,8.3,6.7,15,15,15c4.1,0,7.9-1.7,10.6-4.4s4.4-6.5,4.4-10.6V-962
			C1012.1-962.4,1012.1-962.9,1012.1-963.4z"/>
	</g>
</g>
<g>
	<path class="st7" d="M847.1-1298.8c-0.2-0.1-0.3-0.3-0.5-0.4c-0.2-0.2-0.4-0.3-0.7-0.5c-0.2-0.1-0.4-0.3-0.7-0.4
		c-0.2-0.1-0.4-0.2-0.6-0.4c-0.2-0.1-0.5-0.2-0.7-0.3c-0.2-0.1-0.4-0.2-0.6-0.3c-0.2-0.1-0.5-0.2-0.7-0.3c-0.2-0.1-0.5-0.2-0.7-0.2
		c-0.2-0.1-0.5-0.1-0.7-0.2s-0.5-0.1-0.7-0.2c-0.3-0.1-0.5-0.1-0.8-0.1c-0.2,0-0.4-0.1-0.6-0.1c-1-0.1-2-0.1-3,0
		c-0.2,0-0.4,0.1-0.6,0.1c-0.3,0-0.5,0.1-0.8,0.1c-0.2,0-0.5,0.1-0.7,0.2s-0.5,0.1-0.7,0.2s-0.5,0.2-0.7,0.2
		c-0.2,0.1-0.5,0.2-0.7,0.3c-0.2,0.1-0.4,0.2-0.6,0.3c-0.2,0.1-0.5,0.2-0.7,0.3c-0.2,0.1-0.4,0.2-0.6,0.4c-0.2,0.1-0.4,0.3-0.7,0.4
		c-0.2,0.2-0.4,0.3-0.7,0.5c-0.2,0.1-0.4,0.3-0.5,0.4c-0.4,0.3-0.8,0.6-1.1,1l-39,39c-5.9,5.9-5.9,15.4,0,21.2
		c5.9,5.9,15.4,5.9,21.2,0l13.4-13.4v41.9c0,8.3,6.7,15,15,15s15-6.7,15-15v-41.9l13.4,13.4c5.9,5.9,15.4,5.9,21.2,0
		c2.9-2.9,4.4-6.8,4.4-10.6c0-3.8-1.5-7.7-4.4-10.6l-39-39C847.9-1298.2,847.5-1298.5,847.1-1298.8z"/>
	<g>
		<path class="st7" d="M748.3-1256.6c0-0.2-0.1-0.4-0.1-0.6c0-0.3-0.1-0.5-0.1-0.8c0-0.3-0.1-0.5-0.2-0.7c-0.1-0.2-0.1-0.5-0.2-0.7
			c-0.1-0.2-0.2-0.5-0.3-0.7c-0.1-0.2-0.2-0.4-0.2-0.7c-0.1-0.2-0.2-0.4-0.3-0.7c-0.1-0.2-0.2-0.5-0.3-0.7c-0.1-0.2-0.2-0.4-0.4-0.6
			c-0.1-0.2-0.2-0.4-0.4-0.6c-0.2-0.2-0.3-0.4-0.5-0.7c-0.1-0.2-0.2-0.3-0.4-0.5c-0.6-0.8-1.3-1.5-2.1-2.1c-0.2-0.1-0.3-0.3-0.5-0.4
			c-0.2-0.2-0.4-0.3-0.7-0.5c-0.2-0.1-0.4-0.3-0.6-0.4s-0.4-0.3-0.6-0.4s-0.4-0.2-0.7-0.3c-0.2-0.1-0.4-0.2-0.7-0.3
			c-0.2-0.1-0.4-0.2-0.7-0.2c-0.2-0.1-0.5-0.2-0.7-0.3s-0.5-0.1-0.7-0.2c-0.2-0.1-0.5-0.1-0.7-0.2c-0.3-0.1-0.5-0.1-0.8-0.1
			c-0.2,0-0.4-0.1-0.6-0.1c-0.5,0-1-0.1-1.5-0.1h-55.1c-8.3,0-15,6.7-15,15c0,8.3,6.7,15,15,15h18.9l-29.6,29.6
			c-5.9,5.9-5.9,15.4,0,21.2c5.9,5.9,15.4,5.9,21.2,0l29.6-29.6v18.9c0,8.3,6.7,15,15,15c4.1,0,7.9-1.7,10.6-4.4
			c2.7-2.7,4.4-6.5,4.4-10.6v-55.1C748.4-1255.6,748.3-1256.1,748.3-1256.6z"/>
		<path class="st7" d="M940.4-1270c-0.2,0-0.4,0.1-0.6,0.1c-0.3,0-0.5,0.1-0.8,0.1s-0.5,0.1-0.7,0.2s-0.5,0.1-0.7,0.2
			c-0.2,0.1-0.5,0.2-0.7,0.3s-0.4,0.2-0.7,0.2c-0.2,0.1-0.4,0.2-0.7,0.3c-0.2,0.1-0.5,0.2-0.7,0.3s-0.4,0.2-0.6,0.4
			c-0.2,0.1-0.4,0.2-0.6,0.4c-0.2,0.2-0.4,0.3-0.7,0.5c-0.2,0.1-0.3,0.2-0.5,0.4c-0.8,0.6-1.5,1.3-2.1,2.1c-0.1,0.2-0.3,0.3-0.4,0.5
			c-0.2,0.2-0.3,0.4-0.5,0.7c-0.1,0.2-0.3,0.4-0.4,0.6c-0.1,0.2-0.3,0.4-0.4,0.6c-0.1,0.2-0.2,0.4-0.3,0.7c-0.1,0.2-0.2,0.4-0.3,0.7
			c-0.1,0.2-0.2,0.4-0.2,0.7c-0.1,0.2-0.2,0.5-0.3,0.7c-0.1,0.2-0.1,0.5-0.2,0.7c-0.1,0.2-0.1,0.5-0.2,0.7c-0.1,0.3-0.1,0.5-0.1,0.8
			c0,0.2-0.1,0.4-0.1,0.6c0,0.5-0.1,1-0.1,1.5v55.1c0,8.3,6.7,15,15,15s15-6.7,15-15v-18.9l29.6,29.6c5.9,5.9,15.4,5.9,21.2,0
			s5.9-15.4,0-21.2L978-1240h18.9c8.3,0,15-6.7,15-15c0-4.1-1.7-7.9-4.4-10.6s-6.5-4.4-10.6-4.4h-55.1
			C941.4-1270.1,940.9-1270,940.4-1270z"/>
	</g>
</g>
<g>
	<g>
		<path d="M675.8-1050.7c-1.2-1.8-3.9-0.1-2.8,1.7l7.7,12.3h-4.6l-7-11.5c-1.1-1.8-3.9-0.1-2.8,1.7l0.8,1.2h-32.6l0.8-1.2
			c1.1-1.9-1.7-3.6-2.8-1.7c-1.1,1.9-6,9.8-7,11.5h-4.6l7.7-12.3c1.1-1.9-1.6-3.6-2.8-1.7l-9.3,14.9c-0.7,1,0.1,2.6,1.4,2.5h8.5
			c1.4,0.1,2-1.9,2.7-2.9h43.5c0.7,1,1.3,3,2.7,2.9h8.5c1.3,0,2.1-1.5,1.4-2.5L675.8-1050.7L675.8-1050.7z M631-1039.5l1.4-2.4H669
			l1.4,2.4H631z"/>
		<path d="M617.8-1067.4c0.9-0.2,1.4-1.2,1.1-2c-0.5-1.7-0.8-3.5-0.8-5.3c-0.3-3.1,1.3-9.4,1.7-12.5c1.7,2.3,4.4,5,8.8,6.4
			c0.8,0.3,1.8-0.2,2.1-1c0.3-0.9-0.2-1.8-1-2.1c-6.1-2.1-8.4-7.1-8.9-8.5l5.1-28.6c0.5-2.8,2.9-4.8,5.7-4.8h38.2
			c2.8,0,5.2,2,5.7,4.8l5.1,28.6c-0.5,1.4-2.8,6.4-8.9,8.5c-1.8,0.6-1.3,3.3,0.5,3.2c4.4-1,7.6-4.2,9.3-6.5l1.4,7.9
			c2.5,13.6-8.4,26.5-22.2,26.3h-20.1c-7.9,0-15.3-4.2-19.3-11c-0.5-0.8-1.5-1-2.3-0.6c-0.8,0.5-1,1.5-0.6,2.3
			c4.6,7.8,13.1,12.6,22.2,12.6h20.1c13.9,0,25.3-10.9,25.8-24.8c0.3-3.7-2.1-14.1-2.6-17.9l-5.2-29.1c-0.8-4.4-4.6-7.5-9-7.5h-38.2
			c-4.4,0-8.2,3.2-9,7.5l-5.2,29.1c-1,6.9-4.1,17.2-1.6,23.9C616-1067.7,616.9-1067.2,617.8-1067.4L617.8-1067.4z"/>
		<path d="M670.1-1097.8c-1.2,0.5-3.1,0.9-2.5,2.7c0.3,0.9,1.2,1.3,2.1,1c3.3-0.8,6-3.6,5.5-7.2l-1.5-11.1c-0.3-2.5-2.5-4.4-5-4.4
			h-36c-2.5,0-4.7,1.9-5,4.4l-1.5,11.1c-0.4,2.8,1.2,5.5,3.7,6.5c3.7,1.5,11.4,4.1,20.7,4.1c4.3,0,8.7-0.5,13.1-1.6
			c0.9-0.2,1.4-1.1,1.2-2c-0.2-0.9-1.1-1.4-2-1.2c-3.5,0.9-7.1,1.4-10.6,1.5v-19.5h16.3c0.9,0,1.6,0.6,1.7,1.5l1.5,11.1
			C672.1-1099.6,671.3-1098.3,670.1-1097.8L670.1-1097.8z M649.1-1094c-8-0.3-14.5-2.5-17.8-3.8c-1.2-0.5-1.9-1.7-1.7-3l1.5-11.1
			c0.1-0.9,0.8-1.5,1.7-1.5h16.3V-1094L649.1-1094z"/>
		<path d="M627.5-1069.9c0.1,7,10,8.4,11.9,1.7H662c1.9,6.7,11.8,5.4,11.9-1.7c-0.1-7-10-8.4-11.9-1.7h-22.6
			C637.5-1078.3,627.6-1076.9,627.5-1069.9z M667.8-1072.7c3.7,0.1,3.7,5.5,0,5.6C664.2-1067.2,664.2-1072.6,667.8-1072.7z
			 M633.6-1072.7c3.7,0.1,3.7,5.5,0,5.6C629.9-1067.2,629.9-1072.6,633.6-1072.7z"/>
	</g>
	<circle class="st9" cx="650.7" cy="-1081.2" r="79.5"/>
</g>
<g>
	<g>
		<path d="M807-1097.8v3.9l-1.3,0.7l-4.8,2.7c-0.6-1.9-2.4-3.3-4.5-3.3c-2.7,0-4.8,2.2-4.8,4.8v3.7l-4.3,2.4
			c-0.6,0.3-0.9,0.9-0.9,1.6v12.8c0,0.6,0.3,1.1,0.7,1.4c0.3,0.3,0.7,0.4,1.1,0.4c0.1,0,0.3,0,0.4-0.1l37.8-9.3v18.8l-13.4,6.5
			c-0.6,0.3-1,0.9-1,1.6v7.4c0,1,0.8,1.8,1.8,1.8h14c1.2,2.2,3.1,3.9,5.4,5v3.4c0,2.5,2,4.6,4.6,4.6s4.6-2,4.6-4.6v-3.4
			c2.3-1,4.2-2.8,5.4-5h14c1,0,1.8-0.8,1.8-1.8v-7.4c0-0.7-0.4-1.3-1-1.6l-13.4-6.4v-18.8l37.8,9.3c0.1,0,0.3,0.1,0.4,0.1
			c0.4,0,0.8-0.1,1.1-0.4c0.4-0.3,0.7-0.9,0.7-1.4v-12.8c0-0.7-0.4-1.3-0.9-1.6l-4.3-2.4v-3.7c0-2.7-2.2-4.8-4.8-4.8
			c-2.1,0-3.9,1.4-4.5,3.3l-6.1-3.5v-3.9c0-2.6-2.2-4.8-4.8-4.8c-2.2,0-4,1.4-4.6,3.4l-9.9-5.6v-19.6c0-3-1.2-5.9-3.3-8
			c-2.1-2.1-5-3.3-8-3.3c-6.2,0-11.3,5.1-11.3,11.3v19.6l-10,5.6c-0.6-2-2.4-3.4-4.6-3.4C809.1-1102.6,807-1100.4,807-1097.8
			L807-1097.8z M795.2-1088.8c0-0.6,0.5-1.2,1.2-1.2c0.6,0,1.2,0.5,1.2,1.2v0.3l-2.3,1.3L795.2-1088.8L795.2-1088.8z M877.7-1088.8
			c0-0.6,0.5-1.2,1.2-1.2c0.6,0,1.2,0.5,1.2,1.2v1.7l-2.3-1.3L877.7-1088.8L877.7-1088.8z M815.5-1043.4v-4.5l10.8-5.2v8
			c0,0.6,0.1,1.1,0.1,1.7H815.5z M838.5-1031.3c0,0.5-0.4,0.9-0.9,0.9s-0.9-0.4-0.9-0.9v-18.6c0-0.5,0.4-0.9,0.9-0.9
			s0.9,0.4,0.9,0.9V-1031.3z M859.7-1047.9v4.5h-11c0.1-0.6,0.1-1.1,0.1-1.7v-8L859.7-1047.9L859.7-1047.9z M862.3-1097.2v-0.5
			c0-0.6,0.5-1.2,1.2-1.2c0.6,0,1.2,0.5,1.2,1.2v1.9l-1.1-0.6L862.3-1097.2L862.3-1097.2z M865.1-1091.5l0.4,0.2l19.7,11.2v9.4
			l-36.4-9v-21L865.1-1091.5L865.1-1091.5z M829.9-1124.4c0-4.2,3.4-7.7,7.7-7.7c2,0,4,0.8,5.4,2.2s2.2,3.4,2.2,5.4v79.3
			c0,2.5-1.2,4.7-3.1,6.2v-11c0-2.5-2-4.6-4.6-4.6s-4.6,2-4.6,4.6v11c-1.9-1.4-3.1-3.7-3.1-6.1L829.9-1124.4z M826.3-1079.6l-36.4,9
			v-9.4l17.5-9.9l0,0l18.9-10.7V-1079.6L826.3-1079.6z M813-1097.8v0.5l-2.4,1.3v-1.9c0-0.6,0.5-1.2,1.2-1.2
			C812.4-1098.9,813-1098.4,813-1097.8L813-1097.8z"/>
		<path d="M835.3-1121.9c0-1.3,1-2.3,2.3-2.3s2.3,1,2.3,2.3c0,1,0.8,1.8,1.8,1.8s1.8-0.8,1.8-1.8c0-3.3-2.7-5.9-5.9-5.9
			s-5.9,2.7-5.9,5.9c0,1,0.8,1.8,1.8,1.8C834.5-1120.1,835.3-1120.9,835.3-1121.9z"/>
	</g>
	<circle class="st9" cx="837.6" cy="-1081.2" r="87.4"/>
</g>
<g>
	<g>
		<path class="st10" d="M995.7-1063.3h3c0.2-1.7,0.8-3.3,1.8-4.7H994C994.9-1066.6,995.5-1065,995.7-1063.3L995.7-1063.3z
			 M991.3-1070.8h11.7c3.9-2.9,9.3-2.9,13.2,0h29.7v-35.5c0-1.4-1.2-2.6-2.6-2.6h-67.4c-1.4,0-2.6,1.2-2.6,2.6v35.6h4.8
			C982-1073.7,987.4-1073.7,991.3-1070.8L991.3-1070.8z M979.5-1068.3c-0.2,0.2-0.4,0.4-0.6,0.6c-3.2,3.2-3.2,8.3-0.1,11.6
			c3.1,3.3,8.2,3.4,11.6,0.4c3.3-3,3.7-8.2,0.7-11.6C988.1-1070.7,983-1071.2,979.5-1068.3L979.5-1068.3z M975.5-1068H969v4.7h4.7
			C974-1065,974.6-1066.6,975.5-1068L975.5-1068z M973.7-1060.5h-6.1c-0.4,0-0.7-0.1-1-0.4s-0.4-0.6-0.4-1v-7.5c0-0.4,0.1-0.7,0.4-1
			c0.3-0.3,0.6-0.4,1-0.4h2.9v-35.6c0-3,2.4-5.4,5.4-5.4h67.4c3,0,5.4,2.4,5.4,5.4v35.6h2.2v-28.1h17c0.5,0,1,0.1,1.4,0.3
			c0.4,0.2,0.8,0.5,1.1,0.9l3.7,4.8c0,0.1,0.1,0.1,0.1,0.2l7.9,10.2l0,0c0.4,0.6,0.7,1.2,0.7,1.9v16.9c0,0.8-0.3,1.6-0.9,2.2
			s-1.4,0.9-2.2,0.9h-2.7c-0.7,5.5-5.4,9.7-11,9.7s-10.3-4.2-11-9.7h-34.3c-0.7,5.5-5.4,9.7-11,9.7s-10.3-4.2-11-9.7h-3
			c-0.7,5.5-5.4,9.7-11,9.7C979.1-1050.8,974.4-1055,973.7-1060.5L973.7-1060.5z M1018.9-1068L1018.9-1068c0.9,1.4,1.5,3,1.7,4.7
			h30.3v-4.7H1018.9L1018.9-1068z M1015.5-1067.8L1015.5-1067.8c-2.8-2.8-7.2-3.2-10.5-1c-3.3,2.2-4.6,6.4-3,10.1
			c1.5,3.7,5.4,5.7,9.3,4.9c3.9-0.8,6.7-4.2,6.7-8.1C1018-1064.1,1017.1-1066.2,1015.5-1067.8L1015.5-1067.8z M1066.5-1070.2
			L1066.5-1070.2L1066.5-1070.2c-0.2,0-0.2,0-0.3,0h-0.1h-0.2h-0.1c-0.1,0-0.1,0-0.2,0h-0.1l0,0c-4.5,0.3-7.9,4.1-7.8,8.5
			c0.1,4.5,3.8,8,8.3,8s8.1-3.6,8.3-8C1074.4-1066.1,1070.9-1069.9,1066.5-1070.2L1066.5-1070.2z M1066.4-1072.9L1066.4-1072.9
			c5.4,0.2,9.8,4.3,10.5,9.7h2.7c0.1,0,0.2,0,0.3-0.1c0.1-0.1,0.1-0.2,0.1-0.3v-16.7h-17.5c-1.9,0-3.4-1.5-3.4-3.4v-6.2
			c0-1.9,1.5-3.4,3.4-3.4h7.8l-2.1-2.7l-0.1-0.1c-0.1,0-0.1,0-0.2,0h-14.3v32.9h1.3c0.7-5.4,5.1-9.4,10.5-9.7h0.2h0.1h0.3h0.1
			H1066.4L1066.4-1072.9z M1078.2-1083l-1.6-2.1l-4.2-5.4h-10c-0.2,0-0.3,0.1-0.5,0.2c-0.2,0.1-0.2,0.3-0.2,0.5v6.2
			c0,0.4,0.3,0.7,0.7,0.7L1078.2-1083z"/>
	</g>
	<circle class="st9" cx="1024.5" cy="-1081.2" r="78.9"/>
</g>
<g>
	<g>
		<path d="M959.6-1448.8c-7.1,0-13.9,1.8-19.8,5l-28.2-39.6c-0.2-0.2-0.4-0.4-0.5-0.6l5.6-22.6c0.4,0,0.8,0.1,1.1,0.1h10.4
			c8.6,0,15.7-7,15.7-15.7v-5.2c0-8.6-7-15.7-15.7-15.7h-26.1c-14.4,0-26.1,11.7-26.1,26.1c0,2.9,2.3,5.2,5.2,5.2h19.7
			c1.3,0.6,3.3,1.5,5.6,2.4l-5.9,23.7h-76.8v-48l16.9-4.2c2.8-0.7,4.5-3.5,3.8-6.3s-3.5-4.5-6.3-3.8l-20.9,5.2c-2.3,0.6-4,2.7-4,5.1
			v36.4H672.4c-2.9,0-5.2,2.3-5.2,5.2v73.2c0,11.5,9.4,20.9,20.9,20.9h26.4c2.5,20.6,20.1,36.7,41.4,36.7s38.9-16,41.4-36.7h5.6
			c11.5,0,20.9-9.4,20.9-20.9v-21.5l43.1,30c-0.8,2.3-1.4,4.7-1.4,7.2c0,11.5,9.4,20.9,20.9,20.9c9.7,0,17.8-6.7,20.1-15.7H918
			c2.6,20.6,20.1,36.5,41.4,36.5c23,0,41.8-18.7,41.8-41.8S982.6-1448.8,959.6-1448.8z M902.2-1522.1h-14.8
			c2.2-6.1,8-10.4,14.8-10.4h26.1c2.9,0,5.2,2.3,5.2,5.2v5.2c0,2.9-2.3,5.2-5.2,5.2h-10.4c-2.7,0-9.6-2.8-13.3-4.7
			C903.8-1521.9,903-1522.1,902.2-1522.1z M959.6-1412.3c2.9,0,5.2,2.3,5.2,5.2s-2.3,5.2-5.2,5.2s-5.2-2.3-5.2-5.2
			C954.4-1409.9,956.7-1412.3,959.6-1412.3z M944.9-1412.3h-16.1c1.1-6.5,4.2-12.4,8.7-16.9l9.4,13.1
			C946-1414.9,945.4-1413.6,944.9-1412.3z M931.4-1437.7c-7.1,6.5-11.9,15.4-13.2,25.5h-11.5c-1.5-5.6-5.2-10.3-10.2-13l11.3-45.5
			L931.4-1437.7z M756-1375.7c-17.3,0-31.3-14-31.3-31.3s14-31.3,31.3-31.3s31.3,14,31.3,31.3C787.4-1389.8,773.3-1375.7,756-1375.7
			z M813.5-1422.8c0,5.8-4.7,10.4-10.4,10.4h-5.6c-2.6-20.5-20.2-36.4-41.4-36.4c-21.2,0-38.7,15.9-41.4,36.4h-26.5
			c-5.8,0-10.4-4.7-10.4-10.4v-68h135.7L813.5-1422.8L813.5-1422.8z M823.9-1475.1h74.3l-11.8,47.3c-5.1,0-9.7,2-13.4,5.1
			l-49.1-34.2V-1475.1z M886.5-1396.6c-5.8,0-10.4-4.7-10.4-10.4c0-5.8,4.7-10.4,10.4-10.4c5.8,0,10.4,4.7,10.4,10.4
			C897-1401.3,892.3-1396.6,886.5-1396.6z M959.6-1375.7c-15.5,0-28.4-11.3-30.9-26.1h16.2c2.2,6.1,7.9,10.4,14.7,10.4
			c8.6,0,15.7-7,15.7-15.7s-7-15.7-15.7-15.7c-1.5,0-2.9,0.3-4.3,0.7l-9.4-13.2c4.1-2,8.7-3.2,13.6-3.2c17.3,0,31.3,14,31.3,31.3
			C990.9-1389.8,976.9-1375.7,959.6-1375.7z"/>
		<path d="M756-1422.9c-8.6,0-15.7,7-15.7,15.7s7,15.7,15.7,15.7s15.7-7,15.7-15.7S764.7-1422.9,756-1422.9z M756-1402.1
			c-2.9,0-5.2-2.3-5.2-5.2s2.3-5.2,5.2-5.2c2.9,0,5.2,2.3,5.2,5.2C761.3-1404.4,758.9-1402.1,756-1402.1z"/>
	</g>
</g>
<path class="st11" d="M457.4,800.6c0.1-0.2,0.3-0.3,0.4-0.5c0.2-0.2,0.3-0.4,0.5-0.7c0.1-0.2,0.3-0.4,0.4-0.7
	c0.1-0.2,0.2-0.4,0.4-0.6c0.1-0.2,0.2-0.5,0.3-0.7s0.2-0.4,0.3-0.6s0.2-0.5,0.3-0.7s0.2-0.5,0.2-0.7c0.1-0.2,0.1-0.5,0.2-0.7
	c0.1-0.2,0.1-0.5,0.2-0.7c0.1-0.3,0.1-0.5,0.1-0.8c0-0.2,0.1-0.4,0.1-0.6c0.1-1,0.1-2,0-3c0-0.2-0.1-0.4-0.1-0.6
	c0-0.3-0.1-0.5-0.1-0.8c0-0.2-0.1-0.5-0.2-0.7c-0.1-0.2-0.1-0.5-0.2-0.7c-0.1-0.2-0.2-0.5-0.2-0.7c-0.1-0.2-0.2-0.5-0.3-0.7
	s-0.2-0.4-0.3-0.6s-0.2-0.5-0.3-0.7s-0.2-0.4-0.4-0.6c-0.1-0.2-0.3-0.4-0.4-0.7c-0.2-0.2-0.3-0.4-0.5-0.7c-0.1-0.2-0.3-0.4-0.4-0.5
	c-0.3-0.4-0.6-0.8-1-1.1l-39-39c-5.9-5.9-15.4-5.9-21.2,0c-5.9,5.9-5.9,15.4,0,21.2l13.4,13.4H304c-8.3,0-15,6.7-15,15s6.7,15,15,15
	h105.6l-13.4,13.4c-5.9,5.9-5.9,15.4,0,21.2c2.9,2.9,6.8,4.4,10.6,4.4s7.7-1.5,10.6-4.4l39-39C456.8,801.3,457.1,800.9,457.4,800.6z
	"/>
<path class="st11" d="M1119,626.6c-0.2,0-0.4,0.1-0.6,0.1c-0.3,0-0.5,0.1-0.8,0.1c-0.2,0-0.5,0.1-0.7,0.2s-0.5,0.1-0.7,0.2
	c-0.2,0.1-0.5,0.2-0.7,0.2c-0.2,0.1-0.5,0.2-0.7,0.3c-0.2,0.1-0.4,0.2-0.6,0.3s-0.5,0.2-0.7,0.3c-0.2,0.1-0.4,0.2-0.6,0.4
	c-0.2,0.1-0.4,0.3-0.7,0.4c-0.2,0.2-0.4,0.3-0.7,0.5c-0.2,0.1-0.4,0.3-0.5,0.4c-0.4,0.3-0.8,0.6-1.1,1l-39,39
	c-5.9,5.9-5.9,15.4,0,21.2c5.9,5.9,15.4,5.9,21.2,0l13.4-13.4v91.7c0,4-3.3,7.3-7.3,7.3H1051c-8.1,0-15,6.2-15.4,14.3
	c-0.4,8.6,6.5,15.7,15,15.7h54.9h16.6h6.1c4,0,7.3-3.3,7.3-7.3V677.8l13.4,13.4c5.9,5.9,15.4,5.9,21.2,0c2.9-2.9,4.4-6.8,4.4-10.6
	s-1.5-7.7-4.4-10.6l-39-39c-0.4-0.4-0.8-0.7-1.1-1c-0.2-0.1-0.3-0.3-0.5-0.4c-0.2-0.2-0.4-0.3-0.7-0.5c-0.2-0.1-0.4-0.3-0.7-0.4
	c-0.2-0.1-0.4-0.2-0.6-0.4c-0.2-0.1-0.5-0.2-0.7-0.3s-0.4-0.2-0.6-0.3c-0.2-0.1-0.5-0.2-0.7-0.3s-0.5-0.2-0.7-0.2
	c-0.2-0.1-0.5-0.1-0.7-0.2s-0.5-0.1-0.7-0.2c-0.3-0.1-0.5-0.1-0.8-0.1c-0.2,0-0.4-0.1-0.6-0.1C1121,626.5,1120,626.5,1119,626.6z"/>
<path class="st11" d="M915.9,127c0,0.2,0.1,0.4,0.1,0.6c0,0.3,0.1,0.5,0.1,0.8c0,0.2,0.1,0.5,0.2,0.7s0.1,0.5,0.2,0.7
	c0.1,0.2,0.2,0.5,0.2,0.7c0.1,0.2,0.2,0.5,0.3,0.7c0.1,0.2,0.2,0.4,0.3,0.6s0.2,0.5,0.3,0.7c0.1,0.2,0.2,0.4,0.4,0.6
	c0.1,0.2,0.3,0.4,0.4,0.7c0.2,0.2,0.3,0.4,0.5,0.7c0.1,0.2,0.3,0.4,0.4,0.5c0.3,0.4,0.6,0.8,1,1.1l39,39c5.9,5.9,15.4,5.9,21.2,0
	c5.9-5.9,5.9-15.4,0-21.2l-13.4-13.4h128.7c5.5,0,10,4.5,10,10V195c0,8.1,6.2,15,14.3,15.4c8.6,0.4,15.7-6.5,15.7-15v-54.9v-16.6
	v-3.4c0-5.5-4.5-10-10-10H967.1l13.4-13.4c5.9-5.9,5.9-15.4,0-21.2c-2.9-2.9-6.8-4.4-10.6-4.4s-7.7,1.5-10.6,4.4l-39,39
	c-0.4,0.4-0.7,0.8-1,1.1c-0.1,0.2-0.3,0.3-0.4,0.5c-0.2,0.2-0.3,0.4-0.5,0.7c-0.1,0.2-0.3,0.4-0.4,0.7c-0.1,0.2-0.2,0.4-0.4,0.6
	c-0.1,0.2-0.2,0.5-0.3,0.7s-0.2,0.4-0.3,0.6c-0.1,0.2-0.2,0.5-0.3,0.7s-0.2,0.5-0.2,0.7c-0.1,0.2-0.1,0.5-0.2,0.7s-0.1,0.5-0.2,0.7
	c-0.1,0.3-0.1,0.5-0.1,0.8c0,0.2-0.1,0.4-0.1,0.6C915.8,125,915.8,126,915.9,127z"/>
<path class="st11" d="M159.6,733.9c0.2,0.1,0.3,0.3,0.5,0.4c0.2,0.2,0.4,0.3,0.7,0.5c0.2,0.1,0.4,0.3,0.7,0.4
	c0.2,0.1,0.4,0.2,0.6,0.4c0.2,0.1,0.5,0.2,0.7,0.3s0.4,0.2,0.6,0.3s0.5,0.2,0.7,0.3s0.5,0.2,0.7,0.2c0.2,0.1,0.5,0.1,0.7,0.2
	c0.2,0.1,0.5,0.1,0.7,0.2c0.3,0.1,0.5,0.1,0.8,0.1c0.2,0,0.4,0.1,0.6,0.1c1,0.1,2,0.1,3,0c0.2,0,0.4-0.1,0.6-0.1
	c0.3,0,0.5-0.1,0.8-0.1c0.2,0,0.5-0.1,0.7-0.2c0.2-0.1,0.5-0.1,0.7-0.2c0.2-0.1,0.5-0.2,0.7-0.2c0.2-0.1,0.5-0.2,0.7-0.3
	s0.4-0.2,0.6-0.3s0.5-0.2,0.7-0.3s0.4-0.2,0.6-0.4c0.2-0.1,0.4-0.3,0.7-0.4c0.2-0.2,0.4-0.3,0.7-0.5c0.2-0.1,0.4-0.3,0.5-0.4
	c0.4-0.3,0.8-0.6,1.1-1l39-39c5.9-5.9,5.9-15.4,0-21.2c-5.9-5.9-15.4-5.9-21.2,0l-13.4,13.4v-41.9c0-8.3-6.7-15-15-15s-15,6.7-15,15
	v41.9l-13.3-13.4c-5.9-5.9-15.4-5.9-21.2,0c-2.9,2.9-4.4,6.8-4.4,10.6s1.5,7.7,4.4,10.6l39,39C158.9,733.3,159.2,733.6,159.6,733.9z
	"/>
<path class="st11" d="M423.8,119.2c-0.1,0.1-0.2,0.2-0.3,0.3c-0.1,0.1-0.2,0.3-0.3,0.5c-0.1,0.1-0.2,0.3-0.3,0.5
	c-0.1,0.1-0.1,0.3-0.3,0.4c-0.1,0.1-0.1,0.3-0.2,0.5s-0.1,0.3-0.2,0.4c-0.1,0.1-0.1,0.3-0.2,0.5c-0.1,0.1-0.1,0.3-0.1,0.5
	c-0.1,0.1-0.1,0.3-0.1,0.5c-0.1,0.1-0.1,0.3-0.1,0.5c-0.1,0.2-0.1,0.3-0.1,0.5c0,0.1-0.1,0.3-0.1,0.4c-0.1,0.7-0.1,1.3,0,2
	c0,0.1,0.1,0.3,0.1,0.4c0,0.2,0.1,0.3,0.1,0.5c0,0.1,0.1,0.3,0.1,0.5c0.1,0.1,0.1,0.3,0.1,0.5c0.1,0.1,0.1,0.3,0.1,0.5
	c0.1,0.1,0.1,0.3,0.2,0.5c0.1,0.1,0.1,0.3,0.2,0.4s0.1,0.3,0.2,0.5s0.1,0.3,0.3,0.4c0.1,0.1,0.2,0.3,0.3,0.5
	c0.1,0.1,0.2,0.3,0.3,0.5c0.1,0.1,0.2,0.3,0.3,0.3c0.2,0.3,0.4,0.5,0.7,0.7l26,26c3.9,3.9,10.3,3.9,14.1,0c3.9-3.9,3.9-10.3,0-14.1
	l-8.9-8.9h27.9c5.5,0,10-4.5,10-10s-4.5-10-10-10h-27.9l8.9-8.9c3.9-3.9,3.9-10.3,0-14.1c-1.9-1.9-4.5-2.9-7.1-2.9
	c-2.5,0-5.1,1-7.1,2.9l-26,26C424.2,118.7,424,118.9,423.8,119.2z"/>
<path class="st11" d="M654.4,119.2c-0.1,0.1-0.2,0.2-0.3,0.3c-0.1,0.1-0.2,0.3-0.3,0.5c-0.1,0.1-0.2,0.3-0.3,0.5
	c-0.1,0.1-0.1,0.3-0.3,0.4c-0.1,0.1-0.1,0.3-0.2,0.5s-0.1,0.3-0.2,0.4c-0.1,0.1-0.1,0.3-0.2,0.5s-0.1,0.3-0.1,0.5
	c-0.1,0.1-0.1,0.3-0.1,0.5c-0.1,0.1-0.1,0.3-0.1,0.5c-0.1,0.2-0.1,0.3-0.1,0.5c0,0.1-0.1,0.3-0.1,0.4c-0.1,0.7-0.1,1.3,0,2
	c0,0.1,0.1,0.3,0.1,0.4c0,0.2,0.1,0.3,0.1,0.5c0,0.1,0.1,0.3,0.1,0.5c0.1,0.1,0.1,0.3,0.1,0.5c0.1,0.1,0.1,0.3,0.1,0.5
	c0.1,0.1,0.1,0.3,0.2,0.5c0.1,0.1,0.1,0.3,0.2,0.4s0.1,0.3,0.2,0.5c0.1,0.1,0.1,0.3,0.3,0.4c0.1,0.1,0.2,0.3,0.3,0.5
	c0.1,0.1,0.2,0.3,0.3,0.5c0.1,0.1,0.2,0.3,0.3,0.3c0.2,0.3,0.4,0.5,0.7,0.7l26,26c3.9,3.9,10.3,3.9,14.1,0c3.9-3.9,3.9-10.3,0-14.1
	l-8.9-8.9h27.9c5.5,0,10-4.5,10-10s-4.5-10-10-10h-27.9l8.9-8.9c3.9-3.9,3.9-10.3,0-14.1c-1.9-1.9-4.5-2.9-7.1-2.9s-5.1,1-7.1,2.9
	l-26,26C654.8,118.7,654.6,118.9,654.4,119.2z"/>
<path class="st12" d="M270.1,471.1c0-1.1-0.5-2.2-1.3-2.9L247.6,450v-31.1c0-6-4.9-10.9-10.9-10.9h-37.8c0,0-0.1-0.1-0.1-0.1
	l-33.2-28.3c-1.4-1.2-3.5-1.2-4.9,0l-33,28.3H88.4c-6,0-10.9,4.9-10.9,10.9v32l-20.2,17.3c-0.8,0.7-1.3,1.8-1.3,2.9c0,0,0,0.1,0,0.1
	v133.1c0,5.5,4.4,9.9,9.9,9.9h194.3c5.5,0,9.9-4.4,9.9-9.9L270.1,471.1L270.1,471.1z M133.7,539.4l-70,60.1V479.4L133.7,539.4z
	 M139.5,544.4l21.1,18.1c0.7,0.6,1.6,0.9,2.5,0.9s1.8-0.3,2.5-0.9l21.1-18.1l72.5,62.2H67L139.5,544.4z M192.5,539.4l70.1-60.1
	v120.2L192.5,539.4z M260.5,471.1l-13,11.1V460L260.5,471.1z M163.1,387.5l24.1,20.5h-47.9L163.1,387.5z M88.4,415.6h148.3
	c1.8,0,3.3,1.5,3.3,3.3V451c-0.1,0.4-0.1,0.9,0,1.3v36.4l-76.9,65.9l-78-66.8v-68.9C85.1,417.1,86.6,415.6,88.4,415.6z M77.5,460.9
	v20.4l-11.9-10.2L77.5,460.9z"/>
<g>
	<g>
		<path class="st11" d="M1054,586.9c-0.1,0-0.2,0-0.3,0c-0.1,0-0.2,0-0.4,0.1c-0.1,0-0.2,0-0.4,0.1c-0.1,0-0.2,0.1-0.3,0.1
			c-0.1,0-0.2,0.1-0.3,0.1c-0.1,0-0.2,0.1-0.3,0.1c-0.1,0-0.2,0.1-0.3,0.1c-0.1,0-0.2,0.1-0.3,0.2c-0.1,0-0.2,0.1-0.3,0.2
			c-0.1,0-0.2,0.1-0.3,0.2c-0.1,0.1-0.2,0.1-0.3,0.2c-0.1,0.1-0.2,0.1-0.2,0.2c-0.4,0.3-0.7,0.7-1,1c-0.1,0.1-0.1,0.2-0.2,0.2
			c-0.1,0.1-0.1,0.2-0.2,0.3c-0.1,0.1-0.1,0.2-0.2,0.3c0,0.1-0.1,0.2-0.2,0.3s-0.1,0.2-0.2,0.3c0,0.1-0.1,0.2-0.1,0.3
			c0,0.1-0.1,0.2-0.1,0.3s-0.1,0.2-0.1,0.3c0,0.1-0.1,0.2-0.1,0.3c0,0.1,0,0.2-0.1,0.4c0,0.1,0,0.2-0.1,0.4c0,0.1,0,0.2,0,0.3
			c0,0.2-0.1,0.5,0,0.7v27c0,4.1,3.3,7.4,7.3,7.3c4.1,0,7.4-3.3,7.3-7.3v-9.3l14.5,14.5c2.9,2.9,7.5,2.9,10.4,0
			c2.9-2.9,2.9-7.5,0-10.4l-14.5-14.5h9.3c4.1,0,7.4-3.3,7.3-7.3c0-2-0.8-3.9-2.1-5.2c-1.3-1.3-3.2-2.1-5.2-2.1h-27
			C1054.5,586.9,1054.3,586.9,1054,586.9z"/>
	</g>
	<g>
		<path class="st11" d="M1193,593.5c0-0.1,0-0.2,0-0.3c0-0.1,0-0.2-0.1-0.4c0-0.1,0-0.2-0.1-0.4c0-0.1-0.1-0.2-0.1-0.3
			c0-0.1-0.1-0.2-0.1-0.3c0-0.1-0.1-0.2-0.1-0.3c0-0.1-0.1-0.2-0.1-0.3s-0.1-0.2-0.2-0.3c0-0.1-0.1-0.2-0.2-0.3s-0.1-0.2-0.2-0.3
			c-0.1-0.1-0.1-0.2-0.2-0.3c-0.1-0.1-0.1-0.2-0.2-0.2c-0.3-0.4-0.7-0.7-1-1c-0.1-0.1-0.2-0.1-0.2-0.2c-0.1-0.1-0.2-0.1-0.3-0.2
			c-0.1-0.1-0.2-0.1-0.3-0.2c-0.1,0-0.2-0.1-0.3-0.2c-0.1,0-0.2-0.1-0.3-0.2c-0.1,0-0.2-0.1-0.3-0.1c-0.1,0-0.2-0.1-0.3-0.1
			c-0.1,0-0.2-0.1-0.3-0.1c-0.1,0-0.2-0.1-0.3-0.1c-0.1,0-0.2,0-0.4-0.1c-0.1,0-0.2,0-0.4-0.1c-0.1,0-0.2,0-0.3,0
			c-0.2,0-0.5-0.1-0.7,0h-27c-4.1,0-7.4,3.3-7.3,7.3c0,4.1,3.3,7.4,7.3,7.3h9.3l-14.5,14.5c-2.9,2.9-2.9,7.5,0,10.4
			c2.9,2.9,7.5,2.9,10.4,0l14.5-14.5v9.3c0,4.1,3.3,7.4,7.3,7.3c2,0,3.9-0.8,5.2-2.1s2.1-3.2,2.1-5.2v-27
			C1193,594,1193,593.8,1193,593.5z"/>
	</g>
</g>
<g>
	<path class="st11" d="M1125.5,325.6c-0.1,0-0.1-0.1-0.2-0.2c-0.1-0.1-0.2-0.1-0.3-0.2c-0.1,0-0.2-0.1-0.3-0.2
		c-0.1,0-0.2-0.1-0.3-0.2c-0.1,0-0.2-0.1-0.3-0.1c-0.1,0-0.2-0.1-0.3-0.1s-0.2-0.1-0.3-0.1c-0.1,0-0.2-0.1-0.3-0.1
		c-0.1,0-0.2,0-0.3-0.1c-0.1,0-0.2,0-0.3-0.1c-0.1,0-0.2,0-0.4,0c-0.1,0-0.2,0-0.3,0c-0.5,0-1,0-1.5,0c-0.1,0-0.2,0-0.3,0
		c-0.1,0-0.2,0-0.4,0c-0.1,0-0.2,0-0.3,0.1c-0.1,0-0.2,0-0.3,0.1c-0.1,0-0.2,0.1-0.3,0.1c-0.1,0-0.2,0.1-0.3,0.1s-0.2,0.1-0.3,0.1
		c-0.1,0-0.2,0.1-0.3,0.1c-0.1,0-0.2,0.1-0.3,0.2c-0.1,0-0.2,0.1-0.3,0.2c-0.1,0.1-0.2,0.1-0.3,0.2c-0.1,0-0.2,0.1-0.2,0.2
		c-0.2,0.1-0.4,0.3-0.5,0.5l-19.1,19.1c-2.9,2.9-2.9,7.5,0,10.4c2.9,2.9,7.5,2.9,10.4,0l6.6-6.6v20.5c0,4.1,3.3,7.3,7.3,7.3
		c4.1,0,7.3-3.3,7.3-7.3V349l6.6,6.6c2.9,2.9,7.5,2.9,10.4,0c1.4-1.4,2.2-3.3,2.2-5.2c0-1.9-0.7-3.8-2.2-5.2l-19.1-19.1
		C1125.9,325.9,1125.7,325.8,1125.5,325.6z"/>
</g>
<g>
	<g>
		<path class="st11" d="M818.1,708c-0.1-0.2,0-0.4-0.1-0.6c0-0.3-0.1-0.5-0.1-0.8c-0.1-0.2-0.1-0.5-0.2-0.8
			c-0.1-0.2-0.1-0.4-0.1-0.7c-0.1-0.2-0.2-0.5-0.3-0.7c-0.1-0.2-0.1-0.4-0.2-0.6s-0.2-0.5-0.3-0.7c-0.1-0.2-0.2-0.5-0.4-0.6
			c-0.1-0.2-0.3-0.4-0.4-0.6c-0.1-0.2-0.3-0.4-0.4-0.6c-0.1-0.3-0.3-0.4-0.5-0.6c-0.1-0.1-0.2-0.4-0.4-0.5c-0.6-0.8-1.3-1.5-2.1-2.1
			c-0.1-0.1-0.4-0.2-0.5-0.4c-0.2-0.2-0.4-0.3-0.6-0.5c-0.1-0.1-0.4-0.3-0.6-0.4c-0.2-0.1-0.4-0.3-0.6-0.4c-0.2-0.1-0.5-0.2-0.6-0.4
			c-0.2-0.1-0.5-0.2-0.7-0.3c-0.2-0.1-0.4-0.1-0.6-0.2s-0.5-0.2-0.7-0.3c-0.2-0.1-0.4-0.1-0.7-0.1c-0.2-0.1-0.5-0.1-0.8-0.2
			c-0.3,0-0.5-0.1-0.8-0.1c-0.2-0.1-0.5-0.1-0.6-0.1c-0.5-0.1-1-0.1-1.5-0.1H748c-8.3,0-15.1,6.7-15,15c0,8.3,6.7,15.1,15,15h19
			l-29.6,29.6c-5.9,5.9-5.9,15.3,0,21.2c5.9,5.9,15.3,5.9,21.2,0l29.6-29.6v19c0,8.3,6.7,15.1,15,15c4.1,0,7.9-1.7,10.6-4.4
			c2.7-2.7,4.4-6.5,4.4-10.6v-55.2C818.2,709,818.2,708.5,818.1,708z"/>
	</g>
	<g>
		<path class="st11" d="M804.6,887.5c0.2-0.1,0.4,0,0.6-0.1c0.3,0,0.5-0.1,0.8-0.1c0.2-0.1,0.5-0.1,0.8-0.2c0.2-0.1,0.4-0.1,0.7-0.1
			c0.2-0.1,0.5-0.2,0.7-0.3c0.2-0.1,0.4-0.1,0.6-0.2c0.2-0.1,0.5-0.2,0.7-0.3c0.2-0.1,0.5-0.2,0.6-0.4c0.2-0.1,0.4-0.3,0.6-0.4
			c0.2-0.1,0.4-0.3,0.6-0.4c0.3-0.1,0.4-0.3,0.6-0.5c0.1-0.1,0.4-0.2,0.5-0.4c0.8-0.6,1.5-1.3,2.1-2.1c0.1-0.1,0.2-0.4,0.4-0.5
			c0.2-0.2,0.3-0.4,0.5-0.6c0.1-0.1,0.3-0.4,0.4-0.6s0.3-0.4,0.4-0.6c0.1-0.2,0.2-0.5,0.4-0.6c0.1-0.2,0.2-0.5,0.3-0.7
			c0.1-0.2,0.1-0.4,0.2-0.6c0.1-0.2,0.2-0.5,0.3-0.7c0.1-0.2,0.1-0.4,0.1-0.7c0.1-0.2,0.1-0.5,0.2-0.8c0-0.3,0.1-0.5,0.1-0.8
			c0.1-0.2,0.1-0.5,0.1-0.6c0.1-0.5,0.1-1,0.1-1.5v-55.2c0-8.3-6.7-15.1-15-15c-8.3,0-15.1,6.7-15,15v19l-29.6-29.6
			c-5.9-5.9-15.3-5.9-21.2,0s-5.9,15.3,0,21.2l29.6,29.6h-19c-8.3,0-15.1,6.7-15,15c0,4.1,1.7,7.9,4.4,10.6
			c2.7,2.7,6.5,4.4,10.6,4.4h55.2C803.7,887.6,804.2,887.6,804.6,887.5z"/>
	</g>
</g>
<g>
	<circle class="st11" cx="931.9" cy="698.2" r="87.4"/>
	<circle class="st11" cx="931.9" cy="883.9" r="87.4"/>
	<g>
		<path class="st2" d="M911.9,684.4h-12.3V720h-10.1v-35.7h-12.3v-8h34.7V684.4z"/>
		<path class="st2" d="M945.4,708.7c0.2,0,0.5,0,0.7,0.1s0.5,0.2,0.7,0.5l4,4.2c-1.8,2.3-4,4-6.6,5.2s-5.8,1.8-9.4,1.8
			c-3.3,0-6.3-0.6-8.9-1.7s-4.9-2.7-6.7-4.7s-3.2-4.4-4.2-7.1c-1-2.7-1.5-5.7-1.5-8.9c0-3.3,0.5-6.3,1.6-9c1.1-2.7,2.6-5.1,4.5-7.1
			c1.9-2,4.2-3.5,6.9-4.6c2.7-1.1,5.6-1.6,8.9-1.6c1.6,0,3.2,0.1,4.6,0.4s2.8,0.7,4.1,1.2c1.3,0.5,2.4,1.1,3.5,1.8
			c1.1,0.7,2,1.5,2.8,2.3l-3.4,4.6c-0.2,0.3-0.5,0.5-0.8,0.8c-0.3,0.2-0.7,0.3-1.3,0.3c-0.4,0-0.7-0.1-1-0.2c-0.3-0.2-0.7-0.4-1-0.6
			c-0.4-0.2-0.8-0.5-1.2-0.8c-0.4-0.3-0.9-0.5-1.5-0.8c-0.6-0.2-1.3-0.4-2.1-0.6c-0.8-0.2-1.7-0.2-2.8-0.2c-1.7,0-3.2,0.3-4.6,0.9
			c-1.4,0.6-2.6,1.5-3.6,2.7c-1,1.2-1.8,2.7-2.3,4.4c-0.5,1.7-0.8,3.7-0.8,5.9c0,2.2,0.3,4.2,0.9,6c0.6,1.7,1.4,3.2,2.5,4.4
			c1,1.2,2.3,2.1,3.7,2.7c1.4,0.6,2.9,0.9,4.5,0.9c0.9,0,1.8,0,2.5-0.1c0.8-0.1,1.5-0.2,2.1-0.4s1.3-0.5,1.9-0.8
			c0.6-0.3,1.2-0.8,1.8-1.3c0.2-0.2,0.5-0.4,0.8-0.5C944.8,708.8,945.1,708.7,945.4,708.7z"/>
		<path class="st2" d="M970.7,676.3c3.1,0,5.7,0.4,7.9,1.1c2.2,0.7,4,1.7,5.5,3s2.5,2.8,3.2,4.5c0.7,1.7,1,3.6,1,5.6
			c0,2.2-0.4,4.2-1.1,6c-0.7,1.8-1.8,3.4-3.2,4.7c-1.4,1.3-3.3,2.3-5.5,3c-2.2,0.7-4.8,1.1-7.8,1.1h-5.3V720h-10.1v-43.7H970.7z
			 M970.7,697.8c2.6,0,4.5-0.6,5.7-1.9c1.2-1.3,1.7-3,1.7-5.3c0-1-0.1-1.9-0.5-2.7c-0.3-0.8-0.8-1.5-1.4-2.1c-0.6-0.6-1.4-1-2.3-1.4
			c-0.9-0.3-2-0.5-3.3-0.5h-5.3v13.9H970.7z"/>
	</g>
	<g>
		<path class="st2" d="M890.8,897.5c1.4,0,2.6-0.2,3.6-0.7c1.1-0.4,2-1.1,2.7-1.9c0.7-0.8,1.3-1.9,1.7-3.1c0.4-1.2,0.6-2.6,0.6-4.1
			v-25.9h10.1v25.9c0,2.7-0.4,5.1-1.3,7.4c-0.9,2.2-2.1,4.2-3.7,5.8s-3.6,2.9-5.9,3.8c-2.3,0.9-4.9,1.3-7.8,1.3
			c-2.9,0-5.5-0.5-7.9-1.3c-2.3-0.9-4.3-2.2-5.9-3.8s-2.9-3.5-3.7-5.8c-0.9-2.2-1.3-4.7-1.3-7.4v-25.9h10.1v25.9
			c0,1.5,0.2,2.9,0.6,4.1c0.4,1.2,1,2.2,1.7,3.1c0.7,0.8,1.6,1.5,2.7,1.9C888.2,897.3,889.5,897.5,890.8,897.5z"/>
		<path class="st2" d="M957.2,883.7c0,3.2-0.5,6.1-1.6,8.7s-2.6,5-4.6,6.9c-2,2-4.4,3.5-7.2,4.6s-5.9,1.6-9.3,1.6h-17v-43.7h17
			c3.4,0,6.5,0.5,9.3,1.6c2.8,1.1,5.2,2.6,7.2,4.6c2,1.9,3.5,4.2,4.6,6.9S957.2,880.5,957.2,883.7z M946.8,883.7
			c0-2.2-0.3-4.1-0.8-5.9c-0.6-1.7-1.4-3.2-2.4-4.4c-1-1.2-2.3-2.1-3.9-2.8c-1.5-0.6-3.3-1-5.2-1h-6.8v28.1h6.8c1.9,0,3.7-0.3,5.2-1
			c1.5-0.6,2.8-1.6,3.9-2.8c1-1.2,1.9-2.7,2.4-4.4C946.5,887.8,946.8,885.8,946.8,883.7z"/>
		<path class="st2" d="M978.6,861.8c3.1,0,5.7,0.4,7.9,1.1c2.2,0.7,4,1.7,5.5,3c1.4,1.3,2.5,2.8,3.2,4.5s1,3.6,1,5.6
			c0,2.2-0.4,4.2-1.1,6c-0.7,1.8-1.8,3.4-3.2,4.7c-1.4,1.3-3.3,2.3-5.5,3s-4.8,1.1-7.8,1.1h-5.3v14.6h-10.1v-43.7H978.6z
			 M978.6,883.3c2.6,0,4.5-0.6,5.7-1.9s1.7-3,1.7-5.3c0-1-0.1-1.9-0.5-2.7c-0.3-0.8-0.8-1.5-1.4-2.1c-0.6-0.6-1.4-1-2.3-1.4
			c-0.9-0.3-2-0.5-3.3-0.5h-5.3v13.9H978.6z"/>
	</g>
</g>
<g>
	<circle class="st11" cx="1193.4" cy="258.4" r="65.2"/>
	<circle class="st11" cx="1048.4" cy="258.4" r="65.2"/>
	<g>
		<path class="st2" d="M1178.5,248.1h-9.2v26.6h-7.6v-26.6h-9.2v-6h25.9V248.1z"/>
		<path class="st2" d="M1203.5,266.3c0.2,0,0.4,0,0.5,0.1c0.2,0.1,0.4,0.2,0.5,0.3l3,3.2c-1.3,1.7-3,3-4.9,3.9c-2,0.9-4.3,1.3-7,1.3
			c-2.5,0-4.7-0.4-6.7-1.3c-2-0.8-3.6-2-5-3.5s-2.4-3.2-3.1-5.3c-0.7-2-1.1-4.2-1.1-6.6c0-2.4,0.4-4.7,1.2-6.7
			c0.8-2,1.9-3.8,3.3-5.3c1.4-1.5,3.1-2.6,5.1-3.4c2-0.8,4.2-1.2,6.6-1.2c1.2,0,2.4,0.1,3.5,0.3c1.1,0.2,2.1,0.5,3,0.9
			c0.9,0.4,1.8,0.8,2.6,1.4c0.8,0.5,1.5,1.1,2.1,1.7l-2.5,3.4c-0.2,0.2-0.4,0.4-0.6,0.6c-0.2,0.2-0.5,0.3-0.9,0.3
			c-0.3,0-0.5-0.1-0.8-0.2c-0.2-0.1-0.5-0.3-0.8-0.4c-0.3-0.2-0.6-0.4-0.9-0.6c-0.3-0.2-0.7-0.4-1.1-0.6c-0.4-0.2-1-0.3-1.5-0.4
			c-0.6-0.1-1.3-0.2-2.1-0.2c-1.3,0-2.4,0.2-3.4,0.7c-1,0.5-1.9,1.1-2.7,2c-0.8,0.9-1.3,2-1.7,3.3c-0.4,1.3-0.6,2.8-0.6,4.4
			c0,1.7,0.2,3.2,0.7,4.5c0.5,1.3,1.1,2.4,1.9,3.3c0.8,0.9,1.7,1.6,2.7,2c1,0.5,2.2,0.7,3.4,0.7c0.7,0,1.3,0,1.9-0.1
			c0.6-0.1,1.1-0.2,1.6-0.3c0.5-0.2,1-0.4,1.4-0.6c0.4-0.3,0.9-0.6,1.3-1c0.2-0.1,0.4-0.3,0.6-0.4
			C1203.1,266.3,1203.3,266.3,1203.5,266.3z"/>
		<path class="st2" d="M1222.4,242.1c2.3,0,4.3,0.3,5.9,0.8c1.6,0.5,3,1.3,4.1,2.2s1.9,2.1,2.4,3.4c0.5,1.3,0.8,2.7,0.8,4.2
			c0,1.6-0.3,3.1-0.8,4.5c-0.5,1.4-1.3,2.5-2.4,3.5c-1.1,1-2.4,1.7-4.1,2.3c-1.6,0.5-3.6,0.8-5.8,0.8h-3.9v10.9h-7.6v-32.6H1222.4z
			 M1222.4,258.1c2,0,3.4-0.5,4.2-1.4c0.9-0.9,1.3-2.3,1.3-3.9c0-0.7-0.1-1.4-0.3-2c-0.2-0.6-0.6-1.1-1-1.6c-0.5-0.4-1-0.8-1.7-1
			c-0.7-0.2-1.5-0.4-2.5-0.4h-3.9v10.3H1222.4z"/>
	</g>
	<g>
		<path class="st2" d="M1017.8,268.6c1,0,1.9-0.2,2.7-0.5c0.8-0.3,1.5-0.8,2-1.4c0.6-0.6,1-1.4,1.3-2.3c0.3-0.9,0.4-1.9,0.4-3.1
			v-19.3h7.6v19.3c0,2-0.3,3.8-1,5.5c-0.6,1.7-1.6,3.1-2.8,4.3c-1.2,1.2-2.7,2.1-4.4,2.8c-1.7,0.7-3.7,1-5.8,1c-2.2,0-4.1-0.3-5.9-1
			c-1.7-0.7-3.2-1.6-4.4-2.8c-1.2-1.2-2.1-2.6-2.8-4.3c-0.6-1.7-1-3.5-1-5.5v-19.3h7.6v19.3c0,1.1,0.1,2.2,0.4,3.1
			c0.3,0.9,0.7,1.7,1.3,2.3c0.6,0.6,1.2,1.1,2,1.5C1015.8,268.4,1016.7,268.6,1017.8,268.6z"/>
		<path class="st2" d="M1067.2,258.2c0,2.4-0.4,4.5-1.2,6.5s-2,3.7-3.4,5.2c-1.5,1.5-3.3,2.6-5.3,3.4c-2.1,0.8-4.4,1.2-6.9,1.2
			h-12.7v-32.6h12.7c2.5,0,4.8,0.4,6.9,1.2c2.1,0.8,3.9,2,5.3,3.4c1.5,1.4,2.6,3.2,3.4,5.2C1066.8,253.7,1067.2,255.9,1067.2,258.2z
			 M1059.5,258.2c0-1.6-0.2-3.1-0.6-4.4c-0.4-1.3-1-2.4-1.8-3.3c-0.8-0.9-1.7-1.6-2.9-2.1c-1.1-0.5-2.4-0.7-3.9-0.7h-5.1v21h5.1
			c1.4,0,2.7-0.2,3.9-0.7c1.1-0.5,2.1-1.2,2.9-2.1c0.8-0.9,1.4-2,1.8-3.3C1059.3,261.3,1059.5,259.9,1059.5,258.2z"/>
		<path class="st2" d="M1083.2,241.9c2.3,0,4.3,0.3,5.9,0.8c1.6,0.5,3,1.3,4.1,2.2c1.1,1,1.9,2.1,2.4,3.4c0.5,1.3,0.8,2.7,0.8,4.2
			c0,1.6-0.3,3.1-0.8,4.5c-0.5,1.4-1.3,2.5-2.4,3.5c-1.1,1-2.4,1.7-4.1,2.3c-1.6,0.5-3.6,0.8-5.8,0.8h-3.9v10.9h-7.6v-32.6H1083.2z
			 M1083.2,257.9c2,0,3.4-0.5,4.2-1.4c0.9-0.9,1.3-2.3,1.3-3.9c0-0.7-0.1-1.4-0.3-2c-0.2-0.6-0.6-1.1-1-1.6c-0.5-0.4-1-0.8-1.7-1
			c-0.7-0.2-1.5-0.4-2.5-0.4h-3.9v10.3H1083.2z"/>
	</g>
</g>
<g>
	<circle class="st11" cx="1120.2" cy="479.4" r="87.4"/>
	<g>
		<path class="st2" d="M1088.4,459.5v39.6h-9.2v-16.8h-16.1v16.8h-9.2v-39.6h9.2v16.6h16.1v-16.6H1088.4z"/>
		<path class="st2" d="M1124.6,466.8h-11.2v32.3h-9.2v-32.3h-11.2v-7.3h31.5V466.8z"/>
		<path class="st2" d="M1157.7,466.8h-11.2v32.3h-9.2v-32.3h-11.2v-7.3h31.5V466.8z"/>
		<path class="st2" d="M1176.3,459.5c2.8,0,5.2,0.3,7.2,1c2,0.7,3.7,1.6,5,2.7c1.3,1.2,2.3,2.5,2.9,4.1c0.6,1.6,0.9,3.3,0.9,5.1
			c0,2-0.3,3.8-1,5.4s-1.6,3.1-2.9,4.2c-1.3,1.2-3,2.1-5,2.8c-2,0.7-4.4,1-7.1,1h-4.8v13.2h-9.2v-39.6H1176.3z M1176.3,479
			c2.4,0,4.1-0.6,5.2-1.7c1.1-1.1,1.6-2.7,1.6-4.8c0-0.9-0.1-1.7-0.4-2.5c-0.3-0.7-0.7-1.4-1.2-1.9c-0.6-0.5-1.3-0.9-2.1-1.2
			c-0.8-0.3-1.8-0.4-3-0.4h-4.8V479H1176.3z"/>
	</g>
</g>
<g>
	<g>
		<circle class="st13" cx="987.3" cy="407.1" r="46.3"/>
		<g class="st14">
			<path class="st2" d="M977.9,407.1c0-0.3,0.1-0.7,0.2-1c0.1-0.3,0.3-0.6,0.5-0.8c0.2-0.2,0.5-0.4,0.8-0.5c0.3-0.1,0.6-0.2,1-0.2
				c0.4,0,0.7,0.1,1,0.2c0.3,0.1,0.6,0.3,0.8,0.5c0.2,0.2,0.4,0.5,0.5,0.8c0.1,0.3,0.2,0.6,0.2,1c0,0.3-0.1,0.7-0.2,1
				c-0.1,0.3-0.3,0.6-0.5,0.8s-0.5,0.4-0.8,0.5c-0.3,0.1-0.6,0.2-1,0.2c-0.4,0-0.7-0.1-1-0.2c-0.3-0.1-0.6-0.3-0.8-0.5
				s-0.4-0.5-0.5-0.8S977.9,407.4,977.9,407.1z"/>
			<path class="st2" d="M984.8,407.1c0-0.3,0.1-0.7,0.2-1c0.1-0.3,0.3-0.6,0.5-0.8c0.2-0.2,0.5-0.4,0.8-0.5c0.3-0.1,0.6-0.2,1-0.2
				c0.4,0,0.7,0.1,1,0.2c0.3,0.1,0.6,0.3,0.8,0.5c0.2,0.2,0.4,0.5,0.5,0.8c0.1,0.3,0.2,0.6,0.2,1c0,0.3-0.1,0.7-0.2,1
				c-0.1,0.3-0.3,0.6-0.5,0.8s-0.5,0.4-0.8,0.5c-0.3,0.1-0.6,0.2-1,0.2c-0.4,0-0.7-0.1-1-0.2c-0.3-0.1-0.6-0.3-0.8-0.5
				s-0.4-0.5-0.5-0.8S984.8,407.4,984.8,407.1z"/>
			<path class="st2" d="M991.6,407.1c0-0.3,0.1-0.7,0.2-1c0.1-0.3,0.3-0.6,0.5-0.8c0.2-0.2,0.5-0.4,0.8-0.5c0.3-0.1,0.6-0.2,1-0.2
				c0.4,0,0.7,0.1,1,0.2c0.3,0.1,0.6,0.3,0.8,0.5c0.2,0.2,0.4,0.5,0.5,0.8c0.1,0.3,0.2,0.6,0.2,1c0,0.3-0.1,0.7-0.2,1
				c-0.1,0.3-0.3,0.6-0.5,0.8s-0.5,0.4-0.8,0.5c-0.3,0.1-0.6,0.2-1,0.2c-0.4,0-0.7-0.1-1-0.2c-0.3-0.1-0.6-0.3-0.8-0.5
				s-0.4-0.5-0.5-0.8S991.6,407.4,991.6,407.1z"/>
		</g>
	</g>
	<g>
		<circle class="st13" cx="1253.1" cy="407.1" r="46.3"/>
		<g class="st14">
			<path class="st2" d="M1243.7,407.1c0-0.3,0.1-0.7,0.2-1c0.1-0.3,0.3-0.6,0.5-0.8c0.2-0.2,0.5-0.4,0.8-0.5c0.3-0.1,0.6-0.2,1-0.2
				c0.4,0,0.7,0.1,1,0.2c0.3,0.1,0.6,0.3,0.8,0.5c0.2,0.2,0.4,0.5,0.5,0.8c0.1,0.3,0.2,0.6,0.2,1c0,0.3-0.1,0.7-0.2,1
				c-0.1,0.3-0.3,0.6-0.5,0.8s-0.5,0.4-0.8,0.5c-0.3,0.1-0.6,0.2-1,0.2c-0.4,0-0.7-0.1-1-0.2c-0.3-0.1-0.6-0.3-0.8-0.5
				s-0.4-0.5-0.5-0.8S1243.7,407.4,1243.7,407.1z"/>
			<path class="st2" d="M1250.6,407.1c0-0.3,0.1-0.7,0.2-1c0.1-0.3,0.3-0.6,0.5-0.8c0.2-0.2,0.5-0.4,0.8-0.5c0.3-0.1,0.6-0.2,1-0.2
				c0.4,0,0.7,0.1,1,0.2c0.3,0.1,0.6,0.3,0.8,0.5c0.2,0.2,0.4,0.5,0.5,0.8c0.1,0.3,0.2,0.6,0.2,1c0,0.3-0.1,0.7-0.2,1
				c-0.1,0.3-0.3,0.6-0.5,0.8s-0.5,0.4-0.8,0.5c-0.3,0.1-0.6,0.2-1,0.2c-0.4,0-0.7-0.1-1-0.2c-0.3-0.1-0.6-0.3-0.8-0.5
				s-0.4-0.5-0.5-0.8S1250.6,407.4,1250.6,407.1z"/>
			<path class="st2" d="M1257.5,407.1c0-0.3,0.1-0.7,0.2-1c0.1-0.3,0.3-0.6,0.5-0.8c0.2-0.2,0.5-0.4,0.8-0.5c0.3-0.1,0.6-0.2,1-0.2
				c0.4,0,0.7,0.1,1,0.2c0.3,0.1,0.6,0.3,0.8,0.5c0.2,0.2,0.4,0.5,0.5,0.8c0.1,0.3,0.2,0.6,0.2,1c0,0.3-0.1,0.7-0.2,1
				c-0.1,0.3-0.3,0.6-0.5,0.8s-0.5,0.4-0.8,0.5c-0.3,0.1-0.6,0.2-1,0.2c-0.4,0-0.7-0.1-1-0.2c-0.3-0.1-0.6-0.3-0.8-0.5
				s-0.4-0.5-0.5-0.8S1257.5,407.4,1257.5,407.1z"/>
		</g>
	</g>
	<g>
		<circle class="st13" cx="987.3" cy="551.6" r="46.3"/>
		<g class="st14">
			<path class="st2" d="M977.9,551.6c0-0.3,0.1-0.7,0.2-1c0.1-0.3,0.3-0.6,0.5-0.8c0.2-0.2,0.5-0.4,0.8-0.5c0.3-0.1,0.6-0.2,1-0.2
				c0.4,0,0.7,0.1,1,0.2c0.3,0.1,0.6,0.3,0.8,0.5c0.2,0.2,0.4,0.5,0.5,0.8c0.1,0.3,0.2,0.6,0.2,1c0,0.3-0.1,0.7-0.2,1
				c-0.1,0.3-0.3,0.6-0.5,0.8s-0.5,0.4-0.8,0.5c-0.3,0.1-0.6,0.2-1,0.2c-0.4,0-0.7-0.1-1-0.2c-0.3-0.1-0.6-0.3-0.8-0.5
				s-0.4-0.5-0.5-0.8S977.9,552,977.9,551.6z"/>
			<path class="st2" d="M984.8,551.6c0-0.3,0.1-0.7,0.2-1c0.1-0.3,0.3-0.6,0.5-0.8c0.2-0.2,0.5-0.4,0.8-0.5c0.3-0.1,0.6-0.2,1-0.2
				c0.4,0,0.7,0.1,1,0.2c0.3,0.1,0.6,0.3,0.8,0.5c0.2,0.2,0.4,0.5,0.5,0.8c0.1,0.3,0.2,0.6,0.2,1c0,0.3-0.1,0.7-0.2,1
				c-0.1,0.3-0.3,0.6-0.5,0.8s-0.5,0.4-0.8,0.5c-0.3,0.1-0.6,0.2-1,0.2c-0.4,0-0.7-0.1-1-0.2c-0.3-0.1-0.6-0.3-0.8-0.5
				s-0.4-0.5-0.5-0.8S984.8,552,984.8,551.6z"/>
			<path class="st2" d="M991.6,551.6c0-0.3,0.1-0.7,0.2-1c0.1-0.3,0.3-0.6,0.5-0.8c0.2-0.2,0.5-0.4,0.8-0.5c0.3-0.1,0.6-0.2,1-0.2
				c0.4,0,0.7,0.1,1,0.2c0.3,0.1,0.6,0.3,0.8,0.5c0.2,0.2,0.4,0.5,0.5,0.8c0.1,0.3,0.2,0.6,0.2,1c0,0.3-0.1,0.7-0.2,1
				c-0.1,0.3-0.3,0.6-0.5,0.8s-0.5,0.4-0.8,0.5c-0.3,0.1-0.6,0.2-1,0.2c-0.4,0-0.7-0.1-1-0.2c-0.3-0.1-0.6-0.3-0.8-0.5
				s-0.4-0.5-0.5-0.8S991.6,552,991.6,551.6z"/>
		</g>
	</g>
	<g>
		<circle class="st13" cx="1253.1" cy="551.6" r="46.3"/>
		<g class="st14">
			<path class="st2" d="M1243.7,551.6c0-0.3,0.1-0.7,0.2-1c0.1-0.3,0.3-0.6,0.5-0.8c0.2-0.2,0.5-0.4,0.8-0.5c0.3-0.1,0.6-0.2,1-0.2
				c0.4,0,0.7,0.1,1,0.2c0.3,0.1,0.6,0.3,0.8,0.5c0.2,0.2,0.4,0.5,0.5,0.8c0.1,0.3,0.2,0.6,0.2,1c0,0.3-0.1,0.7-0.2,1
				c-0.1,0.3-0.3,0.6-0.5,0.8s-0.5,0.4-0.8,0.5c-0.3,0.1-0.6,0.2-1,0.2c-0.4,0-0.7-0.1-1-0.2c-0.3-0.1-0.6-0.3-0.8-0.5
				s-0.4-0.5-0.5-0.8S1243.7,552,1243.7,551.6z"/>
			<path class="st2" d="M1250.6,551.6c0-0.3,0.1-0.7,0.2-1c0.1-0.3,0.3-0.6,0.5-0.8c0.2-0.2,0.5-0.4,0.8-0.5c0.3-0.1,0.6-0.2,1-0.2
				c0.4,0,0.7,0.1,1,0.2c0.3,0.1,0.6,0.3,0.8,0.5c0.2,0.2,0.4,0.5,0.5,0.8c0.1,0.3,0.2,0.6,0.2,1c0,0.3-0.1,0.7-0.2,1
				c-0.1,0.3-0.3,0.6-0.5,0.8s-0.5,0.4-0.8,0.5c-0.3,0.1-0.6,0.2-1,0.2c-0.4,0-0.7-0.1-1-0.2c-0.3-0.1-0.6-0.3-0.8-0.5
				s-0.4-0.5-0.5-0.8S1250.6,552,1250.6,551.6z"/>
			<path class="st2" d="M1257.5,551.6c0-0.3,0.1-0.7,0.2-1c0.1-0.3,0.3-0.6,0.5-0.8c0.2-0.2,0.5-0.4,0.8-0.5c0.3-0.1,0.6-0.2,1-0.2
				c0.4,0,0.7,0.1,1,0.2c0.3,0.1,0.6,0.3,0.8,0.5c0.2,0.2,0.4,0.5,0.5,0.8c0.1,0.3,0.2,0.6,0.2,1c0,0.3-0.1,0.7-0.2,1
				c-0.1,0.3-0.3,0.6-0.5,0.8s-0.5,0.4-0.8,0.5c-0.3,0.1-0.6,0.2-1,0.2c-0.4,0-0.7-0.1-1-0.2c-0.3-0.1-0.6-0.3-0.8-0.5
				s-0.4-0.5-0.5-0.8S1257.5,552,1257.5,551.6z"/>
		</g>
	</g>
</g>
<path class="st2" d="M162.5,426.3c-24.7,0-44.8,20.1-44.8,44.8s20.1,44.8,44.8,44.8c7.8,0,15.5-2,22.2-5.9c1.8-1,2.5-3.4,1.4-5.2
	c-1-1.8-3.4-2.5-5.2-1.4c-5.6,3.2-11.9,4.9-18.4,4.9c-20.5,0-37.2-16.7-37.2-37.2c0-20.5,16.7-37.2,37.2-37.2s37.2,16.7,37.2,37.2
	c0,13-5.9,17.9-9.8,18c-3,0.1-5.2-2.3-5.5-6.1v-11.3c0-0.2,0-0.4,0-0.6s0-0.4,0-0.6v-17.4c0-2.1-1.7-3.8-3.8-3.8
	c-2.1,0-3.8,1.7-3.8,3.8v1.5c-3.8-3.3-8.8-5.3-14.2-5.3c-12,0-21.8,9.8-21.8,21.8s9.8,21.8,21.8,21.8c5.8,0,11-2.3,14.9-5.9
	c1.8,6,6.7,9.9,12.7,9.7c8.3-0.3,17.1-8.4,17.1-25.6C207.3,446.4,187.2,426.3,162.5,426.3z M176.8,471.7
	c-0.3,7.6-6.6,13.6-14.2,13.6c-7.9,0-14.2-6.4-14.2-14.2s6.4-14.2,14.2-14.2c7.6,0,13.9,6,14.2,13.6V471.7z"/>
<g>
	<path class="st11" d="M250.7,830.8c-1.9-1.9-4.5-3-7.3-3H94.5v-49.3c0-1.2-0.9-2.1-2.1-2.1h-1.6v-43.3c0-1.5-0.6-2.9-1.6-4
		c0,0-0.1-0.1-0.1-0.1l-1.5,1.5l1.5-1.5c-1.1-1.1-2.5-1.7-4.1-1.7h0c-1.5,0-2.9,0.6-4,1.6c0,0-0.1,0.1-0.1,0.1l1.5,1.5l-1.5-1.5
		c-1.1,1.1-1.7,2.5-1.7,4.1v43.3h-1.6c-1.2,0-2.1,0.9-2.1,2.1v49.3H61.8c-2.8,0-5.4,1.2-7.3,3c-1.9,1.9-3,4.5-3,7.3v32.1
		c0,2.8,1.2,5.4,3,7.3c1.9,1.9,4.5,3,7.3,3h181.6c2.8,0,5.4-1.2,7.3-3c1.9-1.9,3-4.5,3-7.3v-32.1
		C253.7,835.2,252.5,832.6,250.7,830.8z"/>
	<g>
		<path d="M61.8,827.7h181.6c2.8,0,5.4,1.2,7.3,3c1.9,1.9,3,4.5,3,7.3v32.1c0,2.8-1.2,5.4-3,7.3c-1.9,1.9-4.5,3-7.3,3H61.8
			c-2.8,0-5.4-1.2-7.3-3c-1.9-1.9-3-4.5-3-7.3v-32.1c0-2.8,1.2-5.4,3-7.3C56.4,828.9,59,827.7,61.8,827.7z M243.4,831.9H61.8
			c-1.7,0-3.2,0.7-4.3,1.8c-1.1,1.1-1.8,2.6-1.8,4.3v32.1c0,1.7,0.7,3.2,1.8,4.3c1.1,1.1,2.6,1.8,4.3,1.8h181.6
			c1.7,0,3.2-0.7,4.3-1.8c1.1-1.1,1.8-2.6,1.8-4.3v-32.1c0-1.7-0.7-3.2-1.8-4.3C246.6,832.6,245.1,831.9,243.4,831.9z"/>
		<path d="M77.3,844.2c2.7,0,5.2,1.1,7,2.9c1.8,1.8,2.9,4.3,2.9,7c0,2.7-1.1,5.2-2.9,7c-1.8,1.8-4.3,2.9-7,2.9c-2.7,0-5.2-1.1-7-2.9
			c-1.8-1.8-2.9-4.3-2.9-7c0-2.7,1.1-5.2,2.9-7C72.1,845.3,74.6,844.2,77.3,844.2z"/>
		<circle class="st8" cx="103.6" cy="854.1" r="3.2"/>
		<circle class="st8" cx="115.9" cy="854.1" r="3.2"/>
		<circle class="st8" cx="128.2" cy="854.1" r="3.2"/>
		<path d="M235.7,856.2c1.2,0,2.1-0.9,2.1-2.1c0-1.2-0.9-2.1-2.1-2.1h-78.5c-1.2,0-2.1,0.9-2.1,2.1c0,1.2,0.9,2.1,2.1,2.1H235.7z"/>
		<path d="M77.5,776.4h14.9c1.2,0,2.1,0.9,2.1,2.1v51.4c0,1.2-0.9,2.1-2.1,2.1H77.5c-1.2,0-2.1-0.9-2.1-2.1v-51.4
			C75.4,777.3,76.3,776.4,77.5,776.4z M90.3,780.6H79.6v47.2h10.7V780.6z"/>
		<path d="M85,727.2L85,727.2c1.6,0,3.1,0.7,4.1,1.7l-1.5,1.5l1.5-1.5c0,0,0.1,0.1,0.1,0.1c1,1,1.6,2.4,1.6,4v45.4
			c0,1.2-0.9,2.1-2.1,2.1h-7.5c-1.2,0-2.1-0.9-2.1-2.1v-45.4c0-1.6,0.7-3.1,1.7-4.1l1.5,1.5l-1.5-1.5c0,0,0.1-0.1,0.1-0.1
			C82,727.8,83.4,727.2,85,727.2z M85,731.4L85,731.4c-0.4,0-0.8,0.2-1.1,0.4c0,0,0,0-0.1,0.1l0,0l0,0c-0.3,0.3-0.5,0.7-0.5,1.2
			v43.3h3.3v-43.3c0-0.4-0.2-0.8-0.4-1.1c0,0,0,0-0.1-0.1l0,0l0,0C85.8,731.6,85.4,731.4,85,731.4z"/>
		<path class="st15" d="M102.2,690.9c13.9,13.9,13.9,36.3,0,50.2"/>
		<path d="M103.7,689.4c-0.8-0.8-2.2-0.8-3,0c-0.8,0.8-0.8,2.2,0,3c6.5,6.5,9.8,15.1,9.8,23.6c0,8.5-3.3,17.1-9.8,23.6
			c-0.8,0.8-0.8,2.2,0,3c0.8,0.8,2.2,0.8,3,0c7.3-7.3,11-17,11-26.6C114.7,706.4,111,696.7,103.7,689.4z"/>
		<path class="st15" d="M97.4,699.7c9,9,9,23.5,0,32.5"/>
		<path d="M98.9,698.2c-0.8-0.8-2.2-0.8-3,0c-0.8,0.8-0.8,2.2,0,3c4.1,4.1,6.1,9.4,6.1,14.8c0,5.3-2,10.7-6.1,14.8
			c-0.8,0.8-0.8,2.2,0,3s2.2,0.8,3,0c4.9-4.9,7.4-11.3,7.4-17.8C106.3,709.6,103.8,703.1,98.9,698.2z"/>
		<path class="st15" d="M92.7,708.6c4.1,4.1,4.1,10.8,0,14.9"/>
		<path d="M94.2,707.1c-0.8-0.8-2.2-0.8-3,0s-0.8,2.2,0,3c1.6,1.6,2.5,3.8,2.5,5.9c0,2.2-0.8,4.3-2.5,5.9c-0.8,0.8-0.8,2.2,0,3
			c0.8,0.8,2.2,0.8,3,0c2.5-2.5,3.7-5.7,3.7-8.9C97.9,712.8,96.6,709.5,94.2,707.1z"/>
		<path class="st15" d="M67.7,690.9c-13.9,13.9-13.9,36.3,0,50.2"/>
		<path d="M69.2,692.4c0.8-0.8,0.8-2.2,0-3s-2.2-0.8-3,0l0,0c-7.3,7.3-11,17-11,26.6c0,9.6,3.7,19.2,11,26.6l0,0
			c0.8,0.8,2.2,0.8,3,0c0.8-0.8,0.8-2.2,0-3l0,0c-6.5-6.5-9.8-15.1-9.8-23.6C59.4,707.4,62.7,698.9,69.2,692.4
			C69.2,692.4,69.2,692.4,69.2,692.4z"/>
		<path class="st15" d="M72.5,699.7c-9,9-9,23.5,0,32.5"/>
		<path d="M74,701.2c0.8-0.8,0.8-2.2,0-3c-0.8-0.8-2.2-0.8-3,0c-4.9,4.9-7.4,11.3-7.4,17.8c0,6.4,2.5,12.9,7.4,17.8
			c0.8,0.8,2.2,0.8,3,0c0.8-0.8,0.8-2.2,0-3c-4.1-4.1-6.1-9.4-6.1-14.8C67.8,710.6,69.9,705.3,74,701.2z"/>
		<path class="st15" d="M77.2,708.6c-4.1,4.1-4.1,10.8,0,14.9"/>
		<path d="M78.7,710c0.8-0.8,0.8-2.2,0-3c-0.8-0.8-2.2-0.8-3,0c-2.5,2.5-3.7,5.7-3.7,8.9s1.2,6.5,3.7,8.9c0.8,0.8,2.2,0.8,3,0
			c0.8-0.8,0.8-2.2,0-3c-1.6-1.6-2.5-3.8-2.5-5.9S77.1,711.7,78.7,710z"/>
		<path d="M85.1,709.3c1.8,0,3.5,0.7,4.7,1.9c1.2,1.2,1.9,2.9,1.9,4.7c0,1.8-0.7,3.5-1.9,4.7s-2.9,1.9-4.7,1.9
			c-1.8,0-3.5-0.7-4.7-1.9c-1.2-1.2-1.9-2.9-1.9-4.7c0-1.8,0.7-3.5,1.9-4.7C81.6,710.1,83.3,709.3,85.1,709.3z M86.8,714.3
			c-0.4-0.4-1-0.7-1.7-0.7c-0.7,0-1.3,0.3-1.7,0.7c-0.4,0.4-0.7,1-0.7,1.7c0,0.7,0.3,1.3,0.7,1.7c0.4,0.4,1,0.7,1.7,0.7
			c0.7,0,1.3-0.3,1.7-0.7c0.4-0.4,0.7-1,0.7-1.7C87.5,715.3,87.3,714.7,86.8,714.3z"/>
	</g>
	<path class="st16" d="M81.4,850.1c-1-1-2.5-1.7-4.1-1.7c-1.6,0-3,0.6-4.1,1.7c-1,1-1.7,2.5-1.7,4.1s0.6,3,1.7,4.1
		c1,1,2.5,1.7,4.1,1.7s3-0.6,4.1-1.7c1-1,1.7-2.5,1.7-4.1S82.4,851.1,81.4,850.1z"/>
</g>
<g>
	<path class="st17" d="M514.8,697.8h164.3c6.2,0,11.9,2.5,16,6.6c4.1,4.1,6.6,9.8,6.6,16v108.3c0,6.2-2.5,11.9-6.6,16
		c-4.1,4.1-9.8,6.6-16,6.6h-64.3l1.3,16.7h27.1c2.2,0,4.3,0.9,5.7,2.4c1.5,1.5,2.4,3.5,2.4,5.7v5.1c0,1.7-1.3,3-3,3H545.5
		c-1.7,0-3-1.3-3-3v-5.1c0-2.2,0.9-4.3,2.4-5.7c1.5-1.5,3.5-2.4,5.7-2.4h27.1l1.3-16.7h-64.3c-6.2,0-11.9-2.5-16-6.6
		c-4.1-4.1-6.6-9.8-6.6-16V720.4c0-6.2,2.5-11.9,6.6-16C502.9,700.3,508.5,697.8,514.8,697.8L514.8,697.8z"/>
	<path class="st8" d="M695.1,704.4c-4.1-4.1-9.8-6.6-16-6.6H514.8l0,0c-6.2,0-11.9,2.5-16,6.6c-4.1,4.1-6.6,9.8-6.6,16v108.3
		c0,6.2,2.5,11.9,6.6,16c4.1,4.1,9.8,6.6,16,6.6h64.3l-1.3,16.7h-27.1c-2.2,0-4.3,0.9-5.7,2.4c-1.5,1.5-2.4,3.5-2.4,5.7v5.1
		c0,1.7,1.3,3,3,3h102.8c1.7,0,3-1.3,3-3v-5.1c0-2.2-0.9-4.3-2.4-5.7c-1.5-1.5-3.5-2.4-5.7-2.4h-27.1l-1.3-16.7h64.3
		c6.2,0,11.9-2.5,16-6.6c4.1-4.1,6.6-9.8,6.6-16V720.4C701.7,714.2,699.2,708.5,695.1,704.4z M643.2,874L643.2,874
		c0.6,0,1.1,0.2,1.5,0.6c0.4,0.4,0.6,0.9,0.6,1.5v2.1h-96.8v-2.1c0-0.6,0.2-1.1,0.6-1.5c0.4-0.4,0.9-0.6,1.5-0.6H643.2z
		 M583.8,868.1l1.3-16.7h23.7l1.3,16.7H583.8z M695.7,817H498.1l0-96.6c0-4.6,1.9-8.7,4.9-11.7c3-3,7.2-4.9,11.7-4.9l164.3,0
		c4.6,0,8.7,1.9,11.7,4.9c3,3,4.9,7.2,4.9,11.7V817z"/>
	<path class="st8" d="M695.7,823H498.1v5.7c0,4.6,1.9,8.7,4.9,11.7c3,3,7.2,4.9,11.7,4.9h164.3c4.6,0,8.7-1.9,11.7-4.9
		c3-3,4.9-7.2,4.9-11.7L695.7,823z"/>
	<path class="st18" d="M695.7,823H498.1v5.7c0,4.6,1.9,8.7,4.9,11.7c3,3,7.2,4.9,11.7,4.9h164.3c4.6,0,8.7-1.9,11.7-4.9
		c3-3,4.9-7.2,4.9-11.7L695.7,823z"/>
	<g>
		<text transform="matrix(1 0 0 1 510.1214 775.1868)" class="st2 st19 st20">140.241.195.113</text>
	</g>
</g>
<path class="st0" d="M388.5,112.6c0-0.7-0.3-1.3-0.8-1.7l-12.8-11V81.2c0-3.6-2.9-6.5-6.5-6.5h-22.8c0,0,0,0-0.1-0.1l-20-17
	c-0.9-0.7-2.1-0.7-3,0l-19.9,17.1h-23.6c-3.6,0-6.5,2.9-6.5,6.5v19.3l-12.1,10.4c-0.5,0.4-0.8,1.1-0.8,1.7c0,0,0,0.1,0,0.1v80.1
	c0,3.3,2.7,6,6,6h116.9c3.3,0,6-2.7,6-6L388.5,112.6L388.5,112.6z"/>
<path class="st12" d="M388.9,112.6c0-0.7-0.3-1.3-0.8-1.7l-12.8-11V81.2c0-3.6-2.9-6.5-6.5-6.5H346c0,0,0,0-0.1-0.1l-20-17
	c-0.9-0.7-2.1-0.7-3,0l-19.9,17.1h-23.6c-3.6,0-6.5,2.9-6.5,6.5v19.3l-12.1,10.4c-0.5,0.4-0.8,1.1-0.8,1.7c0,0,0,0.1,0,0.1v80.1
	c0,3.3,2.7,6,6,6h116.9c3.3,0,6-2.7,6-6L388.9,112.6L388.9,112.6z M306.7,153.7l-42.2,36.1v-72.3L306.7,153.7z M310.3,156.8
	l12.7,10.9c0.4,0.4,1,0.6,1.5,0.6c0.5,0,1.1-0.2,1.5-0.6l12.7-10.9l43.7,37.4H266.6L310.3,156.8z M342.1,153.7l42.2-36.2v72.3
	L342.1,153.7z M383.1,112.6l-7.8,6.7v-13.4L383.1,112.6z M324.5,62.3l14.5,12.3h-28.8L324.5,62.3z M279.5,79.2h89.3c1.1,0,2,0.9,2,2
	v19.3c0,0.3,0,0.5,0,0.8v21.9l-46.3,39.7l-46.9-40.2V81.2C277.5,80.1,278.4,79.2,279.5,79.2z M273,106.5v12.3l-7.1-6.1L273,106.5z"
	/>
<path class="st2" d="M324.1,101c-14.9,0-26.9,12.1-26.9,26.9s12.1,26.9,26.9,26.9c4.7,0,9.3-1.2,13.4-3.5c1.1-0.6,1.5-2,0.8-3.1
	c-0.6-1.1-2-1.5-3.1-0.8c-3.4,1.9-7.2,2.9-11.1,2.9c-12.3,0-22.4-10-22.4-22.4c0-12.3,10-22.4,22.4-22.4s22.4,10,22.4,22.4
	c0,7.8-3.5,10.8-5.9,10.8c-1.8,0.1-3.1-1.4-3.3-3.7v-6.8c0-0.1,0-0.3,0-0.4c0-0.1,0-0.3,0-0.4v-10.4c0-1.3-1-2.3-2.3-2.3
	c-1.3,0-2.3,1-2.3,2.3v0.9c-2.3-2-5.3-3.2-8.6-3.2c-7.2,0-13.1,5.9-13.1,13.1s5.9,13.1,13.1,13.1c3.5,0,6.6-1.4,9-3.6
	c1.1,3.6,4,5.9,7.7,5.8c5-0.2,10.3-5.1,10.3-15.4C351.1,113.1,339,101,324.1,101z M332.7,128.3c-0.2,4.5-4,8.2-8.6,8.2
	c-4.7,0-8.6-3.8-8.6-8.6s3.8-8.6,8.6-8.6c4.6,0,8.3,3.6,8.6,8.2V128.3z"/>
<g>
	<path class="st11" d="M510.1,154.3c1.1-1.1,2.6-1.7,4.2-1.7h85.3v-28.2c0-0.7,0.5-1.2,1.2-1.2h0.9V98.3c0-0.9,0.3-1.7,0.9-2.3
		c0,0,0-0.1,0.1-0.1l0.9,0.9l-0.8-0.9c0.6-0.6,1.4-1,2.4-1h0c0.9,0,1.7,0.3,2.3,0.9c0,0,0.1,0,0.1,0.1l-0.9,0.9l0.9-0.8
		c0.6,0.6,1,1.4,1,2.4v24.8h0.9c0.7,0,1.2,0.5,1.2,1.2v28.2h7.8c1.6,0,3.1,0.7,4.2,1.7c1.1,1.1,1.7,2.6,1.7,4.2v18.4
		c0,1.6-0.7,3.1-1.7,4.2c-1.1,1.1-2.6,1.7-4.2,1.7H514.2c-1.6,0-3.1-0.7-4.2-1.7c-1.1-1.1-1.7-2.6-1.7-4.2v-18.4
		C508.3,156.9,509,155.4,510.1,154.3z"/>
	<g>
		<path d="M622.5,154.3c1.1,1.1,1.7,2.6,1.7,4.2v18.4c0,1.6-0.7,3.1-1.7,4.2c-1.1,1.1-2.6,1.7-4.2,1.7H514.2c-1.6,0-3.1-0.7-4.2-1.7
			c-1.1-1.1-1.7-2.6-1.7-4.2v-18.4c0-1.6,0.7-3.1,1.7-4.2c1.1-1.1,2.6-1.7,4.2-1.7h104.1C620,152.6,621.5,153.3,622.5,154.3z
			 M511.8,156c-0.6,0.6-1,1.5-1,2.5v18.4c0,1,0.4,1.8,1,2.5c0.6,0.6,1.5,1,2.5,1h104.1c1,0,1.8-0.4,2.5-1c0.6-0.6,1-1.5,1-2.5v-18.4
			c0-1-0.4-1.8-1-2.5c-0.6-0.6-1.5-1-2.5-1H514.2C513.3,155,512.4,155.4,511.8,156z"/>
		<path d="M613.5,163.7c1,1,1.7,2.5,1.7,4c0,1.6-0.6,3-1.7,4c-1,1-2.5,1.7-4,1.7c-1.6,0-3-0.6-4-1.7c-1-1-1.7-2.5-1.7-4
			c0-1.6,0.6-3,1.7-4c1-1,2.5-1.7,4-1.7C611,162,612.5,162.7,613.5,163.7z"/>
		<circle class="st8" cx="594.4" cy="167.7" r="1.8"/>
		<circle class="st8" cx="587.3" cy="167.7" r="1.8"/>
		<circle class="st8" cx="580.3" cy="167.7" r="1.8"/>
		<path d="M563.6,168.9c0.7,0,1.2-0.5,1.2-1.2c0-0.7-0.5-1.2-1.2-1.2h-45c-0.7,0-1.2,0.5-1.2,1.2c0,0.7,0.5,1.2,1.2,1.2H563.6z"/>
		<path d="M610.6,124.4v29.5c0,0.7-0.5,1.2-1.2,1.2h-8.6c-0.7,0-1.2-0.5-1.2-1.2v-29.5c0-0.7,0.5-1.2,1.2-1.2h8.6
			C610,123.1,610.6,123.7,610.6,124.4z M602,152.6h6.2v-27H602V152.6z"/>
		<path d="M607.3,95.9C607.4,95.9,607.4,95.9,607.3,95.9l-0.8,0.9L607.3,95.9c0.7,0.7,1.1,1.5,1.1,2.4v26c0,0.7-0.5,1.2-1.2,1.2
			h-4.3c-0.7,0-1.2-0.5-1.2-1.2v-26c0-0.9,0.3-1.7,0.9-2.3c0,0,0-0.1,0.1-0.1l0.9,0.9l-0.8-0.9c0.6-0.6,1.4-1,2.4-1h0
			C605.9,95,606.7,95.3,607.3,95.9z M604.4,97.7L604.4,97.7L604.4,97.7C604.4,97.7,604.4,97.7,604.4,97.7c-0.2,0.2-0.3,0.4-0.3,0.7
			v24.8h1.9V98.3c0-0.3-0.1-0.5-0.3-0.7l0,0l0,0c0,0,0,0,0,0c-0.2-0.1-0.4-0.2-0.6-0.2h0C604.8,97.4,604.6,97.5,604.4,97.7z"/>
		<path class="st15" d="M595.2,102.9c-7.9-7.9-7.9-20.8,0-28.8"/>
		<path d="M588,88.5c0,5.5,2.1,11,6.3,15.2c0.5,0.5,1.2,0.5,1.7,0c0.5-0.5,0.5-1.2,0-1.7c-3.7-3.7-5.6-8.6-5.6-13.5
			c0-4.9,1.9-9.8,5.6-13.5c0.5-0.5,0.5-1.2,0-1.7s-1.2-0.5-1.7,0C590.1,77.5,588,83,588,88.5z"/>
		<path class="st15" d="M597.9,97.9c-5.2-5.2-5.2-13.5,0-18.7"/>
		<path d="M592.8,88.5c0,3.7,1.4,7.4,4.2,10.2c0.5,0.5,1.2,0.5,1.7,0c0.5-0.5,0.5-1.2,0-1.7c-2.3-2.3-3.5-5.4-3.5-8.5
			c0-3.1,1.2-6.1,3.5-8.5c0.5-0.5,0.5-1.2,0-1.7c-0.5-0.5-1.2-0.5-1.7,0C594.2,81.2,592.8,84.9,592.8,88.5z"/>
		<path class="st15" d="M600.6,92.8c-2.4-2.4-2.4-6.2,0-8.5"/>
		<path d="M597.7,88.5c0,1.9,0.7,3.7,2.1,5.1c0.5,0.5,1.2,0.5,1.7,0s0.5-1.2,0-1.7c-0.9-0.9-1.4-2.2-1.4-3.4c0-1.2,0.5-2.5,1.4-3.4
			c0.5-0.5,0.5-1.2,0-1.7s-1.2-0.5-1.7,0C598.4,84.8,597.7,86.7,597.7,88.5z"/>
		<path class="st15" d="M614.9,102.9c7.9-7.9,7.9-20.8,0-28.8"/>
		<path d="M614.1,75c3.7,3.7,5.6,8.6,5.6,13.5c0,4.9-1.9,9.8-5.6,13.5l0,0c-0.5,0.5-0.5,1.2,0,1.7c0.5,0.5,1.2,0.5,1.7,0l0,0
			c4.2-4.2,6.3-9.7,6.3-15.2c0-5.5-2.1-11-6.3-15.2l0,0c-0.5-0.5-1.2-0.5-1.7,0S613.6,74.5,614.1,75C614.1,75,614.1,75,614.1,75z"/>
		<path class="st15" d="M612.2,97.9c5.2-5.2,5.2-13.5,0-18.7"/>
		<path d="M614.9,88.5c0,3.1-1.2,6.1-3.5,8.5c-0.5,0.5-0.5,1.2,0,1.7c0.5,0.5,1.2,0.5,1.7,0c2.8-2.8,4.2-6.5,4.2-10.2
			c0-3.7-1.4-7.4-4.2-10.2c-0.5-0.5-1.2-0.5-1.7,0c-0.5,0.5-0.5,1.2,0,1.7C613.7,82.4,614.9,85.5,614.9,88.5z"/>
		<path class="st15" d="M609.5,92.8c2.4-2.4,2.4-6.2,0-8.5"/>
		<path d="M610.1,88.5c0,1.2-0.5,2.5-1.4,3.4c-0.5,0.5-0.5,1.2,0,1.7c0.5,0.5,1.2,0.5,1.7,0c1.4-1.4,2.1-3.3,2.1-5.1
			s-0.7-3.7-2.1-5.1c-0.5-0.5-1.2-0.5-1.7,0s-0.5,1.2,0,1.7C609.6,86.1,610.1,87.3,610.1,88.5z"/>
		<path d="M607.7,85.8c0.7,0.7,1.1,1.6,1.1,2.7c0,1.1-0.4,2-1.1,2.7c-0.7,0.7-1.6,1.1-2.7,1.1c-1.1,0-2-0.4-2.7-1.1
			c-0.7-0.7-1.1-1.6-1.1-2.7c0-1.1,0.4-2,1.1-2.7c0.7-0.7,1.6-1.1,2.7-1.1C606,84.7,607,85.2,607.7,85.8z M603.6,88.5
			c0,0.4,0.2,0.7,0.4,1c0.3,0.3,0.6,0.4,1,0.4s0.7-0.2,1-0.4c0.3-0.3,0.4-0.6,0.4-1c0-0.4-0.2-0.7-0.4-1c-0.3-0.3-0.6-0.4-1-0.4
			s-0.7,0.2-1,0.4C603.7,87.8,603.6,88.2,603.6,88.5z"/>
	</g>
	<path class="st16" d="M606.2,167.7c0,0.9,0.4,1.7,1,2.3c0.6,0.6,1.4,1,2.3,1s1.7-0.4,2.3-1c0.6-0.6,1-1.4,1-2.3
		c0-0.9-0.4-1.7-1-2.3c-0.6-0.6-1.4-1-2.3-1c-0.9,0-1.7,0.4-2.3,1C606.5,166,606.2,166.8,606.2,167.7z"/>
</g>
<g>
	<path class="st17" d="M764.5,62.5h115.2c4.4,0,8.3,1.8,11.2,4.7c2.9,2.9,4.7,6.8,4.7,11.2v75.9c0,4.4-1.8,8.3-4.7,11.2
		c-2.9,2.9-6.8,4.7-11.2,4.7h-45.1l0.9,11.7h19c1.6,0,3,0.6,4,1.7c1,1,1.7,2.5,1.7,4v3.6c0,1.2-0.9,2.1-2.1,2.1H786
		c-1.2,0-2.1-0.9-2.1-2.1v-3.6c0-1.6,0.6-3,1.7-4c1-1,2.5-1.7,4-1.7h19l0.9-11.7h-45.1c-4.4,0-8.3-1.8-11.2-4.7
		c-2.9-2.9-4.7-6.8-4.7-11.2V78.4c0-4.4,1.8-8.3,4.7-11.2C756.1,64.3,760.1,62.5,764.5,62.5L764.5,62.5z"/>
	<path class="st8" d="M890.9,67.2c-2.9-2.9-6.8-4.7-11.2-4.7H764.5l0,0c-4.4,0-8.3,1.8-11.2,4.7c-2.9,2.9-4.7,6.8-4.7,11.2v75.9
		c0,4.4,1.8,8.3,4.7,11.2c2.9,2.9,6.8,4.7,11.2,4.7h45.1l-0.9,11.7h-19c-1.6,0-3,0.6-4,1.7c-1,1-1.7,2.5-1.7,4v3.6
		c0,1.2,0.9,2.1,2.1,2.1h72.1c1.2,0,2.1-0.9,2.1-2.1v-3.6c0-1.6-0.6-3-1.7-4c-1-1-2.5-1.7-4-1.7h-19l-0.9-11.7h45.1
		c4.4,0,8.3-1.8,11.2-4.7c2.9-2.9,4.7-6.8,4.7-11.2V78.4C895.5,74,893.7,70,890.9,67.2z M854.5,186.1L854.5,186.1
		c0.4,0,0.8,0.2,1.1,0.4c0.3,0.3,0.4,0.7,0.4,1.1v1.5h-67.9v-1.5c0-0.4,0.2-0.8,0.4-1.1c0.3-0.3,0.6-0.4,1.1-0.4H854.5z
		 M812.8,181.9l0.9-11.7h16.6l0.9,11.7H812.8z M891.3,146.1H752.8l0-67.7c0-3.2,1.3-6.1,3.4-8.2c2.1-2.1,5-3.4,8.2-3.4l115.2,0
		c3.2,0,6.1,1.3,8.2,3.4c2.1,2.1,3.4,5,3.4,8.2V146.1z"/>
	<path class="st8" d="M891.3,150.3H752.8v4c0,3.2,1.3,6.1,3.4,8.2c2.1,2.1,5,3.4,8.2,3.4h115.2c3.2,0,6.1-1.3,8.2-3.4
		c2.1-2.1,3.4-5,3.4-8.2L891.3,150.3z"/>
	<path class="st18" d="M891.3,150.3H752.8v4c0,3.2,1.3,6.1,3.4,8.2c2.1,2.1,5,3.4,8.2,3.4h115.2c3.2,0,6.1-1.3,8.2-3.4
		c2.1-2.1,3.4-5,3.4-8.2L891.3,150.3z"/>
	<g>
		<text transform="matrix(1 0 0 1 765.822 116.7869)" class="st2 st19 st21">191.44.190.255</text>
	</g>
</g>
</svg>
