<?xml version="1.0" encoding="utf-8"?>
<!-- Generator: Adobe Illustrator 23.0.3, SVG Export Plug-In . SVG Version: 6.00 Build 0)  -->
<svg version="1.1" id="Calque_1" xmlns="http://www.w3.org/2000/svg" xmlns:xlink="http://www.w3.org/1999/xlink" x="0px" y="0px"
	 viewBox="0 0 2613 699" style="enable-background:new 0 0 2613 699;" xml:space="preserve">
<style type="text/css">
	.st0{fill-rule:evenodd;clip-rule:evenodd;fill:#2A77D3;}
	.st1{fill:#FFC469;}
	.st2{fill:#402E1F;}
	.st3{fill:#2A77D3;}
	.st4{fill:#FFFFFF;stroke:#402E1F;stroke-width:5;stroke-miterlimit:10;}
	.st5{fill:none;stroke:#402E1F;stroke-width:5;stroke-linecap:round;stroke-miterlimit:10;}
	.st6{fill-rule:evenodd;clip-rule:evenodd;fill:#402E1F;}
	.st7{fill:none;}
	.st8{fill-rule:evenodd;clip-rule:evenodd;}
	.st9{fill-rule:evenodd;clip-rule:evenodd;fill:#FFC469;stroke:#402E1F;stroke-width:5;stroke-miterlimit:10;}
	.st10{fill:#FFC469;stroke:#402E1F;stroke-width:5;stroke-miterlimit:10;}
	.st11{fill:#2A77D3;stroke:#402E1F;stroke-width:5;stroke-miterlimit:10;}
	.st12{fill-rule:evenodd;clip-rule:evenodd;fill:#FFFFFF;}
	.st13{fill:#FFFFFF;}
	.st14{fill:#402E1F;stroke:#402E1F;stroke-width:2;stroke-miterlimit:10;}
	.st15{fill:#7F6143;}
</style>
<path class="st0" d="M1283.9,386.3l-11.9-33.6h2.7c4.6,0,8.3-3.8,8.3-8.4v-7.8c0-8.8-7.2-16.1-16.1-16.1h-57.3
	c-2.3-13.5-14.1-23.9-28.3-23.9h-176.1c-15.8,0-28.7,12.9-28.7,28.7v123.7c0,15.8,12.9,28.7,28.7,28.7h3.9
	c3.3,17.9,18.9,31.4,37.8,31.4c18.8,0,34.4-13.5,37.7-31.3h80.7h39.8h10.5c3.3,17.8,19,31.3,37.7,31.3s34.4-13.5,37.7-31.3h10.4
	c2.7,0,4.8-2.2,4.8-4.7v-61.1C1306.3,398.9,1296.5,388,1283.9,386.3z M1046.9,480c-5.2,0-9.4-4.2-9.4-9.4s4.2-9.4,9.4-9.4
	s9.4,4.2,9.4,9.4S1052.1,480,1046.9,480z M1210,343v-13h56.9c3.6,0,6.5,2.9,6.5,6.5v6.5H1210z M1253.4,480c-5.2,0-9.4-4.2-9.4-9.4
	s4.2-9.4,9.4-9.4s9.4,4.2,9.4,9.4S1258.6,480,1253.4,480z"/>
<g>
	<path class="st1" d="M1998.4,311.4l0.2,0.5l20.1,63.5c0.7,2.3,2.3,4.2,4.4,5.3c1.3,0.7,2.7,1,4.1,1c0.9,0,1.8-0.1,2.7-0.4
		l80.2-25.3c2.3-0.7,4.2-2.3,5.3-4.4c1.1-2.1,1.3-4.5,0.6-6.8l-20.2-63.9l-2-2.4l-11.9-9.8l-3.3-1.1l-16.4,5.1l-40.7,13l-16.4,5.1
		l-2.1,2.8l-4.1,15.2L1998.4,311.4z"/>
	<path class="st2" d="M1998.4,311.4l0.2,0.5l20.1,63.5c0.7,2.3,2.3,4.2,4.4,5.3c1.3,0.7,2.7,1,4.1,1c0.9,0,1.8-0.1,2.7-0.4
		l80.2-25.3c2.3-0.7,4.2-2.3,5.3-4.4c1.1-2.1,1.3-4.5,0.6-6.8l-20.2-63.9l-2-2.4l-11.9-9.8l-3.3-1.1l-16.4,5.1l-40.7,13l-16.4,5.1
		l-2.1,2.8l-4.1,15.2L1998.4,311.4z M2023.7,292.6l16.9-5.4l2.1,6.8l-35.3,11.2l2.2-8.2L2023.7,292.6z M2085.4,280.6l-35.5,11.2
		l-2.2-6.8l16.9-5.4l14.1-4.5L2085.4,280.6z M2007,312.8l83.4-26.4l19.1,60.6c0.3,1-0.3,2-1.2,2.3l-80.2,25.3
		c-0.6,0.2-1.1,0-1.3-0.1c-0.3-0.1-0.7-0.4-0.8-0.9L2007,312.8z"/>
</g>
<g>
	<circle class="st3" cx="2048.1" cy="441.1" r="15.7"/>
	<path class="st3" d="M1802.8,441c0,23.1,18.8,41.8,41.8,41.8c21.3,0,38.8-15.9,41.4-36.5h11.5c2.3,9,10.4,15.7,20.1,15.7
		c11.5,0,20.9-9.4,20.9-20.9c0-2.5-0.6-4.9-1.4-7.2l43.1-30v21.5c0,11.5,9.4,20.9,20.9,20.9h5.6c2.5,20.7,20.1,36.7,41.4,36.7
		s38.9-16.1,41.4-36.7h26.4c11.5,0,20.9-9.4,20.9-20.9v-73.2c0-2.9-2.3-5.2-5.2-5.2l-140.8,0v-36.4c0-2.4-1.7-4.5-4-5.1l-20.9-5.2
		c-2.8-0.7-5.6,1-6.3,3.8c-0.7,2.8,1,5.6,3.8,6.3l16.9,4.2v48h-76.8l-5.9-23.7c2.3-0.9,4.3-1.8,5.6-2.4h19.7c2.9,0,5.2-2.3,5.2-5.2
		c0-14.4-11.7-26.1-26.1-26.1h-26.1c-8.7,0-15.7,7.1-15.7,15.7v5.2c0,8.7,7.1,15.7,15.7,15.7h10.4c0.3,0,0.7-0.1,1.1-0.1l5.6,22.6
		c-0.1,0.2-0.3,0.4-0.5,0.6l-28.2,39.6c-5.9-3.2-12.7-5-19.8-5C1821.4,399.5,1802.7,418.3,1802.8,441z M2016.8,441.3
		c0-17.3,14-31.3,31.3-31.3c17.3,0,31.3,14,31.3,31.3c0,17.3-14,31.3-31.3,31.3C2030.8,472.6,2016.8,458.6,2016.8,441.3z
		 M1866.7,419.2c4.5,4.5,7.6,10.4,8.7,16.9h-16.2c-0.5-1.4-1.1-2.6-1.9-3.8L1866.7,419.2z M1905.9,373.2h74.3v18.2l-49.1,34.2
		c-3.7-3.1-8.3-5.1-13.4-5.1L1905.9,373.2z M1885.9,436.1c-1.3-10.1-6.1-19-13.2-25.5l23.6-33l11.3,45.5c-5,2.7-8.7,7.4-10.2,13
		H1885.9z M1813.3,441.1c0-17.3,14-31.3,31.3-31.3c4.9,0,9.5,1.2,13.6,3.2l-9.4,13.2c-1.4-0.4-2.8-0.7-4.3-0.7
		c-8.7,0-15.7,7-15.7,15.7c0,8.7,7.1,15.7,15.7,15.7c6.8,0,12.5-4.3,14.7-10.4h16.2c-2.5,14.8-15.4,26.1-30.9,26.1
		C1827.2,472.6,1813.3,458.4,1813.3,441.1z"/>
</g>
<path class="st3" d="M726.7,319.1l-21.6-33.4l-4.8-3.5h-43.8H542.1h-43.7l-4.9,3.5l-21.6,33.4l-2.1,5.6v178
	c0,9.5,7.7,17.2,17.2,17.2h224.6c9.5,0,17.2-7.7,17.2-17.2v-178L726.7,319.1z"/>
<path class="st2" d="M726.7,319.1l-21.6-33.4l-4.8-3.5h-43.8H542.1h-43.7l-4.9,3.5l-21.6,33.4l-2.1,5.6v178
	c0,9.5,7.7,17.2,17.2,17.2h224.6c9.5,0,17.2-7.7,17.2-17.2v-178L726.7,319.1z M498.9,288h43.2h114.4h43.2l20.9,32.4H478L498.9,288z
	 M711.6,514.1H487c-6.3,0-11.4-5.1-11.4-11.4V326.1h69.3h5.8H648h5.7H723v176.6C723,509,717.9,514.1,711.6,514.1z"/>
<g>
	<polygon class="st2" points="596.4,287.6 596.3,322.6 602.5,322.6 602.2,287.6 	"/>
</g>
<path class="st4" d="M579.5,425.3h-84.8c-3.2,0-5.9-2.6-5.9-5.9v-48.8c0-3.2,2.6-5.9,5.9-5.9h84.8c3.2,0,5.9,2.6,5.9,5.9v48.8
	C585.3,422.6,582.7,425.3,579.5,425.3z"/>
<line class="st5" x1="501.3" y1="379.8" x2="544.7" y2="379.8"/>
<line class="st5" x1="501.3" y1="390" x2="558.5" y2="390"/>
<line class="st5" x1="501.3" y1="400.3" x2="550.4" y2="400.3"/>
<line class="st5" x1="501.3" y1="410.5" x2="544.7" y2="410.5"/>
<path class="st6" d="M1301.5,477.6h-14.6c-2.6,0-4.8-2.2-4.8-4.8s2.2-4.8,4.8-4.8h9.8v-56.2c0-8.9-7.3-16.2-16.2-16.2h-75.3
	c-2.6,0-4.8-2.2-4.8-4.8s2.2-4.8,4.8-4.8h75.3c14.2,0,25.8,11.6,25.8,25.8v61.1C1306.3,475.5,1304.2,477.6,1301.5,477.6
	L1301.5,477.6z"/>
<path class="st6" d="M1280.5,395.6c-2,0-3.8-1.2-4.6-3.2l-15.2-43c-0.9-2.5,0.4-5.3,2.9-6.1c2.5-0.9,5.3,0.4,6.1,2.9l15.2,43
	c0.9,2.5-0.4,5.3-2.9,6.1C1281.6,395.6,1281,395.6,1280.5,395.6L1280.5,395.6z"/>
<path class="st6" d="M1274.7,352.6h-69.5c-2.6,0-4.8-2.2-4.8-4.8v-22.7c0-2.6,2.2-4.8,4.8-4.8h61.7c8.9,0,16.1,7.3,16.1,16.1v7.8
	C1283,348.9,1279.3,352.6,1274.7,352.6L1274.7,352.6z"/>
<line class="st7" x1="1210" y1="343" x2="1210" y2="343"/>
<path class="st8" d="M1210,343"/>
<path class="st8" d="M1210,343"/>
<path class="st9" d="M1210,343h63.4v-6.5c0-3.6-2.9-6.5-6.5-6.5H1210V343"/>
<line class="st7" x1="1210" y1="343" x2="1210" y2="343"/>
<path class="st6" d="M1205.2,477.6h-124.8c-2.6,0-4.8-2.2-4.8-4.8s2.2-4.8,4.8-4.8h120V325.1c0-10.5-8.6-19.1-19.1-19.1h-176.1
	c-10.5,0-19.1,8.6-19.1,19.1v123.7c0,10.5,8.6,19.1,19.1,19.1h8.2c2.6,0,4.8,2.2,4.8,4.8s-2.2,4.8-4.8,4.8h-8.2
	c-15.8,0-28.7-12.9-28.7-28.7V325.1c0-15.8,12.9-28.7,28.7-28.7h176.1c15.8,0,28.7,12.9,28.7,28.7v147.6
	C1210,475.5,1207.9,477.6,1205.2,477.6L1205.2,477.6z"/>
<path class="st6" d="M1181.1,453.6h-80.8c-2.6,0-4.8-2.2-4.8-4.8s2.2-4.8,4.8-4.8h76V325.4c0-2.6,2.2-4.8,4.8-4.8
	c2.6,0,4.8,2.2,4.8,4.8v123.4C1185.9,451.4,1183.8,453.6,1181.1,453.6L1181.1,453.6z"/>
<path class="st6" d="M1115.5,391.9h-44.4c-2.6,0-4.8-2.2-4.8-4.8v-85.8c0-2.6,2.2-4.8,4.8-4.8c2.6,0,4.8,2.2,4.8,4.8v81h34.8v-81
	c0-2.6,2.2-4.8,4.8-4.8c2.6,0,4.8,2.2,4.8,4.8v85.8C1120.3,389.6,1118.1,391.9,1115.5,391.9z"/>
<path class="st6" d="M1046.9,509c-21.2,0-38.4-17.2-38.4-38.4s17.2-38.4,38.4-38.4s38.4,17.2,38.4,38.4S1068.1,509,1046.9,509z
	 M1046.9,441.8c-15.9,0-28.8,12.9-28.8,28.8s12.9,28.8,28.8,28.8s28.8-12.9,28.8-28.8C1075.7,454.6,1062.8,441.8,1046.9,441.8z"/>
<path class="st6" d="M1046.9,489.6c-10.5,0-19-8.6-19-19s8.6-19,19-19c10.5,0,19,8.5,19,19S1057.4,489.6,1046.9,489.6z
	 M1046.9,461.1c-5.2,0-9.4,4.2-9.4,9.4s4.2,9.4,9.4,9.4s9.4-4.2,9.4-9.4S1052.1,461.1,1046.9,461.1z"/>
<path class="st6" d="M1253.4,509c-21.2,0-38.4-17.2-38.4-38.4s17.2-38.4,38.4-38.4c21.2,0,38.4,17.2,38.4,38.4
	S1274.5,509,1253.4,509z M1253.4,441.8c-15.9,0-28.8,12.9-28.8,28.8s12.9,28.8,28.8,28.8s28.8-12.9,28.8-28.8
	C1282.2,454.6,1269.2,441.8,1253.4,441.8z"/>
<path class="st6" d="M1253.4,489.6c-10.5,0-19-8.6-19-19s8.5-19,19-19s19,8.5,19,19S1263.9,489.6,1253.4,489.6z M1253.4,461.1
	c-5.2,0-9.4,4.2-9.4,9.4s4.2,9.4,9.4,9.4c5.2,0,9.4-4.2,9.4-9.4S1258.6,461.1,1253.4,461.1z"/>
<path class="st6" d="M958.2,342.1h-32.8c-2.5,0-4.8-1.8-5.1-4.4c-0.3-2.9,2-5.3,4.8-5.3H958c2.5,0,4.8,1.8,5,4.3
	C963.3,339.8,961,342.1,958.2,342.1z"/>
<path class="st6" d="M934.3,375.3h-45.4c-2.5,0-4.8-1.8-5.1-4.4c-0.3-2.9,2-5.3,4.8-5.3H934c2.5,0,4.8,1.8,5.1,4.4
	C939.4,372.9,937.1,375.3,934.3,375.3z"/>
<path class="st6" d="M934.3,408.5h-45.4c-2.5,0-4.8-1.8-5.1-4.4c-0.3-2.9,2-5.3,4.8-5.3H934c2.5,0,4.8,1.8,5.1,4.4
	C939.4,406,937.1,408.5,934.3,408.5z"/>
<path class="st6" d="M958.2,441.6h-32.8c-2.5,0-4.8-1.8-5.1-4.4c-0.3-2.9,2-5.3,4.8-5.3H958c2.5,0,4.8,1.8,5,4.3
	C963.3,439.1,961,441.6,958.2,441.6z"/>
<g>
	<g>
		<path class="st2" d="M1802.8,441c0,23.1,18.8,41.8,41.8,41.8c21.3,0,38.8-15.9,41.4-36.5h11.5c2.3,9,10.4,15.7,20.1,15.7
			c11.5,0,20.9-9.4,20.9-20.9c0-2.5-0.6-4.9-1.4-7.2l43.1-30v21.5c0,11.5,9.4,20.9,20.9,20.9h5.6c2.5,20.7,20.1,36.7,41.4,36.7
			s38.9-16.1,41.4-36.7h26.4c11.5,0,20.9-9.4,20.9-20.9v-73.2c0-2.9-2.3-5.2-5.2-5.2l-140.8,0v-36.4c0-2.4-1.7-4.5-4-5.1l-20.9-5.2
			c-2.8-0.7-5.6,1-6.3,3.8c-0.7,2.8,1,5.6,3.8,6.3l16.9,4.2v48h-76.8l-5.9-23.7c2.3-0.9,4.3-1.8,5.6-2.4h19.7c2.9,0,5.2-2.3,5.2-5.2
			c0-14.4-11.7-26.1-26.1-26.1h-26.1c-8.7,0-15.7,7.1-15.7,15.7v5.2c0,8.7,7.1,15.7,15.7,15.7h10.4c0.3,0,0.7-0.1,1.1-0.1l5.6,22.6
			c-0.1,0.2-0.3,0.4-0.5,0.6l-28.2,39.6c-5.9-3.2-12.7-5-19.8-5C1821.4,399.5,1802.7,418.3,1802.8,441z M1899.5,326.6
			c-3.7,1.9-10.6,4.7-13.3,4.7h-10.4c-2.9,0-5.2-2.3-5.2-5.2V321c0-2.9,2.3-5.2,5.2-5.2h26.1c6.8,0,12.6,4.3,14.8,10.4h-14.8
			C1901.1,326.2,1900.3,326.4,1899.5,326.6z M1849.7,441.3c0,2.9-2.3,5.2-5.2,5.2s-5.2-2.3-5.2-5.2s2.3-5.2,5.2-5.2
			S1849.7,438.4,1849.7,441.3z M1857.3,432.3l9.4-13.1c4.5,4.5,7.6,10.4,8.7,16.9h-16.2C1858.7,434.7,1858.1,433.5,1857.3,432.3z
			 M1896.3,377.6l11.3,45.5c-5,2.7-8.7,7.4-10.2,13h-11.5c-1.3-10.1-6.1-19-13.2-25.5L1896.3,377.6z M2016.8,441.3
			c0-17.3,14-31.3,31.3-31.3c17.3,0,31.3,14,31.3,31.3c0,17.3-14,31.3-31.3,31.3C2030.8,472.6,2016.8,458.6,2016.8,441.3z
			 M1990.6,425.5v-68h135.7v68c0,5.7-4.6,10.4-10.4,10.4h-26.5c-2.7-20.5-20.2-36.4-41.4-36.4c-21.2,0-38.8,15.9-41.4,36.4h-5.6
			C1995.3,435.9,1990.6,431.3,1990.6,425.5L1990.6,425.5z M1980.2,391.4l-49.1,34.2c-3.7-3.1-8.3-5.1-13.4-5.1l-11.8-47.3h74.3
			V391.4z M1907.2,441.3c0-5.7,4.6-10.4,10.4-10.4c5.7,0,10.4,4.7,10.4,10.4c0,5.7-4.6,10.4-10.4,10.4
			C1911.8,451.7,1907.2,447,1907.2,441.3z M1813.3,441.1c0-17.3,14-31.3,31.3-31.3c4.9,0,9.5,1.2,13.6,3.2l-9.4,13.2
			c-1.4-0.4-2.8-0.7-4.3-0.7c-8.7,0-15.7,7-15.7,15.7c0,8.7,7.1,15.7,15.7,15.7c6.8,0,12.5-4.3,14.7-10.4h16.2
			c-2.5,14.8-15.4,26.1-30.9,26.1C1827.2,472.6,1813.3,458.4,1813.3,441.1z"/>
		<path class="st2" d="M2032.4,441.1c0,8.7,7,15.7,15.7,15.7c8.7,0,15.7-7,15.7-15.7c0-8.7-7.1-15.7-15.7-15.7
			C2039.4,425.4,2032.4,432.4,2032.4,441.1z M2042.9,441.1c0-2.9,2.3-5.2,5.2-5.2s5.2,2.3,5.2,5.2s-2.3,5.2-5.2,5.2
			C2045.2,446.3,2042.8,443.9,2042.9,441.1z"/>
	</g>
</g>
<path class="st10" d="M1428.9,429.7c0.1-0.2,0.3-0.3,0.4-0.5c0.2-0.2,0.3-0.4,0.5-0.7c0.1-0.2,0.3-0.4,0.4-0.7
	c0.1-0.2,0.2-0.4,0.4-0.6c0.1-0.2,0.2-0.5,0.3-0.7s0.2-0.4,0.3-0.6s0.2-0.5,0.3-0.7s0.2-0.5,0.2-0.7c0.1-0.2,0.1-0.5,0.2-0.7
	s0.1-0.5,0.2-0.7c0.1-0.3,0.1-0.5,0.1-0.8c0-0.2,0.1-0.4,0.1-0.6c0.1-1,0.1-2,0-3c0-0.2-0.1-0.4-0.1-0.6c0-0.3-0.1-0.5-0.1-0.8
	c0-0.2-0.1-0.5-0.2-0.7c-0.1-0.2-0.1-0.5-0.2-0.7s-0.2-0.5-0.2-0.7c-0.1-0.2-0.2-0.5-0.3-0.7s-0.2-0.4-0.3-0.6s-0.2-0.5-0.3-0.7
	s-0.2-0.4-0.4-0.6c-0.1-0.2-0.3-0.4-0.4-0.7c-0.2-0.2-0.3-0.4-0.5-0.7c-0.1-0.2-0.3-0.4-0.4-0.5c-0.3-0.4-0.6-0.8-1-1.1l-39-39
	c-5.9-5.9-15.4-5.9-21.2,0c-5.9,5.9-5.9,15.4,0,21.2l13.4,13.4h-41.9c-8.3,0-15,6.7-15,15s6.7,15,15,15h41.9l-13.4,13.4
	c-5.9,5.9-5.9,15.4,0,21.2c2.9,2.9,6.8,4.4,10.6,4.4c3.8,0,7.7-1.5,10.6-4.4l39-39C1428.3,430.5,1428.6,430.1,1428.9,429.7z"/>
<path class="st10" d="M849.1,429.7c0.1-0.2,0.3-0.3,0.4-0.5c0.2-0.2,0.3-0.4,0.5-0.7c0.1-0.2,0.3-0.4,0.4-0.7
	c0.1-0.2,0.2-0.4,0.4-0.6c0.1-0.2,0.2-0.5,0.3-0.7s0.2-0.4,0.3-0.6s0.2-0.5,0.3-0.7s0.2-0.5,0.2-0.7c0.1-0.2,0.1-0.5,0.2-0.7
	c0.1-0.2,0.1-0.5,0.2-0.7c0.1-0.3,0.1-0.5,0.1-0.8c0-0.2,0.1-0.4,0.1-0.6c0.1-1,0.1-2,0-3c0-0.2-0.1-0.4-0.1-0.6
	c0-0.3-0.1-0.5-0.1-0.8c0-0.2-0.1-0.5-0.2-0.7c-0.1-0.2-0.1-0.5-0.2-0.7c-0.1-0.2-0.2-0.5-0.2-0.7c-0.1-0.2-0.2-0.5-0.3-0.7
	s-0.2-0.4-0.3-0.6s-0.2-0.5-0.3-0.7s-0.2-0.4-0.4-0.6c-0.1-0.2-0.3-0.4-0.4-0.7c-0.2-0.2-0.3-0.4-0.5-0.7c-0.1-0.2-0.3-0.4-0.4-0.5
	c-0.3-0.4-0.6-0.8-1-1.1l-39-39c-5.9-5.9-15.4-5.9-21.2,0c-5.9,5.9-5.9,15.4,0,21.2l13.4,13.4h-41.9c-8.3,0-15,6.7-15,15
	s6.7,15,15,15h41.9l-13.4,13.4c-5.9,5.9-5.9,15.4,0,21.2c2.9,2.9,6.8,4.4,10.6,4.4s7.7-1.5,10.6-4.4l39-39
	C848.5,430.5,848.8,430.1,849.1,429.7z"/>
<path class="st10" d="M451.1,430c0.1-0.2,0.3-0.3,0.4-0.5c0.2-0.2,0.3-0.4,0.5-0.7c0.1-0.2,0.3-0.4,0.4-0.7c0.1-0.2,0.2-0.4,0.4-0.6
	c0.1-0.2,0.2-0.5,0.3-0.7s0.2-0.4,0.3-0.6s0.2-0.5,0.3-0.7s0.2-0.5,0.2-0.7c0.1-0.2,0.1-0.5,0.2-0.7c0.1-0.2,0.1-0.5,0.2-0.7
	c0.1-0.3,0.1-0.5,0.1-0.8c0-0.2,0.1-0.4,0.1-0.6c0.1-1,0.1-2,0-3c0-0.2-0.1-0.4-0.1-0.6c0-0.3-0.1-0.5-0.1-0.8
	c0-0.2-0.1-0.5-0.2-0.7c-0.1-0.2-0.1-0.5-0.2-0.7c-0.1-0.2-0.2-0.5-0.2-0.7c-0.1-0.2-0.2-0.5-0.3-0.7s-0.2-0.4-0.3-0.6
	s-0.2-0.5-0.3-0.7s-0.2-0.4-0.4-0.6c-0.1-0.2-0.3-0.4-0.4-0.7c-0.2-0.2-0.3-0.4-0.5-0.7c-0.1-0.2-0.3-0.4-0.4-0.5
	c-0.3-0.4-0.6-0.8-1-1.1l-39-39c-5.9-5.9-15.4-5.9-21.2,0c-5.9,5.9-5.9,15.4,0,21.2l13.4,13.4h-41.9c-8.3,0-15,6.7-15,15
	s6.7,15,15,15h41.9l-13.4,13.4c-5.9,5.9-5.9,15.4,0,21.2c2.9,2.9,6.8,4.4,10.6,4.4s7.7-1.5,10.6-4.4l39-39
	C450.5,430.8,450.8,430.4,451.1,430z"/>
<path class="st10" d="M2262.6,429.7c0.1-0.2,0.3-0.3,0.4-0.5c0.2-0.2,0.3-0.4,0.5-0.7c0.1-0.2,0.3-0.4,0.4-0.7
	c0.1-0.2,0.2-0.4,0.4-0.6c0.1-0.2,0.2-0.5,0.3-0.7c0.1-0.2,0.2-0.4,0.3-0.6c0.1-0.2,0.2-0.5,0.3-0.7c0.1-0.2,0.2-0.5,0.2-0.7
	c0.1-0.2,0.1-0.5,0.2-0.7c0.1-0.2,0.1-0.5,0.2-0.7c0.1-0.3,0.1-0.5,0.1-0.8c0-0.2,0.1-0.4,0.1-0.6c0.1-1,0.1-2,0-3
	c0-0.2-0.1-0.4-0.1-0.6c0-0.3-0.1-0.5-0.1-0.8c0-0.2-0.1-0.5-0.2-0.7c-0.1-0.2-0.1-0.5-0.2-0.7c-0.1-0.2-0.2-0.5-0.2-0.7
	c-0.1-0.2-0.2-0.5-0.3-0.7c-0.1-0.2-0.2-0.4-0.3-0.6c-0.1-0.2-0.2-0.5-0.3-0.7c-0.1-0.2-0.2-0.4-0.4-0.6c-0.1-0.2-0.3-0.4-0.4-0.7
	c-0.2-0.2-0.3-0.4-0.5-0.7c-0.1-0.2-0.3-0.4-0.4-0.5c-0.3-0.4-0.6-0.8-1-1.1l-39-39c-5.9-5.9-15.4-5.9-21.2,0
	c-5.9,5.9-5.9,15.4,0,21.2l13.4,13.4h-41.9c-8.3,0-15,6.7-15,15s6.7,15,15,15h41.9l-13.4,13.4c-5.9,5.9-5.9,15.4,0,21.2
	c2.9,2.9,6.8,4.4,10.6,4.4c3.8,0,7.7-1.5,10.6-4.4l39-39C2262,430.5,2262.3,430.1,2262.6,429.7z"/>
<g>
	<path class="st10" d="M1432.2,259.2c0-0.2-0.1-0.4-0.1-0.6c0-0.3-0.1-0.5-0.1-0.8s-0.1-0.5-0.2-0.7c-0.1-0.2-0.1-0.5-0.2-0.7
		s-0.2-0.5-0.3-0.7s-0.2-0.4-0.2-0.7c-0.1-0.2-0.2-0.4-0.3-0.7c-0.1-0.2-0.2-0.5-0.3-0.7s-0.2-0.4-0.4-0.6c-0.1-0.2-0.2-0.4-0.4-0.6
		c-0.2-0.2-0.3-0.4-0.5-0.7c-0.1-0.2-0.2-0.3-0.4-0.5c-0.6-0.8-1.3-1.5-2.1-2.1c-0.2-0.1-0.3-0.3-0.5-0.4c-0.2-0.2-0.4-0.3-0.7-0.5
		c-0.2-0.1-0.4-0.3-0.6-0.4s-0.4-0.3-0.6-0.4s-0.4-0.2-0.7-0.3c-0.2-0.1-0.4-0.2-0.7-0.3c-0.2-0.1-0.4-0.2-0.7-0.2
		c-0.2-0.1-0.5-0.2-0.7-0.3c-0.2-0.1-0.5-0.1-0.7-0.2c-0.2-0.1-0.5-0.1-0.7-0.2c-0.3-0.1-0.5-0.1-0.8-0.1c-0.2,0-0.4-0.1-0.6-0.1
		c-0.5,0-1-0.1-1.5-0.1h-55.1c-8.3,0-15,6.7-15,15s6.7,15,15,15h18.9l-29.6,29.6c-5.9,5.9-5.9,15.4,0,21.2s15.4,5.9,21.2,0
		l29.6-29.6v18.9c0,8.3,6.7,15,15,15c4.1,0,7.9-1.7,10.6-4.4c2.7-2.7,4.4-6.5,4.4-10.6v-55.1
		C1432.3,260.2,1432.3,259.7,1432.2,259.2z"/>
	<path class="st10" d="M1418.8,594.7c0.2,0,0.4-0.1,0.6-0.1c0.3,0,0.5-0.1,0.8-0.1c0.3,0,0.5-0.1,0.7-0.2c0.2-0.1,0.5-0.1,0.7-0.2
		c0.2-0.1,0.5-0.2,0.7-0.3c0.2-0.1,0.4-0.2,0.7-0.2c0.2-0.1,0.4-0.2,0.7-0.3c0.2-0.1,0.5-0.2,0.7-0.3c0.2-0.1,0.4-0.2,0.6-0.4
		c0.2-0.1,0.4-0.2,0.6-0.4c0.2-0.2,0.4-0.3,0.7-0.5c0.2-0.1,0.3-0.2,0.5-0.4c0.8-0.6,1.5-1.3,2.1-2.1c0.1-0.2,0.3-0.3,0.4-0.5
		c0.2-0.2,0.3-0.4,0.5-0.7c0.1-0.2,0.3-0.4,0.4-0.6c0.1-0.2,0.3-0.4,0.4-0.6c0.1-0.2,0.2-0.4,0.3-0.7c0.1-0.2,0.2-0.4,0.3-0.7
		c0.1-0.2,0.2-0.4,0.2-0.7c0.1-0.2,0.2-0.5,0.3-0.7s0.1-0.5,0.2-0.7s0.1-0.5,0.2-0.7c0.1-0.3,0.1-0.5,0.1-0.8c0-0.2,0.1-0.4,0.1-0.6
		c0-0.5,0.1-1,0.1-1.5v-55.1c0-8.3-6.7-15-15-15c-8.3,0-15,6.7-15,15v18.9l-29.6-29.6c-5.9-5.9-15.4-5.9-21.2,0
		c-5.8,5.9-5.9,15.4,0,21.2l29.6,29.6h-18.9c-8.3,0-15,6.7-15,15c0,4.1,1.7,7.9,4.4,10.6c2.7,2.7,6.5,4.4,10.6,4.4h55.1
		C1417.8,594.7,1418.3,594.7,1418.8,594.7z"/>
</g>
<g>
	<path class="st10" d="M1755.1,429.7c0.1-0.2,0.3-0.3,0.4-0.5c0.2-0.2,0.3-0.4,0.5-0.7c0.1-0.2,0.3-0.4,0.4-0.7
		c0.1-0.2,0.2-0.4,0.4-0.6c0.1-0.2,0.2-0.5,0.3-0.7s0.2-0.4,0.3-0.6c0.1-0.2,0.2-0.5,0.3-0.7s0.2-0.5,0.2-0.7
		c0.1-0.2,0.1-0.5,0.2-0.7s0.1-0.5,0.2-0.7c0.1-0.3,0.1-0.5,0.1-0.8c0-0.2,0.1-0.4,0.1-0.6c0.1-1,0.1-2,0-3c0-0.2-0.1-0.4-0.1-0.6
		c0-0.3-0.1-0.5-0.1-0.8c0-0.2-0.1-0.5-0.2-0.7s-0.1-0.5-0.2-0.7c-0.1-0.2-0.2-0.5-0.2-0.7c-0.1-0.2-0.2-0.5-0.3-0.7
		s-0.2-0.4-0.3-0.6s-0.2-0.5-0.3-0.7s-0.2-0.4-0.4-0.6c-0.1-0.2-0.3-0.4-0.4-0.7c-0.2-0.2-0.3-0.4-0.5-0.7c-0.1-0.2-0.3-0.4-0.4-0.5
		c-0.3-0.4-0.6-0.8-1-1.1l-39-39c-5.9-5.9-15.4-5.9-21.2,0c-5.9,5.9-5.9,15.4,0,21.2l13.4,13.4h-41.9c-8.3,0-15,6.7-15,15
		s6.7,15,15,15h41.9l-13.4,13.4c-5.9,5.9-5.9,15.4,0,21.2c2.9,2.9,6.8,4.4,10.6,4.4s7.7-1.5,10.6-4.4l39-39
		C1754.5,430.5,1754.8,430.1,1755.1,429.7z"/>
	<g>
		<path class="st10" d="M1712.8,330.9c0.2,0,0.4-0.1,0.6-0.1c0.3,0,0.5-0.1,0.8-0.1c0.3,0,0.5-0.1,0.7-0.2c0.2-0.1,0.5-0.1,0.7-0.2
			c0.2-0.1,0.5-0.2,0.7-0.3c0.2-0.1,0.4-0.2,0.7-0.2c0.2-0.1,0.4-0.2,0.7-0.3c0.2-0.1,0.5-0.2,0.7-0.3c0.2-0.1,0.4-0.2,0.6-0.4
			c0.2-0.1,0.4-0.2,0.6-0.4c0.2-0.2,0.4-0.3,0.7-0.5c0.2-0.1,0.3-0.2,0.5-0.4c0.8-0.6,1.5-1.3,2.1-2.1c0.1-0.2,0.3-0.3,0.4-0.5
			c0.2-0.2,0.3-0.4,0.5-0.7c0.1-0.2,0.3-0.4,0.4-0.6s0.3-0.4,0.4-0.6c0.1-0.2,0.2-0.4,0.3-0.7c0.1-0.2,0.2-0.4,0.3-0.7
			c0.1-0.2,0.2-0.4,0.2-0.7c0.1-0.2,0.2-0.5,0.3-0.7s0.1-0.5,0.2-0.7s0.1-0.5,0.2-0.7c0.1-0.3,0.1-0.5,0.1-0.8
			c0-0.2,0.1-0.4,0.1-0.6c0-0.5,0.1-1,0.1-1.5v-55.1c0-8.3-6.7-15-15-15c-8.3,0-15,6.7-15,15v18.9l-29.6-29.6
			c-5.9-5.9-15.4-5.9-21.2,0c-5.8,5.9-5.9,15.4,0,21.2l29.6,29.6h-18.9c-8.3,0-15,6.7-15,15c0,4.1,1.7,7.9,4.4,10.6
			s6.5,4.4,10.6,4.4h55.1C1711.8,331,1712.3,330.9,1712.8,330.9z"/>
		<path class="st10" d="M1726.3,523c0-0.2-0.1-0.4-0.1-0.6c0-0.3-0.1-0.5-0.1-0.8s-0.1-0.5-0.2-0.7c-0.1-0.2-0.1-0.5-0.2-0.7
			s-0.2-0.5-0.3-0.7s-0.2-0.4-0.2-0.7c-0.1-0.2-0.2-0.4-0.3-0.7c-0.1-0.2-0.2-0.5-0.3-0.7s-0.2-0.4-0.4-0.6
			c-0.1-0.2-0.2-0.4-0.4-0.6c-0.2-0.2-0.3-0.4-0.5-0.7c-0.1-0.2-0.2-0.3-0.4-0.5c-0.6-0.8-1.3-1.5-2.1-2.1c-0.2-0.1-0.3-0.3-0.5-0.4
			c-0.2-0.2-0.4-0.3-0.7-0.5c-0.2-0.1-0.4-0.3-0.6-0.4c-0.2-0.1-0.4-0.3-0.6-0.4c-0.2-0.1-0.4-0.2-0.7-0.3c-0.2-0.1-0.4-0.2-0.7-0.3
			c-0.2-0.1-0.4-0.2-0.7-0.2c-0.2-0.1-0.5-0.2-0.7-0.3c-0.2-0.1-0.5-0.1-0.7-0.2c-0.2-0.1-0.5-0.1-0.7-0.2c-0.3-0.1-0.5-0.1-0.8-0.1
			c-0.2,0-0.4-0.1-0.6-0.1c-0.5,0-1-0.1-1.5-0.1h-55.1c-8.3,0-15,6.7-15,15s6.7,15,15,15h18.9l-29.6,29.6c-5.9,5.9-5.9,15.4,0,21.2
			c5.9,5.9,15.4,5.9,21.2,0l29.6-29.6v18.9c0,8.3,6.7,15,15,15c4.1,0,7.9-1.7,10.6-4.4c2.7-2.7,4.4-6.5,4.4-10.6v-55.1
			C1726.3,524,1726.3,523.5,1726.3,523z"/>
	</g>
</g>
<circle class="st11" cx="1544.5" cy="606.7" r="79.5"/>
<polygon class="st12" points="1526,641.1 1521.4,638.2 1512.8,651.7 1518.5,653.2 1524.7,647.2 "/>
<polygon class="st12" points="1563.2,641.1 1567.9,638.2 1576.5,651.7 1570.7,653.2 1564.6,647.2 "/>
<circle class="st11" cx="1544.5" cy="232.9" r="78.9"/>
<g>
	<g>
		<path class="st13" d="M1504.6,264.2c-5.8,0-10.6-4-11.6-9.6h-5.2c-0.7,0-1.2-0.2-1.7-0.7s-0.7-1-0.7-1.7v-7.5
			c0-0.7,0.2-1.2,0.7-1.7s1-0.7,1.7-0.7h1.9v-34.6c0-3.5,2.9-6.4,6.4-6.4h67.4c3.5,0,6.4,2.9,6.4,6.4l0.2,6.5h18
			c0.7,0,1.3,0.1,1.8,0.4c0.6,0.3,1.1,0.7,1.5,1.2l11.7,15.2c0.4,0.7,0.9,1.5,0.9,2.5v16.9c0,1.1-0.4,2.1-1.2,2.9s-1.8,1.2-2.9,1.2
			h-1.9c-1.1,5.6-6.1,9.7-11.8,9.7c-5.8,0-10.7-4.1-11.8-9.7h-32.6c-1.1,5.6-6.1,9.7-11.8,9.7s-10.7-4.1-11.8-9.7h-1.3
			c-1.1,5.6-6.1,9.7-11.8,9.7C1504.7,264.2,1504.7,264.2,1504.6,264.2z"/>
	</g>
</g>
<circle class="st11" cx="1544.5" cy="419.8" r="87.4"/>
<g>
	<path class="st13" d="M1581.2,454.5l-1.3-4.7l2.6-2.6c1.9-1.9,1.8-4.9,0-6.8c-1.5-1.5-3.7-1.8-5.5-0.8l-1.8-6.8l2.8-2.8
		c1.8-1.8,1.8-4.9,0-6.8c-1.6-1.6-3.8-1.8-5.7-0.8l-3-11l13.9-13.9c2.1-2.1,3.3-5,3.3-8c0-3-1.2-5.9-3.3-8c-4.4-4.4-11.6-4.4-16,0
		l-13.9,13.9l-11-3.1c1-1.8,0.7-4.1-0.8-5.7c-1.9-1.9-4.9-1.8-6.8,0l0,0l-2.8,2.8l-1.4-0.4l-5.3-1.5c0.9-1.8,0.6-4-0.8-5.5
		c-1.9-1.9-4.9-1.8-6.8,0l-2.6,2.6l-4.7-1.3c-0.6-0.2-1.3,0-1.8,0.5l-9.1,9.1c-0.4,0.4-0.6,1-0.5,1.5c0,0.4,0.2,0.8,0.5,1.1
		c0.1,0.1,0.2,0.2,0.4,0.2l33.3,20.2l-13.3,13.3l-14.1-4.9c-0.6-0.2-1.3-0.1-1.8,0.4l-5.2,5.2c-0.7,0.7-0.7,1.8,0,2.5l9.9,9.9
		c-0.7,2.4-0.6,4.9,0.3,7.4l-2.4,2.4c-1.8,1.8-1.8,4.7,0,6.5c1.8,1.8,4.7,1.8,6.5,0l2.4-2.4c2.3,0.9,4.9,1,7.4,0.3l9.9,9.9
		c0.7,0.7,1.8,0.7,2.5,0l5.2-5.2c0.5-0.5,0.6-1.2,0.4-1.8l-4.9-14l13.3-13.3l20.2,33.3c0.1,0.1,0.1,0.3,0.2,0.4
		c0.3,0.3,0.6,0.5,1.1,0.5c0.5,0.1,1.1-0.1,1.5-0.5l9.1-9.1C1581.2,455.8,1581.4,455.1,1581.2,454.5z"/>
</g>
<g>
	<path class="st2" d="M1534.5,386.6l-2.8,2.8l-1.4-0.4l-5.3-1.5c0.9-1.8,0.6-4-0.8-5.5c-1.9-1.9-4.9-1.8-6.8,0l-2.6,2.6l-4.7-1.3
		c-0.6-0.2-1.3,0-1.8,0.5l-9.1,9.1c-0.4,0.4-0.6,1-0.5,1.5c0,0.4,0.2,0.8,0.5,1.1c0.1,0.1,0.2,0.2,0.4,0.2l33.3,20.2l-13.3,13.3
		l-14.1-4.9c-0.6-0.2-1.3-0.1-1.8,0.4l-5.2,5.2c-0.7,0.7-0.7,1.8,0,2.5l9.9,9.9c-0.7,2.4-0.6,4.9,0.3,7.4l-2.4,2.4
		c-1.8,1.8-1.8,4.7,0,6.5c1.8,1.8,4.7,1.8,6.5,0l2.4-2.4c2.3,0.9,4.9,1,7.4,0.3l9.9,9.9c0.7,0.7,1.8,0.7,2.5,0l5.2-5.2
		c0.5-0.5,0.6-1.2,0.4-1.8l-4.9-14l13.3-13.3l20.2,33.3c0.1,0.1,0.1,0.3,0.2,0.4c0.3,0.3,0.6,0.5,1.1,0.5c0.5,0.1,1.1-0.1,1.5-0.5
		l9.1-9.1c0.5-0.5,0.6-1.2,0.5-1.8l-1.3-4.7l2.6-2.6c1.9-1.9,1.8-4.9,0-6.8c-1.5-1.5-3.7-1.8-5.5-0.8l-1.8-6.8l2.8-2.8
		c1.8-1.8,1.8-4.9,0-6.8c-1.6-1.6-3.8-1.8-5.7-0.8l-3-11l13.9-13.9c2.1-2.1,3.3-5,3.3-8c0-3-1.2-5.9-3.3-8c-4.4-4.4-11.6-4.4-16,0
		l-13.9,13.9l-11-3.1c1-1.8,0.7-4.1-0.8-5.7C1539.5,384.8,1536.4,384.7,1534.5,386.6L1534.5,386.6z M1519.9,384.6
		c0.4-0.4,1.2-0.5,1.7,0c0.4,0.4,0.5,1.2,0,1.7l-0.2,0.2l-2.5-0.7L1519.9,384.6L1519.9,384.6z M1578.2,442.9c0.4-0.4,1.2-0.5,1.7,0
		c0.4,0.4,0.5,1.2,0,1.7l-1.2,1.2l-0.7-2.5L1578.2,442.9L1578.2,442.9z M1502.1,431l3.2-3.2l11.3,4l-5.7,5.7
		c-0.4,0.4-0.7,0.8-1.1,1.3L1502.1,431z M1509.9,455.9c-0.4,0.4-0.9,0.4-1.3,0c-0.4-0.4-0.4-0.9,0-1.3l13.2-13.2
		c0.4-0.4,0.9-0.4,1.3,0c0.4,0.4,0.4,0.9,0,1.3L1509.9,455.9z M1536.5,459.2l-3.2,3.2l-7.8-7.8c0.5-0.4,0.8-0.7,1.3-1.1l5.7-5.7
		L1536.5,459.2L1536.5,459.2z M1573.3,426.1l0.4-0.4c0.4-0.4,1.2-0.5,1.7,0c0.4,0.4,0.5,1.2,0,1.7l-1.3,1.3l-0.4-1.2L1573.3,426.1
		L1573.3,426.1z M1571.1,432.1l0.1,0.4l6,21.8l-6.6,6.6l-19.4-32.1l14.8-14.8L1571.1,432.1L1571.1,432.1z M1569.6,384.1
		c3-3,7.8-3,10.9,0c1.4,1.4,2.3,3.4,2.3,5.4c0,2-0.8,4-2.3,5.4l-56.1,56.1c-1.8,1.8-4.2,2.5-6.6,2.2l7.8-7.8c1.8-1.8,1.8-4.7,0-6.5
		c-1.8-1.8-4.7-1.8-6.5,0l-7.8,7.8c-0.4-2.3,0.4-4.8,2.1-6.5L1569.6,384.1z M1535.4,413l-32.1-19.4l6.6-6.6l19.4,5.4l0,0l20.9,5.8
		L1535.4,413L1535.4,413z M1538.7,390.8l-0.4,0.4l-2.6-0.8l1.3-1.3c0.4-0.4,1.2-0.5,1.7,0C1539.2,389.6,1539.2,390.4,1538.7,390.8
		L1538.7,390.8z"/>
	<path class="st2" d="M1571.6,389.5c0.9-0.9,2.3-0.9,3.3,0s0.9,2.3,0,3.3c-0.7,0.7-0.7,1.8,0,2.5c0.7,0.7,1.8,0.7,2.5,0
		c2.3-2.3,2.3-6.1,0-8.3s-6.1-2.3-8.3,0c-0.7,0.7-0.7,1.8,0,2.5C1569.8,390.2,1570.9,390.2,1571.6,389.5z"/>
</g>
<g>
	<path class="st14" d="M1515.7,250.9h3c0.2-1.7,0.8-3.3,1.8-4.7h-6.5C1514.9,247.5,1515.5,249.2,1515.7,250.9L1515.7,250.9z
		 M1511.3,243.4h11.7c3.9-2.9,9.3-2.9,13.2,0h29.7v-35.6c0-1.4-1.2-2.6-2.6-2.6h-67.4c-1.4,0-2.6,1.2-2.6,2.6v35.6h4.8
		C1502.1,240.5,1507.4,240.5,1511.3,243.4L1511.3,243.4z M1499.5,245.8c-0.2,0.2-0.4,0.4-0.6,0.6c-3.2,3.2-3.2,8.3-0.1,11.6
		c3.1,3.3,8.2,3.4,11.6,0.4c3.4-3,3.7-8.2,0.7-11.6S1503,243,1499.5,245.8L1499.5,245.8z M1495.5,246.1h-6.5v4.7h4.7
		C1494,249.2,1494.6,247.5,1495.5,246.1L1495.5,246.1z M1493.8,253.6h-6.1c-0.4,0-0.7-0.1-1-0.4c-0.3-0.3-0.4-0.6-0.4-1v-7.5
		c0-0.4,0.1-0.7,0.4-1s0.6-0.4,1-0.4h2.9v-35.6c0-3,2.4-5.4,5.4-5.4h67.4c3,0,5.4,2.4,5.4,5.4v35.6h2.2v-28.1h17
		c0.5,0,1,0.1,1.4,0.3s0.8,0.5,1.1,0.9l3.7,4.8c0,0.1,0.1,0.1,0.1,0.2l7.9,10.2l0,0c0.4,0.6,0.7,1.2,0.7,1.9v16.9
		c0,0.8-0.3,1.6-0.9,2.2c-0.6,0.6-1.4,0.9-2.2,0.9h-2.7c-0.7,5.5-5.4,9.7-11,9.7s-10.3-4.2-11-9.7h-34.3c-0.7,5.5-5.4,9.7-11,9.7
		s-10.3-4.2-11-9.7h-3c-0.7,5.5-5.4,9.7-11,9.7C1499.1,263.3,1494.4,259.2,1493.8,253.6L1493.8,253.6z M1538.9,246.1L1538.9,246.1
		c0.9,1.4,1.5,3,1.7,4.7h30.3v-4.7H1538.9L1538.9,246.1z M1535.5,246.4L1535.5,246.4c-2.8-2.8-7.2-3.2-10.5-1s-4.6,6.4-3,10.1
		c1.5,3.7,5.4,5.7,9.3,4.9s6.7-4.2,6.7-8.1C1538,250,1537.1,247.9,1535.5,246.4L1535.5,246.4z M1586.5,244L1586.5,244L1586.5,244
		c-0.2,0-0.2,0-0.3,0h-0.1h-0.2h-0.1c-0.1,0-0.1,0-0.2,0h-0.1l0,0c-4.5,0.3-7.9,4.1-7.8,8.5c0.1,4.5,3.8,8,8.3,8s8.1-3.6,8.3-8
		C1594.4,248,1591,244.3,1586.5,244L1586.5,244z M1586.4,241.2L1586.4,241.2c5.4,0.2,9.8,4.3,10.5,9.7h2.7c0.1,0,0.2,0,0.3-0.1
		c0.1-0.1,0.1-0.2,0.1-0.3v-16.6h-17.5c-1.9,0-3.4-1.5-3.4-3.4v-6.2c0-1.9,1.5-3.4,3.4-3.4h7.8l-2.1-2.7l-0.1-0.1
		c-0.1,0-0.1,0-0.2,0h-14.3V251h1.3c0.7-5.4,5.1-9.4,10.5-9.7h0.2h0.1h0.3h0.1L1586.4,241.2L1586.4,241.2z M1598.2,231.1l-1.6-2.1
		l-4.2-5.4h-10c-0.2,0-0.3,0.1-0.5,0.2s-0.2,0.3-0.2,0.5v6.2c0,0.4,0.3,0.7,0.7,0.7L1598.2,231.1z"/>
</g>
<g>
	<path class="st13" d="M1569.6,637.2L1569.6,637.2c-1.2-1.8-3.9-0.1-2.8,1.7l7.7,12.3h-4.6l-7-11.5c-1.1-1.8-3.9-0.1-2.8,1.7
		l0.8,1.2h-32.6l0.8-1.2c1.1-1.9-1.7-3.6-2.8-1.7c-1.1,1.9-6,9.8-7,11.5h-4.6l7.7-12.3c1.1-1.9-1.6-3.6-2.8-1.7l-9.3,14.9
		c-0.7,1,0.1,2.6,1.4,2.5h8.5c1.4,0.1,2-1.9,2.7-2.9h43.5c0.7,1,1.3,3,2.7,2.9h8.5c1.3,0,2.1-1.5,1.4-2.5L1569.6,637.2z"/>
	<path class="st13" d="M1577.8,595.4l-5.2-29.1c-0.8-4.4-4.6-7.5-9-7.5h-38.2c-4.4,0-8.2,3.2-9,7.5l-5.2,29.1
		c-0.9,6.2-3.5,15.2-2.2,21.9l0,0v0.1c0.1,0.7,0.3,1.3,0.5,1.9c0.1,0.2,0.2,0.4,0.3,0.6c0.6,1.6,1.3,3.6,2.2,5.2
		c0,0.1,0.1,0.2,0.2,0.3s0.1,0.2,0.2,0.3c0.4,0.6,0.7,1.2,1.1,1.7l0,0c4.8,6.6,12.6,10.6,20.8,10.6h20.1c13.9,0,25.3-10.9,25.8-24.8
		C1580.7,609.6,1578.3,599.2,1577.8,595.4z"/>
</g>
<g>
	<path class="st2" d="M1569.7,637.2c-1.2-1.8-3.9-0.1-2.8,1.7l7.7,12.3h-4.6l-7-11.5c-1.1-1.8-3.9-0.1-2.8,1.7l0.8,1.2h-32.6
		l0.8-1.2c1.1-1.9-1.7-3.6-2.8-1.7c-1.1,1.9-6,9.8-7,11.5h-4.6l7.7-12.3c1.1-1.9-1.6-3.6-2.8-1.7l-9.3,14.9c-0.7,1,0.1,2.6,1.4,2.5
		h8.5c1.4,0.1,2-1.9,2.7-2.9h43.5c0.7,1,1.3,3,2.7,2.9h8.5c1.3,0,2.1-1.5,1.4-2.5L1569.7,637.2L1569.7,637.2z M1524.9,648.4l1.4-2.4
		h36.6l1.4,2.4H1524.9z"/>
	<path class="st2" d="M1511.7,620.5c0.9-0.2,1.4-1.2,1.1-2c-0.5-1.7-0.8-3.5-0.8-5.3c-0.3-3.1,1.3-9.4,1.7-12.5
		c1.7,2.3,4.4,5,8.8,6.4c0.8,0.3,1.8-0.2,2.1-1c0.3-0.9-0.2-1.8-1-2.1c-6.1-2.1-8.4-7.1-8.9-8.5l5.1-28.6c0.5-2.8,2.9-4.8,5.7-4.8
		h38.2c2.8,0,5.2,2,5.7,4.8l5.1,28.6c-0.5,1.4-2.8,6.4-8.9,8.5c-1.8,0.6-1.3,3.3,0.5,3.2c4.4-1,7.6-4.2,9.3-6.5l1.4,7.9
		c2.5,13.6-8.4,26.5-22.2,26.3h-20.1c-7.9,0-15.3-4.2-19.3-11c-0.5-0.8-1.5-1-2.3-0.6c-0.8,0.5-1,1.5-0.6,2.3
		c4.6,7.8,13.1,12.6,22.2,12.6h20.1c13.9,0,25.3-10.9,25.8-24.8c0.3-3.7-2.1-14.1-2.6-17.9l-5.2-29.1c-0.8-4.4-4.6-7.5-9-7.5h-38.2
		c-4.4,0-8.2,3.2-9,7.5l-5.2,29.1c-1,6.9-4.1,17.2-1.6,23.9C1509.9,620.2,1510.8,620.7,1511.7,620.5L1511.7,620.5z"/>
	<path class="st2" d="M1564.1,590.1c-1.2,0.5-3.1,0.9-2.5,2.7c0.3,0.9,1.2,1.3,2.1,1c3.3-0.8,6-3.6,5.5-7.2l-1.5-11.1
		c-0.3-2.5-2.5-4.4-5-4.4h-36c-2.5,0-4.7,1.9-5,4.4l-1.5,11.1c-0.4,2.8,1.2,5.5,3.7,6.5c3.7,1.5,11.4,4.1,20.7,4.1
		c4.3,0,8.7-0.5,13.1-1.6c0.9-0.2,1.4-1.1,1.2-2c-0.2-0.9-1.1-1.4-2-1.2c-3.5,0.9-7.1,1.4-10.6,1.5v-19.5h16.3
		c0.9,0,1.6,0.6,1.7,1.5l1.5,11.1C1566,588.4,1565.3,589.6,1564.1,590.1L1564.1,590.1z M1543,593.9c-8-0.3-14.5-2.5-17.8-3.8
		c-1.2-0.5-1.9-1.7-1.7-3l1.5-11.1c0.1-0.9,0.8-1.5,1.7-1.5h16.3V593.9L1543,593.9z"/>
	<path class="st2" d="M1521.4,618c0.1,7,10,8.4,11.9,1.7h22.6c1.9,6.7,11.8,5.4,11.9-1.7c-0.1-7-10-8.4-11.9-1.7h-22.6
		C1531.4,609.7,1521.5,611,1521.4,618z M1561.7,615.2c3.7,0.1,3.7,5.5,0,5.6C1558.1,620.8,1558.1,615.3,1561.7,615.2z M1527.5,615.2
		c3.7,0.1,3.7,5.5,0,5.6C1523.8,620.8,1523.8,615.3,1527.5,615.2z"/>
</g>
<g>
	<path class="st3" d="M376.2,336.8c-0.1-0.2-0.3-0.3-0.4-0.5l-37.5-32.8c-1.1-0.9-2.7-1-3.7,0l-35.7,29.7H97.1l-35.6-29.8
		c-1.1-0.9-2.7-0.9-3.7,0l-37.5,32.8c-1.2,1-1.3,2.9-0.3,4.1c0.1,0.2,0.3,0.3,0.5,0.4l48.1,34.9v178c0,9.5,7.7,17.2,17.2,17.2h224.6
		c9.5,0,17.2-7.7,17.2-17.2v-178l48.1-34.9C376.9,339.9,377.1,338.1,376.2,336.8z"/>
	<g>
		<path class="st3" d="M324.5,235.6l-17.3-29.7c-0.3-0.5-0.7-0.7-1.2-0.9c2.3-2.8,1.3-9.5,1.5-12.9h2.7c3.6,0,6.6-3,6.6-6.6v-18.6
			c0-3.6-3-6.6-6.6-6.6h-2.7v-5.9c0-4.9-4-8.9-8.9-8.9h-31v-31.3h3.1c1.1,0,2.1-0.9,2.1-2.1V99.9c0-1.1-0.9-2.1-2.1-2.1h-36.2
			c-1.1,0-2.1,0.9-2.1,2.1v12.2c0,1.1,0.9,2.1,2.1,2.1h3.1v31.3h-76.9V90.5h6.7c1.1,0,2.1-0.9,2.1-2.1V77.2c0-1.1-0.9-2.1-2.1-2.1
			H72.9l0,0c-1.1,0-2.1,0.9-2.1,2.1v11.2c0,1.1,0.9,2.1,2.1,2.1h6.7v138.6c0,5.2,4.3,9.5,9.5,9.5h15c13.2,17.2,40.8,17.2,53.9,0
			h75.9c10.1,17.2,36,17.2,46.1,0h42.8c0.7,0,1.4-0.4,1.8-1.1C324.9,237.1,324.9,236.3,324.5,235.6z"/>
		<path class="st13" d="M93.3,99.9h53.5v38.6H93.3V99.9z"/>
	</g>
	<path class="st15" d="M140.6,333.1H96.9l-35.6-29.8c-1.1-0.9-2.7-0.9-3.7,0l-37.5,32.8c-1.2,1-1.3,2.9-0.3,4.1
		c0.1,0.2,0.3,0.3,0.5,0.4l48.1,34.9v178c0,9.5,7.7,17.2,17.2,17.2h224.6c9.5,0,17.2-7.7,17.2-17.2v-178l48.1-34.9
		c1.3-0.9,1.6-2.7,0.6-4c-0.1-0.2-0.3-0.3-0.4-0.5l-37.5-32.8c-1.1-0.9-2.7-1-3.7,0l-35.8,29.8H255H140.6z M255.1,339h43.2
		l20.9,32.4H76.5L97.4,339h43.2H255.1z M59.5,309.4L92,336.6l-21.6,33.4l-43.9-31.9L59.5,309.4z M252.2,377.1h69.3v176.6
		c0,6.3-5.1,11.4-11.4,11.4H85.5c-6.3,0-11.4-5.1-11.4-11.4V377.1h69.3h5.8h97.3H252.2z M325.2,370.1l-21.6-33.4l32.5-27.3l33,28.8
		L325.2,370.1z"/>
	<path class="st2" d="M140.6,333.1H96.9l-35.6-29.8c-1.1-0.9-2.7-0.9-3.7,0l-37.5,32.8c-1.2,1-1.3,2.9-0.3,4.1
		c0.1,0.2,0.3,0.3,0.5,0.4l48.1,34.9v178c0,9.5,7.7,17.2,17.2,17.2h224.6c9.5,0,17.2-7.7,17.2-17.2v-178l48.1-34.9
		c1.3-0.9,1.6-2.7,0.6-4c-0.1-0.2-0.3-0.3-0.4-0.5l-37.5-32.8c-1.1-0.9-2.7-1-3.7,0l-35.8,29.8H255H140.6z M59.5,309.4L92,336.6
		l-21.6,33.4l-43.9-31.9L59.5,309.4z M252.2,377.1h69.3v176.6c0,6.3-5.1,11.4-11.4,11.4H85.5c-6.3,0-11.4-5.1-11.4-11.4V377.1h69.3
		h5.8h97.3H252.2z M325.2,370.1l-21.6-33.4l32.5-27.3l33,28.8L325.2,370.1z"/>
	<g>
		<path class="st2" d="M89.2,97.4v42.8c0,1.1,0.9,2.1,2.1,2.1H149c1.1,0,2.1-0.9,2.1-2.1V97.4c0-1.1-0.9-2.1-2.1-2.1H91.3
			C90.1,95.4,89.2,96.3,89.2,97.4z M93.4,99.5h53.5v38.7H93.4V99.5z"/>
		<path class="st2" d="M72.9,74.9c-1.1,0-2.1,0.9-2.1,2.1v11.2c0,1.1,0.9,2.1,2.1,2.1h6.7v138.7c0,5.2,4.3,9.5,9.5,9.5h15
			c13.2,17.2,40.8,17.2,53.9,0h75.9c10.1,17.2,36,17.2,46.1,0h42.8c0.7,0,1.4-0.4,1.8-1.1c0.4-0.6,0.4-1.4,0-2.1l-17.3-29.7
			c-0.3-0.5-0.7-0.7-1.2-0.9c2.3-2.8,1.3-9.5,1.5-12.9h2.7c3.6,0,6.6-3,6.6-6.6v-18.6c0-3.6-3-6.6-6.6-6.6h-2.7v-5.9
			c0-4.9-4-8.9-8.9-8.9h-31v-31.3h3.1c1.1,0,2.1-0.9,2.1-2.1V99.6c0-1.1-0.9-2.1-2.1-2.1h-36.2c-1.1,0-2.1,0.9-2.1,2.1v12.2
			c0,1.1,0.9,2.1,2.1,2.1h3.1v31.3h-76.9v-55h6.7c1.1,0,2.1-0.9,2.1-2.1V76.9c0-1.1-0.9-2.1-2.1-2.1L72.9,74.9L72.9,74.9z
			 M131,182.3c-14.7,0-27.2,9.3-32.2,22.2H83.7V90.2h72.9v103.5C150.2,186.7,141.2,182.3,131,182.3L131,182.3z M263.5,145.1h-21.7
			v-31.3h21.7V145.1z M298.6,149.2c2.6,0,4.8,2.1,4.8,4.8v8c0,0.1,0,27.6,0,27.7v10c0,2.6-2.1,4.8-4.8,4.8H275
			c-9.4-9.2-26.7-9.2-36.1,0h-75.6c-0.7-1.8-1.6-3.5-2.5-5.2v-50.1h78.9c0.1,0,25.9,0,26,0H298.6L298.6,149.2z M307.6,187.6v-23.5
			h2.7c1.3,0,2.4,1.1,2.4,2.4v18.6c0,1.3-1.1,2.4-2.4,2.4L307.6,187.6z M282,234.2c3.4-8.2,1.9-18.7-3.3-25.5h25.5l14.9,25.5H282z
			 M256.9,247.2c-12.6,0-22.8-10.2-22.8-22.8c1.2-30.2,44.3-30.2,45.6,0C279.7,237,269.5,247.2,256.9,247.2L256.9,247.2z
			 M160.9,234.2c4.3-7.3,5.9-17.1,3.7-25.5h70.6c-5.2,6.9-6.7,17.4-3.3,25.5H160.9z M131,247.2c-16.7,0-30.4-13.6-30.4-30.4
			c1.7-40.3,59.1-40.3,60.8,0C161.4,233.6,147.8,247.2,131,247.2L131,247.2z M83.7,208.7h13.8c-2.3,8.5-0.7,18.3,3.7,25.5H89.1
			c-2.9,0-5.4-2.4-5.4-5.4V208.7z M75,79h90.4v7H75V79z"/>
		<path class="st2" d="M256.9,234.9c13.8-0.4,13.8-20.4,0-20.9C243.1,214.5,243.1,234.4,256.9,234.9z"/>
		<path class="st2" d="M116.4,216.9c0.7,19.3,28.6,19.3,29.3,0c0-8.1-6.6-14.6-14.6-14.6C123,202.2,116.4,208.8,116.4,216.9z"/>
		<path class="st2" d="M285.9,184.7c1.1,0,2.1-0.9,2.1-2.1v-18.7c0-1.1-0.9-2.1-2.1-2.1h-53.2c-1.1,0-2.1,0.9-2.1,2.1v18.6
			c0,1.1,0.9,2.1,2.1,2.1L285.9,184.7L285.9,184.7z M283.8,166.1v5.2h-49v-5.2H283.8z"/>
		<path class="st2" d="M186.4,219.4c-2.7,0-2.7,4.1,0,4.2h22.7c2.7,0,2.7-4.2,0-4.2h-11.7H186.4L186.4,219.4z"/>
		<path class="st2" d="M89.2,152.6v12.9c0,1.1,0.9,2.1,2.1,2.1h9.1c1.1,0,2.1-0.9,2.1-2.1v-12.9c0-1.1-0.9-2.1-2.1-2.1h-9.1
			C90.1,150.6,89.2,151.5,89.2,152.6z M93.4,154.7h4.9v8.7h-4.9V154.7z"/>
	</g>
	<path class="st13" d="M131,206.4c13.8,0.4,13.8,20.5,0,20.9C117.2,226.9,117.2,206.8,131,206.4z"/>
	<path class="st13" d="M256.9,218.2c8.2,0.2,8.3,12.3,0,12.5C248.7,230.5,248.7,218.4,256.9,218.2z"/>
	<rect x="234.8" y="175.3" class="st1" width="49" height="5.2"/>
	<rect x="234.8" y="166.1" class="st1" width="49" height="5.2"/>
	<rect x="236.6" y="101.6" class="st1" width="32" height="8"/>
	<polygon class="st1" points="298.3,339 319.2,371.4 76.5,371.4 97.4,339 	"/>
	<path class="st10" d="M188.3,353.4c0.2,0.1,0.3,0.3,0.5,0.4c0.2,0.2,0.4,0.3,0.7,0.5c0.2,0.1,0.4,0.3,0.7,0.4
		c0.2,0.1,0.4,0.2,0.6,0.4c0.2,0.1,0.5,0.2,0.7,0.3s0.4,0.2,0.6,0.3s0.5,0.2,0.7,0.3s0.5,0.2,0.7,0.2c0.2,0.1,0.5,0.1,0.7,0.2
		c0.2,0.1,0.5,0.1,0.7,0.2c0.3,0.1,0.5,0.1,0.8,0.1c0.2,0,0.4,0.1,0.6,0.1c1,0.1,2,0.1,3,0c0.2,0,0.4-0.1,0.6-0.1
		c0.3,0,0.5-0.1,0.8-0.1c0.2,0,0.5-0.1,0.7-0.2c0.2-0.1,0.5-0.1,0.7-0.2c0.2-0.1,0.5-0.2,0.7-0.2c0.2-0.1,0.5-0.2,0.7-0.3
		s0.4-0.2,0.6-0.3s0.5-0.2,0.7-0.3s0.4-0.2,0.6-0.4c0.2-0.1,0.4-0.3,0.7-0.4c0.2-0.2,0.4-0.3,0.7-0.5c0.2-0.1,0.4-0.3,0.5-0.4
		c0.4-0.3,0.8-0.6,1.1-1l39-39c5.9-5.9,5.9-15.4,0-21.2c-5.9-5.9-15.4-5.9-21.2,0l-13.4,13.4v-41.9c0-8.3-6.7-15-15-15
		s-15,6.7-15,15v41.9l-13.3-13.4c-5.9-5.9-15.4-5.9-21.2,0c-2.9,2.9-4.4,6.8-4.4,10.6s1.5,7.7,4.4,10.6l39,39
		C187.6,352.8,187.9,353.1,188.3,353.4z"/>
</g>
<g>
	<path class="st3" d="M2593.6,336.8c-0.1-0.2-0.3-0.3-0.4-0.5l-37.5-32.8c-1.1-0.9-2.7-1-3.7,0l-35.7,29.7h-201.8l-35.6-29.8
		c-1.1-0.9-2.7-0.9-3.7,0l-37.5,32.8c-1.2,1-1.3,2.9-0.3,4.1c0.1,0.2,0.3,0.3,0.5,0.4l48.1,34.9v178c0,9.5,7.7,17.2,17.2,17.2h224.6
		c9.5,0,17.2-7.7,17.2-17.2v-178l48.1-34.9C2594.3,339.9,2594.5,338.1,2593.6,336.8z"/>
	<g>
		<path class="st3" d="M2541.9,235.6l-17.3-29.7c-0.3-0.5-0.7-0.7-1.2-0.9c2.3-2.8,1.3-9.5,1.5-12.9h2.7c3.6,0,6.6-3,6.6-6.6v-18.6
			c0-3.6-3-6.6-6.6-6.6h-2.7v-5.9c0-4.9-4-8.9-8.9-8.9h-31v-31.3h3.1c1.1,0,2.1-0.9,2.1-2.1V99.9c0-1.1-0.9-2.1-2.1-2.1h-36.2
			c-1.1,0-2.1,0.9-2.1,2.1v12.2c0,1.1,0.9,2.1,2.1,2.1h3.1v31.3h-76.9V90.5h6.7c1.1,0,2.1-0.9,2.1-2.1V77.2c0-1.1-0.9-2.1-2.1-2.1
			h-94.5l0,0c-1.1,0-2.1,0.9-2.1,2.1v11.2c0,1.1,0.9,2.1,2.1,2.1h6.7v138.6c0,5.2,4.3,9.5,9.5,9.5h15c13.2,17.2,40.8,17.2,53.9,0
			h75.9c10.1,17.2,36,17.2,46.1,0h42.8c0.7,0,1.4-0.4,1.8-1.1C2542.3,237.1,2542.3,236.3,2541.9,235.6z"/>
		<path class="st13" d="M2310.7,99.9h53.5v38.6h-53.5V99.9z"/>
	</g>
	<path class="st15" d="M2358,333.1h-43.7l-35.6-29.8c-1.1-0.9-2.7-0.9-3.7,0l-37.5,32.8c-1.2,1-1.3,2.9-0.3,4.1
		c0.1,0.2,0.3,0.3,0.5,0.4l48.1,34.9v178c0,9.5,7.7,17.2,17.2,17.2h224.6c9.5,0,17.2-7.7,17.2-17.2v-178l48.1-34.9
		c1.3-0.9,1.6-2.7,0.6-4c-0.1-0.2-0.3-0.3-0.4-0.5l-37.5-32.8c-1.1-0.9-2.7-1-3.7,0l-35.8,29.8h-43.7H2358z M2472.5,339h43.2
		l20.9,32.4h-242.7l20.9-32.4h43.2H2472.5z M2276.9,309.4l32.5,27.3l-21.6,33.4l-43.9-31.9L2276.9,309.4z M2469.6,377.1h69.3v176.6
		c0,6.3-5.1,11.4-11.4,11.4h-224.6c-6.3,0-11.4-5.1-11.4-11.4V377.1h69.3h5.8h97.3H2469.6z M2542.6,370.1l-21.6-33.4l32.5-27.3
		l33,28.8L2542.6,370.1z"/>
	<path class="st2" d="M2358,333.1h-43.7l-35.6-29.8c-1.1-0.9-2.7-0.9-3.7,0l-37.5,32.8c-1.2,1-1.3,2.9-0.3,4.1
		c0.1,0.2,0.3,0.3,0.5,0.4l48.1,34.9v178c0,9.5,7.7,17.2,17.2,17.2h224.6c9.5,0,17.2-7.7,17.2-17.2v-178l48.1-34.9
		c1.3-0.9,1.6-2.7,0.6-4c-0.1-0.2-0.3-0.3-0.4-0.5l-37.5-32.8c-1.1-0.9-2.7-1-3.7,0l-35.8,29.8h-43.7H2358z M2276.9,309.4l32.5,27.3
		l-21.6,33.4l-43.9-31.9L2276.9,309.4z M2469.6,377.1h69.3v176.6c0,6.3-5.1,11.4-11.4,11.4h-224.6c-6.3,0-11.4-5.1-11.4-11.4V377.1
		h69.3h5.8h97.3H2469.6z M2542.6,370.1l-21.6-33.4l32.5-27.3l33,28.8L2542.6,370.1z"/>
	<g>
		<path class="st2" d="M2306.6,97.4v42.8c0,1.1,0.9,2.1,2.1,2.1h57.7c1.1,0,2.1-0.9,2.1-2.1V97.4c0-1.1-0.9-2.1-2.1-2.1h-57.7
			C2307.5,95.4,2306.6,96.3,2306.6,97.4z M2310.8,99.5h53.5v38.7h-53.5V99.5z"/>
		<path class="st2" d="M2290.3,74.9c-1.1,0-2.1,0.9-2.1,2.1v11.2c0,1.1,0.9,2.1,2.1,2.1h6.7v138.7c0,5.2,4.3,9.5,9.5,9.5h15
			c13.2,17.2,40.8,17.2,53.9,0h75.9c10.1,17.2,36,17.2,46.1,0h42.8c0.7,0,1.4-0.4,1.8-1.1c0.4-0.6,0.4-1.4,0-2.1l-17.3-29.7
			c-0.3-0.5-0.7-0.7-1.2-0.9c2.3-2.8,1.3-9.5,1.5-12.9h2.7c3.6,0,6.6-3,6.6-6.6v-18.6c0-3.6-3-6.6-6.6-6.6h-2.7v-5.9
			c0-4.9-4-8.9-8.9-8.9h-31v-31.3h3.1c1.1,0,2.1-0.9,2.1-2.1V99.6c0-1.1-0.9-2.1-2.1-2.1H2452c-1.1,0-2.1,0.9-2.1,2.1v12.2
			c0,1.1,0.9,2.1,2.1,2.1h3.1v31.3h-76.9v-55h6.7c1.1,0,2.1-0.9,2.1-2.1V76.9c0-1.1-0.9-2.1-2.1-2.1L2290.3,74.9L2290.3,74.9z
			 M2348.4,182.3c-14.7,0-27.2,9.3-32.2,22.2h-15.1V90.2h72.9v103.5C2367.6,186.7,2358.6,182.3,2348.4,182.3L2348.4,182.3z
			 M2480.9,145.1h-21.7v-31.3h21.7V145.1z M2516,149.2c2.6,0,4.8,2.1,4.8,4.8v8c0,0.1,0,27.6,0,27.7v10c0,2.6-2.1,4.8-4.8,4.8h-23.6
			c-9.4-9.2-26.7-9.2-36.1,0h-75.6c-0.7-1.8-1.6-3.5-2.5-5.2v-50.1h78.9c0.1,0,25.9,0,26,0H2516L2516,149.2z M2525,187.6v-23.5h2.7
			c1.3,0,2.4,1.1,2.4,2.4v18.6c0,1.3-1.1,2.4-2.4,2.4L2525,187.6z M2499.4,234.2c3.4-8.2,1.9-18.7-3.3-25.5h25.5l14.9,25.5H2499.4z
			 M2474.3,247.2c-12.6,0-22.8-10.2-22.8-22.8c1.2-30.2,44.3-30.2,45.6,0C2497.1,237,2486.9,247.2,2474.3,247.2L2474.3,247.2z
			 M2378.3,234.2c4.3-7.3,5.9-17.1,3.7-25.5h70.6c-5.2,6.9-6.7,17.4-3.3,25.5H2378.3z M2348.4,247.2c-16.7,0-30.4-13.6-30.4-30.4
			c1.7-40.3,59.1-40.3,60.8,0C2378.8,233.6,2365.2,247.2,2348.4,247.2L2348.4,247.2z M2301.1,208.7h13.8c-2.3,8.5-0.7,18.3,3.7,25.5
			h-12.1c-2.9,0-5.4-2.4-5.4-5.4V208.7z M2292.4,79h90.4v7h-90.4V79z"/>
		<path class="st2" d="M2474.3,234.9c13.8-0.4,13.8-20.4,0-20.9C2460.5,214.5,2460.5,234.4,2474.3,234.9z"/>
		<path class="st2" d="M2333.8,216.9c0.7,19.3,28.6,19.3,29.3,0c0-8.1-6.6-14.6-14.6-14.6C2340.4,202.2,2333.8,208.8,2333.8,216.9z"
			/>
		<path class="st2" d="M2503.3,184.7c1.1,0,2.1-0.9,2.1-2.1v-18.7c0-1.1-0.9-2.1-2.1-2.1h-53.2c-1.1,0-2.1,0.9-2.1,2.1v18.6
			c0,1.1,0.9,2.1,2.1,2.1L2503.3,184.7L2503.3,184.7z M2501.2,166.1v5.2h-49v-5.2H2501.2z"/>
		<path class="st2" d="M2403.8,219.4c-2.7,0-2.7,4.1,0,4.2h22.7c2.7,0,2.7-4.2,0-4.2h-11.7H2403.8L2403.8,219.4z"/>
		<path class="st2" d="M2306.6,152.6v12.9c0,1.1,0.9,2.1,2.1,2.1h9.1c1.1,0,2.1-0.9,2.1-2.1v-12.9c0-1.1-0.9-2.1-2.1-2.1h-9.1
			C2307.5,150.6,2306.6,151.5,2306.6,152.6z M2310.8,154.7h4.9v8.7h-4.9V154.7z"/>
	</g>
	<path class="st13" d="M2348.4,206.4c13.8,0.4,13.8,20.5,0,20.9C2334.6,226.9,2334.6,206.8,2348.4,206.4z"/>
	<path class="st13" d="M2474.3,218.2c8.2,0.2,8.3,12.3,0,12.5C2466.1,230.5,2466.1,218.4,2474.3,218.2z"/>
	<rect x="2452.2" y="175.3" class="st1" width="49" height="5.2"/>
	<rect x="2452.2" y="166.1" class="st1" width="49" height="5.2"/>
	<rect x="2454" y="101.6" class="st1" width="32" height="8"/>
	<polygon class="st1" points="2515.7,339 2536.6,371.4 2293.9,371.4 2314.8,339 	"/>
	<path class="st10" d="M2424.9,252.1c-0.2-0.1-0.3-0.3-0.5-0.4c-0.2-0.2-0.4-0.3-0.7-0.5c-0.2-0.1-0.4-0.3-0.7-0.4
		c-0.2-0.1-0.4-0.2-0.6-0.4c-0.2-0.1-0.5-0.2-0.7-0.3c-0.2-0.1-0.4-0.2-0.6-0.3s-0.5-0.2-0.7-0.3s-0.5-0.2-0.7-0.2
		c-0.2-0.1-0.5-0.1-0.7-0.2c-0.2-0.1-0.5-0.1-0.7-0.2c-0.3-0.1-0.5-0.1-0.8-0.1c-0.2,0-0.4-0.1-0.6-0.1c-1-0.1-2-0.1-3,0
		c-0.2,0-0.4,0.1-0.6,0.1c-0.3,0-0.5,0.1-0.8,0.1c-0.2,0-0.5,0.1-0.7,0.2c-0.2,0.1-0.5,0.1-0.7,0.2c-0.2,0.1-0.5,0.2-0.7,0.2
		c-0.2,0.1-0.5,0.2-0.7,0.3c-0.2,0.1-0.4,0.2-0.6,0.3s-0.5,0.2-0.7,0.3s-0.4,0.2-0.6,0.4c-0.2,0.1-0.4,0.3-0.7,0.4
		c-0.2,0.2-0.4,0.3-0.7,0.5c-0.2,0.1-0.4,0.3-0.5,0.4c-0.4,0.3-0.8,0.6-1.1,1l-39,39c-5.9,5.9-5.9,15.4,0,21.2
		c5.9,5.9,15.4,5.9,21.2,0l13.4-13.4v41.9c0,8.3,6.7,15,15,15s15-6.7,15-15v-41.9l13.3,13.4c5.9,5.9,15.4,5.9,21.2,0
		c2.9-2.9,4.4-6.8,4.4-10.6s-1.5-7.7-4.4-10.6l-39-39C2425.6,252.7,2425.3,252.4,2424.9,252.1z"/>
</g>
<path class="st3" d="M1990.6,425.5v-68h135.7v68c0,5.7-4.6,10.4-10.4,10.4h-26.5c-2.7-20.5-20.2-36.4-41.4-36.4
	c-21.2,0-38.8,15.9-41.4,36.4h-5.6C1995.3,435.9,1990.6,431.3,1990.6,425.5L1990.6,425.5z"/>
<image style="overflow:visible;" width="250" height="75" xlink:href="9B24F326.jpg"  transform="matrix(1 0 0 1 768 -470)">
</image>
</svg>
