<?xml version="1.0" encoding="utf-8"?>
<!-- Generator: Adobe Illustrator 23.0.3, SVG Export Plug-In . SVG Version: 6.00 Build 0)  -->
<svg version="1.1" id="Calque_1" xmlns="http://www.w3.org/2000/svg" xmlns:xlink="http://www.w3.org/1999/xlink" x="0px" y="0px"
	 viewBox="0 0 1645.3 1043.2" style="enable-background:new 0 0 1645.3 1043.2;" xml:space="preserve">
<style type="text/css">
	.st0{fill:#F2C49B;stroke:#402E1F;stroke-width:5;stroke-miterlimit:10;}
	.st1{fill-rule:evenodd;clip-rule:evenodd;fill:#FFFFFF;}
	.st2{fill-rule:evenodd;clip-rule:evenodd;fill:#F2C49B;}
	.st3{fill:#F2C49B;}
	.st4{fill:#402E1F;}
	.st5{fill:#FFFFFF;}
	.st6{fill:#7F6143;}
	.st7{fill:#BF9164;}
	.st8{stroke:#000000;stroke-width:5;stroke-miterlimit:10;}
	.st9{fill:#FFFFFF;stroke:#596069;stroke-width:5;stroke-miterlimit:10;}
	.st10{fill:none;stroke:#596069;stroke-width:5;stroke-linecap:round;stroke-miterlimit:10;}
	.st11{fill:#BF9164;stroke:#7F6143;stroke-width:5;stroke-miterlimit:10;}
	.st12{fill-rule:evenodd;clip-rule:evenodd;}
	.st13{fill:none;stroke:#000000;stroke-width:5;stroke-miterlimit:10;}
	.st14{stroke:#000000;stroke-width:2;stroke-miterlimit:10;}
	.st15{fill:#FFFFFF;stroke:#402E1F;stroke-width:5;stroke-miterlimit:10;}
	.st16{fill:none;stroke:#402E1F;stroke-width:5;stroke-linecap:round;stroke-miterlimit:10;}
	.st17{fill-rule:evenodd;clip-rule:evenodd;fill:#402E1F;}
	.st18{fill-rule:evenodd;clip-rule:evenodd;fill:#D98977;}
	.st19{fill:#402E1F;stroke:#402E1F;stroke-width:2;stroke-miterlimit:10;}
	.st20{fill:#D98977;}
</style>
<circle class="st0" cx="1166.6" cy="520.4" r="79.5"/>
<polygon class="st1" points="1148.1,554.8 1143.5,551.9 1134.9,565.4 1140.6,566.9 1146.8,560.9 "/>
<polygon class="st1" points="1185.3,554.8 1190,551.9 1198.6,565.4 1192.8,566.9 1186.7,560.9 "/>
<path class="st2" d="M1516.8,872.2l-11.9-33.6h2.7c4.6,0,8.3-3.8,8.3-8.4v-7.8c0-8.8-7.2-16.1-16.1-16.1h-57.3
	c-2.3-13.5-14.1-23.9-28.3-23.9h-176.1c-15.8,0-28.7,12.9-28.7,28.7v123.7c0,15.8,12.9,28.7,28.7,28.7h3.9
	c3.3,17.9,18.9,31.4,37.8,31.4c18.8,0,34.4-13.5,37.7-31.3h80.7h39.8h10.5c3.3,17.8,19,31.3,37.7,31.3c18.7,0,34.4-13.5,37.7-31.3
	h10.4c2.7,0,4.8-2.2,4.8-4.7v-61.1C1539.2,884.8,1529.4,873.9,1516.8,872.2z M1279.8,965.9c-5.2,0-9.4-4.2-9.4-9.4s4.2-9.4,9.4-9.4
	s9.4,4.2,9.4,9.4S1285,965.9,1279.8,965.9z M1442.9,828.9v-13h56.9c3.6,0,6.5,2.9,6.5,6.5v6.5H1442.9z M1486.3,965.9
	c-5.2,0-9.4-4.2-9.4-9.4s4.2-9.4,9.4-9.4s9.4,4.2,9.4,9.4S1491.5,965.9,1486.3,965.9z"/>
<g>
	<path class="st3" d="M1321.1,62.1l-4.1-15.2l-2.1-2.8l-16.4-5.1L1257.8,26l-16.4-5.1l-3.3,1.1l-11.9,9.8l-2,2.4l-20.2,63.9
		c-0.7,2.3-0.5,4.7,0.6,6.8c1.1,2.1,3,3.7,5.3,4.4l80.2,25.3c0.9,0.3,1.8,0.4,2.7,0.4c1.4,0,2.8-0.3,4.1-1c2.1-1.1,3.7-3,4.4-5.3
		l20.1-63.5l0.2-0.5L1321.1,62.1z"/>
	<path class="st4" d="M1321.1,62.1l-4.1-15.2l-2.1-2.8l-16.4-5.1L1257.8,26l-16.4-5.1l-3.3,1.1l-11.9,9.8l-2,2.4l-20.2,63.9
		c-0.7,2.3-0.5,4.7,0.6,6.8c1.1,2.1,3,3.7,5.3,4.4l80.2,25.3c0.9,0.3,1.8,0.4,2.7,0.4c1.4,0,2.8-0.3,4.1-1c2.1-1.1,3.7-3,4.4-5.3
		l20.1-63.5l0.2-0.5L1321.1,62.1z M1310.4,50.3l2.2,8.2l-35.3-11.2l2.1-6.8l16.9,5.4L1310.4,50.3z M1241.3,28.4l14.1,4.5l16.9,5.4
		l-2.2,6.8l-35.5-11.2L1241.3,28.4z M1294,126.9c-0.1,0.5-0.5,0.8-0.8,0.9c-0.2,0.1-0.7,0.3-1.3,0.1l-80.2-25.3
		c-0.9-0.3-1.5-1.3-1.2-2.3l19.1-60.6l83.4,26.4L1294,126.9z"/>
</g>
<g>
	<circle class="st3" cx="1271.9" cy="194.4" r="15.7"/>
	<path class="st3" d="M1475.5,152.8c-7.1,0-13.9,1.8-19.8,5l-28.2-39.6c-0.2-0.2-0.4-0.4-0.5-0.6l5.6-22.6c0.4,0,0.8,0.1,1.1,0.1
		h10.4c8.6,0,15.7-7,15.7-15.7v-5.2c0-8.6-7-15.7-15.7-15.7H1418c-14.4,0-26.1,11.7-26.1,26.1c0,2.9,2.3,5.2,5.2,5.2h19.7
		c1.3,0.6,3.3,1.5,5.6,2.4l-5.9,23.7h-76.8v-48l16.9-4.2c2.8-0.7,4.5-3.5,3.8-6.3c-0.7-2.8-3.5-4.5-6.3-3.8l-20.9,5.2
		c-2.3,0.6-4,2.7-4,5.1v36.4h-140.8c-2.9,0-5.2,2.3-5.2,5.2v73.2c0,11.5,9.4,20.9,20.9,20.9h26.4c2.5,20.6,20.1,36.7,41.4,36.7
		s38.9-16,41.4-36.7h5.6c11.5,0,20.9-9.4,20.9-20.9v-21.5l43.1,30c-0.8,2.3-1.4,4.7-1.4,7.2c0,11.5,9.4,20.9,20.9,20.9
		c9.7,0,17.8-6.7,20.1-15.7h11.5c2.6,20.6,20.1,36.5,41.4,36.5c23,0,41.8-18.7,41.8-41.8C1517.3,171.6,1498.6,152.8,1475.5,152.8z
		 M1271.9,225.9c-17.3,0-31.3-14-31.3-31.3s14-31.3,31.3-31.3s31.3,14,31.3,31.3S1289.2,225.9,1271.9,225.9z M1462.7,185.6
		c-0.8,1.2-1.4,2.4-1.9,3.8h-16.2c1.1-6.5,4.2-12.4,8.7-16.9L1462.7,185.6z M1402.3,173.8c-5.1,0-9.7,2-13.4,5.1l-49.1-34.2v-18.2
		h74.3L1402.3,173.8z M1422.6,189.4c-1.5-5.6-5.2-10.3-10.2-13l11.3-45.5l23.6,33c-7.1,6.5-11.9,15.4-13.2,25.5H1422.6z
		 M1475.5,225.9c-15.5,0-28.4-11.3-30.9-26.1h16.2c2.2,6.1,7.9,10.4,14.7,10.4c8.6,0,15.7-7,15.7-15.7c0-8.7-7-15.7-15.7-15.7
		c-1.5,0-2.9,0.3-4.3,0.7l-9.4-13.2c4.1-2,8.7-3.2,13.6-3.2c17.3,0,31.3,14,31.3,31.3S1492.8,225.9,1475.5,225.9z"/>
</g>
<circle class="st0" cx="1540.4" cy="520.4" r="78.9"/>
<g>
	<g>
		<path class="st5" d="M1500.5,551.7c-5.8,0-10.6-4-11.6-9.6h-5.2c-0.7,0-1.2-0.2-1.7-0.7c-0.5-0.5-0.7-1-0.7-1.7v-7.5
			c0-0.7,0.2-1.2,0.7-1.7c0.5-0.5,1-0.7,1.7-0.7h1.9v-34.6c0-3.5,2.9-6.4,6.4-6.4h67.4c3.5,0,6.4,2.9,6.4,6.4l0.2,6.5h18
			c0.7,0,1.3,0.1,1.8,0.4c0.6,0.3,1.1,0.7,1.5,1.2l11.7,15.2c0.4,0.7,0.9,1.5,0.9,2.5v16.9c0,1.1-0.4,2.1-1.2,2.9s-1.8,1.2-2.9,1.2
			h-1.9c-1.1,5.6-6.1,9.7-11.8,9.7c-5.8,0-10.7-4.1-11.8-9.7h-32.6c-1.1,5.6-6.1,9.7-11.8,9.7s-10.7-4.1-11.8-9.7h-1.3
			c-1.1,5.6-6.1,9.7-11.8,9.7C1500.6,551.7,1500.6,551.7,1500.5,551.7z"/>
	</g>
</g>
<circle class="st0" cx="1353.5" cy="520.4" r="87.4"/>
<g>
	<path class="st5" d="M1403.9,519l-4.3-2.4v-3.7c0-2.7-2.2-4.8-4.8-4.8c-2.1,0-3.9,1.4-4.5,3.3l-6.1-3.5V504c0-2.6-2.2-4.8-4.8-4.8
		c-2.2,0-4,1.4-4.6,3.4l-9.9-5.6v-19.6c0-3-1.2-5.9-3.3-8c-2.1-2.1-5-3.3-8-3.3c-6.2,0-11.3,5.1-11.3,11.3V497l-10,5.6
		c-0.6-2-2.4-3.4-4.6-3.4c-2.7,0-4.8,2.2-4.8,4.8l0,0v3.9l-1.3,0.7l-4.8,2.7c-0.6-1.9-2.4-3.3-4.5-3.3c-2.7,0-4.8,2.2-4.8,4.8v3.7
		l-4.3,2.4c-0.6,0.3-0.9,0.9-0.9,1.6v12.8c0,0.6,0.3,1.1,0.7,1.4c0.3,0.3,0.7,0.4,1.1,0.4c0.1,0,0.3,0,0.4-0.1l37.8-9.3v18.8
		l-13.4,6.5c-0.6,0.3-1,0.9-1,1.6v7.4c0,1,0.8,1.8,1.8,1.8h14c1.2,2.2,3.1,3.9,5.4,5v3.4c0,2.5,2,4.6,4.6,4.6s4.6-2,4.6-4.6v-3.4
		c2.3-1,4.2-2.8,5.4-5h14c1,0,1.8-0.8,1.8-1.8v-7.4c0-0.7-0.4-1.3-1-1.6l-13.4-6.4v-18.8l37.8,9.3c0.1,0,0.3,0.1,0.4,0.1
		c0.4,0,0.8-0.1,1.1-0.4c0.4-0.3,0.7-0.9,0.7-1.4v-12.8C1404.8,519.9,1404.5,519.3,1403.9,519z"/>
</g>
<path class="st3" d="M896.6,365.9c-0.1-0.2-0.3-0.3-0.4-0.5l-37.5-32.8c-1.1-0.9-2.7-1-3.7,0l-35.6,29.8h-43.7H661.2h-43.7
	l-35.6-29.8c-1.1-0.9-2.7-0.9-3.7,0l-37.5,32.8c-1.2,1-1.3,2.9-0.3,4.1c0.1,0.2,0.3,0.3,0.5,0.4l48.1,34.9v178
	c0,9.5,7.7,17.2,17.2,17.2h224.6c9.5,0,17.2-7.7,17.2-17.2v-178l48.1-34.9C897.3,369,897.5,367.2,896.6,365.9z"/>
<path class="st6" d="M661,362.3h-43.7l-35.6-29.8c-1.1-0.9-2.7-0.9-3.7,0l-37.5,32.8c-1.2,1-1.3,2.9-0.3,4.1
	c0.1,0.2,0.3,0.3,0.5,0.4l48.1,34.9v178c0,9.5,7.7,17.2,17.2,17.2h224.6c9.5,0,17.2-7.7,17.2-17.2v-178l48.1-34.9
	c1.3-0.9,1.6-2.7,0.6-4c-0.1-0.2-0.3-0.3-0.4-0.5l-37.5-32.8c-1.1-0.9-2.7-1-3.7,0l-35.6,29.8h-43.7H661z M775.5,368.1h43.2
	l20.9,32.4H596.9l20.9-32.4H661H775.5z M579.9,338.5l32.5,27.3l-21.6,33.4l-43.9-31.9L579.9,338.5z M772.6,406.2h69.3v176.6
	c0,6.3-5.1,11.4-11.4,11.4H605.9c-6.3,0-11.4-5.1-11.4-11.4V406.2h69.3h5.8h97.3H772.6z M845.6,399.2L824,365.8l32.5-27.3l33,28.8
	L845.6,399.2z"/>
<path class="st4" d="M661,362.3h-43.7l-35.6-29.8c-1.1-0.9-2.7-0.9-3.7,0l-37.5,32.8c-1.2,1-1.3,2.9-0.3,4.1
	c0.1,0.2,0.3,0.3,0.5,0.4l48.1,34.9v178c0,9.5,7.7,17.2,17.2,17.2h224.6c9.5,0,17.2-7.7,17.2-17.2v-178l48.1-34.9
	c1.3-0.9,1.6-2.7,0.6-4c-0.1-0.2-0.3-0.3-0.4-0.5l-37.5-32.8c-1.1-0.9-2.7-1-3.7,0l-35.6,29.8h-43.7H661z M775.5,368.1h43.2
	l20.9,32.4H596.9l20.9-32.4H661H775.5z M579.9,338.5l32.5,27.3l-21.6,33.4l-43.9-31.9L579.9,338.5z M772.6,406.2h69.3v176.6
	c0,6.3-5.1,11.4-11.4,11.4H605.9c-6.3,0-11.4-5.1-11.4-11.4V406.2h69.3h5.8h97.3H772.6z M845.6,399.2L824,365.8l32.5-27.3l33,28.8
	L845.6,399.2z"/>
<path class="st7" d="M535.3-742.2l-21.6-33.4l-4.8-3.5h-43.7H350.7H307l-4.9,3.5l-21.6,33.4l-2.1,5.6v178c0,9.5,7.7,17.2,17.2,17.2
	h224.6c9.5,0,17.2-7.7,17.2-17.2v-178L535.3-742.2z"/>
<path class="st7" d="M34.8-775.6c-0.1-0.2-0.3-0.3-0.4-0.5l-37.6-32.8c-1.1-0.9-2.7-1-3.7,0l-35.6,29.8h-43.7h-114.4h-43.7
	l-35.6-29.8c-1.1-0.9-2.7-0.9-3.7,0l-37.5,32.8c-1.2,1-1.3,2.9-0.3,4.1c0.1,0.2,0.3,0.3,0.5,0.4l48.1,34.9v178
	c0,9.5,7.7,17.2,17.2,17.2H-31c9.5,0,17.2-7.7,17.2-17.2v-178l48.1-34.9C35.4-772.5,35.7-774.3,34.8-775.6z"/>
<g>
	<path class="st7" d="M-16.9-876.7l-17.3-29.7c-0.3-0.5-0.7-0.7-1.2-0.9c2.3-2.8,1.3-9.5,1.5-12.9h2.7c3.6,0,6.6-3,6.6-6.6v-18.6
		c0-3.6-3-6.6-6.6-6.6h-2.7v-5.9c0-4.9-4-8.9-8.9-8.9h-31v-31.3h3.1c1.1,0,2.1-0.9,2.1-2.1v-12.2c0-1.1-0.9-2.1-2.1-2.1h-36.2
		c-1.1,0-2.1,0.9-2.1,2.1v12.2c0,1.1,0.9,2.1,2.1,2.1h3.1v31.3h-76.9v-54.9h6.7c1.1,0,2.1-0.9,2.1-2.1v-11.2c0-1.1-0.9-2.1-2.1-2.1
		h-94.6l0,0c-1.1,0-2.1,0.9-2.1,2.1v11.2c0,1.1,0.9,2.1,2.1,2.1h6.7V-883c0,5.2,4.3,9.5,9.5,9.5h15c13.2,17.2,40.8,17.2,53.9,0h75.9
		c10.1,17.2,36,17.2,46.1,0h42.8c0.7,0,1.4-0.4,1.8-1.1C-16.5-875.3-16.5-876.1-16.9-876.7z"/>
	<path class="st5" d="M-248.1-1012.4h53.5v38.6h-53.5V-1012.4z"/>
</g>
<path class="st6" d="M-200.8-779.1h-43.7l-35.5-29.8c-1.1-0.9-2.7-0.9-3.7,0l-37.5,32.8c-1.2,1-1.3,2.9-0.3,4.1
	c0.1,0.2,0.3,0.3,0.5,0.4l48.1,34.9v178c0,9.5,7.7,17.2,17.2,17.2h224.6c9.5,0,17.2-7.7,17.2-17.2v-178l48.1-34.9
	c1.3-0.9,1.6-2.7,0.6-4c-0.1-0.2-0.3-0.3-0.4-0.5l-37.7-32.8c-1.1-0.9-2.7-1-3.7,0l-35.6,29.8h-43.7H-200.8z M-86.4-773.3h43.2
	l20.9,32.4h-242.6l20.9-32.4h43.2H-86.4z M-281.9-802.9l32.5,27.3l-21.6,33.4l-43.9-31.9L-281.9-802.9z M-89.2-735.2h69.3v176.6
	c0,6.3-5.1,11.4-11.4,11.4h-224.6c-6.3,0-11.4-5.1-11.4-11.4v-176.6h69.3h5.8h97.3H-89.2z M-16.2-742.2l-21.6-33.4l32.5-27.3
	l33,28.8L-16.2-742.2z"/>
<path class="st6" d="M-200.8-779.1h-43.7l-35.5-29.8c-1.1-0.9-2.7-0.9-3.7,0l-37.5,32.8c-1.2,1-1.3,2.9-0.3,4.1
	c0.1,0.2,0.3,0.3,0.5,0.4l48.1,34.9v178c0,9.5,7.7,17.2,17.2,17.2h224.6c9.5,0,17.2-7.7,17.2-17.2v-178l48.1-34.9
	c1.3-0.9,1.6-2.7,0.6-4c-0.1-0.2-0.3-0.3-0.4-0.5l-37.7-32.8c-1.1-0.9-2.7-1-3.7,0l-35.6,29.8h-43.7H-200.8z M-86.4-773.3h43.2
	l20.9,32.4h-242.6l20.9-32.4h43.2H-86.4z M-281.9-802.9l32.5,27.3l-21.6,33.4l-43.9-31.9L-281.9-802.9z M-89.2-735.2h69.3v176.6
	c0,6.3-5.1,11.4-11.4,11.4h-224.6c-6.3,0-11.4-5.1-11.4-11.4v-176.6h69.3h5.8h97.3H-89.2z M-16.2-742.2l-21.6-33.4l32.5-27.3
	l33,28.8L-16.2-742.2z"/>
<g>
	<path class="st6" d="M-252.2-1014.9v42.8c0,1.1,0.9,2.1,2.1,2.1h57.7c1.1,0,2.1-0.9,2.1-2.1v-42.8c0-1.1-0.9-2.1-2.1-2.1h-57.7
		C-251.3-1017-252.2-1016.1-252.2-1014.9z M-248-1012.8h53.5v38.6H-248V-1012.8z"/>
	<path class="st6" d="M-268.5-1037.5c-1.1,0-2.1,0.9-2.1,2.1v11.2c0,1.1,0.9,2.1,2.1,2.1h6.7v138.7c0,5.2,4.3,9.5,9.5,9.5h15
		c13.2,17.2,40.8,17.2,53.9,0h75.9c10.1,17.2,36,17.2,46.1,0h42.8c0.7,0,1.4-0.4,1.8-1.1c0.4-0.6,0.4-1.4,0-2.1l-17.3-29.7
		c-0.3-0.5-0.7-0.7-1.2-0.9c2.3-2.8,1.3-9.5,1.5-12.9h2.7c3.6,0,6.6-3,6.6-6.6v-18.6c0-3.6-3-6.6-6.6-6.6h-2.7v-5.9
		c0-4.9-4-8.9-8.9-8.9h-31v-31.3h3.1c1.1,0,2.1-0.9,2.1-2.1v-12.2c0-1.1-0.9-2.1-2.1-2.1h-36.2c-1.1,0-2.1,0.9-2.1,2.1v12.2
		c0,1.1,0.9,2.1,2.1,2.1h3.1v31.3h-76.9v-54.9h6.7c1.1,0,2.1-0.9,2.1-2.1v-11.2c0-1.1-0.9-2.1-2.1-2.1H-268.5L-268.5-1037.5z
		 M-210.4-930c-14.7,0-27.2,9.3-32.2,22.2h-15.1v-114.3h72.9v103.5C-191.2-925.6-200.3-930-210.4-930L-210.4-930z M-72.8-1002.7h-32
		v-8h32V-1002.7z M-77.9-967.3h-21.7v-31.3h21.7V-967.3z M-42.8-963.1c2.6,0,4.8,2.1,4.8,4.8v8c0,0.1,0,27.6,0,27.7v10
		c0,2.6-2.1,4.8-4.8,4.8h-23.6c-9.4-9.2-26.7-9.2-36.1,0h-75.6c-0.7-1.8-1.6-3.5-2.5-5.2v-50.1h78.9c0.1,0,25.9,0,26,0H-42.8
		L-42.8-963.1z M-33.9-924.8v-23.5h2.7c1.3,0,2.4,1.1,2.4,2.4v18.6c0,1.3-1.1,2.4-2.4,2.4L-33.9-924.8z M-59.4-878.1
		c3.4-8.2,1.9-18.7-3.3-25.5h25.5l14.9,25.5H-59.4z M-84.5-865.1c-12.6,0-22.8-10.2-22.8-22.8c1.2-30.2,44.3-30.2,45.6,0
		C-61.7-875.3-71.9-865.1-84.5-865.1L-84.5-865.1z M-180.5-878.1c4.3-7.3,5.9-17.1,3.7-25.5h70.6c-5.2,6.9-6.7,17.4-3.3,25.5H-180.5
		z M-210.4-865.1c-16.7,0-30.4-13.6-30.4-30.4c1.7-40.3,59.1-40.3,60.8,0C-180-878.7-193.6-865.1-210.4-865.1L-210.4-865.1z
		 M-257.7-903.7h13.8c-2.3,8.5-0.7,18.3,3.7,25.5h-12.2c-2.9,0-5.4-2.4-5.4-5.4L-257.7-903.7z M-266.5-1033.3h90.4v7h-90.4V-1033.3z
		"/>
	<path class="st6" d="M-84.5-877.4c13.8-0.4,13.8-20.4,0-20.9C-98.3-897.9-98.3-877.9-84.5-877.4z M-84.5-894.1
		c8.2,0.2,8.3,12.3,0,12.5C-92.7-881.8-92.7-893.9-84.5-894.1z"/>
	<path class="st6" d="M-225-895.5c0.7,19.3,28.6,19.3,29.3,0c0-8.1-6.6-14.6-14.6-14.6C-218.4-910.1-225-903.6-225-895.5z
		 M-210.4-905.9c13.8,0.4,13.8,20.5,0,20.9C-224.2-885.5-224.2-905.5-210.4-905.9z"/>
	<path class="st6" d="M-55.5-927.6c1.1,0,2.1-0.9,2.1-2.1v-18.7c0-1.1-0.9-2.1-2.1-2.1h-53.2c-1.1,0-2.1,0.9-2.1,2.1v18.6
		c0,1.1,0.9,2.1,2.1,2.1L-55.5-927.6L-55.5-927.6z M-106.6-931.8v-5.2h49v5.2H-106.6z M-57.6-946.3v5.2h-49v-5.2H-57.6z"/>
	<path class="st6" d="M-155-893c-2.7,0-2.7,4.1,0,4.2h22.7c2.7,0,2.7-4.2,0-4.2H-144H-155L-155-893z"/>
	<path class="st6" d="M-252.2-959.7v12.9c0,1.1,0.9,2.1,2.1,2.1h9.1c1.1,0,2.1-0.9,2.1-2.1v-12.9c0-1.1-0.9-2.1-2.1-2.1h-9.1
		C-251.3-961.8-252.2-960.8-252.2-959.7z M-248-957.6h4.9v8.7h-4.9V-957.6z"/>
</g>
<path class="st6" d="M535.3-742.2l-21.6-33.4l-4.8-3.5h-43.7H350.7H307l-4.9,3.5l-21.6,33.4l-2.1,5.6v178c0,9.5,7.7,17.2,17.2,17.2
	h224.6c9.5,0,17.2-7.7,17.2-17.2v-178L535.3-742.2z M307.5-773.3h43.2h114.4h43.2l20.9,32.4H286.6L307.5-773.3z M520.2-547.2H295.6
	c-6.3,0-11.4-5.1-11.4-11.4v-176.6h69.3h5.8h97.3h5.7h69.3v176.6C531.6-552.3,526.5-547.2,520.2-547.2z"/>
<g>
	<polygon class="st6" points="405,-773.7 404.9,-738.7 411.1,-738.7 410.8,-773.7 	"/>
</g>
<path class="st8" d="M968.2-1485.8l-3.9-14.4l-1.3-1.8l-15.6-4.9l-40.8-12.9l-15.6-4.9l-2.1,0.7l-11.5,9.5l-1.4,1.7l-20.1,63.5
	c-1.1,3.4,0.8,7,4.2,8.1l80.2,25.3c3.4,1.1,7-0.8,8.1-4.2l20.1-63.5L968.2-1485.8z M890.5-1522.6l15.4,4.9l40.8,12.9l15.4,4.9
	l3.8,13.9l-86.6-27.4L890.5-1522.6z M940.9-1417.9l-80.2-25.3c-2.2-0.7-3.5-3.1-2.8-5.4l19.9-63l24.7,7.8l2.1,0.7l34.7,11l2,0.6
	l24.7,7.8l-19.9,63C945.5-1418.4,943.1-1417.1,940.9-1417.9z"/>
<g>
	<polygon class="st8" points="925.3,-1511.7 921.3,-1499.2 923.5,-1498.5 927.4,-1511 	"/>
</g>
<path class="st9" d="M388.1-636.1h-84.8c-3.2,0-5.9-2.6-5.9-5.9v-48.8c0-3.2,2.6-5.9,5.9-5.9h84.8c3.2,0,5.9,2.6,5.9,5.9v48.8
	C393.9-638.7,391.3-636.1,388.1-636.1z"/>
<line class="st10" x1="309.9" y1="-681.5" x2="353.3" y2="-681.5"/>
<line class="st10" x1="309.9" y1="-671.3" x2="367.1" y2="-671.3"/>
<line class="st10" x1="309.9" y1="-661.1" x2="359" y2="-661.1"/>
<line class="st10" x1="309.9" y1="-650.9" x2="353.3" y2="-650.9"/>
<path class="st11" d="M207.9-631.7c0.1-0.2,0.3-0.3,0.4-0.5c0.2-0.2,0.3-0.4,0.5-0.7c0.1-0.2,0.3-0.4,0.4-0.7
	c0.1-0.2,0.2-0.4,0.4-0.6c0.1-0.2,0.2-0.5,0.3-0.7c0.1-0.2,0.2-0.4,0.3-0.6c0.1-0.2,0.2-0.5,0.3-0.7c0.1-0.2,0.2-0.5,0.2-0.7
	c0.1-0.2,0.1-0.5,0.2-0.7s0.1-0.5,0.2-0.7c0.1-0.3,0.1-0.5,0.1-0.8c0-0.2,0.1-0.4,0.1-0.6c0.1-1,0.1-2,0-3c0-0.2-0.1-0.4-0.1-0.6
	c0-0.3-0.1-0.5-0.1-0.8c0-0.2-0.1-0.5-0.2-0.7s-0.1-0.5-0.2-0.7s-0.2-0.5-0.2-0.7c-0.1-0.2-0.2-0.5-0.3-0.7
	c-0.1-0.2-0.2-0.4-0.3-0.6c-0.1-0.2-0.2-0.5-0.3-0.7c-0.1-0.2-0.2-0.4-0.4-0.6c-0.1-0.2-0.3-0.4-0.4-0.7c-0.2-0.2-0.3-0.4-0.5-0.7
	c-0.1-0.2-0.3-0.4-0.4-0.5c-0.3-0.4-0.6-0.8-1-1.1l-39-39c-5.9-5.9-15.4-5.9-21.2,0c-5.9,5.9-5.9,15.4,0,21.2l13.4,13.4H54.5
	c-8.3,0-15,6.7-15,15s6.7,15,15,15h105.6l-13.4,13.4c-5.9,5.9-5.9,15.4,0,21.2c2.9,2.9,6.8,4.4,10.6,4.4s7.7-1.5,10.6-4.4l39-39
	C207.3-630.9,207.6-631.3,207.9-631.7z"/>
<path class="st11" d="M733.4-631.7c0.1-0.2,0.3-0.3,0.4-0.5c0.2-0.2,0.3-0.4,0.5-0.7c0.1-0.2,0.3-0.4,0.4-0.7
	c0.1-0.2,0.2-0.4,0.4-0.6c0.1-0.2,0.2-0.5,0.3-0.7c0.1-0.2,0.2-0.4,0.3-0.6c0.1-0.2,0.2-0.5,0.3-0.7c0.1-0.2,0.2-0.5,0.2-0.7
	c0.1-0.2,0.1-0.5,0.2-0.7s0.1-0.5,0.2-0.7c0.1-0.3,0.1-0.5,0.1-0.8c0-0.2,0.1-0.4,0.1-0.6c0.1-1,0.1-2,0-3c0-0.2-0.1-0.4-0.1-0.6
	c0-0.3-0.1-0.5-0.1-0.8c0-0.2-0.1-0.5-0.2-0.7s-0.1-0.5-0.2-0.7s-0.2-0.5-0.2-0.7c-0.1-0.2-0.2-0.5-0.3-0.7
	c-0.1-0.2-0.2-0.4-0.3-0.6c-0.1-0.2-0.2-0.5-0.3-0.7c-0.1-0.2-0.2-0.4-0.4-0.6c-0.1-0.2-0.3-0.4-0.4-0.7c-0.2-0.2-0.3-0.4-0.5-0.7
	c-0.1-0.2-0.3-0.4-0.4-0.5c-0.3-0.4-0.6-0.8-1-1.1l-39-39c-5.9-5.9-15.4-5.9-21.2,0c-5.9,5.9-5.9,15.4,0,21.2l13.4,13.4H580
	c-8.3,0-15,6.7-15,15s6.7,15,15,15h105.6l-13.4,13.4c-5.9,5.9-5.9,15.4,0,21.2c2.9,2.9,6.8,4.4,10.6,4.4s7.7-1.5,10.6-4.4l39-39
	C732.7-630.9,733-631.3,733.4-631.7z"/>
<path class="st11" d="M605.8-1259.3c0,0.2,0.1,0.4,0.1,0.6c0,0.3,0.1,0.5,0.1,0.8s0.1,0.5,0.2,0.7c0.1,0.2,0.1,0.5,0.2,0.7
	c0.1,0.2,0.2,0.5,0.3,0.7s0.2,0.4,0.2,0.7c0.1,0.2,0.2,0.4,0.3,0.7c0.1,0.2,0.2,0.5,0.3,0.7s0.2,0.4,0.4,0.6
	c0.1,0.2,0.2,0.4,0.4,0.6s0.3,0.4,0.5,0.7c0.1,0.2,0.2,0.3,0.4,0.5c0.6,0.8,1.3,1.5,2.1,2.1c0.2,0.1,0.3,0.3,0.5,0.4
	c0.2,0.2,0.4,0.3,0.7,0.5c0.2,0.1,0.4,0.3,0.6,0.4c0.2,0.1,0.4,0.3,0.6,0.4c0.2,0.1,0.4,0.2,0.7,0.3c0.2,0.1,0.4,0.2,0.7,0.3
	c0.2,0.1,0.4,0.2,0.7,0.2c0.2,0.1,0.5,0.2,0.7,0.3c0.2,0.1,0.5,0.1,0.7,0.2s0.5,0.1,0.7,0.2c0.3,0.1,0.5,0.1,0.8,0.1
	c0.2,0,0.4,0.1,0.6,0.1c0.5,0,1,0.1,1.5,0.1h55.1c8.3,0,15-6.7,15-15s-6.7-15-15-15H657l74.6-74.6c5.9-5.9,5.9-15.4,0-21.2
	c-5.9-5.9-15.4-5.9-21.2,0l-74.6,74.6v-18.9c0-8.3-6.7-15-15-15c-4.1,0-7.9,1.7-10.6,4.4c-2.7,2.7-4.4,6.5-4.4,10.6v55.1
	C605.7-1260.3,605.8-1259.8,605.8-1259.3z"/>
<path class="st11" d="M-153.1-758.9c0.2,0.1,0.3,0.3,0.5,0.4c0.2,0.2,0.4,0.3,0.7,0.5c0.2,0.1,0.4,0.3,0.7,0.4
	c0.2,0.1,0.4,0.2,0.6,0.4c0.2,0.1,0.5,0.2,0.7,0.3s0.4,0.2,0.6,0.3c0.2,0.1,0.5,0.2,0.7,0.3s0.5,0.2,0.7,0.2
	c0.2,0.1,0.5,0.1,0.7,0.2c0.2,0.1,0.5,0.1,0.7,0.2c0.3,0.1,0.5,0.1,0.8,0.1c0.2,0,0.4,0.1,0.6,0.1c1,0.1,2,0.1,3,0
	c0.2,0,0.4-0.1,0.6-0.1c0.3,0,0.5-0.1,0.8-0.1c0.2,0,0.5-0.1,0.7-0.2c0.2-0.1,0.5-0.1,0.7-0.2c0.2-0.1,0.5-0.2,0.7-0.2
	c0.2-0.1,0.5-0.2,0.7-0.3s0.4-0.2,0.6-0.3c0.2-0.1,0.5-0.2,0.7-0.3s0.4-0.2,0.6-0.4c0.2-0.1,0.4-0.3,0.7-0.4
	c0.2-0.2,0.4-0.3,0.7-0.5c0.2-0.1,0.4-0.3,0.5-0.4c0.4-0.3,0.8-0.6,1.1-1l39-39c5.9-5.9,5.9-15.4,0-21.2c-5.9-5.9-15.4-5.9-21.2,0
	l-13.4,13.4v-41.9c0-8.3-6.7-15-15-15s-15,6.7-15,15v41.9l-13.4-13.4c-5.9-5.9-15.4-5.9-21.2,0c-2.9,2.9-4.4,6.8-4.4,10.6
	s1.5,7.7,4.4,10.6l39,39C-153.8-759.6-153.5-759.2-153.1-758.9z"/>
<path d="M316.7-1183.4H273l-35.6-29.8c-1.1-0.9-2.7-0.9-3.7,0l-37.5,32.8c-1.2,1-1.3,2.9-0.3,4.1c0.1,0.2,0.3,0.3,0.5,0.4l48.1,34.9
	v178c0,9.5,7.7,17.2,17.2,17.2h224.6c9.5,0,17.2-7.7,17.2-17.2v-178l48.1-34.9c1.3-0.9,1.6-2.7,0.6-4c-0.1-0.2-0.3-0.3-0.4-0.5
	l-37.5-32.8c-1.1-0.9-2.7-1-3.7,0l-35.6,29.8h-43.7H316.7z M431.1-1177.7h43.2l20.9,32.4H252.6l20.9-32.4h43.2H431.1z M235.6-1207.3
	l32.5,27.3l-21.6,33.4l-43.9-31.9L235.6-1207.3z M428.3-1139.5h69.3v176.6c0,6.3-5.1,11.4-11.4,11.4H261.6
	c-6.3,0-11.4-5.1-11.4-11.4v-176.6h69.3h5.8h97.3H428.3z M501.3-1146.6l-21.6-33.4l32.5-27.3l33,28.8L501.3-1146.6z"/>
<g>
	<path d="M480.5-1421.3h-57.7c-1.1,0-2.1,0.9-2.1,2.1v42.8c0,1.1,0.9,2.1,2.1,2.1h57.7c1.1,0,2.1-0.9,2.1-2.1v-42.8
		C482.6-1420.4,481.6-1421.3,480.5-1421.3z M478.4-1378.5h-53.5v-38.6h53.5V-1378.5z"/>
	<path d="M498.9-1441.8h-94.5c-1.1,0-2.1,0.9-2.1,2.1v11.2c0,1.1,0.9,2.1,2.1,2.1h6.7v54.9h-76.9v-31.3h3.1c1.1,0,2.1-0.9,2.1-2.1
		v-12.2c0-1.1-0.9-2.1-2.1-2.1h-36.2c-1.1,0-2.1,0.9-2.1,2.1v12.2c0,1.1,0.9,2.1,2.1,2.1h3.1v31.3h-31c-4.9,0-8.9,4-8.9,8.9v5.9
		h-2.7c-3.6,0-6.6,3-6.6,6.6v18.6c0,3.6,3,6.6,6.6,6.6h2.7c0.2,3.4-0.8,10.1,1.5,12.9c-0.5,0.1-0.9,0.4-1.2,0.9l-17.3,29.7
		c-0.4,0.6-0.4,1.4,0,2.1c0.4,0.6,1.1,1.1,1.8,1.1h42.8c10.1,17.2,36,17.2,46.1,0h75.9c13.2,17.2,40.8,17.2,53.9,0h15
		c5.2,0,9.5-4.3,9.5-9.5v-138.7h6.7c1.1,0,2.1-0.9,2.1-2.1v-11.2C501-1440.9,500-1441.8,498.9-1441.8L498.9-1441.8z M440.7-1334.4
		c-10.1,0-19.2,4.4-25.5,11.4v-103.5h72.9v114.3H473C468-1325.1,455.4-1334.4,440.7-1334.4L440.7-1334.4z M303.2-1415.1h32v8h-32
		V-1415.1z M308.3-1402.9H330v31.3h-21.7V-1402.9z M273.2-1367.5h33c0.1,0,25.9,0,26,0h78.9v50.1c-1,1.7-1.8,3.4-2.5,5.2H333
		c-9.4-9.2-26.7-9.2-36.1,0h-23.6c-2.6,0-4.8-2.1-4.8-4.8v-10c0-0.1,0-27.6,0-27.7v-8C268.4-1365.3,270.5-1367.5,273.2-1367.5
		L273.2-1367.5z M261.5-1329.1c-1.4,0-2.4-1.1-2.4-2.4v-18.6c0-1.4,1.1-2.4,2.4-2.4h2.7v23.5L261.5-1329.1z M252.6-1282.5l14.9-25.5
		H293c-5.2,6.9-6.7,17.4-3.3,25.5H252.6z M314.8-1269.4c-12.6,0-22.8-10.2-22.8-22.8c1.2-30.2,44.3-30.2,45.6,0
		C337.6-1279.7,327.4-1269.4,314.8-1269.4L314.8-1269.4z M339.9-1282.5c3.4-8.2,1.9-18.7-3.3-25.5h70.6c-2.2,8.5-0.7,18.3,3.7,25.5
		H339.9z M440.7-1269.4c-16.7,0-30.4-13.6-30.4-30.4c1.7-40.3,59.1-40.3,60.8,0C471.1-1283.1,457.5-1269.4,440.7-1269.4
		L440.7-1269.4z M488.1-1287.8c0,2.9-2.4,5.4-5.4,5.4h-12.1c4.4-7.3,5.9-17.1,3.7-25.5h13.8V-1287.8z M496.8-1430.6h-90.4v-7h90.4
		V-1430.6z"/>
	<path d="M314.8-1302.6c-13.8,0.4-13.8,20.4,0,20.9C328.6-1282.2,328.6-1302.2,314.8-1302.6z M314.8-1286c-8.3-0.2-8.2-12.3,0-12.5
		C323.1-1298.3,323.1-1286.2,314.8-1286z"/>
	<path d="M440.7-1314.4c-8.1,0-14.6,6.6-14.6,14.6c0.7,19.3,28.6,19.3,29.3,0C455.4-1307.9,448.8-1314.4,440.7-1314.4z
		 M440.7-1289.3c-13.8-0.4-13.8-20.5,0-20.9C454.6-1309.8,454.6-1289.8,440.7-1289.3z"/>
	<path d="M285.9-1332h53.2c1.1,0,2.1-0.9,2.1-2.1v-18.6c0-1.1-0.9-2.1-2.1-2.1h-53.2c-1.1,0-2.1,0.9-2.1,2.1v18.7
		C283.8-1332.9,284.7-1332,285.9-1332L285.9-1332z M288-1336.1v-5.2h49v5.2H288z M337-1350.6v5.2h-49v-5.2H337z"/>
	<path d="M385.4-1297.3h-11h-11.7c-2.7,0-2.7,4.2,0,4.2h22.7C388.1-1293.2,388.1-1297.3,385.4-1297.3L385.4-1297.3z"/>
	<path d="M480.5-1366.1h-9.1c-1.1,0-2.1,0.9-2.1,2.1v12.9c0,1.1,0.9,2.1,2.1,2.1h9.1c1.1,0,2.1-0.9,2.1-2.1v-12.9
		C482.6-1365.2,481.6-1366.1,480.5-1366.1z M478.4-1353.2h-4.9v-8.7h4.9V-1353.2z"/>
</g>
<path class="st11" d="M383.4-1256.6c-0.2-0.1-0.3-0.3-0.5-0.4c-0.2-0.2-0.4-0.3-0.7-0.5c-0.2-0.1-0.4-0.3-0.7-0.4
	c-0.2-0.1-0.4-0.2-0.6-0.4c-0.2-0.1-0.5-0.2-0.7-0.3c-0.2-0.1-0.4-0.2-0.6-0.3c-0.2-0.1-0.5-0.2-0.7-0.3c-0.2-0.1-0.5-0.2-0.7-0.2
	c-0.2-0.1-0.5-0.1-0.7-0.2s-0.5-0.1-0.7-0.2c-0.3-0.1-0.5-0.1-0.8-0.1c-0.2,0-0.4-0.1-0.6-0.1c-1-0.1-2-0.1-3,0
	c-0.2,0-0.4,0.1-0.6,0.1c-0.3,0-0.5,0.1-0.8,0.1c-0.2,0-0.5,0.1-0.7,0.2s-0.5,0.1-0.7,0.2s-0.5,0.2-0.7,0.2
	c-0.2,0.1-0.5,0.2-0.7,0.3c-0.2,0.1-0.4,0.2-0.6,0.3c-0.2,0.1-0.5,0.2-0.7,0.3c-0.2,0.1-0.4,0.2-0.6,0.4c-0.2,0.1-0.4,0.3-0.7,0.4
	c-0.2,0.2-0.4,0.3-0.7,0.5c-0.2,0.1-0.4,0.3-0.5,0.4c-0.4,0.3-0.8,0.6-1.1,1l-39,39c-5.9,5.9-5.9,15.4,0,21.2
	c5.9,5.9,15.4,5.9,21.2,0l13.4-13.4v41.9c0,8.3,6.7,15,15,15s15-6.7,15-15v-41.9l13.4,13.4c5.9,5.9,15.4,5.9,21.2,0
	c2.9-2.9,4.4-6.8,4.4-10.6c0-3.8-1.5-7.7-4.4-10.6l-39-39C384.2-1256,383.8-1256.3,383.4-1256.6z"/>
<g>
	<path class="st12" d="M1190.1-583.7h-14.6c-2.6,0-4.8-2.2-4.8-4.8s2.2-4.8,4.8-4.8h9.8v-56.2c0-8.9-7.3-16.2-16.2-16.2h-75.3
		c-2.6,0-4.8-2.2-4.8-4.8s2.2-4.8,4.8-4.8h75.3c14.2,0,25.8,11.6,25.8,25.8v61.1C1194.9-585.8,1192.7-583.7,1190.1-583.7
		L1190.1-583.7z"/>
	<path class="st12" d="M1169.1-665.7c-2,0-3.8-1.2-4.6-3.2l-15.2-43c-0.9-2.5,0.4-5.3,2.9-6.1c2.5-0.9,5.3,0.4,6.1,2.9l15.2,43
		c0.9,2.5-0.4,5.3-2.9,6.1C1170.1-665.8,1169.6-665.7,1169.1-665.7L1169.1-665.7z"/>
	<path class="st12" d="M1163.3-708.7h-69.5c-2.6,0-4.8-2.2-4.8-4.8v-22.6c0-2.6,2.2-4.8,4.8-4.8h61.7c8.9,0,16.1,7.3,16.1,16.1v7.8
		C1171.6-712.4,1167.9-708.7,1163.3-708.7L1163.3-708.7z M1098.6-718.3h63.4v-6.5c0-3.6-2.9-6.5-6.5-6.5h-56.9V-718.3L1098.6-718.3
		L1098.6-718.3z"/>
	<path class="st12" d="M1093.8-583.7H969c-2.6,0-4.8-2.2-4.8-4.8s2.2-4.8,4.8-4.8h120v-142.8c0-10.5-8.6-19.1-19.1-19.1H893.8
		c-10.5,0-19.1,8.6-19.1,19.1v123.7c0,10.5,8.6,19.1,19.1,19.1h8.2c2.6,0,4.8,2.2,4.8,4.8s-2.2,4.8-4.8,4.8h-8.2
		c-15.8,0-28.7-12.9-28.7-28.7v-123.7c0-15.8,12.9-28.7,28.7-28.7h176.1c15.8,0,28.7,12.9,28.7,28.7v147.6
		C1098.6-585.8,1096.5-583.7,1093.8-583.7L1093.8-583.7z"/>
	<path class="st12" d="M1069.7-607.8h-80.8c-2.6,0-4.8-2.2-4.8-4.8s2.2-4.8,4.8-4.8h76V-736c0-2.6,2.2-4.8,4.8-4.8
		c2.6,0,4.8,2.2,4.8,4.8v123.4C1074.5-609.9,1072.4-607.8,1069.7-607.8L1069.7-607.8z"/>
	<path class="st12" d="M1004.1-669.4h-44.4c-2.6,0-4.8-2.2-4.8-4.8V-760c0-2.6,2.2-4.8,4.8-4.8c2.6,0,4.8,2.2,4.8,4.8v81h34.8v-81
		c0-2.6,2.2-4.8,4.8-4.8c2.6,0,4.8,2.2,4.8,4.8v85.8C1008.9-671.6,1006.7-669.4,1004.1-669.4z"/>
	<path class="st12" d="M935.5-552.3c-21.2,0-38.4-17.2-38.4-38.4c0-21.2,17.2-38.4,38.4-38.4s38.4,17.2,38.4,38.4
		C973.9-569.5,956.7-552.3,935.5-552.3z M935.5-619.5c-15.9,0-28.8,12.9-28.8,28.8c0,15.9,12.9,28.8,28.8,28.8s28.8-12.9,28.8-28.8
		C964.3-606.6,951.4-619.5,935.5-619.5z"/>
	<path class="st12" d="M935.5-571.7c-10.5,0-19-8.6-19-19c0-10.4,8.6-19,19-19c10.5,0,19,8.5,19,19S946-571.7,935.5-571.7z
		 M935.5-600.1c-5.2,0-9.4,4.2-9.4,9.4c0,5.2,4.2,9.4,9.4,9.4s9.4-4.2,9.4-9.4C944.9-595.9,940.7-600.1,935.5-600.1z"/>
	<path class="st12" d="M1142-552.3c-21.2,0-38.4-17.2-38.4-38.4c0-21.2,17.2-38.4,38.4-38.4c21.2,0,38.4,17.2,38.4,38.4
		C1180.4-569.5,1163.1-552.3,1142-552.3z M1142-619.5c-15.9,0-28.8,12.9-28.8,28.8c0,15.9,12.9,28.8,28.8,28.8s28.8-12.9,28.8-28.8
		C1170.7-606.6,1157.8-619.5,1142-619.5z"/>
	<path class="st12" d="M1142-571.7c-10.5,0-19-8.6-19-19c0-10.4,8.5-19,19-19s19,8.5,19,19S1152.5-571.7,1142-571.7z M1142-600.1
		c-5.2,0-9.4,4.2-9.4,9.4c0,5.2,4.2,9.4,9.4,9.4c5.2,0,9.4-4.2,9.4-9.4C1151.4-595.9,1147.1-600.1,1142-600.1z"/>
	<path class="st12" d="M846.8-719.1H814c-2.5,0-4.8-1.8-5.1-4.4c-0.3-2.9,2-5.3,4.8-5.3h32.9c2.5,0,4.8,1.8,5,4.3
		C851.9-721.6,849.6-719.1,846.8-719.1z"/>
	<path class="st12" d="M822.9-686h-45.4c-2.5,0-4.8-1.8-5.1-4.4c-0.3-2.9,2-5.3,4.8-5.3h45.4c2.5,0,4.8,1.8,5.1,4.4
		C828-688.4,825.7-686,822.9-686z"/>
	<path class="st12" d="M822.9-652.9h-45.4c-2.5,0-4.8-1.8-5.1-4.4c-0.3-2.9,2-5.3,4.8-5.3h45.4c2.5,0,4.8,1.8,5.1,4.4
		C828-655.3,825.7-652.9,822.9-652.9z"/>
	<path class="st12" d="M846.8-619.7H814c-2.5,0-4.8-1.8-5.1-4.4c-0.3-2.9,2-5.3,4.8-5.3h32.9c2.5,0,4.8,1.8,5,4.3
		C851.9-622.2,849.6-619.7,846.8-619.7z"/>
</g>
<g>
	<path class="st11" d="M1018.7-910.6c-0.2-0.1-0.3-0.3-0.5-0.4c-0.2-0.2-0.4-0.3-0.7-0.5c-0.2-0.1-0.4-0.3-0.7-0.4
		c-0.2-0.1-0.4-0.2-0.6-0.4c-0.2-0.1-0.5-0.2-0.7-0.3s-0.4-0.2-0.6-0.3s-0.5-0.2-0.7-0.3s-0.5-0.2-0.7-0.2c-0.2-0.1-0.5-0.1-0.7-0.2
		c-0.2-0.1-0.5-0.1-0.7-0.2c-0.3-0.1-0.5-0.1-0.8-0.1c-0.2,0-0.4-0.1-0.6-0.1c-1-0.1-2-0.1-3,0c-0.2,0-0.4,0.1-0.6,0.1
		c-0.3,0-0.5,0.1-0.8,0.1c-0.2,0-0.5,0.1-0.7,0.2c-0.2,0.1-0.5,0.1-0.7,0.2c-0.2,0.1-0.5,0.2-0.7,0.2c-0.2,0.1-0.5,0.2-0.7,0.3
		s-0.4,0.2-0.6,0.3s-0.5,0.2-0.7,0.3s-0.4,0.2-0.6,0.4c-0.2,0.1-0.4,0.3-0.7,0.4c-0.2,0.2-0.4,0.3-0.7,0.5c-0.2,0.1-0.4,0.3-0.5,0.4
		c-0.4,0.3-0.8,0.6-1.1,1l-39,39c-5.9,5.9-5.9,15.4,0,21.2c5.9,5.9,15.4,5.9,21.2,0l13.4-13.4v41.9c0,8.3,6.7,15,15,15s15-6.7,15-15
		v-41.9l13.4,13.4c5.9,5.9,15.4,5.9,21.2,0c2.9-2.9,4.4-6.8,4.4-10.6s-1.5-7.7-4.4-10.6l-39-39
		C1019.5-909.9,1019.1-910.3,1018.7-910.6z"/>
	<g>
		<path class="st11" d="M848.2-922.5c-0.2,0-0.4,0.1-0.6,0.1c-0.3,0-0.5,0.1-0.8,0.1s-0.5,0.1-0.7,0.2c-0.2,0.1-0.5,0.1-0.7,0.2
			c-0.2,0.1-0.5,0.2-0.7,0.3s-0.4,0.2-0.7,0.2c-0.2,0.1-0.4,0.2-0.7,0.3c-0.2,0.1-0.5,0.2-0.7,0.3s-0.4,0.2-0.6,0.4
			c-0.2,0.1-0.4,0.2-0.6,0.4s-0.4,0.3-0.7,0.5c-0.2,0.1-0.3,0.2-0.5,0.4c-0.8,0.6-1.5,1.3-2.1,2.1c-0.1,0.2-0.3,0.3-0.4,0.5
			c-0.2,0.2-0.3,0.4-0.5,0.7c-0.1,0.2-0.3,0.4-0.4,0.6c-0.1,0.2-0.3,0.4-0.4,0.6c-0.1,0.2-0.2,0.4-0.3,0.7c-0.1,0.2-0.2,0.4-0.3,0.7
			c-0.1,0.2-0.2,0.4-0.2,0.7c-0.1,0.2-0.2,0.5-0.3,0.7c-0.1,0.2-0.1,0.5-0.2,0.7s-0.1,0.5-0.2,0.7c-0.1,0.3-0.1,0.5-0.1,0.8
			c0,0.2-0.1,0.4-0.1,0.6c0,0.5-0.1,1-0.1,1.5v55.1c0,8.3,6.7,15,15,15s15-6.7,15-15v-18.9l29.6,29.6c5.9,5.9,15.4,5.9,21.2,0
			c5.9-5.9,5.9-15.4,0-21.2l-29.6-29.6h18.9c8.3,0,15-6.7,15-15c0-4.1-1.7-7.9-4.4-10.6s-6.5-4.4-10.6-4.4h-55.1
			C849.2-922.5,848.7-922.5,848.2-922.5z"/>
		<path class="st11" d="M1183.7-909c0-0.2-0.1-0.4-0.1-0.6c0-0.3-0.1-0.5-0.1-0.8s-0.1-0.5-0.2-0.7s-0.1-0.5-0.2-0.7
			s-0.2-0.5-0.3-0.7c-0.1-0.2-0.2-0.4-0.2-0.7c-0.1-0.2-0.2-0.4-0.3-0.7c-0.1-0.2-0.2-0.5-0.3-0.7c-0.1-0.2-0.2-0.4-0.4-0.6
			c-0.1-0.2-0.2-0.4-0.4-0.6c-0.2-0.2-0.3-0.4-0.5-0.7c-0.1-0.2-0.2-0.3-0.4-0.5c-0.6-0.8-1.3-1.5-2.1-2.1c-0.2-0.1-0.3-0.3-0.5-0.4
			c-0.2-0.2-0.4-0.3-0.7-0.5c-0.2-0.1-0.4-0.3-0.6-0.4c-0.2-0.1-0.4-0.3-0.6-0.4c-0.2-0.1-0.4-0.2-0.7-0.3c-0.2-0.1-0.4-0.2-0.7-0.3
			c-0.2-0.1-0.4-0.2-0.7-0.2c-0.2-0.1-0.5-0.2-0.7-0.3s-0.5-0.1-0.7-0.2c-0.2-0.1-0.5-0.1-0.7-0.2c-0.3-0.1-0.5-0.1-0.8-0.1
			c-0.2,0-0.4-0.1-0.6-0.1c-0.5,0-1-0.1-1.5-0.1h-55.1c-8.3,0-15,6.7-15,15s6.7,15,15,15h18.9l-29.6,29.6c-5.9,5.9-5.9,15.4,0,21.2
			c5.9,5.9,15.4,5.9,21.2,0l29.6-29.6v18.9c0,8.3,6.7,15,15,15c4.1,0,7.9-1.7,10.6-4.4s4.4-6.5,4.4-10.6v-55.1
			C1183.7-908,1183.7-908.5,1183.7-909z"/>
	</g>
</g>
<g>
	<path class="st11" d="M1018.7-1244.4c-0.2-0.1-0.3-0.3-0.5-0.4c-0.2-0.2-0.4-0.3-0.7-0.5c-0.2-0.1-0.4-0.3-0.7-0.4
		c-0.2-0.1-0.4-0.2-0.6-0.4c-0.2-0.1-0.5-0.2-0.7-0.3c-0.2-0.1-0.4-0.2-0.6-0.3c-0.2-0.1-0.5-0.2-0.7-0.3c-0.2-0.1-0.5-0.2-0.7-0.2
		c-0.2-0.1-0.5-0.1-0.7-0.2s-0.5-0.1-0.7-0.2c-0.3-0.1-0.5-0.1-0.8-0.1c-0.2,0-0.4-0.1-0.6-0.1c-1-0.1-2-0.1-3,0
		c-0.2,0-0.4,0.1-0.6,0.1c-0.3,0-0.5,0.1-0.8,0.1c-0.2,0-0.5,0.1-0.7,0.2s-0.5,0.1-0.7,0.2s-0.5,0.2-0.7,0.2
		c-0.2,0.1-0.5,0.2-0.7,0.3c-0.2,0.1-0.4,0.2-0.6,0.3c-0.2,0.1-0.5,0.2-0.7,0.3c-0.2,0.1-0.4,0.2-0.6,0.4c-0.2,0.1-0.4,0.3-0.7,0.4
		c-0.2,0.2-0.4,0.3-0.7,0.5c-0.2,0.1-0.4,0.3-0.5,0.4c-0.4,0.3-0.8,0.6-1.1,1l-39,39c-5.9,5.9-5.9,15.4,0,21.2
		c5.9,5.9,15.4,5.9,21.2,0l13.4-13.4v41.9c0,8.3,6.7,15,15,15s15-6.7,15-15v-41.9l13.4,13.4c5.9,5.9,15.4,5.9,21.2,0
		c2.9-2.9,4.4-6.8,4.4-10.6c0-3.8-1.5-7.7-4.4-10.6l-39-39C1019.5-1243.8,1019.1-1244.1,1018.7-1244.4z"/>
	<g>
		<path class="st11" d="M919.9-1202.2c0-0.2-0.1-0.4-0.1-0.6c0-0.3-0.1-0.5-0.1-0.8c0-0.3-0.1-0.5-0.2-0.7c-0.1-0.2-0.1-0.5-0.2-0.7
			c-0.1-0.2-0.2-0.5-0.3-0.7c-0.1-0.2-0.2-0.4-0.2-0.7c-0.1-0.2-0.2-0.4-0.3-0.7c-0.1-0.2-0.2-0.5-0.3-0.7c-0.1-0.2-0.2-0.4-0.4-0.6
			c-0.1-0.2-0.2-0.4-0.4-0.6c-0.2-0.2-0.3-0.4-0.5-0.7c-0.1-0.2-0.2-0.3-0.4-0.5c-0.6-0.8-1.3-1.5-2.1-2.1c-0.2-0.1-0.3-0.3-0.5-0.4
			c-0.2-0.2-0.4-0.3-0.7-0.5c-0.2-0.1-0.4-0.3-0.6-0.4s-0.4-0.3-0.6-0.4s-0.4-0.2-0.7-0.3c-0.2-0.1-0.4-0.2-0.7-0.3
			c-0.2-0.1-0.4-0.2-0.7-0.2c-0.2-0.1-0.5-0.2-0.7-0.3s-0.5-0.1-0.7-0.2c-0.2-0.1-0.5-0.1-0.7-0.2c-0.3-0.1-0.5-0.1-0.8-0.1
			c-0.2,0-0.4-0.1-0.6-0.1c-0.5,0-1-0.1-1.5-0.1h-55.1c-8.3,0-15,6.7-15,15c0,8.3,6.7,15,15,15h18.9l-29.6,29.6
			c-5.9,5.9-5.9,15.4,0,21.2c5.9,5.9,15.4,5.9,21.2,0l29.6-29.6v18.9c0,8.3,6.7,15,15,15c4.1,0,7.9-1.7,10.6-4.4
			c2.7-2.7,4.4-6.5,4.4-10.6v-55.1C920-1201.2,919.9-1201.7,919.9-1202.2z"/>
		<path class="st11" d="M1112-1215.6c-0.2,0-0.4,0.1-0.6,0.1c-0.3,0-0.5,0.1-0.8,0.1s-0.5,0.1-0.7,0.2s-0.5,0.1-0.7,0.2
			c-0.2,0.1-0.5,0.2-0.7,0.3s-0.4,0.2-0.7,0.2c-0.2,0.1-0.4,0.2-0.7,0.3c-0.2,0.1-0.5,0.2-0.7,0.3s-0.4,0.2-0.6,0.4
			c-0.2,0.1-0.4,0.2-0.6,0.4c-0.2,0.2-0.4,0.3-0.7,0.5c-0.2,0.1-0.3,0.2-0.5,0.4c-0.8,0.6-1.5,1.3-2.1,2.1c-0.1,0.2-0.3,0.3-0.4,0.5
			c-0.2,0.2-0.3,0.4-0.5,0.7c-0.1,0.2-0.3,0.4-0.4,0.6c-0.1,0.2-0.3,0.4-0.4,0.6c-0.1,0.2-0.2,0.4-0.3,0.7c-0.1,0.2-0.2,0.4-0.3,0.7
			c-0.1,0.2-0.2,0.4-0.2,0.7c-0.1,0.2-0.2,0.5-0.3,0.7c-0.1,0.2-0.1,0.5-0.2,0.7c-0.1,0.2-0.1,0.5-0.2,0.7c-0.1,0.3-0.1,0.5-0.1,0.8
			c0,0.2-0.1,0.4-0.1,0.6c0,0.5-0.1,1-0.1,1.5v55.1c0,8.3,6.7,15,15,15s15-6.7,15-15v-18.9l29.6,29.6c5.9,5.9,15.4,5.9,21.2,0
			s5.9-15.4,0-21.2l-29.6-29.6h18.9c8.3,0,15-6.7,15-15c0-4.1-1.7-7.9-4.4-10.6s-6.5-4.4-10.6-4.4h-55.1
			C1113-1215.7,1112.5-1215.6,1112-1215.6z"/>
	</g>
</g>
<g>
	<g>
		<path d="M847.4-996.3c-1.2-1.8-3.9-0.1-2.8,1.7l7.7,12.3h-4.6l-7-11.5c-1.1-1.8-3.9-0.1-2.8,1.7l0.8,1.2h-32.6l0.8-1.2
			c1.1-1.9-1.7-3.6-2.8-1.7c-1.1,1.9-6,9.8-7,11.5h-4.6l7.7-12.3c1.1-1.9-1.6-3.6-2.8-1.7l-9.3,14.9c-0.7,1,0.1,2.6,1.4,2.5h8.5
			c1.4,0.1,2-1.9,2.7-2.9h43.5c0.7,1,1.3,3,2.7,2.9h8.5c1.3,0,2.1-1.5,1.4-2.5L847.4-996.3L847.4-996.3z M802.6-985.1l1.4-2.4h36.6
			l1.4,2.4H802.6z"/>
		<path d="M789.4-1013c0.9-0.2,1.4-1.2,1.1-2c-0.5-1.7-0.8-3.5-0.8-5.3c-0.3-3.1,1.3-9.4,1.7-12.5c1.7,2.3,4.4,5,8.8,6.4
			c0.8,0.3,1.8-0.2,2.1-1c0.3-0.9-0.2-1.8-1-2.1c-6.1-2.1-8.4-7.1-8.9-8.5l5.1-28.6c0.5-2.8,2.9-4.8,5.7-4.8h38.2
			c2.8,0,5.2,2,5.7,4.8l5.1,28.6c-0.5,1.4-2.8,6.4-8.9,8.5c-1.8,0.6-1.3,3.3,0.5,3.2c4.4-1,7.6-4.2,9.3-6.5l1.4,7.9
			c2.5,13.6-8.4,26.5-22.2,26.3h-20.1c-7.9,0-15.3-4.2-19.3-11c-0.5-0.8-1.5-1-2.3-0.6c-0.8,0.5-1,1.5-0.6,2.3
			c4.6,7.8,13.1,12.6,22.2,12.6h20.1c13.9,0,25.3-10.9,25.8-24.8c0.3-3.7-2.1-14.1-2.6-17.9l-5.2-29.1c-0.8-4.4-4.6-7.5-9-7.5h-38.2
			c-4.4,0-8.2,3.2-9,7.5l-5.2,29.1c-1,6.9-4.1,17.2-1.6,23.9C787.6-1013.3,788.5-1012.8,789.4-1013L789.4-1013z"/>
		<path d="M841.7-1043.4c-1.2,0.5-3.1,0.9-2.5,2.7c0.3,0.9,1.2,1.3,2.1,1c3.3-0.8,6-3.6,5.5-7.2l-1.5-11.1c-0.3-2.5-2.5-4.4-5-4.4
			h-36c-2.5,0-4.7,1.9-5,4.4l-1.5,11.1c-0.4,2.8,1.2,5.5,3.7,6.5c3.7,1.5,11.4,4.1,20.7,4.1c4.3,0,8.7-0.5,13.1-1.6
			c0.9-0.2,1.4-1.1,1.2-2c-0.2-0.9-1.1-1.4-2-1.2c-3.5,0.9-7.1,1.4-10.6,1.5v-19.5h16.3c0.9,0,1.6,0.6,1.7,1.5l1.5,11.1
			C843.7-1045.2,842.9-1043.9,841.7-1043.4L841.7-1043.4z M820.7-1039.6c-8-0.3-14.5-2.5-17.8-3.8c-1.2-0.5-1.9-1.7-1.7-3l1.5-11.1
			c0.1-0.9,0.8-1.5,1.7-1.5h16.3V-1039.6L820.7-1039.6z"/>
		<path d="M799.1-1015.5c0.1,7,10,8.4,11.9,1.7h22.6c1.9,6.7,11.8,5.4,11.9-1.7c-0.1-7-10-8.4-11.9-1.7H811
			C809.1-1023.9,799.2-1022.5,799.1-1015.5z M839.4-1018.3c3.7,0.1,3.7,5.5,0,5.6C835.8-1012.8,835.8-1018.2,839.4-1018.3z
			 M805.2-1018.3c3.7,0.1,3.7,5.5,0,5.6C801.5-1012.8,801.5-1018.2,805.2-1018.3z"/>
	</g>
	<circle class="st13" cx="822.3" cy="-1026.8" r="79.5"/>
</g>
<g>
	<g>
		<path d="M978.6-1043.4v3.9l-1.3,0.7l-4.8,2.7c-0.6-1.9-2.4-3.3-4.5-3.3c-2.7,0-4.8,2.2-4.8,4.8v3.7l-4.3,2.4
			c-0.6,0.3-0.9,0.9-0.9,1.6v12.8c0,0.6,0.3,1.1,0.7,1.4c0.3,0.3,0.7,0.4,1.1,0.4c0.1,0,0.3,0,0.4-0.1l37.8-9.3v18.8l-13.4,6.5
			c-0.6,0.3-1,0.9-1,1.6v7.4c0,1,0.8,1.8,1.8,1.8h14c1.2,2.2,3.1,3.9,5.4,5v3.4c0,2.5,2,4.6,4.6,4.6s4.6-2,4.6-4.6v-3.4
			c2.3-1,4.2-2.8,5.4-5h14c1,0,1.8-0.8,1.8-1.8v-7.4c0-0.7-0.4-1.3-1-1.6l-13.4-6.4v-18.8l37.8,9.3c0.1,0,0.3,0.1,0.4,0.1
			c0.4,0,0.8-0.1,1.1-0.4c0.4-0.3,0.7-0.9,0.7-1.4v-12.8c0-0.7-0.4-1.3-0.9-1.6l-4.3-2.4v-3.7c0-2.7-2.2-4.8-4.8-4.8
			c-2.1,0-3.9,1.4-4.5,3.3l-6.1-3.5v-3.9c0-2.6-2.2-4.8-4.8-4.8c-2.2,0-4,1.4-4.6,3.4l-9.9-5.6v-19.6c0-3-1.2-5.9-3.3-8
			c-2.1-2.1-5-3.3-8-3.3c-6.2,0-11.3,5.1-11.3,11.3v19.6l-10,5.6c-0.6-2-2.4-3.4-4.6-3.4C980.7-1048.2,978.6-1046,978.6-1043.4
			L978.6-1043.4z M966.8-1034.4c0-0.6,0.5-1.2,1.2-1.2c0.6,0,1.2,0.5,1.2,1.2v0.3l-2.3,1.3L966.8-1034.4L966.8-1034.4z
			 M1049.3-1034.4c0-0.6,0.5-1.2,1.2-1.2c0.6,0,1.2,0.5,1.2,1.2v1.7l-2.3-1.3L1049.3-1034.4L1049.3-1034.4z M987.1-989v-4.5
			l10.8-5.2v8c0,0.6,0.1,1.1,0.1,1.7H987.1z M1010.1-976.9c0,0.5-0.4,0.9-0.9,0.9s-0.9-0.4-0.9-0.9v-18.6c0-0.5,0.4-0.9,0.9-0.9
			s0.9,0.4,0.9,0.9V-976.9z M1031.3-993.5v4.5h-11c0.1-0.6,0.1-1.1,0.1-1.7v-8L1031.3-993.5L1031.3-993.5z M1033.9-1042.8v-0.5
			c0-0.6,0.5-1.2,1.2-1.2c0.6,0,1.2,0.5,1.2,1.2v1.9l-1.1-0.6L1033.9-1042.8L1033.9-1042.8z M1036.7-1037.1l0.4,0.2l19.7,11.2v9.4
			l-36.4-9v-21L1036.7-1037.1L1036.7-1037.1z M1001.5-1070c0-4.2,3.4-7.7,7.7-7.7c2,0,4,0.8,5.4,2.2s2.2,3.4,2.2,5.4v79.3
			c0,2.5-1.2,4.7-3.1,6.2v-11c0-2.5-2-4.6-4.6-4.6s-4.6,2-4.6,4.6v11c-1.9-1.4-3.1-3.7-3.1-6.1L1001.5-1070z M997.9-1025.2l-36.4,9
			v-9.4l17.5-9.9l0,0l18.9-10.7V-1025.2L997.9-1025.2z M984.6-1043.4v0.5l-2.4,1.3v-1.9c0-0.6,0.5-1.2,1.2-1.2
			C984-1044.5,984.6-1044,984.6-1043.4L984.6-1043.4z"/>
		<path d="M1006.9-1067.5c0-1.3,1-2.3,2.3-2.3s2.3,1,2.3,2.3c0,1,0.8,1.8,1.8,1.8s1.8-0.8,1.8-1.8c0-3.3-2.7-5.9-5.9-5.9
			s-5.9,2.7-5.9,5.9c0,1,0.8,1.8,1.8,1.8C1006.1-1065.7,1006.9-1066.5,1006.9-1067.5z"/>
	</g>
	<circle class="st13" cx="1009.2" cy="-1026.8" r="87.4"/>
</g>
<g>
	<g>
		<path class="st14" d="M1167.3-1008.9h3c0.2-1.7,0.8-3.3,1.8-4.7h-6.5C1166.5-1012.2,1167.1-1010.6,1167.3-1008.9L1167.3-1008.9z
			 M1162.9-1016.4h11.7c3.9-2.9,9.3-2.9,13.2,0h29.7v-35.5c0-1.4-1.2-2.6-2.6-2.6h-67.4c-1.4,0-2.6,1.2-2.6,2.6v35.6h4.8
			C1153.6-1019.3,1159-1019.3,1162.9-1016.4L1162.9-1016.4z M1151.1-1013.9c-0.2,0.2-0.4,0.4-0.6,0.6c-3.2,3.2-3.2,8.3-0.1,11.6
			s8.2,3.4,11.6,0.4c3.3-3,3.7-8.2,0.7-11.6C1159.7-1016.3,1154.6-1016.8,1151.1-1013.9L1151.1-1013.9z M1147.1-1013.6h-6.5v4.7h4.7
			C1145.6-1010.6,1146.2-1012.2,1147.1-1013.6L1147.1-1013.6z M1145.3-1006.1h-6.1c-0.4,0-0.7-0.1-1-0.4c-0.3-0.3-0.4-0.6-0.4-1
			v-7.5c0-0.4,0.1-0.7,0.4-1s0.6-0.4,1-0.4h2.9v-35.6c0-3,2.4-5.4,5.4-5.4h67.4c3,0,5.4,2.4,5.4,5.4v35.6h2.2v-28.1h17
			c0.5,0,1,0.1,1.4,0.3c0.4,0.2,0.8,0.5,1.1,0.9l3.7,4.8c0,0.1,0.1,0.1,0.1,0.2l7.9,10.2l0,0c0.4,0.6,0.7,1.2,0.7,1.9v16.9
			c0,0.8-0.3,1.6-0.9,2.2c-0.6,0.6-1.4,0.9-2.2,0.9h-2.7c-0.7,5.5-5.4,9.7-11,9.7s-10.3-4.2-11-9.7h-34.3c-0.7,5.5-5.4,9.7-11,9.7
			s-10.3-4.2-11-9.7h-3c-0.7,5.5-5.4,9.7-11,9.7C1150.7-996.4,1146-1000.6,1145.3-1006.1L1145.3-1006.1z M1190.5-1013.6
			L1190.5-1013.6c0.9,1.4,1.5,3,1.7,4.7h30.3v-4.7H1190.5L1190.5-1013.6z M1187.1-1013.4L1187.1-1013.4c-2.8-2.8-7.2-3.2-10.5-1
			s-4.6,6.4-3,10.1c1.5,3.7,5.4,5.7,9.3,4.9s6.7-4.2,6.7-8.1C1189.6-1009.7,1188.7-1011.8,1187.1-1013.4L1187.1-1013.4z
			 M1238.1-1015.8L1238.1-1015.8L1238.1-1015.8c-0.2,0-0.2,0-0.3,0h-0.1h-0.2h-0.1c-0.1,0-0.1,0-0.2,0h-0.1l0,0
			c-4.5,0.3-7.9,4.1-7.8,8.5c0.1,4.5,3.8,8,8.3,8s8.1-3.6,8.3-8C1246-1011.7,1242.5-1015.5,1238.1-1015.8L1238.1-1015.8z
			 M1238-1018.5L1238-1018.5c5.4,0.2,9.8,4.3,10.5,9.7h2.7c0.1,0,0.2,0,0.3-0.1c0.1-0.1,0.1-0.2,0.1-0.3v-16.7h-17.5
			c-1.9,0-3.4-1.5-3.4-3.4v-6.2c0-1.9,1.5-3.4,3.4-3.4h7.8l-2.1-2.7l-0.1-0.1c-0.1,0-0.1,0-0.2,0h-14.3v32.9h1.3
			c0.7-5.4,5.1-9.4,10.5-9.7h0.2h0.1h0.3h0.1L1238-1018.5L1238-1018.5z M1249.8-1028.6l-1.6-2.1l-4.2-5.4h-10
			c-0.2,0-0.3,0.1-0.5,0.2c-0.2,0.1-0.2,0.3-0.2,0.5v6.2c0,0.4,0.3,0.7,0.7,0.7L1249.8-1028.6z"/>
	</g>
	<circle class="st13" cx="1196.1" cy="-1026.8" r="78.9"/>
</g>
<g>
	<g>
		<path d="M1131.2-1394.4c-7.1,0-13.9,1.8-19.8,5l-28.2-39.6c-0.2-0.2-0.4-0.4-0.5-0.6l5.6-22.6c0.4,0,0.8,0.1,1.1,0.1h10.4
			c8.6,0,15.7-7,15.7-15.7v-5.2c0-8.6-7-15.7-15.7-15.7h-26.1c-14.4,0-26.1,11.7-26.1,26.1c0,2.9,2.3,5.2,5.2,5.2h19.7
			c1.3,0.6,3.3,1.5,5.6,2.4l-5.9,23.7h-76.8v-48l16.9-4.2c2.8-0.7,4.5-3.5,3.8-6.3s-3.5-4.5-6.3-3.8l-20.9,5.2c-2.3,0.6-4,2.7-4,5.1
			v36.4H844c-2.9,0-5.2,2.3-5.2,5.2v73.2c0,11.5,9.4,20.9,20.9,20.9h26.4c2.5,20.6,20.1,36.7,41.4,36.7s38.9-16,41.4-36.7h5.6
			c11.5,0,20.9-9.4,20.9-20.9v-21.5l43.1,30c-0.8,2.3-1.4,4.7-1.4,7.2c0,11.5,9.4,20.9,20.9,20.9c9.7,0,17.8-6.7,20.1-15.7h11.5
			c2.6,20.6,20.1,36.5,41.4,36.5c23,0,41.8-18.7,41.8-41.8S1154.2-1394.4,1131.2-1394.4z M1073.8-1467.7H1059
			c2.2-6.1,8-10.4,14.8-10.4h26.1c2.9,0,5.2,2.3,5.2,5.2v5.2c0,2.9-2.3,5.2-5.2,5.2h-10.4c-2.7,0-9.6-2.8-13.3-4.7
			C1075.4-1467.5,1074.6-1467.7,1073.8-1467.7z M1131.2-1357.9c2.9,0,5.2,2.3,5.2,5.2s-2.3,5.2-5.2,5.2s-5.2-2.3-5.2-5.2
			C1126-1355.5,1128.3-1357.9,1131.2-1357.9z M1116.5-1357.9h-16.1c1.1-6.5,4.2-12.4,8.7-16.9l9.4,13.1
			C1117.6-1360.5,1117-1359.2,1116.5-1357.9z M1103-1383.3c-7.1,6.5-11.9,15.4-13.2,25.5h-11.5c-1.5-5.6-5.2-10.3-10.2-13l11.3-45.5
			L1103-1383.3z M927.6-1321.3c-17.3,0-31.3-14-31.3-31.3s14-31.3,31.3-31.3s31.3,14,31.3,31.3
			C959-1335.4,944.9-1321.3,927.6-1321.3z M985.1-1368.4c0,5.8-4.7,10.4-10.4,10.4h-5.6c-2.6-20.5-20.2-36.4-41.4-36.4
			c-21.2,0-38.7,15.9-41.4,36.4h-26.5c-5.8,0-10.4-4.7-10.4-10.4v-68h135.7L985.1-1368.4L985.1-1368.4z M995.5-1420.7h74.3
			l-11.8,47.3c-5.1,0-9.7,2-13.4,5.1l-49.1-34.2V-1420.7z M1058.1-1342.2c-5.8,0-10.4-4.7-10.4-10.4c0-5.8,4.7-10.4,10.4-10.4
			c5.8,0,10.4,4.7,10.4,10.4C1068.6-1346.9,1063.9-1342.2,1058.1-1342.2z M1131.2-1321.3c-15.5,0-28.4-11.3-30.9-26.1h16.2
			c2.2,6.1,7.9,10.4,14.7,10.4c8.6,0,15.7-7,15.7-15.7s-7-15.7-15.7-15.7c-1.5,0-2.9,0.3-4.3,0.7l-9.4-13.2c4.1-2,8.7-3.2,13.6-3.2
			c17.3,0,31.3,14,31.3,31.3C1162.5-1335.4,1148.5-1321.3,1131.2-1321.3z"/>
		<path d="M927.6-1368.5c-8.6,0-15.7,7-15.7,15.7s7,15.7,15.7,15.7s15.7-7,15.7-15.7S936.3-1368.5,927.6-1368.5z M927.6-1347.7
			c-2.9,0-5.2-2.3-5.2-5.2s2.3-5.2,5.2-5.2c2.9,0,5.2,2.3,5.2,5.2C932.9-1350,930.5-1347.7,927.6-1347.7z"/>
	</g>
</g>
<path class="st3" d="M879.6,805L858,771.6l-4.8-3.5h-43.8H695h-43.7l-4.9,3.5L624.8,805l-2.1,5.6v178c0,9.5,7.7,17.2,17.2,17.2
	h224.6c9.5,0,17.2-7.7,17.2-17.2v-178L879.6,805z"/>
<path class="st3" d="M379.1,771.7c-0.1-0.2-0.3-0.3-0.4-0.5l-37.5-32.8c-1.1-0.9-2.7-1-3.7,0l-35.7,29.7H100l-35.6-29.8
	c-1.1-0.9-2.7-0.9-3.7,0l-37.5,32.8c-1.2,1-1.3,2.9-0.3,4.1c0.1,0.2,0.3,0.3,0.5,0.4l48.1,34.9v178c0,9.5,7.7,17.2,17.2,17.2h224.6
	c9.5,0,17.2-7.7,17.2-17.2v-178l48.1-34.9C379.8,774.8,380,773,379.1,771.7z"/>
<g>
	<path class="st3" d="M327.4,670.5l-17.3-29.7c-0.3-0.5-0.7-0.7-1.2-0.9c2.3-2.8,1.3-9.5,1.5-12.9h2.7c3.6,0,6.6-3,6.6-6.6v-18.6
		c0-3.6-3-6.6-6.6-6.6h-2.7v-5.9c0-4.9-4-8.9-8.9-8.9h-31v-31.3h3.1c1.1,0,2.1-0.9,2.1-2.1v-12.2c0-1.1-0.9-2.1-2.1-2.1h-36.2
		c-1.1,0-2.1,0.9-2.1,2.1V547c0,1.1,0.9,2.1,2.1,2.1h3.1v31.3h-76.9v-54.9h6.7c1.1,0,2.1-0.9,2.1-2.1v-11.2c0-1.1-0.9-2.1-2.1-2.1
		H75.8l0,0c-1.1,0-2.1,0.9-2.1,2.1v11.2c0,1.1,0.9,2.1,2.1,2.1h6.7v138.6c0,5.2,4.3,9.5,9.5,9.5h15c13.2,17.2,40.8,17.2,53.9,0h75.9
		c10.1,17.2,36,17.2,46.1,0h42.8c0.7,0,1.4-0.4,1.8-1.1C327.8,672,327.8,671.2,327.4,670.5z"/>
	<path class="st5" d="M96.2,534.8h53.5v38.6H96.2V534.8z"/>
</g>
<path class="st6" d="M143.5,768.1H99.8l-35.6-29.8c-1.1-0.9-2.7-0.9-3.7,0L23,771.1c-1.2,1-1.3,2.9-0.3,4.1c0.1,0.2,0.3,0.3,0.5,0.4
	l48.1,34.9v178c0,9.5,7.7,17.2,17.2,17.2h224.6c9.5,0,17.2-7.7,17.2-17.2v-178l48.1-34.9c1.3-0.9,1.6-2.7,0.6-4
	c-0.1-0.2-0.3-0.3-0.4-0.5l-37.5-32.8c-1.1-0.9-2.7-1-3.7,0l-35.8,29.8h-43.7H143.5z M258,773.9h43.2l20.9,32.4H79.4l20.9-32.4h43.2
	H258z M62.4,744.3l32.5,27.3L73.3,805l-43.9-31.9L62.4,744.3z M255.1,812h69.3v176.6c0,6.3-5.1,11.4-11.4,11.4H88.4
	c-6.3,0-11.4-5.1-11.4-11.4V812h69.3h5.8h97.3H255.1z M328.1,805l-21.6-33.4l32.5-27.3l33,28.8L328.1,805z"/>
<path class="st4" d="M143.5,768.1H99.8l-35.6-29.8c-1.1-0.9-2.7-0.9-3.7,0L23,771.1c-1.2,1-1.3,2.9-0.3,4.1c0.1,0.2,0.3,0.3,0.5,0.4
	l48.1,34.9v178c0,9.5,7.7,17.2,17.2,17.2h224.6c9.5,0,17.2-7.7,17.2-17.2v-178l48.1-34.9c1.3-0.9,1.6-2.7,0.6-4
	c-0.1-0.2-0.3-0.3-0.4-0.5l-37.5-32.8c-1.1-0.9-2.7-1-3.7,0l-35.8,29.8h-43.7H143.5z M62.4,744.3l32.5,27.3L73.3,805l-43.9-31.9
	L62.4,744.3z M255.1,812h69.3v176.6c0,6.3-5.1,11.4-11.4,11.4H88.4c-6.3,0-11.4-5.1-11.4-11.4V812h69.3h5.8h97.3H255.1z M328.1,805
	l-21.6-33.4l32.5-27.3l33,28.8L328.1,805z"/>
<g>
	<path class="st4" d="M92.1,532.3v42.8c0,1.1,0.9,2.1,2.1,2.1h57.7c1.1,0,2.1-0.9,2.1-2.1v-42.8c0-1.1-0.9-2.1-2.1-2.1H94.2
		C93,530.3,92.1,531.2,92.1,532.3z M96.3,534.4h53.5v38.7H96.3V534.4z"/>
	<path class="st4" d="M75.8,509.8c-1.1,0-2.1,0.9-2.1,2.1v11.2c0,1.1,0.9,2.1,2.1,2.1h6.7v138.7c0,5.2,4.3,9.5,9.5,9.5h15
		c13.2,17.2,40.8,17.2,53.9,0h75.9c10.1,17.2,36,17.2,46.1,0h42.8c0.7,0,1.4-0.4,1.8-1.1c0.4-0.6,0.4-1.4,0-2.1l-17.3-29.7
		c-0.3-0.5-0.7-0.7-1.2-0.9c2.3-2.8,1.3-9.5,1.5-12.9h2.7c3.6,0,6.6-3,6.6-6.6v-18.6c0-3.6-3-6.6-6.6-6.6h-2.7V589
		c0-4.9-4-8.9-8.9-8.9h-31v-31.3h3.1c1.1,0,2.1-0.9,2.1-2.1v-12.2c0-1.1-0.9-2.1-2.1-2.1h-36.2c-1.1,0-2.1,0.9-2.1,2.1v12.2
		c0,1.1,0.9,2.1,2.1,2.1h3.1v31.3h-76.9v-55h6.7c1.1,0,2.1-0.9,2.1-2.1v-11.2c0-1.1-0.9-2.1-2.1-2.1L75.8,509.8L75.8,509.8z
		 M133.9,617.2c-14.7,0-27.2,9.3-32.2,22.2H86.6V525.1h72.9v103.5C153.1,621.6,144.1,617.2,133.9,617.2L133.9,617.2z M266.4,580
		h-21.7v-31.3h21.7V580z M301.5,584.1c2.6,0,4.8,2.1,4.8,4.8v8c0,0.1,0,27.6,0,27.7v10c0,2.6-2.1,4.8-4.8,4.8h-23.6
		c-9.4-9.2-26.7-9.2-36.1,0h-75.6c-0.7-1.8-1.6-3.5-2.5-5.2v-50.1h78.9c0.1,0,25.9,0,26,0H301.5L301.5,584.1z M310.5,622.5V599h2.7
		c1.3,0,2.4,1.1,2.4,2.4V620c0,1.3-1.1,2.4-2.4,2.4L310.5,622.5z M284.9,669.1c3.4-8.2,1.9-18.7-3.3-25.5h25.5l14.9,25.5H284.9z
		 M259.8,682.1c-12.6,0-22.8-10.2-22.8-22.8c1.2-30.2,44.3-30.2,45.6,0C282.6,671.9,272.4,682.1,259.8,682.1L259.8,682.1z
		 M163.8,669.1c4.3-7.3,5.9-17.1,3.7-25.5h70.6c-5.2,6.9-6.7,17.4-3.3,25.5H163.8z M133.9,682.1c-16.7,0-30.4-13.6-30.4-30.4
		c1.7-40.3,59.1-40.3,60.8,0C164.3,668.5,150.7,682.1,133.9,682.1L133.9,682.1z M86.6,643.6h13.8c-2.3,8.5-0.7,18.3,3.7,25.5H92
		c-2.9,0-5.4-2.4-5.4-5.4V643.6z M77.9,513.9h90.4v7H77.9V513.9z"/>
	<path class="st4" d="M259.8,669.8c13.8-0.4,13.8-20.4,0-20.9C246,649.4,246,669.3,259.8,669.8z"/>
	<path class="st4" d="M119.3,651.8c0.7,19.3,28.6,19.3,29.3,0c0-8.1-6.6-14.6-14.6-14.6C125.9,637.1,119.3,643.7,119.3,651.8z"/>
	<path class="st4" d="M288.8,619.6c1.1,0,2.1-0.9,2.1-2.1v-18.7c0-1.1-0.9-2.1-2.1-2.1h-53.2c-1.1,0-2.1,0.9-2.1,2.1v18.6
		c0,1.1,0.9,2.1,2.1,2.1L288.8,619.6L288.8,619.6z M286.7,601v5.2h-49V601H286.7z"/>
	<path class="st4" d="M189.3,654.3c-2.7,0-2.7,4.1,0,4.2H212c2.7,0,2.7-4.2,0-4.2h-11.7H189.3L189.3,654.3z"/>
	<path class="st4" d="M92.1,587.5v12.9c0,1.1,0.9,2.1,2.1,2.1h9.1c1.1,0,2.1-0.9,2.1-2.1v-12.9c0-1.1-0.9-2.1-2.1-2.1h-9.1
		C93,585.5,92.1,586.4,92.1,587.5z M96.3,589.6h4.9v8.7h-4.9V589.6z"/>
</g>
<path class="st4" d="M879.6,805L858,771.6l-4.8-3.5h-43.8H695h-43.7l-4.9,3.5L624.8,805l-2.1,5.6v178c0,9.5,7.7,17.2,17.2,17.2
	h224.6c9.5,0,17.2-7.7,17.2-17.2v-178L879.6,805z M651.8,773.9H695h114.4h43.2l20.9,32.4H630.9L651.8,773.9z M864.5,1000.1H639.9
	c-6.3,0-11.4-5.1-11.4-11.4V812.1h69.3h5.8h97.3h5.7h69.3v176.6C875.9,994.9,870.8,1000.1,864.5,1000.1z"/>
<g>
	<polygon class="st4" points="749.3,773.5 749.2,808.5 755.4,808.5 755.1,773.5 	"/>
</g>
<path class="st15" d="M732.4,911.2h-84.8c-3.2,0-5.9-2.6-5.9-5.9v-48.8c0-3.2,2.6-5.9,5.9-5.9h84.8c3.2,0,5.9,2.6,5.9,5.9v48.8
	C738.2,908.6,735.6,911.2,732.4,911.2z"/>
<line class="st16" x1="654.2" y1="865.7" x2="697.6" y2="865.7"/>
<line class="st16" x1="654.2" y1="875.9" x2="711.4" y2="875.9"/>
<line class="st16" x1="654.2" y1="886.2" x2="703.3" y2="886.2"/>
<line class="st16" x1="654.2" y1="896.4" x2="697.6" y2="896.4"/>
<path class="st0" d="M552.2,915.6c0.1-0.2,0.3-0.3,0.4-0.5c0.2-0.2,0.3-0.4,0.5-0.7c0.1-0.2,0.3-0.4,0.4-0.7
	c0.1-0.2,0.2-0.4,0.4-0.6c0.1-0.2,0.2-0.5,0.3-0.7s0.2-0.4,0.3-0.6s0.2-0.5,0.3-0.7s0.2-0.5,0.2-0.7c0.1-0.2,0.1-0.5,0.2-0.7
	c0.1-0.2,0.1-0.5,0.2-0.7c0.1-0.3,0.1-0.5,0.1-0.8c0-0.2,0.1-0.4,0.1-0.6c0.1-1,0.1-2,0-3c0-0.2-0.1-0.4-0.1-0.6
	c0-0.3-0.1-0.5-0.1-0.8c0-0.2-0.1-0.5-0.2-0.7c-0.1-0.2-0.1-0.5-0.2-0.7c-0.1-0.2-0.2-0.5-0.2-0.7c-0.1-0.2-0.2-0.5-0.3-0.7
	s-0.2-0.4-0.3-0.6s-0.2-0.5-0.3-0.7s-0.2-0.4-0.4-0.6c-0.1-0.2-0.3-0.4-0.4-0.7c-0.2-0.2-0.3-0.4-0.5-0.7c-0.1-0.2-0.3-0.4-0.4-0.5
	c-0.3-0.4-0.6-0.8-1-1.1l-39-39c-5.9-5.9-15.4-5.9-21.2,0c-5.9,5.9-5.9,15.4,0,21.2l13.4,13.4H398.8c-8.3,0-15,6.7-15,15
	s6.7,15,15,15h105.6L491,934.5c-5.9,5.9-5.9,15.4,0,21.2c2.9,2.9,6.8,4.4,10.6,4.4s7.7-1.5,10.6-4.4l39-39
	C551.6,916.3,551.9,915.9,552.2,915.6z"/>
<path class="st0" d="M1077.7,915.6c0.1-0.2,0.3-0.3,0.4-0.5c0.2-0.2,0.3-0.4,0.5-0.7c0.1-0.2,0.3-0.4,0.4-0.7
	c0.1-0.2,0.2-0.4,0.4-0.6c0.1-0.2,0.2-0.5,0.3-0.7c0.1-0.2,0.2-0.4,0.3-0.6c0.1-0.2,0.2-0.5,0.3-0.7c0.1-0.2,0.2-0.5,0.2-0.7
	c0.1-0.2,0.1-0.5,0.2-0.7s0.1-0.5,0.2-0.7c0.1-0.3,0.1-0.5,0.1-0.8c0-0.2,0.1-0.4,0.1-0.6c0.1-1,0.1-2,0-3c0-0.2-0.1-0.4-0.1-0.6
	c0-0.3-0.1-0.5-0.1-0.8c0-0.2-0.1-0.5-0.2-0.7s-0.1-0.5-0.2-0.7s-0.2-0.5-0.2-0.7c-0.1-0.2-0.2-0.5-0.3-0.7
	c-0.1-0.2-0.2-0.4-0.3-0.6c-0.1-0.2-0.2-0.5-0.3-0.7c-0.1-0.2-0.2-0.4-0.4-0.6c-0.1-0.2-0.3-0.4-0.4-0.7c-0.2-0.2-0.3-0.4-0.5-0.7
	c-0.1-0.2-0.3-0.4-0.4-0.5c-0.3-0.4-0.6-0.8-1-1.1l-39-39c-5.9-5.9-15.4-5.9-21.2,0c-5.9,5.9-5.9,15.4,0,21.2l13.4,13.4H924.3
	c-8.3,0-15,6.7-15,15s6.7,15,15,15h105.6l-13.4,13.4c-5.9,5.9-5.9,15.4,0,21.2c2.9,2.9,6.8,4.4,10.6,4.4c3.8,0,7.7-1.5,10.6-4.4
	l39-39C1077,916.3,1077.4,915.9,1077.7,915.6z"/>
<path class="st0" d="M950.1,288c0,0.2,0.1,0.4,0.1,0.6c0,0.3,0.1,0.5,0.1,0.8s0.1,0.5,0.2,0.7s0.1,0.5,0.2,0.7s0.2,0.5,0.3,0.7
	c0.1,0.2,0.2,0.4,0.2,0.7c0.1,0.2,0.2,0.4,0.3,0.7c0.1,0.2,0.2,0.5,0.3,0.7c0.1,0.2,0.2,0.4,0.4,0.6c0.1,0.2,0.2,0.4,0.4,0.6
	c0.2,0.2,0.3,0.4,0.5,0.7c0.1,0.2,0.2,0.3,0.4,0.5c0.6,0.8,1.3,1.5,2.1,2.1c0.2,0.1,0.3,0.3,0.5,0.4c0.2,0.2,0.4,0.3,0.7,0.5
	c0.2,0.1,0.4,0.3,0.6,0.4s0.4,0.3,0.6,0.4s0.4,0.2,0.7,0.3c0.2,0.1,0.4,0.2,0.7,0.3c0.2,0.1,0.4,0.2,0.7,0.2
	c0.2,0.1,0.5,0.2,0.7,0.3c0.2,0.1,0.5,0.1,0.7,0.2s0.5,0.1,0.7,0.2c0.3,0.1,0.5,0.1,0.8,0.1c0.2,0,0.4,0.1,0.6,0.1
	c0.5,0,1,0.1,1.5,0.1h55.1c8.3,0,15-6.7,15-15s-6.7-15-15-15h-18.9l74.6-74.6c5.9-5.9,5.9-15.4,0-21.2s-15.4-5.9-21.2,0l-74.6,74.6
	v-18.9c0-8.3-6.7-15-15-15c-4.1,0-7.9,1.7-10.6,4.4c-2.7,2.7-4.4,6.5-4.4,10.6v55.1C950.1,287,950.1,287.5,950.1,288z"/>
<path class="st17" d="M1534.4,963.6h-14.6c-2.6,0-4.8-2.2-4.8-4.8c0-2.6,2.2-4.8,4.8-4.8h9.8v-56.2c0-8.9-7.3-16.2-16.2-16.2h-75.3
	c-2.6,0-4.8-2.2-4.8-4.8c0-2.6,2.2-4.8,4.8-4.8h75.3c14.2,0,25.8,11.6,25.8,25.8v61.1C1539.2,961.4,1537.1,963.6,1534.4,963.6
	L1534.4,963.6z"/>
<path class="st17" d="M1513.4,881.5c-2,0-3.8-1.2-4.6-3.2l-15.2-43c-0.9-2.5,0.4-5.3,2.9-6.1c2.5-0.9,5.3,0.4,6.1,2.9l15.2,43
	c0.9,2.5-0.4,5.3-2.9,6.1C1514.5,881.5,1513.9,881.5,1513.4,881.5L1513.4,881.5z"/>
<path class="st17" d="M1507.6,838.6h-69.5c-2.6,0-4.8-2.2-4.8-4.8v-22.7c0-2.6,2.2-4.8,4.8-4.8h61.7c8.9,0,16.1,7.3,16.1,16.1v7.8
	C1515.9,834.8,1512.2,838.6,1507.6,838.6L1507.6,838.6z"/>
<line class="st12" x1="1442.9" y1="828.9" x2="1442.9" y2="828.9"/>
<path class="st12" d="M1442.9,828.9"/>
<path class="st12" d="M1442.9,828.9"/>
<path class="st18" d="M1442.9,828.9h63.4v-6.5c0-3.6-2.9-6.5-6.5-6.5h-56.9V828.9"/>
<line class="st12" x1="1442.9" y1="828.9" x2="1442.9" y2="828.9"/>
<path class="st17" d="M1438.1,963.6h-124.8c-2.6,0-4.8-2.2-4.8-4.8c0-2.6,2.2-4.8,4.8-4.8h120V811.1c0-10.5-8.6-19.1-19.1-19.1
	h-176.1c-10.5,0-19.1,8.6-19.1,19.1v123.7c0,10.5,8.6,19.1,19.1,19.1h8.2c2.6,0,4.8,2.2,4.8,4.8c0,2.6-2.2,4.8-4.8,4.8h-8.2
	c-15.8,0-28.7-12.9-28.7-28.7V811.1c0-15.8,12.9-28.7,28.7-28.7h176.1c15.8,0,28.7,12.9,28.7,28.7v147.6
	C1442.9,961.4,1440.8,963.6,1438.1,963.6L1438.1,963.6z"/>
<path class="st17" d="M1414,939.5h-80.8c-2.6,0-4.8-2.2-4.8-4.8c0-2.6,2.2-4.8,4.8-4.8h76V811.3c0-2.6,2.2-4.8,4.8-4.8
	c2.6,0,4.8,2.2,4.8,4.8v123.4C1418.8,937.3,1416.7,939.5,1414,939.5L1414,939.5z"/>
<path class="st17" d="M1348.4,877.8H1304c-2.6,0-4.8-2.2-4.8-4.8v-85.8c0-2.6,2.2-4.8,4.8-4.8c2.6,0,4.8,2.2,4.8,4.8v81h34.8v-81
	c0-2.6,2.2-4.8,4.8-4.8c2.6,0,4.8,2.2,4.8,4.8V873C1353.2,875.6,1351,877.8,1348.4,877.8z"/>
<path class="st17" d="M1279.8,994.9c-21.2,0-38.4-17.2-38.4-38.4s17.2-38.4,38.4-38.4s38.4,17.2,38.4,38.4S1301,994.9,1279.8,994.9z
	 M1279.8,927.7c-15.9,0-28.8,12.9-28.8,28.8s12.9,28.8,28.8,28.8s28.8-12.9,28.8-28.8C1308.6,940.6,1295.7,927.7,1279.8,927.7z"/>
<path class="st17" d="M1279.8,975.5c-10.5,0-19-8.6-19-19s8.6-19,19-19c10.5,0,19,8.5,19,19S1290.3,975.5,1279.8,975.5z
	 M1279.8,947.1c-5.2,0-9.4,4.2-9.4,9.4s4.2,9.4,9.4,9.4s9.4-4.2,9.4-9.4S1285,947.1,1279.8,947.1z"/>
<path class="st17" d="M1486.3,994.9c-21.2,0-38.4-17.2-38.4-38.4s17.2-38.4,38.4-38.4c21.2,0,38.4,17.2,38.4,38.4
	S1507.4,994.9,1486.3,994.9z M1486.3,927.7c-15.9,0-28.8,12.9-28.8,28.8s12.9,28.8,28.8,28.8s28.8-12.9,28.8-28.8
	C1515.1,940.6,1502.1,927.7,1486.3,927.7z"/>
<path class="st17" d="M1486.3,975.5c-10.5,0-19-8.6-19-19s8.5-19,19-19s19,8.5,19,19S1496.8,975.5,1486.3,975.5z M1486.3,947.1
	c-5.2,0-9.4,4.2-9.4,9.4s4.2,9.4,9.4,9.4c5.2,0,9.4-4.2,9.4-9.4S1491.5,947.1,1486.3,947.1z"/>
<path class="st17" d="M1191.1,828.1h-32.8c-2.5,0-4.8-1.8-5.1-4.4c-0.3-2.9,2-5.3,4.8-5.3h32.9c2.5,0,4.8,1.8,5,4.3
	C1196.2,825.7,1193.9,828.1,1191.1,828.1z"/>
<path class="st17" d="M1167.2,861.2h-45.4c-2.5,0-4.8-1.8-5.1-4.4c-0.3-2.9,2-5.3,4.8-5.3h45.4c2.5,0,4.8,1.8,5.1,4.4
	C1172.3,858.8,1170,861.2,1167.2,861.2z"/>
<path class="st17" d="M1167.2,894.4h-45.4c-2.5,0-4.8-1.8-5.1-4.4c-0.3-2.9,2-5.3,4.8-5.3h45.4c2.5,0,4.8,1.8,5.1,4.4
	C1172.3,891.9,1170,894.4,1167.2,894.4z"/>
<path class="st17" d="M1191.1,927.5h-32.8c-2.5,0-4.8-1.8-5.1-4.4c-0.3-2.9,2-5.3,4.8-5.3h32.9c2.5,0,4.8,1.8,5,4.3
	C1196.2,925.1,1193.9,927.5,1191.1,927.5z"/>
<g>
	<path class="st0" d="M1363,636.7c-0.2-0.1-0.3-0.3-0.5-0.4c-0.2-0.2-0.4-0.3-0.7-0.5c-0.2-0.1-0.4-0.3-0.7-0.4
		c-0.2-0.1-0.4-0.2-0.6-0.4c-0.2-0.1-0.5-0.2-0.7-0.3s-0.4-0.2-0.6-0.3s-0.5-0.2-0.7-0.3s-0.5-0.2-0.7-0.2c-0.2-0.1-0.5-0.1-0.7-0.2
		c-0.2-0.1-0.5-0.1-0.7-0.2c-0.3-0.1-0.5-0.1-0.8-0.1c-0.2,0-0.4-0.1-0.6-0.1c-1-0.1-2-0.1-3,0c-0.2,0-0.4,0.1-0.6,0.1
		c-0.3,0-0.5,0.1-0.8,0.1c-0.2,0-0.5,0.1-0.7,0.2c-0.2,0.1-0.5,0.1-0.7,0.2c-0.2,0.1-0.5,0.2-0.7,0.2c-0.2,0.1-0.5,0.2-0.7,0.3
		s-0.4,0.2-0.6,0.3s-0.5,0.2-0.7,0.3s-0.4,0.2-0.6,0.4c-0.2,0.1-0.4,0.3-0.7,0.4c-0.2,0.2-0.4,0.3-0.7,0.5c-0.2,0.1-0.4,0.3-0.5,0.4
		c-0.4,0.3-0.8,0.6-1.1,1l-39,39c-5.9,5.9-5.9,15.4,0,21.2c5.9,5.9,15.4,5.9,21.2,0l13.4-13.4v41.9c0,8.3,6.7,15,15,15s15-6.7,15-15
		v-41.9l13.4,13.4c5.9,5.9,15.4,5.9,21.2,0c2.9-2.9,4.4-6.8,4.4-10.6s-1.5-7.7-4.4-10.6l-39-39C1363.8,637.3,1363.4,637,1363,636.7z
		"/>
	<g>
		<path class="st0" d="M1192.5,624.8c-0.2,0-0.4,0.1-0.6,0.1c-0.3,0-0.5,0.1-0.8,0.1s-0.5,0.1-0.7,0.2c-0.2,0.1-0.5,0.1-0.7,0.2
			c-0.2,0.1-0.5,0.2-0.7,0.3s-0.4,0.2-0.7,0.2c-0.2,0.1-0.4,0.2-0.7,0.3c-0.2,0.1-0.5,0.2-0.7,0.3s-0.4,0.2-0.6,0.4
			c-0.2,0.1-0.4,0.2-0.6,0.4s-0.4,0.3-0.7,0.5c-0.2,0.1-0.3,0.2-0.5,0.4c-0.8,0.6-1.5,1.3-2.1,2.1c-0.1,0.2-0.3,0.3-0.4,0.5
			c-0.2,0.2-0.3,0.4-0.5,0.7c-0.1,0.2-0.3,0.4-0.4,0.6c-0.1,0.2-0.3,0.4-0.4,0.6c-0.1,0.2-0.2,0.4-0.3,0.7c-0.1,0.2-0.2,0.4-0.3,0.7
			c-0.1,0.2-0.2,0.4-0.2,0.7c-0.1,0.2-0.2,0.5-0.3,0.7c-0.1,0.2-0.1,0.5-0.2,0.7s-0.1,0.5-0.2,0.7c-0.1,0.3-0.1,0.5-0.1,0.8
			c0,0.2-0.1,0.4-0.1,0.6c0,0.5-0.1,1-0.1,1.5v55.1c0,8.3,6.7,15,15,15s15-6.7,15-15V676l29.6,29.6c5.9,5.9,15.4,5.9,21.2,0
			s5.9-15.4,0-21.2l-29.6-29.6h18.9c8.3,0,15-6.7,15-15c0-4.1-1.7-7.9-4.4-10.6c-2.7-2.7-6.5-4.4-10.6-4.4h-55.1
			C1193.5,624.7,1193,624.7,1192.5,624.8z"/>
		<path class="st0" d="M1528,638.2c0-0.2-0.1-0.4-0.1-0.6c0-0.3-0.1-0.5-0.1-0.8s-0.1-0.5-0.2-0.7s-0.1-0.5-0.2-0.7
			s-0.2-0.5-0.3-0.7c-0.1-0.2-0.2-0.4-0.2-0.7c-0.1-0.2-0.2-0.4-0.3-0.7c-0.1-0.2-0.2-0.5-0.3-0.7c-0.1-0.2-0.2-0.4-0.4-0.6
			c-0.1-0.2-0.2-0.4-0.4-0.6c-0.2-0.2-0.3-0.4-0.5-0.7c-0.1-0.2-0.2-0.3-0.4-0.5c-0.6-0.8-1.3-1.5-2.1-2.1c-0.2-0.1-0.3-0.3-0.5-0.4
			c-0.2-0.2-0.4-0.3-0.7-0.5c-0.2-0.1-0.4-0.3-0.6-0.4c-0.2-0.1-0.4-0.3-0.6-0.4c-0.2-0.1-0.4-0.2-0.7-0.3c-0.2-0.1-0.4-0.2-0.7-0.3
			c-0.2-0.1-0.4-0.2-0.7-0.2c-0.2-0.1-0.5-0.2-0.7-0.3s-0.5-0.1-0.7-0.2c-0.2-0.1-0.5-0.1-0.7-0.2c-0.3-0.1-0.5-0.1-0.8-0.1
			c-0.2,0-0.4-0.1-0.6-0.1c-0.5,0-1-0.1-1.5-0.1h-55.1c-8.3,0-15,6.7-15,15s6.7,15,15,15h18.9l-29.6,29.6c-5.9,5.9-5.9,15.4,0,21.2
			s15.4,5.9,21.2,0l29.6-29.6v18.9c0,8.3,6.7,15,15,15c4.1,0,7.9-1.7,10.6-4.4s4.4-6.5,4.4-10.6v-55.1
			C1528,639.2,1528,638.7,1528,638.2z"/>
	</g>
</g>
<g>
	<path class="st0" d="M1363,302.8c-0.2-0.1-0.3-0.3-0.5-0.4c-0.2-0.2-0.4-0.3-0.7-0.5c-0.2-0.1-0.4-0.3-0.7-0.4
		c-0.2-0.1-0.4-0.2-0.6-0.4c-0.2-0.1-0.5-0.2-0.7-0.3c-0.2-0.1-0.4-0.2-0.6-0.3c-0.2-0.1-0.5-0.2-0.7-0.3c-0.2-0.1-0.5-0.2-0.7-0.2
		c-0.2-0.1-0.5-0.1-0.7-0.2s-0.5-0.1-0.7-0.2c-0.3-0.1-0.5-0.1-0.8-0.1c-0.2,0-0.4-0.1-0.6-0.1c-1-0.1-2-0.1-3,0
		c-0.2,0-0.4,0.1-0.6,0.1c-0.3,0-0.5,0.1-0.8,0.1c-0.2,0-0.5,0.1-0.7,0.2s-0.5,0.1-0.7,0.2s-0.5,0.2-0.7,0.2
		c-0.2,0.1-0.5,0.2-0.7,0.3c-0.2,0.1-0.4,0.2-0.6,0.3c-0.2,0.1-0.5,0.2-0.7,0.3c-0.2,0.1-0.4,0.2-0.6,0.4c-0.2,0.1-0.4,0.3-0.7,0.4
		c-0.2,0.2-0.4,0.3-0.7,0.5c-0.2,0.1-0.4,0.3-0.5,0.4c-0.4,0.3-0.8,0.6-1.1,1l-39,39c-5.9,5.9-5.9,15.4,0,21.2
		c5.9,5.9,15.4,5.9,21.2,0l13.4-13.4v41.9c0,8.3,6.7,15,15,15s15-6.7,15-15v-41.9l13.4,13.4c5.9,5.9,15.4,5.9,21.2,0
		c2.9-2.9,4.4-6.8,4.4-10.6s-1.5-7.7-4.4-10.6l-39-39C1363.8,303.4,1363.4,303.1,1363,302.8z"/>
	<g>
		<path class="st0" d="M1264.2,345.1c0-0.2-0.1-0.4-0.1-0.6c0-0.3-0.1-0.5-0.1-0.8s-0.1-0.5-0.2-0.7s-0.1-0.5-0.2-0.7
			s-0.2-0.5-0.3-0.7c-0.1-0.2-0.2-0.4-0.2-0.7c-0.1-0.2-0.2-0.4-0.3-0.7c-0.1-0.2-0.2-0.5-0.3-0.7c-0.1-0.2-0.2-0.4-0.4-0.6
			c-0.1-0.2-0.2-0.4-0.4-0.6c-0.2-0.2-0.3-0.4-0.5-0.7c-0.1-0.2-0.2-0.3-0.4-0.5c-0.6-0.8-1.3-1.5-2.1-2.1c-0.2-0.1-0.3-0.3-0.5-0.4
			c-0.2-0.2-0.4-0.3-0.7-0.5c-0.2-0.1-0.4-0.3-0.6-0.4c-0.2-0.1-0.4-0.3-0.6-0.4c-0.2-0.1-0.4-0.2-0.7-0.3c-0.2-0.1-0.4-0.2-0.7-0.3
			c-0.2-0.1-0.4-0.2-0.7-0.2c-0.2-0.1-0.5-0.2-0.7-0.3s-0.5-0.1-0.7-0.2c-0.2-0.1-0.5-0.1-0.7-0.2c-0.3-0.1-0.5-0.1-0.8-0.1
			c-0.2,0-0.4-0.1-0.6-0.1c-0.5,0-1-0.1-1.5-0.1h-55.1c-8.3,0-15,6.7-15,15s6.7,15,15,15h18.9l-29.6,29.6c-5.9,5.9-5.9,15.4,0,21.2
			s15.4,5.9,21.2,0l29.6-29.6v18.9c0,8.3,6.7,15,15,15c4.1,0,7.9-1.7,10.6-4.4s4.4-6.5,4.4-10.6v-55.1
			C1264.3,346.1,1264.2,345.6,1264.2,345.1z"/>
		<path class="st0" d="M1456.3,331.6c-0.2,0-0.4,0.1-0.6,0.1c-0.3,0-0.5,0.1-0.8,0.1s-0.5,0.1-0.7,0.2c-0.2,0.1-0.5,0.1-0.7,0.2
			c-0.2,0.1-0.5,0.2-0.7,0.3s-0.4,0.2-0.7,0.2c-0.2,0.1-0.4,0.2-0.7,0.3c-0.2,0.1-0.5,0.2-0.7,0.3s-0.4,0.2-0.6,0.4
			c-0.2,0.1-0.4,0.2-0.6,0.4s-0.4,0.3-0.7,0.5c-0.2,0.1-0.3,0.2-0.5,0.4c-0.8,0.6-1.5,1.3-2.1,2.1c-0.1,0.2-0.3,0.3-0.4,0.5
			c-0.2,0.2-0.3,0.4-0.5,0.7c-0.1,0.2-0.3,0.4-0.4,0.6c-0.1,0.2-0.3,0.4-0.4,0.6c-0.1,0.2-0.2,0.4-0.3,0.7c-0.1,0.2-0.2,0.4-0.3,0.7
			c-0.1,0.2-0.2,0.4-0.2,0.7c-0.1,0.2-0.2,0.5-0.3,0.7c-0.1,0.2-0.1,0.5-0.2,0.7s-0.1,0.5-0.2,0.7c-0.1,0.3-0.1,0.5-0.1,0.8
			c0,0.2-0.1,0.4-0.1,0.6c0,0.5-0.1,1-0.1,1.5v55.1c0,8.3,6.7,15,15,15s15-6.7,15-15v-18.9l29.6,29.6c5.9,5.9,15.4,5.9,21.2,0
			c5.9-5.9,5.9-15.4,0-21.2l-29.6-29.6h18.9c8.3,0,15-6.7,15-15c0-4.1-1.7-7.9-4.4-10.6s-6.5-4.4-10.6-4.4h-55.1
			C1457.3,331.6,1456.8,331.6,1456.3,331.6z"/>
	</g>
</g>
<g>
	<path class="st4" d="M1322.9,504v3.9l-1.3,0.7l-4.8,2.7c-0.6-1.9-2.4-3.3-4.5-3.3c-2.7,0-4.8,2.2-4.8,4.8v3.7l-4.3,2.4
		c-0.6,0.3-0.9,0.9-0.9,1.6v12.8c0,0.6,0.3,1.1,0.7,1.4c0.3,0.3,0.7,0.4,1.1,0.4c0.1,0,0.3,0,0.4-0.1l37.8-9.3v18.8l-13.4,6.5
		c-0.6,0.3-1,0.9-1,1.6v7.4c0,1,0.8,1.8,1.8,1.8h14c1.2,2.2,3.1,3.9,5.4,5v3.4c0,2.5,2,4.6,4.6,4.6s4.6-2,4.6-4.6v-3.4
		c2.3-1,4.2-2.8,5.4-5h14c1,0,1.8-0.8,1.8-1.8v-7.4c0-0.7-0.4-1.3-1-1.6l-13.4-6.4v-18.8l37.8,9.3c0.1,0,0.3,0.1,0.4,0.1
		c0.4,0,0.8-0.1,1.1-0.4c0.4-0.3,0.7-0.9,0.7-1.4v-12.8c0-0.7-0.4-1.3-0.9-1.6l-4.3-2.4v-3.7c0-2.7-2.2-4.8-4.8-4.8
		c-2.1,0-3.9,1.4-4.5,3.3l-6.1-3.5V504c0-2.6-2.2-4.8-4.8-4.8c-2.2,0-4,1.4-4.6,3.4l-9.9-5.6v-19.6c0-3-1.2-5.9-3.3-8
		c-2.1-2.1-5-3.3-8-3.3c-6.2,0-11.3,5.1-11.3,11.3V497l-10,5.6c-0.6-2-2.4-3.4-4.6-3.4C1325.1,499.2,1322.9,501.3,1322.9,504
		L1322.9,504z M1311.1,512.9c0-0.6,0.5-1.2,1.2-1.2c0.6,0,1.2,0.5,1.2,1.2v0.3l-2.3,1.3L1311.1,512.9L1311.1,512.9z M1393.6,512.9
		c0-0.6,0.5-1.2,1.2-1.2c0.6,0,1.2,0.5,1.2,1.2v1.7l-2.3-1.3L1393.6,512.9L1393.6,512.9z M1331.4,558.3v-4.5l10.8-5.2v8
		c0,0.6,0.1,1.1,0.1,1.7H1331.4z M1354.5,570.4c0,0.5-0.4,0.9-0.9,0.9s-0.9-0.4-0.9-0.9v-18.6c0-0.5,0.4-0.9,0.9-0.9
		s0.9,0.4,0.9,0.9V570.4z M1375.6,553.9v4.5h-11c0.1-0.6,0.1-1.1,0.1-1.7v-8L1375.6,553.9L1375.6,553.9z M1378.2,504.5V504
		c0-0.6,0.5-1.2,1.2-1.2c0.6,0,1.2,0.5,1.2,1.2v1.9l-1.1-0.6L1378.2,504.5L1378.2,504.5z M1381,510.3l0.4,0.2l19.7,11.2v9.4l-36.4-9
		v-21L1381,510.3L1381,510.3z M1345.9,477.4c0-4.2,3.4-7.7,7.7-7.7c2,0,4,0.8,5.4,2.2s2.2,3.4,2.2,5.4v79.3c0,2.5-1.2,4.7-3.1,6.2
		v-11c0-2.5-2-4.6-4.6-4.6s-4.6,2-4.6,4.6v11c-1.9-1.4-3.1-3.7-3.1-6.1L1345.9,477.4z M1342.2,522.1l-36.4,9v-9.4l17.5-9.9l0,0
		l18.9-10.7V522.1L1342.2,522.1z M1328.9,504v0.5l-2.4,1.3v-1.9c0-0.6,0.5-1.2,1.2-1.2C1328.3,502.8,1328.9,503.3,1328.9,504
		L1328.9,504z"/>
	<path class="st4" d="M1351.2,479.8c0-1.3,1-2.3,2.3-2.3s2.3,1,2.3,2.3c0,1,0.8,1.8,1.8,1.8s1.8-0.8,1.8-1.8c0-3.3-2.7-5.9-5.9-5.9
		s-5.9,2.7-5.9,5.9c0,1,0.8,1.8,1.8,1.8C1350.4,481.6,1351.2,480.8,1351.2,479.8z"/>
</g>
<g>
	<path class="st19" d="M1511.6,538.4h3c0.2-1.7,0.8-3.3,1.8-4.7h-6.5C1510.8,535,1511.4,536.7,1511.6,538.4L1511.6,538.4z
		 M1507.2,530.9h11.7c3.9-2.9,9.3-2.9,13.2,0h29.7v-35.6c0-1.4-1.2-2.6-2.6-2.6h-67.4c-1.4,0-2.6,1.2-2.6,2.6v35.6h4.8
		C1498,528,1503.3,528,1507.2,530.9L1507.2,530.9z M1495.4,533.3c-0.2,0.2-0.4,0.4-0.6,0.6c-3.2,3.2-3.2,8.3-0.1,11.6
		s8.2,3.4,11.6,0.4s3.7-8.2,0.7-11.6C1504,530.9,1498.9,530.5,1495.4,533.3L1495.4,533.3z M1491.4,533.6h-6.5v4.7h4.7
		C1489.9,536.7,1490.5,535,1491.4,533.6L1491.4,533.6z M1489.7,541.1h-6.1c-0.4,0-0.7-0.1-1-0.4c-0.3-0.3-0.4-0.6-0.4-1v-7.5
		c0-0.4,0.1-0.7,0.4-1s0.6-0.4,1-0.4h2.9v-35.6c0-3,2.4-5.4,5.4-5.4h67.4c3,0,5.4,2.4,5.4,5.4v35.6h2.2v-28.1h17
		c0.5,0,1,0.1,1.4,0.3s0.8,0.5,1.1,0.9l3.7,4.8c0,0.1,0.1,0.1,0.1,0.2l7.9,10.2l0,0c0.4,0.6,0.7,1.2,0.7,1.9v16.9
		c0,0.8-0.3,1.6-0.9,2.2c-0.6,0.6-1.4,0.9-2.2,0.9h-2.7c-0.7,5.5-5.4,9.7-11,9.7s-10.3-4.2-11-9.7h-34.3c-0.7,5.5-5.4,9.7-11,9.7
		s-10.3-4.2-11-9.7h-3c-0.7,5.5-5.4,9.7-11,9.7C1495,550.8,1490.3,546.7,1489.7,541.1L1489.7,541.1z M1534.8,533.6L1534.8,533.6
		c0.9,1.4,1.5,3,1.7,4.7h30.3v-4.7H1534.8L1534.8,533.6z M1531.4,533.9L1531.4,533.9c-2.8-2.8-7.2-3.2-10.5-1s-4.6,6.4-3,10.1
		c1.5,3.7,5.4,5.7,9.3,4.9s6.7-4.2,6.7-8.1C1533.9,537.5,1533,535.4,1531.4,533.9L1531.4,533.9z M1582.4,531.5L1582.4,531.5
		L1582.4,531.5c-0.2,0-0.2,0-0.3,0h-0.1h-0.2h-0.1c-0.1,0-0.1,0-0.2,0h-0.1l0,0c-4.5,0.3-7.9,4.1-7.8,8.5c0.1,4.5,3.8,8,8.3,8
		s8.1-3.6,8.3-8C1590.3,535.5,1586.9,531.8,1582.4,531.5L1582.4,531.5z M1582.3,528.7L1582.3,528.7c5.4,0.2,9.8,4.3,10.5,9.7h2.7
		c0.1,0,0.2,0,0.3-0.1c0.1-0.1,0.1-0.2,0.1-0.3v-16.6h-17.5c-1.9,0-3.4-1.5-3.4-3.4v-6.2c0-1.9,1.5-3.4,3.4-3.4h7.8l-2.1-2.7
		l-0.1-0.1c-0.1,0-0.1,0-0.2,0h-14.3v32.9h1.3c0.7-5.4,5.1-9.4,10.5-9.7h0.2h0.1h0.3h0.1L1582.3,528.7L1582.3,528.7z M1594.1,518.6
		l-1.6-2.1l-4.2-5.4h-10c-0.2,0-0.3,0.1-0.5,0.2s-0.2,0.3-0.2,0.5v6.2c0,0.4,0.3,0.7,0.7,0.7L1594.1,518.6z"/>
</g>
<g>
	<g>
		<path class="st4" d="M1475.5,152.8c-7.1,0-13.9,1.8-19.8,5l-28.2-39.6c-0.2-0.2-0.4-0.4-0.5-0.6l5.6-22.6c0.4,0,0.8,0.1,1.1,0.1
			h10.4c8.6,0,15.7-7,15.7-15.7v-5.2c0-8.6-7-15.7-15.7-15.7H1418c-14.4,0-26.1,11.7-26.1,26.1c0,2.9,2.3,5.2,5.2,5.2h19.7
			c1.3,0.6,3.3,1.5,5.6,2.4l-5.9,23.7h-76.8v-48l16.9-4.2c2.8-0.7,4.5-3.5,3.8-6.3s-3.5-4.5-6.3-3.8l-20.9,5.2c-2.3,0.6-4,2.7-4,5.1
			v36.4h-140.8c-2.9,0-5.2,2.3-5.2,5.2v73.2c0,11.5,9.4,20.9,20.9,20.9h26.4c2.5,20.6,20.1,36.7,41.4,36.7s38.9-16,41.4-36.7h5.6
			c11.5,0,20.9-9.4,20.9-20.9v-21.5l43.1,30c-0.8,2.3-1.4,4.7-1.4,7.2c0,11.5,9.4,20.9,20.9,20.9c9.7,0,17.8-6.7,20.1-15.7h11.5
			c2.6,20.6,20.1,36.5,41.4,36.5c23,0,41.8-18.7,41.8-41.8C1517.3,171.6,1498.6,152.8,1475.5,152.8z M1418.1,79.5h-14.8
			c2.2-6.1,8-10.4,14.8-10.4h26.1c2.9,0,5.2,2.3,5.2,5.2v5.2c0,2.9-2.3,5.2-5.2,5.2h-10.4c-2.7,0-9.6-2.8-13.3-4.7
			C1419.7,79.7,1418.9,79.5,1418.1,79.5z M1475.5,189.4c2.9,0,5.2,2.3,5.2,5.2s-2.3,5.2-5.2,5.2s-5.2-2.3-5.2-5.2
			C1470.3,191.7,1472.6,189.4,1475.5,189.4z M1460.8,189.4h-16.2c1.1-6.5,4.2-12.4,8.7-16.9l9.4,13.1
			C1461.9,186.8,1461.3,188,1460.8,189.4z M1447.3,163.9c-7.1,6.5-11.9,15.4-13.2,25.5h-11.5c-1.5-5.6-5.2-10.3-10.2-13l11.3-45.5
			L1447.3,163.9z M1271.9,225.9c-17.3,0-31.3-14-31.3-31.3s14-31.3,31.3-31.3s31.3,14,31.3,31.3S1289.2,225.9,1271.9,225.9z
			 M1329.4,178.8c0,5.8-4.7,10.4-10.4,10.4h-5.6c-2.6-20.5-20.2-36.4-41.4-36.4c-21.2,0-38.7,15.9-41.4,36.4h-26.5
			c-5.8,0-10.4-4.7-10.4-10.4v-68h135.7V178.8z M1339.8,126.5h74.3l-11.8,47.3c-5.1,0-9.7,2-13.4,5.1l-49.1-34.2V126.5z M1402.4,205
			c-5.8,0-10.4-4.7-10.4-10.4s4.7-10.4,10.4-10.4c5.8,0,10.4,4.7,10.4,10.4S1408.2,205,1402.4,205z M1475.5,225.9
			c-15.5,0-28.4-11.3-30.9-26.1h16.2c2.2,6.1,7.9,10.4,14.7,10.4c8.6,0,15.7-7,15.7-15.7s-7-15.7-15.7-15.7c-1.5,0-2.9,0.3-4.3,0.7
			l-9.4-13.2c4.1-2,8.7-3.2,13.6-3.2c17.3,0,31.3,14,31.3,31.3S1492.8,225.9,1475.5,225.9z"/>
		<path class="st4" d="M1271.9,178.7c-8.6,0-15.7,7-15.7,15.7s7,15.7,15.7,15.7s15.7-7,15.7-15.7S1280.6,178.7,1271.9,178.7z
			 M1271.9,199.6c-2.9,0-5.2-2.3-5.2-5.2s2.3-5.2,5.2-5.2c2.9,0,5.2,2.3,5.2,5.2C1277.2,197.2,1274.8,199.6,1271.9,199.6z"/>
	</g>
</g>
<g>
	<path class="st5" d="M1191.7,550.9L1191.7,550.9c-1.2-1.8-3.9-0.1-2.8,1.7l7.7,12.3h-4.6l-7-11.5c-1.1-1.8-3.9-0.1-2.8,1.7l0.8,1.2
		h-32.6l0.8-1.2c1.1-1.9-1.7-3.6-2.8-1.7c-1.1,1.9-6,9.8-7,11.5h-4.6l7.7-12.3c1.1-1.9-1.6-3.6-2.8-1.7l-9.3,14.9
		c-0.7,1,0.1,2.6,1.4,2.5h8.5c1.4,0.1,2-1.9,2.7-2.9h43.5c0.7,1,1.3,3,2.7,2.9h8.5c1.3,0,2.1-1.5,1.4-2.5L1191.7,550.9z"/>
	<path class="st5" d="M1199.9,509.1l-5.2-29.1c-0.8-4.4-4.6-7.5-9-7.5h-38.2c-4.4,0-8.2,3.2-9,7.5l-5.2,29.1
		c-0.9,6.2-3.5,15.2-2.2,21.9l0,0v0.1c0.1,0.7,0.3,1.3,0.5,1.9c0.1,0.2,0.2,0.4,0.3,0.6c0.6,1.6,1.3,3.6,2.2,5.2
		c0,0.1,0.1,0.2,0.2,0.3s0.1,0.2,0.2,0.3c0.4,0.6,0.7,1.2,1.1,1.7l0,0c4.8,6.6,12.6,10.6,20.8,10.6h20.1c13.9,0,25.3-10.9,25.8-24.8
		C1202.8,523.3,1200.4,512.9,1199.9,509.1z"/>
</g>
<g>
	<path class="st4" d="M1191.8,550.9c-1.2-1.8-3.9-0.1-2.8,1.7l7.7,12.3h-4.6l-7-11.5c-1.1-1.8-3.9-0.1-2.8,1.7l0.8,1.2h-32.6
		l0.8-1.2c1.1-1.9-1.7-3.6-2.8-1.7c-1.1,1.9-6,9.8-7,11.5h-4.6l7.7-12.3c1.1-1.9-1.6-3.6-2.8-1.7l-9.3,14.9c-0.7,1,0.1,2.6,1.4,2.5
		h8.5c1.4,0.1,2-1.9,2.7-2.9h43.5c0.7,1,1.3,3,2.7,2.9h8.5c1.3,0,2.1-1.5,1.4-2.5L1191.8,550.9L1191.8,550.9z M1147,562.1l1.4-2.4
		h36.6l1.4,2.4H1147z"/>
	<path class="st4" d="M1133.8,534.2c0.9-0.2,1.4-1.2,1.1-2c-0.5-1.7-0.8-3.5-0.8-5.3c-0.3-3.1,1.3-9.4,1.7-12.5
		c1.7,2.3,4.4,5,8.8,6.4c0.8,0.3,1.8-0.2,2.1-1c0.3-0.9-0.2-1.8-1-2.1c-6.1-2.1-8.4-7.1-8.9-8.5l5.1-28.6c0.5-2.8,2.9-4.8,5.7-4.8
		h38.2c2.8,0,5.2,2,5.7,4.8l5.1,28.6c-0.5,1.4-2.8,6.4-8.9,8.5c-1.8,0.6-1.3,3.3,0.5,3.2c4.4-1,7.6-4.2,9.3-6.5l1.4,7.9
		c2.5,13.6-8.4,26.5-22.2,26.3h-20.1c-7.9,0-15.3-4.2-19.3-11c-0.5-0.8-1.5-1-2.3-0.6c-0.8,0.5-1,1.5-0.6,2.3
		c4.6,7.8,13.1,12.6,22.2,12.6h20.1c13.9,0,25.3-10.9,25.8-24.8c0.3-3.7-2.1-14.1-2.6-17.9l-5.2-29.1c-0.8-4.4-4.6-7.5-9-7.5h-38.2
		c-4.4,0-8.2,3.2-9,7.5l-5.2,29.1c-1,6.9-4.1,17.2-1.6,23.9C1132,533.9,1132.9,534.4,1133.8,534.2L1133.8,534.2z"/>
	<path class="st4" d="M1186.2,503.8c-1.2,0.5-3.1,0.9-2.5,2.7c0.3,0.9,1.2,1.3,2.1,1c3.3-0.8,6-3.6,5.5-7.2l-1.5-11.1
		c-0.3-2.5-2.5-4.4-5-4.4h-36c-2.5,0-4.7,1.9-5,4.4l-1.5,11.1c-0.4,2.8,1.2,5.5,3.7,6.5c3.7,1.5,11.4,4.1,20.7,4.1
		c4.3,0,8.7-0.5,13.1-1.6c0.9-0.2,1.4-1.1,1.2-2s-1.1-1.4-2-1.2c-3.5,0.9-7.1,1.4-10.6,1.5v-19.5h16.3c0.9,0,1.6,0.6,1.7,1.5
		l1.5,11.1C1188.1,502.1,1187.4,503.3,1186.2,503.8L1186.2,503.8z M1165.1,507.6c-8-0.3-14.5-2.5-17.8-3.8c-1.2-0.5-1.9-1.7-1.7-3
		l1.5-11.1c0.1-0.9,0.8-1.5,1.7-1.5h16.3V507.6L1165.1,507.6z"/>
	<path class="st4" d="M1143.5,531.7c0.1,7,10,8.4,11.9,1.7h22.6c1.9,6.7,11.8,5.4,11.9-1.7c-0.1-7-10-8.4-11.9-1.7h-22.6
		C1153.5,523.4,1143.6,524.7,1143.5,531.7z M1183.8,528.9c3.7,0.1,3.7,5.5,0,5.6C1180.2,534.5,1180.2,529,1183.8,528.9z
		 M1149.6,528.9c3.7,0.1,3.7,5.5,0,5.6C1145.9,534.5,1145.9,529,1149.6,528.9z"/>
</g>
<path class="st5" d="M133.9,641.3c13.8,0.4,13.8,20.5,0,20.9C120.1,661.8,120.1,641.7,133.9,641.3z"/>
<path class="st5" d="M259.8,653.1c8.2,0.2,8.3,12.3,0,12.5C251.6,665.4,251.6,653.3,259.8,653.1z"/>
<rect x="237.7" y="610.2" class="st20" width="49" height="5.2"/>
<rect x="237.7" y="601" class="st20" width="49" height="5.2"/>
<rect x="239.5" y="536.5" class="st20" width="32" height="8"/>
<polygon class="st20" points="301.2,773.9 322.1,806.3 79.4,806.3 100.3,773.9 "/>
<polygon class="st20" points="818.9,368.1 839.8,400.5 597.1,400.5 618,368.1 "/>
<path class="st0" d="M191.2,788.3c0.2,0.1,0.3,0.3,0.5,0.4c0.2,0.2,0.4,0.3,0.7,0.5c0.2,0.1,0.4,0.3,0.7,0.4
	c0.2,0.1,0.4,0.2,0.6,0.4c0.2,0.1,0.5,0.2,0.7,0.3s0.4,0.2,0.6,0.3s0.5,0.2,0.7,0.3s0.5,0.2,0.7,0.2c0.2,0.1,0.5,0.1,0.7,0.2
	c0.2,0.1,0.5,0.1,0.7,0.2c0.3,0.1,0.5,0.1,0.8,0.1c0.2,0,0.4,0.1,0.6,0.1c1,0.1,2,0.1,3,0c0.2,0,0.4-0.1,0.6-0.1
	c0.3,0,0.5-0.1,0.8-0.1c0.2,0,0.5-0.1,0.7-0.2c0.2-0.1,0.5-0.1,0.7-0.2c0.2-0.1,0.5-0.2,0.7-0.2c0.2-0.1,0.5-0.2,0.7-0.3
	s0.4-0.2,0.6-0.3s0.5-0.2,0.7-0.3s0.4-0.2,0.6-0.4c0.2-0.1,0.4-0.3,0.7-0.4c0.2-0.2,0.4-0.3,0.7-0.5c0.2-0.1,0.4-0.3,0.5-0.4
	c0.4-0.3,0.8-0.6,1.1-1l39-39c5.9-5.9,5.9-15.4,0-21.2c-5.9-5.9-15.4-5.9-21.2,0l-13.4,13.4v-41.9c0-8.3-6.7-15-15-15s-15,6.7-15,15
	v41.9l-13.3-13.4c-5.9-5.9-15.4-5.9-21.2,0c-2.9,2.9-4.4,6.8-4.4,10.6s1.5,7.7,4.4,10.6l39,39C190.5,787.7,190.8,788,191.2,788.3z"
	/>
<path class="st20" d="M1329.4,178.8c0,5.8-4.7,10.4-10.4,10.4h-5.6c-2.6-20.5-20.2-36.4-41.4-36.4c-21.2,0-38.7,15.9-41.4,36.4
	h-26.5c-5.8,0-10.4-4.7-10.4-10.4v-68h135.7V178.8z"/>
<path class="st0" d="M727.7,290.6c-0.2-0.1-0.3-0.3-0.5-0.4c-0.2-0.2-0.4-0.3-0.7-0.5c-0.2-0.1-0.4-0.3-0.7-0.4
	c-0.2-0.1-0.4-0.2-0.6-0.4c-0.2-0.1-0.5-0.2-0.7-0.3c-0.2-0.1-0.4-0.2-0.6-0.3c-0.2-0.1-0.5-0.2-0.7-0.3c-0.2-0.1-0.5-0.2-0.7-0.2
	c-0.2-0.1-0.5-0.1-0.7-0.2s-0.5-0.1-0.7-0.2c-0.3-0.1-0.5-0.1-0.8-0.1c-0.2,0-0.4-0.1-0.6-0.1c-1-0.1-2-0.1-3,0
	c-0.2,0-0.4,0.1-0.6,0.1c-0.3,0-0.5,0.1-0.8,0.1c-0.2,0-0.5,0.1-0.7,0.2s-0.5,0.1-0.7,0.2s-0.5,0.2-0.7,0.2
	c-0.2,0.1-0.5,0.2-0.7,0.3c-0.2,0.1-0.4,0.2-0.6,0.3c-0.2,0.1-0.5,0.2-0.7,0.3c-0.2,0.1-0.4,0.2-0.6,0.4c-0.2,0.1-0.4,0.3-0.7,0.4
	c-0.2,0.2-0.4,0.3-0.7,0.5c-0.2,0.1-0.4,0.3-0.5,0.4c-0.4,0.3-0.8,0.6-1.1,1l-39,39c-5.9,5.9-5.9,15.4,0,21.2
	c5.9,5.9,15.4,5.9,21.2,0l13.4-13.4v41.9c0,8.3,6.7,15,15,15s15-6.7,15-15v-41.9l13.4,13.4c5.9,5.9,15.4,5.9,21.2,0
	c2.9-2.9,4.4-6.8,4.4-10.6s-1.5-7.7-4.4-10.6l-39-39C728.5,291.3,728.1,290.9,727.7,290.6z"/>
<g>
	<g>
		<path class="st3" d="M591.4,267.8c0.4,0.7,1.1,1.1,1.8,1.1H636c10.1,17.2,36,17.2,46.1,0H758c13.1,17.2,40.7,17.2,53.9,0h15
			c5.2,0,9.5-4.3,9.5-9.5V120.8h6.7c1.2,0,2.1-1,2.1-2.1v-11.2c0-1.2-1-2.1-2.1-2.1l0,0h-94.5c-1.2,0-2.1,1-2.1,2.1v11.2
			c0,1.2,1,2.1,2.1,2.1h6.7v54.9h-76.9v-31.3h3.1c1.2,0,2.1-1,2.1-2.1v-12.2c0-1.2-1-2.1-2.1-2.1h-36.2c-1.2,0-2.1,1-2.1,2.1v12.2
			c0,1.2,1,2.1,2.1,2.1h3.1v31.3h-31c-4.9,0-8.9,4-8.9,8.9v5.9h-2.7c-3.6,0-6.6,3-6.6,6.6v18.6c0,3.6,3,6.6,6.6,6.6h2.7
			c0.2,3.4-0.8,10.1,1.5,12.9c-0.5,0.2-0.9,0.4-1.2,0.9l-17.3,29.7C591.1,266.5,591.1,267.3,591.4,267.8z"/>
		<path class="st5" d="M822.7,168.7h-53.5v-38.6h53.5V168.7z"/>
	</g>
	<g>
		<path class="st4" d="M824.7,125.5H767c-1.2,0-2.1,1-2.1,2.1v42.8c0,1.2,1,2.1,2.1,2.1h57.7c1.2,0,2.1-1,2.1-2.1v-42.8
			C826.8,126.5,825.9,125.6,824.7,125.5z M822.6,168.4h-53.5v-38.7h53.5V168.4z"/>
		<path class="st4" d="M843.1,105.1l-94.6-0.1c-1.2,0-2.1,1-2.1,2.1v11.2c0,1.2,1,2.1,2.1,2.1h6.7v55h-76.9v-31.3h3.1
			c1.2,0,2.1-1,2.1-2.1v-12.2c0-1.2-1-2.1-2.1-2.1h-36.2c-1.2,0-2.1,1-2.1,2.1V142c0,1.2,1,2.1,2.1,2.1h3.1v31.3h-31
			c-4.9,0-8.9,4-8.9,8.9v5.9h-2.7c-3.6,0-6.6,3-6.6,6.6v18.6c0,3.6,3,6.6,6.6,6.6h2.7c0.2,3.4-0.8,10.1,1.5,12.9
			c-0.5,0.2-0.9,0.4-1.2,0.9l-17.3,29.7c-0.4,0.7-0.4,1.5,0,2.1c0.4,0.7,1.1,1.1,1.8,1.1H636c10.1,17.2,36,17.2,46.1,0H758
			c13.1,17.2,40.7,17.2,53.9,0h15c5.2,0,9.5-4.3,9.5-9.5V120.5h6.7c1.2,0,2.1-1,2.1-2.1v-11.2C845.2,106,844.2,105.1,843.1,105.1
			L843.1,105.1z M785,212.5c-10.2,0-19.2,4.4-25.6,11.4V120.4h72.9v114.3h-15.1C812.2,221.8,799.7,212.5,785,212.5L785,212.5z
			 M652.5,144h21.7v31.3h-21.7V144z M617.4,179.4h32.9c0.1,0,25.9,0,26,0h78.9v50.1c-0.9,1.7-1.8,3.4-2.5,5.2h-75.6
			c-9.4-9.2-26.7-9.2-36.1,0h-23.6c-2.7,0-4.8-2.2-4.8-4.8v-10c0-0.1,0-27.6,0-27.7v-8C612.6,181.5,614.8,179.4,617.4,179.4
			L617.4,179.4z M605.7,217.7c-1.3,0-2.4-1.1-2.4-2.4v-18.6c0-1.3,1.1-2.4,2.4-2.4h2.7v23.5L605.7,217.7z M596.9,264.4l14.9-25.5
			h25.5c-5.2,6.8-6.7,17.3-3.3,25.5H596.9z M659.1,277.4c-12.6,0-22.8-10.2-22.8-22.8c1.3-30.2,44.4-30.2,45.6,0
			C681.9,267.2,671.7,277.4,659.1,277.4L659.1,277.4z M684.1,264.4c3.4-8.1,1.9-18.6-3.3-25.5h70.6c-2.2,8.4-0.6,18.2,3.7,25.5
			H684.1z M785,277.4c-16.8,0-30.4-13.6-30.4-30.4c1.7-40.3,59.1-40.3,60.8,0C815.4,263.8,801.7,277.4,785,277.4L785,277.4z
			 M832.3,259c0,3-2.5,5.4-5.4,5.4h-12.1c4.4-7.2,6-17,3.7-25.5h13.8V259z M841,116.2h-90.4v-7H841V116.2z"/>
		<path class="st4" d="M659.1,244.2c-13.8,0.5-13.8,20.5,0,20.9C672.9,264.6,672.9,244.7,659.1,244.2z"/>
		<path class="st4" d="M784.9,232.5c-8,0-14.6,6.5-14.6,14.6c0.7,19.3,28.6,19.3,29.3,0C799.6,239,793,232.4,784.9,232.5z"/>
		<path class="st4" d="M630.1,214.9l53.2-0.1c1.2,0,2.1-1,2.1-2.1v-18.6c0-1.2-1-2.1-2.1-2.1h-53.2c-1.2,0-2.1,1-2.1,2.1v18.7
			C628,214,629,214.9,630.1,214.9L630.1,214.9z M681.2,196.3v5.2h-49v-5.2H681.2z"/>
		<path class="st4" d="M729.6,249.6h-11h-11.7c-2.7,0-2.7,4.2,0,4.2h22.7C732.3,253.7,732.3,249.6,729.6,249.6L729.6,249.6z"/>
		<path class="st4" d="M824.7,180.7h-9.1c-1.2,0-2.1,1-2.1,2.1v12.9c0,1.2,1,2.1,2.1,2.1h9.1c1.2,0,2.1-1,2.1-2.1v-12.9
			C826.8,181.7,825.9,180.8,824.7,180.7z M822.6,193.6h-4.9v-8.7h4.9V193.6z"/>
	</g>
	<path class="st5" d="M785,257.5c-13.8-0.4-13.8-20.5,0-20.9C798.8,237,798.8,257.1,785,257.5z"/>
	<path class="st5" d="M659.1,260.9c-8.3-0.2-8.2-12.3,0-12.5C667.3,248.6,667.3,260.7,659.1,260.9z"/>
	<rect x="632.2" y="205.5" class="st20" width="49" height="5.2"/>
	<rect x="632.2" y="196.3" class="st20" width="49" height="5.2"/>
	<rect x="647.4" y="131.8" class="st20" width="32" height="8"/>
</g>
</svg>
